<svg width="246" height="331" fill="none" xmlns="http://www.w3.org/2000/svg"><path d="M91.873 134.475l32.244.442c8.833-.295 16.637-2.135 23.409-5.52 6.92-3.386 12.441-8.244 16.564-14.573 4.27-6.477 6.92-14.132 7.95-22.964.884-6.624.221-12.513-1.987-17.665-2.061-5.152-5.448-9.2-10.159-12.144-4.564-3.091-10.233-4.71-17.005-4.858-6.479-.147-12.442 1.03-17.889 3.533-5.448 2.503-10.085 6.036-13.914 10.599-3.68 4.563-6.183 9.936-7.508 16.119l-73.101.441c1.03-19.43 7.214-35.697 18.551-48.798 11.484-13.1 25.692-22.89 42.624-29.367 16.932-6.624 34.305-9.862 52.12-9.715 18.551.294 35.777 3.753 51.678 10.378 15.901 6.477 28.563 16.413 37.986 29.808 9.423 13.249 13.546 30.03 12.368 50.344-.736 13.69-4.491 25.687-11.264 35.991-6.772 10.304-15.533 18.842-26.28 25.614-10.601 6.771-22.159 11.923-34.674 15.456-12.367 3.386-24.661 5.078-36.881 5.078l-51.016-.22 6.184-37.979zm-8.834 55.422l5.963-37.095 43.507.221c12.514.294 24.587 2.061 36.219 5.299 11.631 3.239 22.011 8.096 31.139 14.573 9.276 6.477 16.417 14.794 21.423 24.951 5.005 10.157 7.214 22.302 6.625 36.433-.883 16.487-5.153 30.913-12.809 43.278-7.656 12.218-17.594 22.301-29.815 30.25-12.073 7.949-25.471 13.837-40.194 17.665-14.576 3.827-29.299 5.667-44.17 5.52-14.281-.295-27.532-2.576-39.752-6.845-12.22-4.416-22.968-10.599-32.244-18.548-9.128-8.096-16.27-17.885-21.422-29.367C2.503 264.603 0 251.428 0 236.708h72.217c.148 6.919 1.62 13.101 4.417 18.548 2.798 5.446 6.773 9.789 11.926 13.027 5.153 3.091 11.263 4.711 18.33 4.858 8.098.147 15.681-1.399 22.748-4.637 7.067-3.386 12.956-8.096 17.668-14.132 4.711-6.182 7.656-13.395 8.833-21.638 1.178-8.685.663-16.119-1.545-22.302-2.062-6.33-5.816-11.187-11.264-14.573-5.447-3.533-12.588-5.446-21.422-5.741l-38.87-.221z" fill="#fff" fill-opacity=".1"/></svg>