<svg width="711" height="78" fill="none" xmlns="http://www.w3.org/2000/svg"><path d="M6.5 77.5l5.774-10H.726l5.774 10zM6.5 6V5h-1v1h1zM711 6L701 .226v11.547L711 6zM7.5 71.542v-3.973h-2v3.973h2zm0-7.945v-3.972h-2v3.972h2zm0-7.944V51.68h-2v3.972h2zm0-7.945v-3.972h-2v3.972h2zm0-7.944v-3.972h-2v3.972h2zm0-7.945v-3.972h-2v3.973h2zm0-7.944v-3.972h-2v3.972h2zm0-7.944v-3.973h-2v3.973h2zm0-7.945V6h-2v1.986h2zM6.5 7h2.001V5H6.5v2zm6.004 0h4.003V5h-4.003v2zm8.006 0h4.003V5H20.51v2zm8.006 0h4.003V5h-4.003v2zm8.005 0h4.003V5h-4.003v2zm8.006 0h4.003V5h-4.003v2zm8.006 0h4.002V5h-4.002v2zm8.005 0h4.003V5h-4.003v2zm8.006 0h4.003V5h-4.003v2zm8.006 0h4.003V5H76.55v2zm8.005 0h4.003V5h-4.003v2zm8.006 0h4.003V5H92.56v2zm8.006 0h4.003V5h-4.003v2zm8.005 0h4.003V5h-4.003v2zm8.006 0h4.003V5h-4.003v2zm8.006 0h4.003V5h-4.003v2zm8.005 0h4.003V5h-4.003v2zm8.006 0h4.003V5h-4.003v2zm8.006 0h4.003V5h-4.003v2zm8.005 0h4.003V5h-4.003v2zm8.006 0h4.003V5h-4.003v2zm8.006 0h4.003V5h-4.003v2zm8.006 0h4.002V5h-4.002v2zm8.005 0h4.003V5h-4.003v2zm8.006 0h4.003V5h-4.003v2zm8.006 0h4.002V5h-4.002v2zm8.005 0h4.003V5h-4.003v2zm8.006 0h4.003V5h-4.003v2zm8.006 0h4.002V5h-4.002v2zm8.005 0h4.003V5h-4.003v2zm8.006 0h4.003V5h-4.003v2zm8.006 0h4.002V5h-4.002v2zm8.005 0h4.003V5h-4.003v2zm8.006 0h4.003V5h-4.003v2zm8.006 0h4.002V5h-4.002v2zm8.005 0h4.003V5h-4.003v2zm8.006 0h4.003V5h-4.003v2zm8.006 0h4.003V5h-4.003v2zm8.005 0h4.003V5h-4.003v2zm8.006 0h4.003V5h-4.003v2zm8.006 0h4.003V5h-4.003v2zm8.005 0h4.003V5h-4.003v2zm8.006 0h4.003V5h-4.003v2zm8.006 0h4.003V5h-4.003v2zm8.005 0h4.003V5h-4.003v2zm8.006 0h4.003V5h-4.003v2zm8.006 0h4.003V5h-4.003v2zm8.005 0h4.003V5h-4.003v2zm8.006 0h4.003V5h-4.003v2zm8.006 0h4.003V5h-4.003v2zm8.005 0h4.003V5h-4.003v2zm8.006 0h4.003V5h-4.003v2zm8.006 0h4.003V5h-4.003v2zm8.005 0h4.003V5h-4.003v2zm8.006 0h4.003V5h-4.003v2zm8.006 0h4.003V5h-4.003v2zm8.006 0h4.002V5h-4.002v2zm8.005 0h4.003V5h-4.003v2zm8.006 0h4.003V5h-4.003v2zm8.006 0h4.002V5h-4.002v2zm8.005 0h4.003V5h-4.003v2zm8.006 0h4.003V5h-4.003v2zm8.006 0h4.002V5h-4.002v2zm8.005 0h4.003V5h-4.003v2zm8.006 0h4.003V5h-4.003v2zm8.006 0h4.003V5h-4.003v2zm8.005 0h4.003V5h-4.003v2zm8.006 0h4.003V5h-4.003v2zm8.006 0h4.003V5h-4.003v2zm8.006 0h4.002V5h-4.002v2zm8.005 0h4.003V5h-4.003v2zm8.006 0h4.003V5h-4.003v2zm8.006 0h4.003V5h-4.003v2zm8.006 0h4.002V5h-4.002v2zm8.005 0h4.003V5h-4.003v2zm8.006 0h4.003V5h-4.003v2zm8.006 0h4.003V5h-4.003v2zm8.006 0h4.002V5h-4.002v2zm8.005 0h4.003V5h-4.003v2zm8.006 0h4.003V5h-4.003v2zm8.006 0h4.003V5h-4.003v2zm8.005 0h4.003V5h-4.003v2zm8.006 0h4.003V5h-4.003v2zm8.006 0h4.003V5h-4.003v2zm8.006 0h4.003V5h-4.003v2zm8.005 0h4.003V5h-4.003v2zm8.006 0h4.003V5h-4.003v2zm8.006 0h4.003V5h-4.003v2z" fill="#8BC3F4"/></svg>