<svg width="50" height="50" fill="none" xmlns="http://www.w3.org/2000/svg"><path d="M29.688 21.724c0-.78.631-1.412 1.41-1.412h17.49c.78 0 1.412.632 1.412 1.412V32.03c0 5.61-4.547 10.157-10.156 10.157-5.61 0-10.157-4.547-10.157-10.157V21.724z" fill="url(#paint0_linear_1_6183)"/><path d="M14.063 19.103c0-1.058.857-1.916 1.915-1.916h21.17c1.057 0 1.914.858 1.914 1.916v15.272c0 6.904-5.596 12.5-12.5 12.5-6.903 0-12.5-5.596-12.5-12.5V19.103z" fill="url(#paint1_linear_1_6183)"/><path d="M42.188 17.188a4.688 4.688 0 100-9.376 4.688 4.688 0 000 9.375z" fill="#34439E"/><path d="M42.188 17.188a4.688 4.688 0 100-9.376 4.688 4.688 0 000 9.375z" fill="url(#paint2_linear_1_6183)"/><path d="M28.125 15.625a6.25 6.25 0 100-12.5 6.25 6.25 0 000 12.5z" fill="url(#paint3_linear_1_6183)"/><mask id="mask0_1_6183" style="mask-type:alpha" maskUnits="userSpaceOnUse" x="14" y="0" width="26" height="47"><path d="M26.563 15.625a7.812 7.812 0 100-15.625 7.812 7.812 0 000 15.625z" fill="url(#paint4_linear_1_6183)"/><path d="M15.978 17.188a1.915 1.915 0 00-1.915 1.915v15.272c0 6.904 5.596 12.5 12.5 12.5 6.903 0 12.5-5.596 12.5-12.5V19.103a1.915 1.915 0 00-1.916-1.916h-21.17z" fill="url(#paint5_linear_1_6183)"/></mask><g mask="url(#mask0_1_6183)"><path d="M10.938 18.75a4.687 4.687 0 014.687-4.688h10.938a4.687 4.687 0 014.687 4.688V37.5a4.687 4.687 0 01-4.688 4.688H10.938V18.75z" fill="#000" fill-opacity=".3"/></g><path d="M25 10.938H3.125A3.125 3.125 0 000 14.062v21.876c0 1.725 1.4 3.124 3.125 3.124H25a3.125 3.125 0 003.125-3.124V14.061c0-1.725-1.4-3.124-3.125-3.124z" fill="url(#paint6_linear_1_6183)"/><path d="M20.313 17.188h-12.5v2.866h4.68v12.759h3.14v-12.76h4.68v-2.866z" fill="#fff"/><defs><linearGradient id="paint0_linear_1_6183" x1="29.688" y1="21.464" x2="50.249" y2="34.899" gradientUnits="userSpaceOnUse"><stop stop-color="#364088"/><stop offset="1" stop-color="#6E7EE1"/></linearGradient><linearGradient id="paint1_linear_1_6183" x1="14.063" y1="30.318" x2="39.063" y2="30.318" gradientUnits="userSpaceOnUse"><stop stop-color="#515FC4"/><stop offset="1" stop-color="#7084EA"/></linearGradient><linearGradient id="paint2_linear_1_6183" x1="37.5" y1="8.306" x2="46.557" y2="14.679" gradientUnits="userSpaceOnUse"><stop stop-color="#364088"/><stop offset="1" stop-color="#6E7EE1"/></linearGradient><linearGradient id="paint3_linear_1_6183" x1="23.661" y1="4.911" x2="31.696" y2="14.286" gradientUnits="userSpaceOnUse"><stop stop-color="#4858AE"/><stop offset="1" stop-color="#4E60CE"/></linearGradient><linearGradient id="paint4_linear_1_6183" x1="20.982" y1="2.232" x2="31.027" y2="13.951" gradientUnits="userSpaceOnUse"><stop stop-color="#4858AE"/><stop offset="1" stop-color="#4E60CE"/></linearGradient><linearGradient id="paint5_linear_1_6183" x1="20.982" y1="2.232" x2="31.027" y2="13.951" gradientUnits="userSpaceOnUse"><stop stop-color="#4858AE"/><stop offset="1" stop-color="#4E60CE"/></linearGradient><linearGradient id="paint6_linear_1_6183" x1="0" y1="25" x2="28.125" y2="25" gradientUnits="userSpaceOnUse"><stop stop-color="#2A3887"/><stop offset="1" stop-color="#4C56B9"/></linearGradient></defs></svg>