<svg width="50" height="50" fill="none" xmlns="http://www.w3.org/2000/svg"><g clip-path="url(#clip0_1_6179)"><path fill-rule="evenodd" clip-rule="evenodd" d="M48.562 30.308c.362-1.629.55-3.316.55-5.049 0-12.983-10.674-23.511-23.847-23.511-1.388 0-2.75.118-4.078.344A13.896 13.896 0 0013.832 0C6.192 0 0 6.103 0 13.638c0 2.516.694 4.869 1.9 6.897a23.375 23.375 0 00-.483 4.724c0 12.99 10.677 23.515 23.848 23.515 1.493 0 2.951-.136 4.368-.394A13.929 13.929 0 0036.171 50C43.81 50 50 43.894 50 36.365a13.41 13.41 0 00-1.438-6.057zm-11.065 6.19c-1.102 1.542-2.731 2.759-4.848 3.623-2.09.857-4.595 1.295-7.45 1.295-3.424 0-6.296-.594-8.54-1.768-1.601-.852-2.921-2.005-3.924-3.437-1.014-1.437-1.526-2.866-1.526-4.248 0-.858.336-1.606.994-2.218.653-.608 1.49-.912 2.49-.912.817 0 1.526.24 2.1.718.549.461 1.02 1.142 1.398 2.015.424.956.882 1.762 1.367 2.39.47.615 1.144 1.128 2.002 1.53.865.4 2.032.61 3.463.61 1.973 0 3.59-.418 4.804-1.235 1.19-.797 1.767-1.76 1.767-2.936 0-.925-.303-1.655-.92-2.229-.653-.597-1.508-1.06-2.546-1.385-1.085-.33-2.555-.693-4.375-1.07-2.478-.521-4.58-1.138-6.25-1.843-1.71-.715-3.09-1.71-4.098-2.953-1.023-1.266-1.543-2.851-1.543-4.715 0-1.773.544-3.376 1.62-4.755 1.064-1.371 2.622-2.444 4.63-3.17 1.979-.723 4.33-1.088 6.997-1.088 2.128 0 4 .244 5.565.725 1.573.48 2.895 1.13 3.936 1.933 1.05.811 1.832 1.672 2.32 2.57.494.907.746 1.809.746 2.681 0 .84-.329 1.606-.979 2.27-.652.672-1.478 1.01-2.448 1.01-.882 0-1.576-.214-2.052-.631-.447-.391-.912-1-1.426-1.87-.594-1.112-1.314-1.99-2.14-2.61-.803-.603-2.14-.905-3.984-.905-1.705 0-3.098.336-4.13 1.006-.994.64-1.479 1.38-1.479 2.255 0 .533.156.982.48 1.365.334.411.814.765 1.42 1.066.625.31 1.272.56 1.919.733.661.183 1.773.452 3.298.8 1.932.406 3.704.867 5.271 1.362 1.59.499 2.96 1.113 4.084 1.835 1.14.733 2.043 1.672 2.687 2.796.643 1.133.97 2.524.97 4.145 0 1.935-.565 3.7-1.67 5.245z" fill="#00AEF3"/></g><defs><clipPath id="clip0_1_6179"><path fill="#fff" d="M0 0h50v50H0z"/></clipPath></defs></svg>