<svg width="50" height="50" fill="none" xmlns="http://www.w3.org/2000/svg"><g clip-path="url(#clip0_1_6175)"><path fill-rule="evenodd" clip-rule="evenodd" d="M24.993 0C11.21 0 0 11.214 0 25a24.817 24.817 0 004.76 14.653l-3.115 9.288 9.61-3.07A24.802 24.802 0 0025.007 50C38.79 50 50 38.786 50 25S38.79 0 25.007 0h-.014zm-6.98 12.699c-.484-1.161-.852-1.205-1.586-1.235-.25-.015-.529-.03-.838-.03-.955 0-1.954.28-2.557.897-.734.75-2.556 2.499-2.556 6.085s2.615 7.055 2.968 7.54c.367.484 5.098 7.95 12.445 10.994 5.745 2.38 7.45 2.16 8.757 1.88 1.91-.41 4.305-1.822 4.908-3.527.602-1.705.602-3.16.425-3.469-.176-.308-.661-.484-1.395-.852-.735-.368-4.306-2.131-4.981-2.366-.662-.25-1.293-.162-1.793.544-.705.984-1.395 1.984-1.954 2.586-.44.47-1.161.53-1.763.28-.808-.338-3.07-1.133-5.863-3.616-2.16-1.925-3.629-4.32-4.055-5.04-.426-.735-.044-1.162.294-1.559.367-.456.72-.779 1.087-1.205.367-.426.573-.647.808-1.147.25-.485.074-.984-.103-1.352-.176-.367-1.645-3.954-2.248-5.408z" fill="#67C15E"/></g><defs><clipPath id="clip0_1_6175"><path fill="#fff" d="M0 0h50v50H0z"/></clipPath></defs></svg>