<svg width="60" height="42" fill="none" xmlns="http://www.w3.org/2000/svg"><path d="M22.838 10.047h-3.741a1.87 1.87 0 00-1.87 1.87V23.14h1.87v-4.676h3.74v4.676h1.87V11.917a1.87 1.87 0 00-1.87-1.87zm-3.741 6.546v-4.676h3.74v4.676h-3.74zm16.833-4.676h2.805v9.352H35.93v1.87h7.481v-1.87h-2.806v-9.352h2.806v-1.87H35.93v1.87zM28.448 23.14h-1.87V10.046h5.611a1.87 1.87 0 011.87 1.87v4.676a1.87 1.87 0 01-1.87 1.87h-3.74v4.676zm0-6.547h3.741v-4.676h-3.74v4.676z" fill="#75C422"/><path d="M7.338 41.344h45.324c4.04 0 7.338-3.29 7.338-7.338V32.4c0-.794-.648-1.45-1.45-1.45h-2.202V3.082c0-1.7-1.381-3.082-3.082-3.082H6.734a3.084 3.084 0 00-3.082 3.082V30.95H1.649C.734 30.95 0 31.692 0 32.599v1.407a7.343 7.343 0 007.338 7.338zM5.248 3.09c0-.812.666-1.477 1.477-1.477h46.533c.811 0 1.476.665 1.476 1.477v27.867H5.249V3.091zm14.79 29.464h19.925v.026c0 .89-.726 1.606-1.606 1.606H21.652c-.89 0-1.606-.725-1.606-1.606v-.026h-.009zm-18.432.052c0-.026.026-.052.052-.052h16.774v.026a3.216 3.216 0 003.211 3.212h16.705a3.216 3.216 0 003.212-3.212v-.026h16.826v1.45a5.74 5.74 0 01-5.733 5.733H7.33a5.74 5.74 0 01-5.733-5.732v-1.399h.009z" fill="#183558"/><path d="M52.014 25.873V6.794a2.738 2.738 0 00-2.736-2.736H10.714a2.738 2.738 0 00-2.737 2.736v19.08a2.738 2.738 0 002.737 2.736h38.572a2.736 2.736 0 002.728-2.737zm-42.431 0V6.794c0-.621.51-1.13 1.13-1.13h38.573c.622 0 1.131.509 1.131 1.13v19.08c0 .621-.51 1.13-1.13 1.13H10.713a1.13 1.13 0 01-1.131-1.13z" fill="#183558"/><path d="M20.037 32.555h19.926v.026c0 .89-.726 1.606-1.606 1.606H21.652c-.89 0-1.606-.725-1.606-1.606v-.026h-.009z" fill="#75C422"/><path d="M1.606 32.607c0-.026.026-.052.052-.052h16.774v.026a3.217 3.217 0 003.211 3.212h16.705a3.216 3.216 0 003.212-3.212v-.026h16.826v1.45a5.74 5.74 0 01-5.733 5.733H7.33a5.74 5.74 0 01-5.732-5.732v-1.399h.009z" fill="#fff"/></svg>