<svg width="60" height="60" fill="none" xmlns="http://www.w3.org/2000/svg"><path d="M4.32 60h35.752c2.38 0 4.32-1.94 4.32-4.32V4.32c0-2.38-1.94-4.32-4.32-4.32H4.32C1.94 0 0 1.94 0 4.32v51.36C0 58.06 1.94 60 4.32 60zM1.604 4.32c0-1.5 1.216-2.716 2.716-2.716h35.752c1.5 0 2.716 1.216 2.716 2.716v51.36c0 1.5-1.216 2.716-2.716 2.716H4.32a2.716 2.716 0 01-2.716-2.716V4.32zm54.602 51.688c-1.01.12-1.018 1.724 0 1.603 3.5-.422 3.647-3.233 3.647-5.993V14.35c0-2.837.44-6.58-3.371-7.114-1.01-.138-1.44 1.397-.423 1.543 2.846.397 2.2 3.708 2.2 5.804v34.415c0 1.992.827 6.666-2.053 7.01z" fill="#183558"/><path d="M10.132 8.977l7.83.026c1.026 0 1.035-1.596 0-1.604l-7.83-.026c-1.035 0-1.035 1.595 0 1.604zm-1.75-.319a.75.75 0 10-1.085-1.035.75.75 0 001.085 1.035zm1.75 4.673l12.547.026c1.026 0 1.035-1.595 0-1.604l-12.547-.026c-1.035 0-1.035 1.604 0 1.604zm-1.75-.319a.75.75 0 10-1.085-1.034.75.75 0 001.085 1.034zm1.75 4.657l12.547.026c1.026 0 1.035-1.596 0-1.604l-12.547-.026c-1.035 0-1.035 1.604 0 1.604zm-1.75-.319a.75.75 0 10-1.087-1.035.75.75 0 101.087 1.035zm40.951 38.658h-1.75c-1.026 0-1.035 1.603 0 1.603h2.035a.794.794 0 00.396-.103c3.062-.673 3.053-3.812 3.053-6.476V9.822c0-2.923.405-6.882-3.217-7.545a.847.847 0 00-.344-.07h-2.139c-1.026 0-1.035 1.604 0 1.604h1.966c2.854.26 2.139 4.622 2.139 6.597v37.89c0 2.018.88 7.442-2.139 7.71zm-15.893-6.83c5.537-5.019 6.735-13.09 3.398-19.678-.465-.923-1.845-.112-1.38.81 2.76 5.45 2.07 12.073-2.052 16.652-3.527 3.915-9.028 5.674-14.168 4.475a13.928 13.928 0 01-1.82-.56c1.932-4.433 3.864-8.865 5.804-13.306.009-.008.009-.026.009-.034a.79.79 0 00.095-.371V22.61c2.38.138 4.76.836 6.907 2.113.888.526 1.69-.854.81-1.38-5.708-3.372-12.952-3.173-18.29.862-4.716 3.57-7.148 9.512-6.286 15.358 1.854 12.616 17.557 18.16 26.974 9.615zM8.038 37.968h13.27c-1.784 4.087-3.56 8.175-5.345 12.262-4.726-2.406-7.589-7.226-7.925-12.262zm4.139-11.15c2.63-2.63 6.045-4.036 9.546-4.208v13.754H8.002c.138-3.415 1.458-6.83 4.174-9.546z" fill="#183558"/><path d="M33.742 27.603c1.285 0 1.285-2 0-2-1.293 0-1.293 2 0 2z" fill="#183558"/><path d="M8.037 37.968h13.27c-1.784 4.087-3.56 8.175-5.345 12.262-4.726-2.406-7.589-7.226-7.925-12.262z" fill="#75C422"/><path d="M12.176 26.818c2.63-2.63 6.045-4.036 9.546-4.208v13.754H8.002c.138-3.415 1.458-6.83 4.174-9.546z" fill="#fff"/></svg>