<svg width="60" height="60" fill="none" xmlns="http://www.w3.org/2000/svg"><path d="M47.154 52.312c-.527.545-.622 1.003-.268 1.375.147.156.312.234.493.234h.009c.268 0 .57-.165.9-.485l.103-.103c1.003-.986 2.006-1.98 3.01-2.975.535-.528.535-.89.008-1.436-1.323-1.383-2.655-2.758-3.986-4.142-1.263-1.306-2.474-1.53-4.065-.735l-.034.017-.035-.034c-.26-.26-.519-.536-.77-.796-.544-.58-1.063-1.124-1.651-1.6-1.289-1.054-2.672-1.703-4.169-1.971v-1.444c0-.268-.043-.52-.13-.761 1.298-.009 2.362-1.064 2.362-2.361v-1.453a2.364 2.364 0 00-2.361-2.36c.078-.243.13-.494.13-.762v-1.452a2.364 2.364 0 00-2.361-2.361H23.382a2.364 2.364 0 00-2.36 2.36v1.453a2.364 2.364 0 002.36 2.361 2.46 2.46 0 00-.13.761v1.453c0 .268.044.519.13.76a2.37 2.37 0 00-2.36 2.362v1.453c0 .285.051.553.147.804-.813.164-1.393.57-2.085 1.4l-.043.052-.155-.147c-.078-.077-.165-.147-.242-.224-.502-.493-1.004-.995-1.505-1.488-.977-.968-1.955-1.937-2.94-2.905-1.038-1.02-2.292-1.35-3.727-.969A3.047 3.047 0 008.3 38.251c-.346 1.081-.104 2.266.64 3.157 1.418 1.695 2.87 3.398 4.272 5.05l1.799 2.11.259.303c.216.25.432.518.657.77 1.116 1.27 2.465 1.936 4.013 1.97 1.608.044 3.242.053 4.834.061 1.435.009 2.914.018 4.375.052 1.367.026 2.759.104 4.1.173.587.035 1.175.06 1.772.087.052 0 .104.008.164.026.026.008.06.008.095.017l.052.008-.008.052c0 .026 0 .052-.01.078 0 .052-.008.104-.016.156-.312 1.202-.026 2.222.856 3.113.795.804 1.582 1.617 2.37 2.421.57.588 1.14 1.168 1.711 1.756.502.51.882.519 1.41.026l.328-.312c.338-.32.692-.648 1.03-.977.389-.38.432-.865.103-1.202a.742.742 0 00-.536-.233c-.225 0-.458.104-.674.302-.19.173-.38.355-.58.545l-.32.303-.043-.035c-.035-.034-.078-.069-.112-.103-.078-.07-.147-.13-.216-.208-1.107-1.133-2.206-2.266-3.313-3.399-.735-.752-.717-1.539.035-2.274 2.205-2.144 4.402-4.28 6.546-6.347.753-.727 1.54-.718 2.266.034l2.75 2.854.7.727c.052.06.104.12.139.164l.06.078-.795.821c-.614.649-1.237 1.306-1.86 1.937zM37.34 33.651v1.453a.762.762 0 01-.76.76H25.612a.762.762 0 01-.76-.76V33.65c0-.415.337-.761.76-.761h10.965c.424 0 .761.346.761.76zm-14.71-3.122v-1.453c0-.415.338-.76.762-.76h10.956c.415 0 .761.337.761.76v1.453a.762.762 0 01-.76.761H23.382a.76.76 0 01-.753-.76zm0 7.696c0-.415.338-.76.762-.76h10.965c.415 0 .761.337.761.76v1.306a11.5 11.5 0 00-2.741.355c-1.09.268-2.318.432-3.745.475-1.478.052-2.974.044-4.427.035-.363 0-.727 0-1.081-.009v-.008a.772.772 0 01-.484-.71v-1.444h-.01zm19.328 7.03a.19.19 0 00-.026.044l-.078.104-.77.744c-1.435 1.383-2.922 2.819-4.392 4.22-.113.112-.32.155-.493.155h-.07c-.38-.034-.769-.086-1.15-.13-.613-.077-1.253-.155-1.885-.173-1.6-.051-3.225-.06-4.799-.069-.45 0-.9-.008-1.358-.008-1.08-.009-2.17-.009-3.251-.018-1.012 0-2.024-.008-3.035-.017-1.591-.009-2.863-.64-3.892-1.928-1.003-1.246-2.058-2.474-3.078-3.667-.441-.519-.89-1.038-1.332-1.556a26.904 26.904 0 00-.64-.744c-.51-.597-1.038-1.21-1.548-1.825-.475-.57-.553-1.21-.225-1.85.303-.58.805-.865 1.531-.865h.026a2.294 2.294 0 011.669.7c.683.684 1.375 1.358 2.058 2.041.977.969 1.998 1.972 2.983 2.975.19.19.338.493.38.77.217 1.452 1.238 2.568 2.613 2.845.466.095.96.095 1.435.095h.277c1.6.008 3.26.008 4.92 0 .476 0 .787-.294.813-.744.017-.467-.277-.787-.778-.83-.104-.009-.208-.009-.312-.009h-5.474c-.916-.008-1.565-.432-1.824-1.202-.182-.545-.104-1.107.207-1.548.346-.484.917-.76 1.574-.76h.182c1.928-.01 3.926-.027 5.88 0a19.41 19.41 0 005.076-.615c4.021-1.046 7.178 1.289 8.795 3.823l.026.034-.035.009z" fill="#183558"/><path d="M44.967 54.673a.788.788 0 00-.571.25.8.8 0 00-.234.563c.009.432.39.787.84.787a.806.806 0 00.561-.234.809.809 0 00-.597-1.366zM22.388 3.825c-2.594 3.598-2.231 8.657.795 11.873 3.027 3.217 8.095 3.84 11.813 1.47 4.194-2.671 5.327-7.946 3.217-12.313-.45-.926-1.833-.113-1.384.812 1.764 3.65.7 8.138-2.87 10.256-3.088 1.834-7.187 1.306-9.643-1.349-2.378-2.585-2.758-6.529-.847-9.495 2.317-3.597 6.97-4.427 10.593-2.37.9.511 1.712-.872.813-1.383-4.22-2.404-9.59-1.522-12.487 2.5z" fill="#183558"/><path d="M36.933 3.428a.753.753 0 10-1.506 0 .753.753 0 001.506 0z" fill="#183558"/><path d="M29.98 6.636c.606 0 1.125.432 1.125.942a.79.79 0 00.787.787.79.79 0 00.786-.787c0-1.046-.7-1.988-1.746-2.36l-.147-.052-.01-.156a.786.786 0 00-.786-.735.786.786 0 00-.787.735l-.009.156-.147.052C28 5.58 27.3 6.532 27.3 7.578c0 1.393 1.21 2.517 2.698 2.517.605 0 1.124.432 1.124.942s-.51.943-1.124.943c-.606 0-1.125-.432-1.125-.943a.79.79 0 00-.786-.786.79.79 0 00-.787.787c0 1.046.709 1.997 1.755 2.36l.139.052.017.147a.79.79 0 00.778.683.79.79 0 00.778-.683l.018-.147.138-.052c1.046-.363 1.755-1.314 1.755-2.36 0-1.393-1.21-2.517-2.698-2.517-.605 0-1.124-.432-1.124-.943 0-.51.51-.942 1.124-.942z" fill="#fff"/><path d="M2.524 30.114c3.027 3.217 8.094 3.84 11.813 1.47 4.194-2.672 5.327-7.947 3.217-12.314-.45-.925-1.833-.113-1.384.813 1.764 3.65.7 8.137-2.87 10.256-3.088 1.833-7.187 1.306-9.643-1.35C1.28 26.405.9 22.462 2.81 19.496c2.317-3.598 6.97-4.428 10.593-2.37.9.51 1.712-.873.813-1.383-4.229-2.396-9.59-1.514-12.487 2.508-2.586 3.58-2.231 8.647.795 11.864z" fill="#183558"/><path d="M15.53 18.596a.752.752 0 100-1.505.752.752 0 000 1.505z" fill="#183558"/><path d="M9.321 21.051c.606 0 1.125.433 1.125.943a.79.79 0 00.787.787.79.79 0 00.786-.787c0-1.046-.7-1.989-1.746-2.36l-.147-.053-.009-.155a.786.786 0 00-.787-.735.786.786 0 00-.787.735l-.009.155-.147.052c-1.046.363-1.746 1.315-1.746 2.36 0 1.393 1.21 2.517 2.698 2.517.605 0 1.124.433 1.124.943s-.51.942-1.124.942c-.606 0-1.124-.432-1.124-.942a.79.79 0 00-.787-.787.79.79 0 00-.787.787c0 1.046.709 1.998 1.755 2.36l.138.053.018.147a.79.79 0 00.778.683.79.79 0 00.778-.683l.018-.147.138-.052c1.046-.363 1.755-1.315 1.755-2.361 0-1.392-1.21-2.517-2.698-2.517-.605 0-1.124-.432-1.124-.942s.51-.943 1.124-.943z" fill="#fff"/><path d="M58.88 19.261c-.45-.925-1.833-.112-1.383.813 1.764 3.65.7 8.137-2.871 10.256-3.087 1.833-7.186 1.306-9.642-1.349-2.378-2.586-2.759-6.529-.848-9.495 2.318-3.597 6.97-4.427 10.594-2.37.899.51 1.712-.873.813-1.383-4.22-2.395-9.59-1.513-12.487 2.508-2.595 3.597-2.232 8.656.795 11.873 3.027 3.217 8.094 3.84 11.813 1.47 4.194-2.68 5.335-7.956 3.216-12.323z" fill="#183558"/><path d="M56.857 18.596a.752.752 0 100-1.505.752.752 0 000 1.505z" fill="#183558"/><path d="M50.648 21.051c.605 0 1.124.433 1.124.943a.79.79 0 00.787.787.79.79 0 00.787-.787c0-1.046-.7-1.989-1.747-2.36l-.147-.053-.008-.155a.786.786 0 00-.787-.735.786.786 0 00-.787.735l-.009.155-.147.052c-1.046.363-1.747 1.315-1.747 2.36 0 1.393 1.21 2.517 2.698 2.517.606 0 1.124.433 1.124.943s-.51.942-1.124.942c-.605 0-1.124-.432-1.124-.942a.79.79 0 00-.787-.787.79.79 0 00-.787.787c0 1.046.71 1.998 1.756 2.36l.138.053.017.147a.79.79 0 00.779.683.79.79 0 00.778-.683l.017-.147.139-.052c1.046-.363 1.755-1.315 1.755-2.361 0-1.392-1.21-2.517-2.698-2.517-.605 0-1.124-.432-1.124-.942s.519-.943 1.124-.943zM37.34 33.65v1.454a.762.762 0 01-.762.76H25.613a.762.762 0 01-.76-.76V33.65c0-.415.337-.761.76-.761h10.965c.424 0 .761.346.761.76z" fill="#fff"/><path d="M22.63 30.53v-1.454c0-.415.337-.76.761-.76h10.956c.415 0 .761.337.761.76v1.453a.762.762 0 01-.76.761H23.382a.76.76 0 01-.753-.76zm0 7.695c0-.415.337-.76.761-.76h10.965c.415 0 .761.337.761.76v1.306a11.5 11.5 0 00-2.741.355c-1.09.268-2.318.432-3.745.475-1.478.052-2.974.044-4.427.035-.363 0-.727 0-1.081-.009v-.008a.772.772 0 01-.484-.71v-1.444h-.01z" fill="#75C422"/></svg>