<svg width="61" height="60" fill="none" xmlns="http://www.w3.org/2000/svg"><path d="M17.304 1.598l41.137.008v3.075l-.009.009h-.259l-40.87-.009V1.598z" fill="#75C422"/><path d="M21.07 39.177a1348.46 1348.46 0 01-1.486 5.277c-.302 1.08-.587 1.977-.613 3.1-.026 1.071.138 2.436-.432 3.403-.372.63-.993.855-1.667.924h-1.848c-1.028 0-1.037 1.607 0 1.607h2.901c.476 0 .899.354.968.829a.832.832 0 01.009.147v2.98c0 .544-.44.984-.985.984H5.411a.984.984 0 01-.985-.984v-2.98c0-.544.44-.985.985-.985h1.537c.596.017 1.2 0 1.78 0 1.027 0 1.036-1.606 0-1.606-.121 0-.242 0-.372.008v-.008H6.344c-.579-.078-1.097-.268-1.425-.691-.674-.873-.536-2.35-.553-3.369-.009-1.191-.242-2.047-.57-3.204l-1.529-5.441c-.414-1.486-.933-2.582-.371-4.102.786-2.142 2.444-2.98 4.344-3.283 1.572 3.188 3.153 6.366 4.724 9.553.26.527 1.123.527 1.382 0 1.564-3.17 3.136-6.331 4.699-9.5 2.202.345 4.05 1.373 4.638 4.231.103 1.071-.328 2.073-.613 3.11z" fill="#fff"/><path d="M58.432 0H17.304c-.89 0-1.615.725-1.615 1.615V4.69c0 .665.406 1.244.993 1.485v8.594c0 1.028 1.607 1.036 1.607 0V6.305h39.167v24.39c0 1.114.303 2.669-1.174 2.954-.95.181-2.116 0-3.075 0H25.984c-1.028 0-1.037 1.606 0 1.606h11.09v3.99a2.662 2.662 0 00-1.866 2.54 2.67 2.67 0 002.669 2.669 2.67 2.67 0 002.668-2.669 2.662 2.662 0 00-1.865-2.54v-3.99h6.434c3.671 0 7.515.329 11.177 0 3.446-.31 2.772-4.093 2.772-6.546V6.193a1.62 1.62 0 00.993-1.486V1.615A1.631 1.631 0 0058.432 0zM37.868 42.839a1.062 1.062 0 11-.001-2.123 1.062 1.062 0 01.001 2.123zM17.304 1.598l41.137.008v3.075l-.009.009h-.259l-40.87-.009V1.598z" fill="#183558"/><path d="M26.822 24.295c-.769 0-1.4.63-1.4 1.4v5.311c0 .769.631 1.4 1.4 1.4h3.817c.769 0 1.4-.631 1.4-1.4v-5.311c0-.77-.631-1.4-1.4-1.4h-3.817zm3.627 6.504h-3.42v-4.906h3.42V30.8zM43.81 20.556v10.441c0 .778.63 1.408 1.408 1.408h3.809c.777 0 1.408-.63 1.408-1.408V20.556c0-.778-.63-1.408-1.408-1.408h-3.809c-.777 0-1.408.63-1.408 1.408zm1.607.198h3.42v10.053h-3.42V20.755zm-4.189 3.533v-.89c0-.06-.009-.12-.026-.173a1.837 1.837 0 00-1.814-1.615h-3.152c-.898 0-1.633.734-1.633 1.633v7.514c0 .898.734 1.632 1.633 1.632h3.35c.9 0 1.633-.734 1.633-1.632v-2.92c0-1.027-1.606-1.036-1.606 0v2.92a.037.037 0 01-.035.034h-3.35c-.018 0-.035-.017-.035-.034v-7.514c0-.018.017-.035.034-.035h3.153c.13 0 .233.104.233.233v.838c0 .423.371.82.803.803.45-.008.812-.345.812-.794z" fill="#183558"/><path d="M39.88 25.988c0 .303.242.553.553.553a.551.551 0 00.553-.553.551.551 0 00-.553-.552.557.557 0 00-.553.552zM28.704 17.04c0-.172-.017-.336-.051-.5l3.8-2.419a2.3 2.3 0 001.416.484 2.34 2.34 0 001.443-.501l3.99 2.47a2.333 2.333 0 002.297 2.738 2.333 2.333 0 002.15-3.239l3.516-3.334c.751-.708-.389-1.84-1.131-1.131a1294.463 1294.463 0 01-3.481 3.29 2.29 2.29 0 00-1.054-.259 2.33 2.33 0 00-1.494.545l-3.947-2.445a2.16 2.16 0 00.052-.475 2.333 2.333 0 10-4.612.5l-3.8 2.42a2.3 2.3 0 00-1.417-.484 2.333 2.333 0 00-2.332 2.332 2.333 2.333 0 002.332 2.332 2.318 2.318 0 002.323-2.323zm12.878-.811a.734.734 0 11.001 1.467.734.734 0 01-.001-1.467zm-7.73-4.699a.734.734 0 11.001 1.467.734.734 0 01-.001-1.467zm-8.214 5.51a.734.734 0 11.734.735.745.745 0 01-.734-.734zm23.354-6.313a.557.557 0 00-.552-.553.557.557 0 00-.553.553c0 .302.25.553.553.553a.55.55 0 00.552-.553z" fill="#183558"/><path d="M51.471 12.048c.121-1.295.233-2.582.354-3.878.035-.423-.397-.811-.803-.803-1.261.035-2.522.078-3.783.112-1.028.035-1.036 1.633 0 1.607.967-.026 1.935-.06 2.91-.086-.094 1.019-.18 2.03-.276 3.048-.103 1.028 1.503 1.02 1.598 0zM23.29 35.886c0-.043 0-.086-.01-.138-.665-3.472-3.204-5.14-6.287-5.554a.794.794 0 00-.605-.095c1.9-1.433 3.144-3.705 3.144-6.27 0-4.327-3.524-7.85-7.85-7.85-4.328 0-7.852 3.523-7.852 7.85a7.84 7.84 0 003.11 6.244h-.078a.655.655 0 00-.225.01c-3.558.18-7.298 3.35-6.538 7.22.605 3.083 1.9 6.037 2.557 9.111.363 1.71-.138 3.62.717 5.252.146.276.32.509.5.708a2.572 2.572 0 00-1.036 2.064v2.98A2.584 2.584 0 005.42 60h12.514a2.584 2.584 0 002.583-2.582v-2.98a2.592 2.592 0 00-1.054-2.064 3.08 3.08 0 00.605-.907c.794-1.745.25-3.697.751-5.485.553-1.96 1.097-3.92 1.65-5.873.38-1.356.993-2.738.837-4.154a.134.134 0 01-.017-.069zm-11.617 3.247c-1.235-2.496-2.47-5-3.714-7.496 1.252-.035 2.53.043 3.68.052h.215c1.123 0 2.323-.052 3.49-.01a1975.312 1975.312 0 01-3.671 7.454zM5.42 23.838a6.262 6.262 0 016.253-6.253 6.263 6.263 0 016.253 6.253c0 3.256-2.505 5.933-5.692 6.218-.423-.009-.855-.009-1.278-.017a6.246 6.246 0 01-5.536-6.201zm15.65 15.339a1348.46 1348.46 0 01-1.486 5.277c-.302 1.08-.587 1.977-.613 3.1-.026 1.071.138 2.436-.432 3.403-.372.63-.993.855-1.667.924h-1.848c-1.028 0-1.037 1.607 0 1.607h2.901c.476 0 .899.354.968.829a.832.832 0 01.009.147v2.98c0 .544-.44.984-.985.984H5.411a.984.984 0 01-.985-.984v-2.98c0-.544.44-.985.985-.985h1.537c.596.017 1.2 0 1.78 0 1.027 0 1.036-1.606 0-1.606-.121 0-.242 0-.372.008v-.008H6.344c-.579-.078-1.097-.268-1.425-.691-.674-.873-.536-2.35-.553-3.369-.009-1.192-.242-2.047-.57-3.204l-1.529-5.441c-.414-1.486-.933-2.582-.371-4.102.786-2.142 2.444-2.98 4.344-3.283 1.572 3.188 3.153 6.366 4.724 9.553.26.527 1.123.527 1.382 0 1.564-3.17 3.136-6.331 4.699-9.5 2.202.345 4.05 1.373 4.638 4.231.103 1.071-.328 2.073-.613 3.11z" fill="#183558"/><path d="M11.964 53.558a.898.898 0 10-.281-1.774.898.898 0 00.28 1.774z" fill="#183558"/><path d="M30.45 25.893h-3.421V30.8h3.42v-4.906z" fill="#75C422"/><path d="M48.837 20.754h-3.42v10.053h3.42V20.755z" fill="#fff"/><path d="M37.868 42.839a1.062 1.062 0 11-.001-2.123 1.062 1.062 0 01.001 2.123zm3.872-25.171a.734.734 0 10-.321-1.433.734.734 0 00.32 1.433z" fill="#75C422"/><path d="M33.852 12.99a.734.734 0 100-1.468.734.734 0 000 1.468z" fill="#fff"/><path d="M26.89 17.554a.734.734 0 10-1.038-1.038.734.734 0 001.038 1.038z" fill="#75C422"/></svg>