<svg width="1834" height="1101" fill="none" xmlns="http://www.w3.org/2000/svg"><path d="M1649.79 42.743L1833-63v211.531l-183.21 105.742V42.743z" stroke="#fff" stroke-linejoin="round"/><path d="M1466.6-63l183.2 105.765v211.531l-183.2-105.765V-63zm183.2 528.825L1833 360.059V571.59l-183.2 105.765v-211.53z" stroke="#fff" stroke-linejoin="round"/><path d="M1466.6 360.059l183.2-105.765L1833 360.059l-183.2 105.766-183.2-105.766z" stroke="#fff" stroke-linejoin="round"/><path d="M1466.6 360.058l183.2 105.766v211.531l-183.2-105.766V360.058zm183.2 528.83L1833 783.123v211.531l-183.2 105.766V888.888z" stroke="#fff" stroke-linejoin="round"/><path d="M1466.6 783.124l183.2-105.766L1833 783.124l-183.2 105.765-183.2-105.765zm0 .002l183.2 105.765v211.529l-183.2-105.763V783.126zm-183.2-740.36l183.2-105.765v211.531l-183.2 105.765V42.767zM1100.2-63l183.2 105.765v211.531l-183.2-105.765V-63zm183.2 528.825l183.2-105.766V571.59l-183.2 105.765v-211.53z" stroke="#fff" stroke-linejoin="round"/><path d="M1100.2 360.059l183.2-105.765 183.2 105.765-183.2 105.766-183.2-105.766z" stroke="#fff" stroke-linejoin="round"/><path d="M1100.2 360.058l183.2 105.766v211.531l-183.2-105.766V360.058zm183.2 528.83l183.2-105.765v211.531l-183.2 105.766V888.888z" stroke="#fff" stroke-linejoin="round"/><path d="M1100.2 783.124l183.2-105.766 183.2 105.766-183.2 105.765-183.2-105.765zm0 .002l183.2 105.765v211.529l-183.2-105.763V783.126zM916.996 42.766L1100.2-62.999v211.531L916.996 254.297V42.767z" stroke="#fff" stroke-linejoin="round"/><path d="M733.798-63l183.2 105.765v211.531l-183.2-105.765V-63zm183.198 528.825L1100.2 360.059V571.59L916.996 677.355v-211.53z" stroke="#fff" stroke-linejoin="round"/><path d="M733.798 360.059l183.2-105.765L1100.2 360.059 916.998 465.825l-183.2-105.766z" stroke="#fff" stroke-linejoin="round"/><path d="M733.798 360.058l183.2 105.766v211.531l-183.2-105.766V360.058zm183.198 528.83L1100.2 783.123v211.531L916.996 1100.42V888.888z" stroke="#fff" stroke-linejoin="round"/><path d="M733.798 783.124l183.2-105.766L1100.2 783.124 916.998 888.889l-183.2-105.765zm0 .002l183.2 105.765v211.529l-183.2-105.763V783.126zM550.593 42.766l183.2-105.765v211.531l-183.2 105.765V42.767z" stroke="#fff" stroke-linejoin="round"/><path d="M367.395-63l183.2 105.765v211.531l-183.2-105.765V-63zm183.198 528.825l183.2-105.766V571.59l-183.2 105.765v-211.53z" stroke="#fff" stroke-linejoin="round"/><path d="M367.395 360.059l183.2-105.765 183.2 105.765-183.2 105.766-183.2-105.766z" stroke="#fff" stroke-linejoin="round"/><path d="M367.395 360.058l183.2 105.766v211.531l-183.2-105.766V360.058zm183.198 528.83l183.2-105.765v211.531l-183.2 105.766V888.888z" stroke="#fff" stroke-linejoin="round"/><path d="M367.395 783.124l183.2-105.766 183.2 105.766-183.2 105.765-183.2-105.765zm0 .002l183.2 105.765v211.529l-183.2-105.763V783.126zM184.199 42.766l183.2-105.765v211.531l-183.2 105.765V42.767z" stroke="#fff" stroke-linejoin="round"/><path d="M184.199 888.888l183.2-105.765v211.531l-183.2 105.766V888.888z" stroke="#fff" stroke-linejoin="round"/><path d="M1 783.124l183.2-105.766 183.2 105.766-183.2 105.765L1 783.124zm183.199-317.299l183.2-105.766V571.59l-183.2 105.765v-211.53z" stroke="#fff" stroke-linejoin="round"/><path d="M1 360.059l183.2-105.765 183.2 105.765-183.2 105.766L1 360.059z" stroke="#fff" stroke-linejoin="round"/></svg>