<svg width="1210" height="720" fill="none" xmlns="http://www.w3.org/2000/svg"><mask id="mask0_19_7844" style="mask-type:alpha" maskUnits="userSpaceOnUse" x="0" y="0" width="1210" height="720"><path fill="#0F4777" d="M0 0h1210v720H0z"/></mask><g mask="url(#mask0_19_7844)" stroke="#1E649F" stroke-linejoin="round"><path d="M1026.79-149.258L1210-255v211.531L1026.79 62.273v-211.531z"/><path d="M843.6-255l183.2 105.766v211.53L843.6-43.468V-255zm183.2 528.825L1210 168.059V379.59l-183.2 105.765v-211.53z"/><path d="M843.6 168.059l183.2-105.765L1210 168.059l-183.2 105.766-183.2-105.766z"/><path d="M843.6 168.058l183.2 105.766v211.531L843.6 379.589V168.058zm183.2 528.83L1210 591.123v211.531l-183.2 105.765V696.888z"/><path d="M843.6 591.124l183.2-105.766L1210 591.124l-183.2 105.765-183.2-105.765zm0 .002l183.2 105.765v211.531L843.6 802.657V591.126zm-183.204-740.36L843.596-255v211.531l-183.2 105.766v-211.531zM477.197-255l183.2 105.766v211.53l-183.2-105.765V-255zm183.199 528.825l183.2-105.766V379.59l-183.2 105.765v-211.53z"/><path d="M477.197 168.059l183.2-105.765 183.2 105.765-183.2 105.766-183.2-105.766z"/><path d="M477.197 168.058l183.2 105.766v211.531l-183.2-105.766V168.058zm183.199 528.83l183.2-105.765v211.531l-183.2 105.765V696.888z"/><path d="M477.197 591.124l183.2-105.766 183.2 105.766-183.2 105.765-183.2-105.765zm0 .002l183.2 105.765v211.531l-183.2-105.765V591.126zm-183.201-740.36L477.196-255v211.531l-183.2 105.766v-211.531z"/><path d="M110.798-255l183.2 105.766v211.53l-183.2-105.765V-255zm183.198 528.825l183.2-105.766V379.59l-183.2 105.765v-211.53z"/><path d="M110.798 168.059l183.2-105.765 183.2 105.765-183.2 105.766-183.2-105.766z"/><path d="M110.798 168.058l183.2 105.766v211.531l-183.2-105.766V168.058zm183.198 528.83l183.2-105.765v211.531l-183.2 105.765V696.888z"/><path d="M110.798 591.124l183.2-105.766 183.2 105.766-183.2 105.765-183.2-105.765zm0 .002l183.2 105.765v211.531l-183.2-105.765V591.126zm-183.205-740.36L110.793-255v211.531l-183.2 105.766v-211.531zm0 423.059l183.2-105.766V379.59l-183.2 105.765v-211.53z"/><path d="M-255.605 168.059l183.2-105.765 183.2 105.765-183.2 105.766-183.2-105.766zm183.198 528.829l183.2-105.765v211.531l-183.2 105.765V696.888z"/><path d="M-255.605 591.124l183.2-105.766 183.2 105.766-183.2 105.765-183.2-105.765z"/></g></svg>