<svg width="400" height="841" fill="none" xmlns="http://www.w3.org/2000/svg"><path fill-rule="evenodd" clip-rule="evenodd" d="M399 790.525c0 27.043-22.016 48.96-49.175 48.96H50.175C23.015 839.485 1 817.568 1 790.525V49.961C1 22.918 23.016 1 50.175 1h299.65C376.984 1 399 22.918 399 49.96v740.565z" fill="#FDFDFD" stroke="#7E89A3" stroke-width="2"/><path d="M371.232 110.968H28.552v609.508h342.68V110.968z" fill="#fff" stroke="#7E89A3"/><path clip-rule="evenodd" d="M236.737 79.575c0 1.944-1.344 3.512-3 3.512h-61.544c-1.659 0-3-1.571-3-3.512v-7.899c0-1.944 1.344-3.511 3-3.511h61.544c1.656 0 3 1.57 3 3.511v7.899z" stroke="#7E89A3"/><path d="M203.06 46.675a9.185 9.185 0 100-18.369 9.185 9.185 0 000 18.37zm-2.939 762.336c16.976 0 30.738-13.709 30.738-30.619s-13.762-30.619-30.738-30.619-30.738 13.709-30.738 30.619 13.762 30.619 30.738 30.619z" stroke="#7E89A3"/></svg>