<svg width="883" height="489" fill="none" xmlns="http://www.w3.org/2000/svg"><path fill-rule="evenodd" clip-rule="evenodd" d="M757.121 1H125.747c-17.179 0-31.823 14.096-31.823 31.556v415.279h695.021V32.556C788.945 15.095 774.354 1 757.121 1z" fill="#FEFEFE" stroke="#8492A5" stroke-width="2"/><path d="M442.707 30.277a5.091 5.091 0 10.001-10.182 5.091 5.091 0 00-.001 10.182z" stroke="#8492A5" stroke-width="2"/><path fill-rule="evenodd" clip-rule="evenodd" d="M816.71 487.273H66.286C27.275 487.273 1 473.887 1 468.194V450.89c0-1.711 1.7-3.091 3.812-3.091h873.37c2.116 0 3.818 1.38 3.818 3.091v17.985c-.009 4.5-20.356 18.398-65.29 18.398z" fill="#FDFDFD" stroke="#8492A5" stroke-width="2"/><path d="M1.636 466.257h877.996" stroke="#8492A5" stroke-linecap="square"/><path d="M759.761 50.644H121.928v371.708h637.833V50.644z" fill="#fff" stroke="#8492A5"/><path fill-rule="evenodd" clip-rule="evenodd" d="M536.904 449.072v3.93c0 2.801-5.516 3.647-9.691 3.647h-171.3c-4.393 0-9.948-.844-9.948-3.647v-3.93" fill="#fff"/><path d="M536.904 449.072v3.93c0 2.801-5.516 3.647-9.691 3.647h-171.3c-4.393 0-9.948-.844-9.948-3.647v-3.93" stroke="#8492A5"/></svg>