<svg width="152" height="152" fill="none" xmlns="http://www.w3.org/2000/svg"><path d="M10.944 152h90.571c6.03 0 10.945-4.915 10.945-10.945V10.945C112.46 4.915 107.545 0 101.515 0h-90.57C4.915 0 0 4.915 0 10.944v130.111C0 147.085 4.893 152 10.944 152zM4.042 10.945a6.88 6.88 0 016.882-6.882h90.57a6.88 6.88 0 016.882 6.881v130.111a6.88 6.88 0 01-6.882 6.882h-90.57a6.88 6.88 0 01-6.882-6.882V10.945zm139.045 7.361c-2.556-.349-3.648 3.54-1.07 3.91 7.209 1.006 5.57 9.394 5.57 14.703v87.185c0 5.068 2.119 16.908-5.199 17.782-2.556.306-2.6 4.369 0 4.063 8.869-1.071 9.241-8.192 9.241-15.183V36.351c0-7.21 1.114-16.69-8.542-18.044z" fill="#285596"/><path d="M25.668 22.74l19.836.067c2.6 0 2.621-4.042 0-4.064l-19.836-.065c-2.621 0-2.621 4.041 0 4.063zm-4.456-.807a1.9 1.9 0 00-.066-2.687 1.899 1.899 0 00-2.687.065 1.899 1.899 0 00.066 2.687c.765.721 1.966.7 2.687-.065zm4.456 11.84l31.785.066c2.6 0 2.622-4.042 0-4.064l-31.785-.065c-2.621 0-2.621 4.063 0 4.063zm-4.456-.808a1.9 1.9 0 00-.066-2.687 1.9 1.9 0 00-2.687.065 1.899 1.899 0 00.066 2.687c.765.721 1.966.7 2.687-.065zm4.456 11.796l31.785.066c2.6 0 2.622-4.042 0-4.064l-31.785-.065c-2.621 0-2.621 4.063 0 4.063zm-4.456-.808a1.9 1.9 0 00-.066-2.687 1.899 1.899 0 00-2.687.065 1.899 1.899 0 00.066 2.687c.765.721 1.966.7 2.687-.065z" fill="#fff"/><path d="M48.3 69.665v60.031c0 3.08 2.512 5.614 5.614 5.614h10.18c3.08 0 5.615-2.512 5.615-5.614v-23.571c0-2.6-4.064-2.622-4.064 0v23.571c0 .852-.699 1.551-1.55 1.551h-10.18a1.557 1.557 0 01-1.552-1.551V69.665c0-.852.7-1.551 1.551-1.551h10.18c.852 0 1.551.699 1.551 1.55v24.162c0 2.6 4.064 2.621 4.064 0V69.665c0-3.08-2.513-5.615-5.615-5.615h-10.18a5.613 5.613 0 00-5.614 5.615z" fill="#285596"/><path d="M67.677 97.78a1.901 1.901 0 000 3.801c1.048 0 1.9-.852 1.9-1.9-.021-1.05-.852-1.901-1.9-1.901zm-46.531 37.508h10.967a5.22 5.22 0 005.22-5.221v-46.99a5.221 5.221 0 00-5.22-5.22H21.146a5.221 5.221 0 00-5.22 5.22v46.99a5.22 5.22 0 005.22 5.221zm-1.158-52.21c0-.634.525-1.158 1.158-1.158h10.967c.633 0 1.157.524 1.157 1.158v46.989c0 .634-.524 1.158-1.157 1.158H21.146a1.165 1.165 0 01-1.158-1.158v-46.99zm65.34 52.21h10.9c2.884 0 5.244-2.359 5.244-5.243V40.916c0-2.883-2.36-5.242-5.243-5.242H85.328c-2.884 0-5.243 2.359-5.243 5.242v89.129a5.244 5.244 0 005.243 5.243zm-1.18-94.35c0-.655.546-1.201 1.202-1.201h10.9c.656 0 1.202.546 1.202 1.201v89.129c0 .656-.546 1.202-1.201 1.202H85.35a1.212 1.212 0 01-1.202-1.202V40.938zm40.829 100.948h-4.434c-2.6 0-2.622 4.063 0 4.063h5.155c.393 0 .743-.109 1.005-.262 7.755-1.704 7.733-9.656 7.733-16.406V24.882c0-7.406 1.027-17.433-8.148-19.115a2.146 2.146 0 00-.874-.175h-5.417c-2.6 0-2.622 4.064 0 4.064h4.98c7.231.655 5.418 11.709 5.418 16.711v95.989c0 5.112 2.228 18.852-5.418 19.53z" fill="#285596"/><path d="M84.148 40.938c0-.655.546-1.201 1.202-1.201h10.9c.656 0 1.202.546 1.202 1.201v89.129c0 .656-.546 1.202-1.201 1.202H85.35a1.212 1.212 0 01-1.202-1.202V40.938z" fill="#75C422"/><path d="M19.988 83.078c0-.633.525-1.158 1.158-1.158h10.967c.633 0 1.157.525 1.157 1.158v46.989c0 .634-.524 1.158-1.157 1.158H21.146a1.165 1.165 0 01-1.158-1.158V83.078z" fill="#fff"/></svg>