<svg width="153" height="152" fill="none" xmlns="http://www.w3.org/2000/svg"><path d="M126.34 77.068c2.615-14.549-7.059-28.463-21.608-31.078-14.549-2.615-28.463 7.06-31.078 21.608-2.615 14.55 7.06 28.463 21.608 31.078 14.549 2.615 28.463-7.059 31.078-21.608z" fill="#75C422"/><path d="M117.252 73.955l-.065.523v.022a9.34 9.34 0 01-.175 1.088l-.13.589c-.066.326-.153.653-.24.98-.065.196-.109.392-.174.588-.109.326-.218.631-.349.936-.065.174-.13.349-.217.523-.153.348-.327.697-.501 1.045v.022c-.066.109-.109.24-.174.348-.24.458-.523.893-.806 1.307-.087.13-.174.24-.262.37-.174.24-.348.501-.522.719a18.111 18.111 0 01-2.875 2.897v.021l-.457.327c-.088.065-.175.13-.262.174l-.653.458c-.022.021-.065.043-.087.065-.414.261-.85.523-1.307.74-.174.087-.348.175-.544.262-.175.087-.349.174-.545.24-.327.152-.675.282-1.023.413l-.392.13-.85.262c-.13.044-.283.087-.414.109-.392.109-.805.196-1.219.261-.066.022-.131.022-.196.022-.37.065-.741.109-1.133.153-.109.021-.239.021-.348.021a13.56 13.56 0 01-2.657 0c-.109 0-.24-.021-.349-.021a21.01 21.01 0 01-1.154-.153c-.065 0-.109-.022-.174-.022-.414-.065-.828-.174-1.22-.261-.13-.043-.261-.065-.392-.109a14.078 14.078 0 01-.893-.283 2.14 2.14 0 00-.348-.109c-.349-.13-.697-.261-1.045-.414-.175-.065-.327-.152-.501-.24-.196-.086-.392-.195-.588-.282a15.491 15.491 0 01-.61-.327c-.261-.153-.501-.305-.762-.457-.218-.131-.414-.284-.61-.436-.11-.065-.218-.153-.305-.218-.153-.109-.283-.196-.436-.305v-.022c-1.067-.849-2.047-1.807-2.874-2.896A17.193 17.193 0 0182.689 72.3c0-3.724 1.198-7.165 3.202-9.996.174-.24.326-.48.522-.72.175-.239.37-.456.567-.674.087-.087.152-.174.24-.262.326-.348.653-.675.98-1.001.108-.11.239-.218.37-.327.283-.261.588-.501.893-.74.174-.131.37-.284.544-.414l.588-.392c.305-.196.632-.392.958-.588.175-.087.349-.175.501-.283.327-.175.675-.349 1.024-.501.152-.066.283-.131.435-.175.37-.152.74-.283 1.111-.413.109-.044.218-.087.327-.11.457-.13.914-.26 1.372-.348l.327-.065c.479-.087.98-.174 1.459-.218.087 0 .174-.022.26-.022a19.472 19.472 0 011.613-.087c.544 0 1.067.022 1.611.087.087 0 .174.022.262.022.5.044.98.13 1.459.218l.326.065c.458.11.937.218 1.372.349.109.043.218.065.327.109.392.13.762.26 1.133.413.13.066.283.11.413.175.349.152.697.326 1.046.5.174.088.326.175.501.262l.98.588c.196.13.37.261.566.392.196.13.392.283.566.435.305.24.588.48.871.72.131.108.262.239.392.348.327.305.654.631.959.958.087.109.174.196.283.305.196.218.37.435.566.675.174.218.327.457.501.675v.022c.087.13.196.261.283.392.283.414.544.85.784 1.306l.196.393v.021c.174.327.327.654.479 1.002.087.174.153.37.218.545.131.305.239.61.348.914.066.196.131.392.175.61.087.305.174.632.239.958.044.196.087.392.131.61.065.349.109.697.152 1.067v.022l.066.523c.043.523.087 1.067.087 1.59v.087c.065.566.043 1.11-.022 1.633z" fill="#fff"/><path d="M8.12 151.378c3.44 1.023 7.71.457 11.237.457h73.699c3.615 0 8.014.588 11.543-.457 8.951-2.657 7.818-12.174 7.818-19.47v-22.715c0-2.592-4.051-2.614-4.051 0 0 10.432.697 21.125 0 31.535-.479 7.078-6.294 7.056-11.477 7.056H13.565c-4.792 0-8.93-1.851-9.213-7.448-.174-3.245 0-6.555 0-9.8V38.042c0-8.798-.588-17.836 0-26.635.436-6.36 5.445-7.078 10.367-7.078h83.477c1.045 0 2.112-.065 3.158 0 5.248.37 6.991 4.421 6.991 8.995v19.818c0 2.592 4.05 2.613 4.05 0 0-6.86.087-13.72 0-20.559-.043-3.855-.958-7.274-4.072-9.822-3.703-3.049-8.516-2.46-12.98-2.46H46.385C34.733.3 22.842-.376 11.212.3-1.877 1.061.302 15.174.302 24.3v100.856c.02 8.32-2.701 23.108 7.818 26.222z" fill="#285596"/><path d="M82.624 23.037c2.592 0 2.614-4.03 0-4.051l-19.775-.065c-2.591 0-2.613 4.029 0 4.05l19.775.066zm-24.283-3.528a1.893 1.893 0 00-2.679.065 1.893 1.893 0 00.066 2.679c.762.719 1.96.697 2.678-.066a1.893 1.893 0 00-.065-2.678zm36.174 10.497l-31.688-.065c-2.591 0-2.613 4.029 0 4.05l31.688.066c2.614-.022 2.614-4.051 0-4.051zm-36.174.501a1.893 1.893 0 00-2.679.065 1.893 1.893 0 00.066 2.679c.762.719 1.96.697 2.678-.065a1.893 1.893 0 00-.065-2.68zM22.363 45.469h14.94c3.397 0 6.141-2.766 6.141-6.142v-14.94a6.148 6.148 0 00-6.141-6.142h-14.94c-3.398 0-6.142 2.766-6.142 6.142v14.94c-.021 3.376 2.744 6.142 6.142 6.142zM20.25 24.365c0-1.154.937-2.112 2.113-2.112h14.94c1.154 0 2.112.936 2.112 2.112v14.94a2.115 2.115 0 01-2.112 2.113h-14.94a2.114 2.114 0 01-2.113-2.113v-14.94zm62.374 83.085l-19.775-.065c-2.591 0-2.613 4.029 0 4.051l19.775.065c2.592 0 2.592-4.051 0-4.051zm-24.283.501a1.893 1.893 0 00-2.679.066 1.892 1.892 0 00.066 2.678c.762.719 1.96.697 2.678-.065a1.894 1.894 0 00-.065-2.679zm36.174 10.498l-31.688-.066c-2.591 0-2.613 4.029 0 4.051l31.688.065c2.614 0 2.614-4.05 0-4.05zm-36.174.501a1.893 1.893 0 00-2.679.065 1.894 1.894 0 00.066 2.679c.762.718 1.96.697 2.678-.066a1.892 1.892 0 00-.065-2.678zm4.509 10.388c-2.593 0-2.614 4.029 0 4.051l31.687.065c2.592 0 2.613-4.029 0-4.051l-31.688-.065zm-7.166.631a1.893 1.893 0 00.065 2.679c.763.719 1.96.697 2.68-.065a1.893 1.893 0 00-.066-2.679 1.893 1.893 0 00-2.679.065zm-33.321-23.302a6.148 6.148 0 00-6.142 6.141v14.94a6.148 6.148 0 006.142 6.142h14.94c3.397 0 6.142-2.766 6.142-6.142v-14.94c0-3.397-2.766-6.141-6.142-6.141h-14.94zm17.052 6.163v14.94a2.114 2.114 0 01-2.112 2.112h-14.94a2.114 2.114 0 01-2.113-2.112v-14.94c0-1.154.937-2.113 2.113-2.113h14.94c1.154 0 2.112.937 2.112 2.113zm11.499-27.877l-20.798-.065c-2.592 0-2.613 4.029 0 4.05l20.798.066c2.592 0 2.614-4.05 0-4.05zm4.486 3.463c.763.719 1.96.697 2.68-.065a1.893 1.893 0 00-.066-2.679 1.893 1.893 0 00-2.678.065 1.913 1.913 0 00.065 2.679zm-4.486-14.461l-32.69-.065c-2.59 0-2.613 4.029 0 4.05l32.69.066c2.592 0 2.614-4.05 0-4.05zm4.486 3.463c.763.719 1.96.697 2.68-.065a1.893 1.893 0 00-.066-2.68 1.893 1.893 0 00-2.678.066 1.913 1.913 0 00.065 2.679zM50.914 63l-32.69-.065c-2.59 0-2.613 4.03 0 4.05 10.89.023 21.801.044 32.69.066 2.592-.022 2.614-4.05 0-4.05zm7.166 3.398a1.893 1.893 0 00-.066-2.679 1.893 1.893 0 00-2.678.066 1.893 1.893 0 00.065 2.678c.762.719 1.96.697 2.679-.065zm41.923-15.376c-11.738 0-21.3 9.561-21.3 21.3 0 6.098 2.57 11.608 6.687 15.484l.218.218a21.166 21.166 0 0014.373 5.597c5.532 0 10.585-2.134 14.374-5.597a.98.98 0 00.218-.218 21.219 21.219 0 006.686-15.484c.044-11.76-9.517-21.3-21.256-21.3zm17.249 22.933l-.065.523v.022a9.34 9.34 0 01-.175 1.088l-.13.588c-.066.327-.153.654-.24.98-.065.197-.109.392-.174.588a11.8 11.8 0 01-.349.937c-.065.174-.13.349-.217.523-.153.348-.327.697-.501 1.045v.022c-.066.109-.109.24-.174.348-.24.458-.523.893-.806 1.307-.087.13-.175.24-.262.37-.174.24-.348.501-.522.719a18.111 18.111 0 01-2.875 2.896v.022l-.457.327c-.088.065-.175.13-.262.174l-.653.457c-.022.022-.065.044-.087.066-.414.261-.85.523-1.307.74a14.05 14.05 0 01-.544.262c-.175.087-.349.174-.545.24-.327.152-.675.282-1.023.413l-.392.13-.85.262a2.901 2.901 0 01-.414.109c-.392.109-.805.196-1.219.261-.066.022-.131.022-.196.022-.37.065-.741.109-1.133.153-.109.021-.239.021-.348.021a13.56 13.56 0 01-2.657 0c-.11 0-.24-.021-.349-.021a21.01 21.01 0 01-1.154-.153c-.065 0-.109-.022-.174-.022-.414-.065-.828-.174-1.22-.261-.13-.044-.261-.065-.392-.109a14.078 14.078 0 01-.893-.283 2.14 2.14 0 00-.348-.109c-.349-.13-.697-.261-1.045-.414-.175-.065-.327-.152-.501-.24-.196-.087-.392-.195-.588-.282a15.491 15.491 0 01-.61-.327c-.261-.153-.501-.305-.763-.458a6.172 6.172 0 01-.61-.435c-.108-.065-.217-.153-.304-.218-.153-.109-.283-.196-.436-.305v-.022c-1.067-.849-2.047-1.807-2.874-2.896A17.193 17.193 0 0182.689 72.3c0-3.724 1.198-7.165 3.202-9.996.174-.24.326-.48.522-.72.175-.239.37-.457.567-.674.087-.087.152-.175.24-.262.326-.348.653-.675.98-1.002.108-.108.239-.217.37-.326.283-.261.588-.501.893-.74.174-.131.37-.284.544-.414l.588-.392c.305-.196.632-.392.958-.588.175-.088.349-.175.501-.284.327-.174.675-.348 1.024-.5.152-.066.283-.131.435-.175.37-.152.74-.283 1.111-.413.109-.044.218-.088.327-.11a15.815 15.815 0 011.698-.413c.48-.087.98-.174 1.46-.218.087 0 .174-.022.26-.022a19.472 19.472 0 011.612-.087c.545 0 1.068.022 1.612.087.087 0 .174.022.261.022.501.044.981.13 1.46.218l.326.065c.458.11.937.218 1.372.349.109.043.218.065.327.108.392.131.762.262 1.133.414.13.066.283.11.413.175.349.152.697.326 1.046.5.174.087.326.175.501.262l.98.588c.196.13.37.261.566.392.196.13.392.283.566.435.305.24.588.48.871.72.131.108.262.239.392.348.327.304.654.631.959.958.087.109.174.196.283.305.196.218.37.435.566.675.174.218.327.457.501.675v.022c.087.13.196.261.283.392.283.413.544.85.784 1.306l.196.393v.021c.174.327.327.654.479 1.002.087.174.153.37.218.544.131.305.239.61.348.915.066.196.131.392.175.61.087.305.174.632.239.958.044.196.087.392.131.61.065.349.109.697.152 1.067v.022l.066.523c.043.522.087 1.067.087 1.59v.087c.065.566.043 1.11-.022 1.633z" fill="#285596"/><path d="M149.854 111.371l-11.716-11.717a1.985 1.985 0 00-2.788 0 1.985 1.985 0 000 2.787l11.717 11.717a3.636 3.636 0 011.067 2.614c0 .98-.392 1.916-1.067 2.613a3.68 3.68 0 01-5.205 0l-22.89-22.89c7.166-5.618 11.761-14.373 11.761-24.151 0-16.944-13.786-30.708-30.708-30.708-16.944 0-30.708 13.786-30.708 30.708 0 16.943 13.786 30.707 30.708 30.707a30.503 30.503 0 0015.637-4.29l23.412 23.412a7.615 7.615 0 005.401 2.221c1.96 0 3.898-.74 5.401-2.221a7.593 7.593 0 002.243-5.401c-.043-2.047-.827-3.964-2.265-5.401zm-49.851-12.283c-14.766 0-26.766-12-26.766-26.766 0-14.766 12-26.766 26.766-26.766 14.766 0 26.766 12 26.766 26.766 0 14.744-12 26.766-26.766 26.766z" fill="#285596"/><path d="M129.143 93.447a1.98 1.98 0 00-.588 1.394c0 .522.218 1.023.588 1.394.37.37.871.588 1.394.588.523 0 1.023-.218 1.394-.588.37-.37.588-.872.588-1.394a1.98 1.98 0 00-.588-1.394 1.982 1.982 0 00-1.394-.588 2.077 2.077 0 00-1.394.588z" fill="#285596"/><path d="M20.25 24.365c0-1.154.937-2.112 2.113-2.112h14.94c1.154 0 2.112.936 2.112 2.112v14.94a2.114 2.114 0 01-2.112 2.113h-14.94a2.115 2.115 0 01-2.113-2.113v-14.94z" fill="#fff"/><path d="M39.415 112.83v14.94a2.114 2.114 0 01-2.112 2.112h-14.94a2.114 2.114 0 01-2.113-2.112v-14.94c0-1.154.937-2.113 2.113-2.113h14.94c1.154 0 2.112.937 2.112 2.113z" fill="#75C422"/><path d="M99.938 65.157c1.633 0 3.027 1.176 3.027 2.548 0 1.176.958 2.134 2.135 2.134a2.138 2.138 0 002.134-2.134c0-2.81-1.895-5.38-4.726-6.381l-.414-.153-.022-.435a2.12 2.12 0 00-2.112-1.982 2.12 2.12 0 00-2.113 1.982l-.021.435-.414.153c-2.832 1.001-4.726 3.55-4.726 6.38 0 3.747 3.266 6.817 7.274 6.817 1.633 0 3.027 1.176 3.027 2.548 0 1.394-1.394 2.549-3.027 2.549-1.634 0-3.027-1.176-3.027-2.549a2.138 2.138 0 00-2.135-2.134 2.138 2.138 0 00-2.134 2.134c0 2.832 1.916 5.38 4.748 6.382l.37.13.044.392a2.137 2.137 0 002.112 1.851c1.067 0 1.96-.784 2.113-1.85l.043-.393.37-.13c2.832-.98 4.748-3.55 4.748-6.382 0-3.746-3.267-6.816-7.274-6.816-1.633 0-3.027-1.176-3.027-2.548s1.394-2.548 3.027-2.548z" fill="#285596"/></svg>