<svg width="153" height="152" fill="none" xmlns="http://www.w3.org/2000/svg"><path d="M59.191 113.037V95.755c0-4.485 3.654-8.117 8.117-8.117h37.518c4.485 0 8.116 3.654 8.116 8.117v28.483c0 4.485-3.653 8.117-8.116 8.117H67.308c-4.485 0-8.117-3.654-8.117-8.117v-2.034l-11.573-.022 11.573-9.145z" fill="#fff"/><path d="M39.065 25.377c0-4.485 3.653-8.116 8.116-8.116H84.7c4.484 0 8.116 3.653 8.116 8.116V42.66l11.573 9.144-11.573.022v2.035c0 4.484-3.654 8.116-8.117 8.116H47.181c-4.485 0-8.116-3.653-8.116-8.116V25.377z" fill="#75C422"/><path d="M112.549 37.365c1.072-4.66 4.025-6.497 7.613-7.175 2.8 5.666 5.622 11.332 8.422 16.998.657 1.335 2.844 1.335 3.501 0 2.822-5.71 5.644-11.398 8.466-17.107 3.5.634 6.454 2.319 7.394 6.431.547 2.363-.503 4.594-1.159 6.87l-2.494 8.86c-.503 1.772-1.028 3.413-1.203 5.228-.197 2.144.481 4.988-.963 6.804-.678.853-1.706 1.181-2.844 1.313h-2.931v.022c-.241 0-.46-.022-.679-.022-2.603 0-2.625 4.069 0 4.069.81 0 1.641.022 2.473 0h3.587c.657 0 1.225.569 1.225 1.225v5.469c0 .656-.568 1.225-1.225 1.225h-22.883a1.252 1.252 0 01-1.225-1.225v-5.447c0-.066 0-.132.022-.197.088-.59.613-1.05 1.203-1.05h5.316c2.604 0 2.625-4.07 0-4.07h-2.734c-1.444-.109-2.735-.546-3.523-2.165-.94-1.925-.131-4.594-.415-6.629-.197-1.531-.788-3.063-1.203-4.55-1.204-4.463-3.96-10.195-3.741-14.877z" fill="#fff"/><path d="M4.083 106.89c.985-4.135 3.938-5.775 7.417-6.41 2.822 5.688 5.644 11.398 8.466 17.086.656 1.334 2.844 1.334 3.5 0 2.8-5.666 5.623-11.354 8.423-17.02 3.588.7 6.541 2.537 7.613 7.197.219 4.682-2.538 10.414-3.806 14.898-.416 1.488-1.007 3.019-1.204 4.551-.262 2.056.46 4.659-.415 6.628-.722 1.619-2.035 2.057-3.5 2.166h-2.735c-2.604 0-2.625 4.069 0 4.069h5.316c.59 0 1.115.438 1.203 1.05 0 .066.022.132.022.197v5.448c0 .656-.569 1.225-1.225 1.225H10.275a1.252 1.252 0 01-1.225-1.225v-5.448c0-.656.568-1.225 1.225-1.225h6.059c2.604 0 2.626-4.069 0-4.069-.196 0-.437 0-.678.022v-.022h-3.85c-.547-.087-1.05-.219-1.378-.459-1.925-1.335-1.422-5.01-1.51-6.979-.087-1.991-.547-3.566-1.072-5.491-.875-3.085-1.728-6.191-2.603-9.276-.634-2.319-1.706-4.55-1.16-6.913z" fill="#75C422"/><path d="M114.561 65.937c.219.437.46.81.722 1.137-.831.788-1.444 1.838-1.619 3.02a4.933 4.933 0 00-.065.809v5.447a5.298 5.298 0 005.294 5.294h22.883a5.298 5.298 0 005.294-5.294v-5.447c0-1.51-.656-2.888-1.684-3.85a7.01 7.01 0 00.831-1.379c1.575-3.456.678-7.526 1.706-11.157 1.86-6.607 6.454-15.314 2.823-21.986-2.363-4.354-6.192-5.994-10.414-6.563 3.019-2.735 4.944-6.673 4.944-11.048 0-8.226-6.694-14.92-14.92-14.92-8.225 0-14.92 6.694-14.92 14.92 0 4.42 1.947 8.379 5.01 11.113-.087.066-.197.11-.284.197-5.491.832-10.107 3.282-11.551 10.326-.022.11-.022.197-.022.306-.022.088-.044.154-.044.241-.437 6.257 3.479 12.886 4.704 18.99.59 3.193-.197 6.78 1.312 9.844zm15.774-24.327l-5.842-11.814c1.794-.022 3.61.044 5.338.044h.7c1.751-.022 3.719-.131 5.71-.11-1.991 3.96-3.959 7.92-5.906 11.88zm-10.873-26.69c0-5.994 4.878-10.873 10.873-10.873 5.994 0 10.872 4.879 10.872 10.873 0 5.82-4.594 10.566-10.347 10.829-.241 0-.504 0-.744.022-5.907-.131-10.654-4.944-10.654-10.851zm-6.913 22.446c1.072-4.66 4.025-6.498 7.613-7.176 2.8 5.666 5.622 11.332 8.422 16.998.657 1.335 2.844 1.335 3.501 0 2.822-5.71 5.644-11.398 8.466-17.107 3.5.634 6.454 2.319 7.394 6.431.547 2.363-.503 4.594-1.159 6.87l-2.494 8.86c-.503 1.772-1.028 3.413-1.203 5.228-.197 2.144.481 4.988-.963 6.804-.678.853-1.706 1.181-2.844 1.313h-2.931v.022c-.241 0-.46-.022-.679-.022-2.603 0-2.625 4.069 0 4.069.81 0 1.641.022 2.472 0h3.588c.657 0 1.225.569 1.225 1.225v5.469c0 .656-.568 1.225-1.225 1.225h-22.883a1.252 1.252 0 01-1.225-1.225v-5.447c0-.066 0-.132.022-.197.088-.59.613-1.05 1.203-1.05h5.316c2.604 0 2.625-4.07 0-4.07h-2.734c-1.444-.109-2.735-.546-3.523-2.165-.94-1.925-.131-4.594-.415-6.629-.197-1.531-.788-3.063-1.203-4.55-1.204-4.463-3.96-10.195-3.741-14.876z" fill="#285596"/><path d="M130.028 69.546c1.05 0 1.904-.853 1.904-1.903s-.854-1.903-1.904-1.903a1.904 1.904 0 000 3.806zm-82.825-3.5H84.72c6.038 0 11.048-4.397 12.01-10.15l8.467-.023c1.641 0 3.041-1.006 3.588-2.56.525-1.553.044-3.215-1.225-4.221l-10.632-8.38V25.4c0-6.716-5.47-12.185-12.186-12.185H47.225c-6.717 0-12.186 5.469-12.186 12.185v28.484c-.022 6.694 5.447 12.163 12.164 12.163zm-8.139-40.669c0-4.485 3.654-8.116 8.117-8.116H84.7c4.484 0 8.116 3.653 8.116 8.116V42.66l11.573 9.144-11.573.022v2.035c0 4.485-3.654 8.116-8.117 8.116H47.181c-4.485 0-8.116-3.653-8.116-8.116V25.377zM5.746 135.811c.263.635.569 1.16.94 1.597a5.288 5.288 0 00-1.684 3.851v5.447A5.299 5.299 0 0010.297 152H33.18a5.299 5.299 0 005.294-5.294v-5.447a4.83 4.83 0 00-.066-.81c-.175-1.181-.787-2.231-1.619-3.019.263-.328.503-.722.722-1.137 1.532-3.063.722-6.629 1.357-9.845 1.225-6.104 5.163-12.732 4.703-18.989 0-.088-.022-.153-.044-.241 0-.109 0-.197-.043-.306-1.466-7.044-6.06-9.473-11.551-10.326-.088-.066-.197-.131-.285-.197 3.063-2.734 5.01-6.694 5.01-11.113 0-8.226-6.694-14.92-14.92-14.92-8.226 0-14.92 6.694-14.92 14.92 0 4.397 1.925 8.335 4.944 11.07-4.222.568-8.05 2.187-10.413 6.563-3.61 6.672.962 15.357 2.822 21.986.984 3.566.131 7.482 1.575 10.916zm15.97-23.824c-1.947-3.959-3.916-7.897-5.863-11.857 2.057-.022 4.091.088 5.863.088 1.882 0 3.894-.088 5.863-.066-1.969 3.96-3.916 7.898-5.863 11.835zm-10.873-26.69c0-5.994 4.879-10.872 10.873-10.872S32.59 79.303 32.59 85.298c0 5.906-4.747 10.72-10.632 10.85-.24 0-.503 0-.744-.021-5.754-.263-10.37-5.01-10.37-10.83zm-6.76 21.593c.985-4.135 3.938-5.775 7.417-6.41 2.822 5.688 5.644 11.398 8.466 17.086.656 1.334 2.844 1.334 3.5 0 2.8-5.666 5.623-11.354 8.423-17.02 3.588.7 6.541 2.538 7.613 7.197.219 4.682-2.538 10.414-3.806 14.898-.416 1.488-1.007 3.019-1.204 4.551-.262 2.056.46 4.66-.415 6.628-.722 1.619-2.035 2.057-3.5 2.166h-2.735c-2.604 0-2.625 4.069 0 4.069h5.316c.59 0 1.115.438 1.203 1.05 0 .066.022.132.022.197v5.448c0 .656-.569 1.225-1.225 1.225H10.275a1.252 1.252 0 01-1.225-1.225v-5.448c0-.656.568-1.225 1.225-1.225h6.059c2.604 0 2.626-4.069 0-4.069-.196 0-.437 0-.678.022v-.022h-3.85c-.547-.087-1.05-.219-1.378-.459-1.925-1.335-1.422-5.01-1.51-6.979-.087-1.991-.547-3.566-1.072-5.491-.875-3.085-1.728-6.191-2.603-9.276-.634-2.319-1.706-4.55-1.16-6.913z" fill="#285596"/><path d="M22.023 139.902c1.05 0 1.903-.853 1.903-1.903a1.904 1.904 0 00-3.807 0 1.89 1.89 0 001.904 1.903zm24.83-13.673l8.466.022c.963 5.754 5.994 10.151 12.01 10.151h37.519c6.716 0 12.185-5.469 12.185-12.186V95.755c0-6.716-5.469-12.186-12.185-12.186H67.329c-6.716 0-12.185 5.47-12.185 12.186v15.313l-10.632 8.379c-1.29 1.007-1.772 2.669-1.247 4.223.547 1.553 1.947 2.559 3.588 2.559zm12.338-13.192V95.755c0-4.485 3.654-8.117 8.117-8.117h37.518c4.485 0 8.117 3.654 8.117 8.117v28.483c0 4.485-3.654 8.117-8.117 8.117H67.308c-4.485 0-8.117-3.654-8.117-8.117v-2.034l-11.573-.022 11.573-9.145z" fill="#285596"/><path d="M94.3 102.608L84.018 112.89l-4.446-4.446a2.11 2.11 0 00-2.964 0 2.11 2.11 0 000 2.964l5.928 5.928c.394.394.927.602 1.482.602a2.08 2.08 0 001.482-.602l11.764-11.764a2.11 2.11 0 000-2.964c-.81-.811-2.13-.811-2.964 0zM59.016 35.65a2.066 2.066 0 002.061-2.06c0-.973.394-1.9 1.112-2.548a3.446 3.446 0 012.64-.926 3.486 3.486 0 013.242 3.242c.116 1.737-1.02 3.288-2.71 3.659a3.573 3.573 0 00-2.825 3.52v4.122c0 1.134.926 2.06 2.061 2.06a2.066 2.066 0 002.061-2.06V40.93a7.571 7.571 0 005.535-7.85c-.255-3.752-3.288-6.785-7.063-7.063a7.621 7.621 0 00-5.72 2.015 7.638 7.638 0 00-2.408 5.557c-.047 1.135.88 2.061 2.014 2.061zm5.558 13.733a2.07 2.07 0 00-1.459.602 2.03 2.03 0 00-.602 1.459c0 .532.209 1.065.602 1.459a2.03 2.03 0 001.46.602 2.07 2.07 0 001.458-.602 2.03 2.03 0 00.602-1.46 2.07 2.07 0 00-.602-1.458 2.07 2.07 0 00-1.459-.602z" fill="#285596"/></svg>