<svg width="153" height="152" fill="none" xmlns="http://www.w3.org/2000/svg"><path d="M10.944 152h90.571c6.03 0 10.945-4.915 10.945-10.944V10.944C112.46 4.916 107.545 0 101.515 0h-90.57C4.915 0 0 4.915 0 10.944v130.112C0 147.107 4.915 152 10.944 152zM4.042 10.945a6.88 6.88 0 016.882-6.882h90.571a6.88 6.88 0 016.881 6.881v130.112a6.88 6.88 0 01-6.881 6.881H10.923a6.88 6.88 0 01-6.882-6.881V10.944z" fill="#285596"/><path d="M62.718 22.741l19.836.066c2.6 0 2.621-4.042 0-4.064l-19.836-.065c-2.621 0-2.621 4.063 0 4.063zm-4.457-.787c.721-.764.7-1.966-.065-2.686a1.899 1.899 0 00-2.687.065 1.899 1.899 0 00.066 2.687 1.918 1.918 0 002.686-.066zm4.457 11.819l31.785.065c2.6 0 2.621-4.041 0-4.063l-31.785-.065c-2.621 0-2.621 4.063 0 4.063zm-4.457-.787c.721-.764.7-1.966-.065-2.686a1.899 1.899 0 00-2.687.065 1.899 1.899 0 00.066 2.687c.764.72 1.966.677 2.686-.066zm4.457 11.775l31.785.066c2.6 0 2.621-4.042 0-4.064l-31.785-.065c-2.621.022-2.621 4.063 0 4.063zm-4.457-.786c.721-.765.7-1.966-.065-2.687a1.899 1.899 0 00-2.687.065 1.899 1.899 0 00.066 2.687 1.918 1.918 0 002.686-.065zm-36.153 1.332h14.985c3.408 0 6.16-2.774 6.16-6.16V24.16a6.166 6.166 0 00-6.16-6.16H22.107c-3.407 0-6.16 2.774-6.16 6.16v14.986c-.022 3.408 2.753 6.16 6.16 6.16zm-2.12-21.146c0-1.158.94-2.12 2.12-2.12h14.985c1.158 0 2.12.94 2.12 2.12v14.986c0 1.158-.94 2.119-2.12 2.119H22.107a2.121 2.121 0 01-2.119-2.12V24.162zm42.73 87.294l19.836.066c2.6 0 2.621-4.042 0-4.064l-19.836-.065c-2.621 0-2.621 4.063 0 4.063zm-7.188-3.408a1.899 1.899 0 00.066 2.687 1.9 1.9 0 002.688-.065 1.899 1.899 0 00-.066-2.687 1.9 1.9 0 00-2.687.065zm7.188 14.44l31.785.065c2.6 0 2.621-4.041 0-4.063l-31.785-.065c-2.621.021-2.621 4.063 0 4.063zm-7.188-3.408a1.899 1.899 0 00.066 2.687 1.899 1.899 0 002.688-.066 1.899 1.899 0 00-.066-2.687 1.9 1.9 0 00-2.687.066zm7.188 14.418l31.785.066c2.6 0 2.621-4.042 0-4.064l-31.785-.065c-2.621 0-2.621 4.041 0 4.063zm-7.188-3.43a1.899 1.899 0 00.066 2.687 1.9 1.9 0 002.688-.065 1.899 1.899 0 00-.066-2.687 1.92 1.92 0 00-2.687.065zm-33.422 3.976h14.985a6.167 6.167 0 006.16-6.16v-14.986a6.168 6.168 0 00-6.16-6.161H22.107c-3.407 0-6.16 2.775-6.16 6.161v14.986c-.022 3.386 2.753 6.16 6.16 6.16zm-2.12-21.168a2.12 2.12 0 012.12-2.119h14.985a2.12 2.12 0 012.12 2.119v14.986a2.12 2.12 0 01-2.12 2.119H22.107a2.121 2.121 0 01-2.119-2.119v-14.986zm30.759-27.962l-20.863-.066c-2.6 0-2.621 4.042 0 4.064l20.863.065c2.6 0 2.621-4.063 0-4.063zm7.187 3.407a1.898 1.898 0 00-.066-2.686 1.899 1.899 0 00-2.687.065 1.9 1.9 0 00.066 2.687c.764.721 1.966.7 2.687-.065zm-7.187-14.439l-32.79-.066c-2.6 0-2.622 4.042 0 4.064l32.79.065c2.6 0 2.621-4.063 0-4.063zm7.187 3.408a1.9 1.9 0 00-.066-2.687 1.899 1.899 0 00-2.687.065 1.9 1.9 0 00.066 2.687c.764.721 1.966.7 2.687-.065zm-39.977-10.42l32.79.065c2.6 0 2.621-4.041 0-4.063l-32.79-.066c-2.6 0-2.622 4.064 0 4.064zm39.977-.569a1.898 1.898 0 00-.066-2.686 1.899 1.899 0 00-2.687.065 1.9 1.9 0 00.066 2.687c.764.721 1.966.7 2.687-.065zm32.418-3.953H75.366c-3.407 0-6.16 2.774-6.16 6.16v14.986c0 3.408 2.775 6.16 6.16 6.16h14.986c3.408 0 6.16-2.774 6.16-6.16V68.507c0-3.386-2.774-6.16-6.16-6.16zm2.098 21.168c0 1.158-.94 2.119-2.12 2.119H75.346c-1.158 0-2.12-.94-2.12-2.12V68.53c0-1.158.94-2.12 2.12-2.12H90.33c1.157 0 2.119.94 2.119 2.12v14.986zm59.659 38.863l.197-.306V12.582c0-6.924-5.636-12.56-12.561-12.56h-1.136c-6.925 0-12.561 5.636-12.561 12.56v109.534l.174.262h-.196l9.24 26.345.044.109c.634 1.508 2.141 2.469 3.845 2.469 1.704 0 3.211-.983 3.845-2.469l9.284-26.454h-.175zm-21.998-1.508V12.583c0-4.194 3.036-7.668 7.034-8.367v45.395c0 2.6 4.063 2.621 4.063 0V4.216c3.998.7 7.035 4.173 7.035 8.367v108.309l-.94 1.464h-6.116V63.439c0-2.6-4.064-2.622-4.064 0v58.917h-6.029l-.983-1.486zm9.175 26.368a.368.368 0 01-.218 0l-7.253-20.688h14.746l-7.275 20.688z" fill="#285596"/><path d="M139.177 58.414a1.9 1.9 0 10-.001-3.8 1.9 1.9 0 00.001 3.8z" fill="#285596"/><path d="M139.286 147.238a.368.368 0 01-.218 0l-7.253-20.688h14.745l-7.274 20.688z" fill="#75C422"/><path d="M19.988 24.16c0-1.157.94-2.118 2.12-2.118h14.985a2.12 2.12 0 012.12 2.119v14.986a2.12 2.12 0 01-2.12 2.119H22.107a2.12 2.12 0 01-2.119-2.12V24.162z" fill="#fff"/><path d="M92.45 83.515c0 1.158-.94 2.119-2.12 2.119H75.346c-1.158 0-2.12-.94-2.12-2.12V68.53c0-1.158.94-2.12 2.12-2.12H90.33c1.157 0 2.119.94 2.119 2.12v14.986z" fill="#75C422"/><path d="M19.988 112.875a2.12 2.12 0 012.12-2.119h14.985a2.12 2.12 0 012.12 2.119v14.986a2.12 2.12 0 01-2.12 2.119H22.107a2.12 2.12 0 01-2.119-2.119v-14.986z" fill="#fff"/></svg>