<svg width="152" height="152" fill="none" xmlns="http://www.w3.org/2000/svg"><path d="M68.79 71.452c14.028-12.718 17.066-33.172 8.609-49.867-1.18-2.338-4.677-.284-3.496 2.054 6.992 13.811 5.244 30.594-5.201 42.197-8.938 9.921-22.88 14.38-35.904 11.342a35.288 35.288 0 01-4.61-1.42c4.894-11.233 9.79-22.465 14.706-33.719.022-.022.022-.066.022-.087.153-.285.24-.612.24-.94V4.125A38.649 38.649 0 0160.66 9.48c2.25 1.333 4.283-2.163 2.054-3.496C48.248-2.562 29.892-2.06 16.365 8.168 4.412 17.215-1.75 32.27.435 47.087c4.698 31.97 44.491 46.02 68.354 24.365zM4.39 43.044h33.631c-4.523 10.358-9.025 20.716-13.549 31.074C12.498 68 5.265 55.806 4.39 43.044zM14.901 14.79C21.566 8.124 30.22 4.562 39.091 4.125V38.98H4.326c.35-8.676 3.693-17.307 10.576-24.19z" fill="#285596"/><path d="M69.532 16.756c3.256 0 3.256-5.07 0-5.07s-3.256 5.07 0 5.07zm-37.957 90.469c2.6 0 2.622-4.043 0-4.065L9.7 103.094c-2.6 0-2.622 4.043 0 4.065l21.875.066zm-26.311-.853a1.9 1.9 0 00-.065-2.688 1.9 1.9 0 00-2.688.066 1.9 1.9 0 00.066 2.688 1.92 1.92 0 002.687-.066zM9.7 118.194l33.806.066c2.6 0 2.622-4.043 0-4.065L9.7 114.13c-2.6 0-2.6 4.064 0 4.064zm-7.102-.721a1.9 1.9 0 002.688-.065 1.9 1.9 0 00-.065-2.688 1.9 1.9 0 10-2.623 2.753zM9.7 129.186l33.806.066c2.6 0 2.622-4.043 0-4.065L9.7 125.122c-2.6.021-2.6 4.064 0 4.064zm-7.102-.721a1.9 1.9 0 002.688-.066c.721-.764.7-1.966-.065-2.687a1.9 1.9 0 00-2.688.065 1.9 1.9 0 00.065 2.688zm77.27 23.513c2.251 0 4.087-1.835 4.087-4.108v-18.356c0-2.251-1.836-4.108-4.087-4.108H66.67a4.117 4.117 0 00-4.108 4.108v18.356a4.117 4.117 0 004.108 4.108h13.2zm-13.22-22.486l13.242.044v18.356c0 .022-.022.043-.044.043l-13.242-.043.044-18.4zm59.46-17.722v36.1a4.117 4.117 0 004.108 4.108h13.177a4.103 4.103 0 004.108-4.108v-36.1a4.117 4.117 0 00-4.108-4.108h-13.177c-2.273-.022-4.108 1.835-4.108 4.108zm17.329 0v36.1c0 .022-.022.065-.066.065l-13.242-.065.065-36.166 13.243.066zm-27.731 9.855c0-.043-.022-.109-.022-.153-.175-2.928-2.6-5.288-5.594-5.288H99.207a4.924 4.924 0 00-4.916 4.917v25.982A4.924 4.924 0 0099.207 152h11.582a4.924 4.924 0 004.917-4.917v-10.096c0-2.6-4.064-2.622-4.064 0v10.096a.868.868 0 01-.853.852H99.207a.867.867 0 01-.852-.852v-25.982c0-.459.394-.852.852-.852h10.883c.852 0 1.552.699 1.552 1.551v2.885c0 1.07.939 2.076 2.032 2.032 1.092-.044 2.032-.896 2.032-2.032v-3.06z" fill="#285596"/><path d="M113.674 128.64a1.902 1.902 0 000 3.802 1.902 1.902 0 000-3.802zm19.798-47.77c-4.108 3.912-8.238 7.802-12.347 11.713a7.278 7.278 0 00-3.736-1.048 7.308 7.308 0 00-5.048 2.032l-14.51-8.96a7.361 7.361 0 00.284-1.966c0-4.021-3.278-7.299-7.299-7.299-4.02 0-7.298 3.278-7.298 7.299 0 .72.109 1.398.305 2.054l-13.941 8.894a7.24 7.24 0 00-4.808-1.814c-4.02 0-7.298 3.278-7.298 7.299 0 4.021 3.277 7.298 7.298 7.298s7.299-3.277 7.299-7.298c0-.721-.11-1.399-.306-2.054l13.942-8.894a7.24 7.24 0 004.807 1.813c1.88 0 3.584-.72 4.895-1.9l14.619 9.024a7.665 7.665 0 00-.218 1.748c0 4.021 3.278 7.299 7.299 7.299 4.02 0 7.298-3.278 7.298-7.299a7.19 7.19 0 00-.786-3.277l12.455-11.8c1.858-1.792-1.027-4.655-2.906-2.863zm-68.42 21.46a3.24 3.24 0 01-3.234-3.234 3.24 3.24 0 013.234-3.235 3.24 3.24 0 013.234 3.234 3.24 3.24 0 01-3.234 3.235zm25.742-16.433a3.24 3.24 0 01-3.234-3.234 3.24 3.24 0 013.234-3.235 3.24 3.24 0 013.235 3.235 3.24 3.24 0 01-3.235 3.234zm26.573 16.17a3.24 3.24 0 01-3.234-3.234 3.24 3.24 0 013.234-3.234 3.24 3.24 0 013.234 3.234 3.24 3.24 0 01-3.234 3.234zm25.48-24.693a1.903 1.903 0 00-1.901-1.9 1.903 1.903 0 00-1.902 1.9c0 1.05.853 1.901 1.902 1.901a1.903 1.903 0 001.901-1.9z" fill="#285596"/><path d="M149.818 66.58l-13.024.392c-2.601.088-2.623 4.13 0 4.065l10.795-.328c-.35 3.737-.678 7.496-1.027 11.232-.241 2.6 3.824 2.579 4.064 0 .415-4.436.809-8.894 1.224-13.33.087-1.07-1.027-2.076-2.032-2.032zm-46.699-46.328l21.874.066c2.601 0 2.623-4.043 0-4.065l-21.874-.065c-2.622 0-2.622 4.064 0 4.064zm-4.523-3.474a1.9 1.9 0 00-2.688.065 1.9 1.9 0 00.066 2.688 1.9 1.9 0 002.687-.065 1.9 1.9 0 00-.065-2.688zm38.329 10.532l-33.806-.065c-2.6 0-2.622 4.043 0 4.064l33.806.066c2.6 0 2.622-4.064 0-4.064zm-38.329.503a1.9 1.9 0 00-2.688.066 1.9 1.9 0 00.066 2.688 1.9 1.9 0 002.687-.066 1.9 1.9 0 00-.065-2.688zm38.329 10.489l-33.806-.065c-2.6 0-2.622 4.042 0 4.064l33.806.066c2.6 0 2.622-4.065 0-4.065zm-40.995.568a1.9 1.9 0 00.065 2.688 1.9 1.9 0 002.688-.065 1.9 1.9 0 00-.065-2.688 1.92 1.92 0 00-2.688.065z" fill="#285596"/><path d="M4.39 43.044h33.631c-4.523 10.358-9.025 20.716-13.549 31.074C12.498 68 5.265 55.806 4.39 43.044z" fill="#75C422"/><path d="M14.901 14.79C21.566 8.123 30.22 4.561 39.091 4.124V38.98H4.326c.35-8.676 3.693-17.307 10.576-24.19zm51.747 114.702l13.242.044v18.356c0 .022-.022.043-.044.043l-13.242-.043.044-18.4z" fill="#fff"/><path d="M143.437 111.77v36.1c0 .022-.022.065-.066.065l-13.242-.065.065-36.166 13.243.066zm-78.385-9.44a3.242 3.242 0 01-3.234-3.234 3.24 3.24 0 013.234-3.235 3.24 3.24 0 013.234 3.234 3.241 3.241 0 01-3.234 3.235z" fill="#75C422"/><path d="M90.794 85.897a3.24 3.24 0 01-3.234-3.234 3.24 3.24 0 013.234-3.235 3.24 3.24 0 013.235 3.235 3.24 3.24 0 01-3.235 3.234z" fill="#fff"/><path d="M117.367 102.067a3.24 3.24 0 01-3.234-3.234 3.24 3.24 0 013.234-3.234 3.24 3.24 0 013.234 3.234 3.24 3.24 0 01-3.234 3.234z" fill="#75C422"/></svg>