<svg width="152" height="152" fill="none" xmlns="http://www.w3.org/2000/svg"><path d="M140.926 16.906c4.674 0 8.453-3.8 8.453-8.453 0-4.674-3.801-8.453-8.453-8.453-4.652 0-8.475 3.8-8.475 8.453.022 4.674 3.823 8.453 8.475 8.453zm0-12.865a4.428 4.428 0 014.412 4.412 4.428 4.428 0 01-4.412 4.412 4.428 4.428 0 01-4.412-4.412c.022-2.425 1.988-4.412 4.412-4.412zM126.27 19.549c-4.849 4.587-9.698 9.195-14.547 13.782a8.41 8.41 0 00-10.484 1.07l-18.5-11.423a8.415 8.415 0 00.414-2.6c0-4.673-3.8-8.452-8.453-8.452-4.674 0-8.474 3.8-8.474 8.453 0 .94.153 1.856.458 2.708L49.08 34.336c-1.53-1.442-3.56-2.337-5.832-2.337-4.675 0-8.475 3.8-8.475 8.453 0 1.55.437 3.014 1.18 4.28L16.97 63.234a8.372 8.372 0 00-4.455-1.288c-4.675 0-8.453 3.8-8.453 8.452 0 4.653 3.8 8.453 8.453 8.453 4.674 0 8.452-3.8 8.452-8.453 0-1.55-.436-3.014-1.179-4.28l18.98-18.5a8.373 8.373 0 004.457 1.288c4.674 0 8.453-3.8 8.453-8.453 0-.94-.153-1.857-.459-2.709l17.605-11.248c1.529 1.441 3.56 2.337 5.832 2.337a8.41 8.41 0 005.919-2.425l18.5 11.424a8.414 8.414 0 00-.415 2.599c0 4.674 3.801 8.453 8.453 8.453 4.674 0 8.453-3.8 8.453-8.453a8.379 8.379 0 00-1.114-4.172c4.871-4.609 9.742-9.24 14.613-13.848 1.965-1.79-.896-4.652-2.796-2.861zM12.537 74.809a4.428 4.428 0 01-4.412-4.412 4.428 4.428 0 014.412-4.412 4.428 4.428 0 014.413 4.412 4.428 4.428 0 01-4.413 4.413zm30.71-29.945a4.428 4.428 0 01-4.411-4.412 4.428 4.428 0 014.412-4.412 4.428 4.428 0 014.412 4.412 4.414 4.414 0 01-4.412 4.412zM74.7 24.791a4.428 4.428 0 01-4.412-4.412 4.428 4.428 0 014.412-4.412 4.428 4.428 0 014.412 4.412A4.428 4.428 0 0174.7 24.79zm32.458 20.073a4.428 4.428 0 01-4.412-4.412 4.428 4.428 0 014.412-4.412 4.428 4.428 0 014.412 4.412 4.414 4.414 0 01-4.412 4.412zm24.813-25.927a1.9 1.9 0 100-3.8 1.9 1.9 0 000 3.8zm-78.195 127.45v-23.568c0-2.599-4.063-2.621-4.063 0v23.568c0 .851-.7 1.55-1.55 1.55h-10.18c-.851 0-1.55-.699-1.55-1.55V86.364c0-.852.699-1.55 1.55-1.55h10.18c.85 0 1.55.698 1.55 1.55V110.5c0 2.599 4.063 2.621 4.063 0V86.342c0-3.08-2.512-5.613-5.614-5.613H37.984c-3.08 0-5.614 2.512-5.614 5.613v60.023c0 3.079 2.512 5.613 5.614 5.613h10.178c3.102 0 5.614-2.512 5.614-5.591z" fill="#285596"/><path d="M51.744 114.475a1.902 1.902 0 000 3.801 1.902 1.902 0 000-3.801zm65.876-3.975V86.342c0-3.08-2.512-5.613-5.613-5.613H101.85a5.612 5.612 0 00-5.613 5.613v60.023c0 3.079 2.512 5.613 5.613 5.613h10.179c3.079 0 5.613-2.512 5.613-5.613v-23.568c0-2.599-4.062-2.621-4.062 0v23.568c0 .852-.699 1.551-1.551 1.551H101.85a1.557 1.557 0 01-1.551-1.551V86.342c0-.852.699-1.55 1.551-1.55h10.179c.852 0 1.551.698 1.551 1.55V110.5c0 2.621 4.04 2.621 4.04 0z" fill="#285596"/><path d="M115.611 118.276a1.9 1.9 0 10-.001-3.801 1.9 1.9 0 00.001 3.801zM16.185 94.577H5.22A5.22 5.22 0 000 99.797v46.983A5.22 5.22 0 005.22 152h10.965a5.22 5.22 0 005.22-5.22V99.797a5.22 5.22 0 00-5.22-5.22zm1.18 52.203c0 .633-.525 1.157-1.158 1.157H5.242a1.165 1.165 0 01-1.158-1.157V99.797c0-.633.525-1.158 1.158-1.158h10.965c.633 0 1.158.525 1.158 1.158v46.983zm62.949 5.198c2.883 0 5.242-2.359 5.242-5.242V57.62c0-2.883-2.359-5.242-5.242-5.242h-10.9c-2.883 0-5.242 2.359-5.242 5.242v89.116c0 2.883 2.36 5.242 5.243 5.242h10.899zm-12.1-5.242V57.62c0-.655.545-1.202 1.2-1.202h10.9c.655 0 1.201.547 1.201 1.202v89.116c0 .655-.546 1.201-1.201 1.201h-10.9a1.212 1.212 0 01-1.2-1.201zm78.238-100.867h-10.681a5.36 5.36 0 00-5.351 5.351v95.407a5.36 5.36 0 005.351 5.351h10.681a5.36 5.36 0 005.351-5.351V51.22a5.36 5.36 0 00-5.351-5.351zm1.289 100.758c0 .699-.59 1.289-1.311 1.289h-10.681c-.699 0-1.31-.59-1.31-1.289V51.22c0-.699.59-1.289 1.31-1.289h10.681c.699 0 1.311.59 1.311 1.289v95.407z" fill="#285596"/><path d="M17.365 146.78c0 .633-.525 1.157-1.158 1.157H5.242a1.165 1.165 0 01-1.157-1.157V99.797c0-.633.524-1.157 1.157-1.157h10.965c.633 0 1.158.524 1.158 1.157v46.983z" fill="#75C422"/><path d="M68.213 146.736V57.62c0-.655.546-1.201 1.202-1.201h10.899c.655 0 1.201.546 1.201 1.2v89.117c0 .655-.546 1.201-1.201 1.201h-10.9a1.212 1.212 0 01-1.2-1.201z" fill="#fff"/><path d="M147.741 146.627c0 .699-.59 1.288-1.311 1.288h-10.681c-.699 0-1.31-.589-1.31-1.288V51.22c0-.699.59-1.289 1.31-1.289h10.681c.699 0 1.311.59 1.311 1.289v95.407z" fill="#75C422"/><path d="M16.951 70.453a4.412 4.412 0 10-8.823-.14 4.412 4.412 0 008.823.14z" fill="#fff"/><path d="M43.248 44.864a4.428 4.428 0 01-4.413-4.412 4.428 4.428 0 014.413-4.412 4.428 4.428 0 014.412 4.412 4.414 4.414 0 01-4.412 4.412z" fill="#75C422"/><path d="M74.7 24.79a4.428 4.428 0 01-4.412-4.411 4.428 4.428 0 014.412-4.412 4.428 4.428 0 014.412 4.412A4.428 4.428 0 0174.7 24.79z" fill="#fff"/><path d="M107.158 44.864a4.427 4.427 0 01-4.412-4.412 4.427 4.427 0 014.412-4.412 4.428 4.428 0 014.412 4.412 4.414 4.414 0 01-4.412 4.412z" fill="#75C422"/><path d="M140.926 4.04a4.428 4.428 0 014.412 4.413 4.428 4.428 0 01-4.412 4.412 4.428 4.428 0 01-4.412-4.412c.022-2.425 1.987-4.412 4.412-4.412z" fill="#fff"/></svg>