<svg width="64" height="64" fill="none" xmlns="http://www.w3.org/2000/svg"><path d="M62.406 30.493l-3.889 3.889a.999.999 0 01-1.414 0L42.96 20.24a.999.999 0 010-1.414l3.889-3.889a.999.999 0 011.414 0l14.142 14.142a1 1 0 01.001 1.414z" fill="#40C4FF"/><path d="M57.81 35.174c-.384 0-.769-.146-1.061-.438L42.606 20.593a1.501 1.501 0 010-2.121l3.89-3.889a1.501 1.501 0 012.121 0l14.142 14.142c.283.283.439.66.439 1.061 0 .401-.156.777-.439 1.061l-3.889 3.889a1.496 1.496 0 01-1.06.438zm-10.253-20.03a.498.498 0 00-.354.146l-3.89 3.889a.5.5 0 000 .707l14.143 14.142a.5.5 0 00.707 0l3.889-3.889a.501.501 0 000-.707L47.91 15.29a.5.5 0 00-.353-.146z" fill="#263238"/><path d="M1.594 31.2l4.95 4.95a.999.999 0 001.414 0L22.1 22.008a.999.999 0 000-1.414l-4.95-4.95a.999.999 0 00-1.414 0L1.594 29.786a1 1 0 000 1.414z" fill="#40C4FF"/><path d="M7.251 36.94c-.384 0-.768-.145-1.061-.437l-4.949-4.951a1.49 1.49 0 01-.439-1.061c0-.4.156-.777.439-1.061l14.142-14.14a1.501 1.501 0 012.121 0l4.95 4.95c.283.283.439.66.439 1.06 0 .402-.156.779-.439 1.062L8.312 36.502a1.497 1.497 0 01-1.061.439zm9.192-21.09a.498.498 0 00-.354.147L1.948 30.139a.495.495 0 00-.146.354c0 .134.052.259.146.353l4.949 4.95a.501.501 0 00.707 0l14.143-14.142a.501.501 0 000-.708l-4.95-4.95a.505.505 0 00-.354-.145zM42.96 50.438a.502.502 0 01-.354-.146l-9.899-9.9a.5.5 0 01.707-.707l9.899 9.9a.5.5 0 01-.353.853zm-4.242 2.829a.502.502 0 01-.354-.146l-9.192-9.192a.5.5 0 01.707-.707l9.192 9.192a.5.5 0 01-.353.853zm-19.093-3.159a2.99 2.99 0 01-2.121-.877 3.005 3.005 0 010-4.243l2.652-2.651c1.133-1.133 3.109-1.134 4.242 0 .566.566.879 1.32.879 2.12a2.98 2.98 0 01-.88 2.123l-2.65 2.65a2.99 2.99 0 01-2.122.878zm-1.414-1.584c.779.78 2.05.779 2.829 0l2.65-2.651c.379-.378.587-.88.587-1.415s-.208-1.036-.586-1.414c-.756-.756-2.072-.756-2.828 0l-2.652 2.65a2.004 2.004 0 000 2.83z" fill="#263238"/><path d="M22.454 54.351a2.988 2.988 0 01-2.121-.877 2.982 2.982 0 01-.879-2.121c0-.801.312-1.555.879-2.122l3.358-3.358a3.004 3.004 0 014.243 0 3.005 3.005 0 010 4.243l-3.359 3.358a2.988 2.988 0 01-2.121.877zm3.359-8.356c-.513 0-1.025.195-1.415.585l-3.358 3.358c-.378.378-.586.88-.586 1.415s.208 1.036.586 1.414a2.003 2.003 0 002.828 0l3.359-3.358a2.004 2.004 0 000-2.829 1.988 1.988 0 00-1.414-.585z" fill="#263238"/><path d="M26.696 57.179a2.99 2.99 0 01-2.121-.877 3.003 3.003 0 010-4.243l2.651-2.652a3.004 3.004 0 014.243 0c.566.567.879 1.32.879 2.122 0 .802-.312 1.555-.879 2.121l-2.651 2.652a2.99 2.99 0 01-2.122.877zm-1.414-1.584c.779.78 2.05.778 2.829 0l2.651-2.652c.378-.378.586-.88.586-1.414 0-.534-.208-1.037-.586-1.415a2.004 2.004 0 00-2.829 0l-2.651 2.652c-.78.78-.78 2.049 0 2.829z" fill="#263238"/><path d="M30.93 59.999a2.99 2.99 0 01-2.121-.877 3.005 3.005 0 010-4.243l1.945-1.945c1.132-1.132 3.108-1.134 4.242 0 .566.567.879 1.32.879 2.122 0 .802-.312 1.555-.879 2.121l-1.944 1.945a2.996 2.996 0 01-2.122.877zm-1.414-1.584c.78.78 2.051.779 2.829 0l1.944-1.945c.378-.378.586-.88.586-1.414 0-.534-.208-1.037-.586-1.415-.756-.755-2.072-.755-2.828 0l-1.945 1.945c-.78.78-.78 2.048 0 2.829zm-13.39-13.598a.502.502 0 01-.354-.146L9.02 37.917a.5.5 0 01.707-.707l6.753 6.753a.5.5 0 01-.354.854zm19.788-19.86a.497.497 0 01-.354-.147l-.156-.157a2.512 2.512 0 00-1.767-.731H23.515a.5.5 0 010-1h10.122c.921 0 1.823.374 2.475 1.025l.157.157a.5.5 0 01-.355.853zm1.104 32.541l-.121-.002a.5.5 0 01-.481-.518c.011-.275.208-.508.519-.481.336.014.837-.049 1.276-.408.447-.365.709-.881.737-1.453a2.01 2.01 0 00-.583-1.516.5.5 0 01.707-.707l.004.004.603.603c.775.775 1.993.88 2.774.241.447-.366.709-.883.738-1.454a2.007 2.007 0 00-.584-1.514.5.5 0 01.707-.707l.006.005.701.702c.399.399.951.619 1.516.583a1.989 1.989 0 001.453-.738c.639-.782.533-2-.241-2.775L32.707 33.321a.5.5 0 01.707-.707l14.041 14.041c1.134 1.133 1.269 2.941.308 4.115a3.01 3.01 0 01-2.176 1.104 2.972 2.972 0 01-1.396-.267 3.011 3.011 0 01-1.106 2.427c-.875.716-2.1.824-3.139.363a3.01 3.01 0 01-1.104 2.466 2.837 2.837 0 01-1.824.635z" fill="#263238"/><path d="M25.99 36.57a3.24 3.24 0 01-2.299-.95 3.228 3.228 0 01-.952-2.299c0-.868.338-1.684.952-2.298l2.48-2.48a3.477 3.477 0 012.475-1.025h6.328l6.218-6.218a.5.5 0 01.707.707l-6.364 6.364a.5.5 0 01-.354.146h-6.535c-.668 0-1.296.26-1.768.732l-2.48 2.48c-.425.425-.659.99-.659 1.591s.234 1.166.659 1.591a2.254 2.254 0 003.183 0l3.712-3.712a.5.5 0 01.707.707l-3.712 3.712a3.237 3.237 0 01-2.298.952zm21.203 8.202a.5.5 0 01-.354-.853l8.485-8.485a.5.5 0 01.707.707l-8.485 8.485a.494.494 0 01-.353.146zM30.5 14h-4a.5.5 0 010-1h4a.5.5 0 010 1z" fill="#263238"/><path d="M28.5 16a.5.5 0 01-.5-.5v-4a.5.5 0 011 0v4a.5.5 0 01-.5.5zm9-9h-4a.5.5 0 010-1h4a.5.5 0 010 1z" fill="#263238"/><path d="M35.5 9a.5.5 0 01-.5-.5v-4a.5.5 0 011 0v4a.5.5 0 01-.5.5zm-34 49.5h-1a.5.5 0 010-1h1a.5.5 0 010 1zm13 0h-11a.5.5 0 010-1h11a.5.5 0 010 1zm49 0h-1a.5.5 0 010-1h1a.5.5 0 010 1zm-3 0h-11a.5.5 0 010-1h11a.5.5 0 010 1z" fill="#263238"/></svg>