<svg width="1165" height="247" fill="none" xmlns="http://www.w3.org/2000/svg"><path d="M466.829 175.432h.5v-49.614h29.723v119.588h-29.723v-46.857h-51.054v46.857h-29.723V125.818h29.723v49.614h50.554zm139.995 36.538v33.436h-29.72V125.818h52.145c15.372 0 27.41 3.772 35.597 10.818 8.176 7.037 12.577 17.395 12.577 30.716 0 14.018-4.407 25.026-12.589 32.535-8.188 7.514-20.222 11.583-35.585 11.583h-22.425v.5zm.5-63.034h-.5v39.416h20.869c6.809 0 12.254-1.699 16.001-5.082 3.755-3.39 5.733-8.407 5.733-14.884 0-6.395-1.98-11.285-5.739-14.568-3.748-3.273-9.192-4.882-15.995-4.882h-20.369zm114.971 22.723v73.747h-27.823V125.818h26.348l55.603 74.22.9 1.202v-75.422h27.648v119.588h-26.348l-55.428-74.047-.9-1.203v1.503zm137.564 50.13v.5h65.762v23.117h-95.484V125.818h93.586v23.118h-63.864v24.945h57.651v23.118h-57.651v24.79zm155.781-39.218l-.2.284.2.284 42.78 62.267h-35.55l-25.916-38.196-.414-.61-.413.61-25.91 38.196H935.71l42.602-60.885.198-.284-.195-.286-39.853-58.133h34.509l23.153 34.919.416.629.417-.629 23.153-34.919h34.85l-39.32 56.753zm82.72-32.619v-.5h-36.07v-23.806h102.21v23.806h-36.42v95.954h-29.72v-95.454zm-824.69 10.337c0-10.951 4.713-19.891 13.004-26.108 8.305-6.227 20.229-9.741 34.652-9.741 17.171 0 34.673 5.211 46.996 13.117l-11.138 23.064c-12.739-7.289-28.609-12.374-38.447-12.374-4.019 0-7.448.739-9.888 2.273-2.467 1.55-3.902 3.902-3.902 7.012 0 5.546 4.277 8.829 10.286 11.336 3.022 1.261 6.538 2.349 10.281 3.437 1.017.296 2.051.591 3.097.89 2.812.804 5.712 1.633 8.616 2.557 7.969 2.537 15.866 5.763 21.771 11.03 5.881 5.246 9.811 12.539 9.811 23.292 0 11.889-5.265 20.957-13.856 27.07-8.609 6.125-20.58 9.296-33.972 9.296-19.935 0-40.381-7.432-54.605-18.928l11.44-22.67c6.178 5.282 13.794 9.679 21.423 12.78 7.827 3.181 15.703 5.011 22.087 5.011 4.884 0 8.92-.912 11.751-2.751 2.857-1.856 4.456-4.639 4.456-8.257 0-5.671-4.27-8.999-10.287-11.488-3.024-1.25-6.541-2.312-10.285-3.359-1.179-.33-2.381-.659-3.598-.992-2.655-.726-5.384-1.472-8.117-2.297-7.971-2.409-15.868-5.464-21.771-10.539-5.878-5.052-9.805-12.128-9.805-22.661zm278.27-34.471v119.588h-29.723V125.818h29.723zM80.488 110.452L144.99 1.939l16.495 29.393-46.622 79.12H80.488zm84.416 14.029c33.841 0 62.05 28.725 62.05 61.744 0 31.586-23.962 57.408-54.953 58.849H.854l16.498-29.399h147.552c17.313 0 31.775-13.23 31.775-30.897 0-16.206-14.446-30.899-31.775-30.899H54.91l17.872-29.398h92.122z" fill="#fff" stroke="#DFDFDF"/></svg>