<svg width="300" height="64" fill="none" xmlns="http://www.w3.org/2000/svg"><g clip-path="url(#clip0_1_6249)" fill-rule="evenodd" clip-rule="evenodd"><path d="M82.7 31.7c-7.463 0-12.395 3.642-12.395 9.37 0 11.01 16.437 7.725 16.437 13.23 0 1.776-1.555 2.708-4.043 2.708-3.242 0-8.04-1.864-11.239-4.662l-3.065 6.083c3.687 3.02 9.018 4.973 14.215 4.973 6.93 0 12.439-3.286 12.439-9.502 0-11.233-16.436-8.169-16.436-13.541 0-1.51 1.377-2.265 3.42-2.265 2.532 0 6.663 1.332 9.95 3.242l2.977-6.172c-3.198-2.087-7.774-3.463-12.26-3.463zm45.354 31.436v-31.08h-7.907v12.787h-12.882V32.056h-7.907v31.08h7.907V51.059h12.882v12.077h7.907zm14.127 0v-31.08h-7.907v31.08h7.907zm6.219-31.08h13.549c7.952 0 12.527 3.907 12.527 10.834 0 7.281-4.575 11.499-12.527 11.499h-5.643v8.746H148.4V32.056zm7.906 6.216v9.901h5.242c3.466 0 5.465-1.732 5.465-5.017 0-3.241-1.999-4.884-5.465-4.884h-5.242zm50.997 24.864v-31.08h-7.373v19.18l-14.349-19.18h-6.974v31.08h7.418V43.998l14.304 19.136h6.974zm30.563-24.864v-6.216h-24.343v31.08h24.832V56.92h-16.926v-6.26h14.838v-6.216h-14.838v-6.172h16.437zm23.633 8.613l10.261-14.829h-9.285l-5.997 9.058-5.997-9.058h-9.194l10.394 15.185-11.106 15.895h9.197l6.706-9.901 6.709 9.9h9.462l-11.15-16.25zm38.336-8.48v-6.393h-26.564v6.393h9.284v24.73h7.907v-24.73h9.373z" fill="#285596"/><path d="M29.636 28.354L41.71 7.834 37.319 0l-16.83 28.354h9.147z" fill="#75C422"/><path d="M58.54 47.754c0-8.581-7.318-16.043-16.099-16.043H18.66l-4.756 7.835h28.538c4.39 0 8.05 3.73 8.05 7.835 0 4.477-3.66 7.834-8.05 7.834H4.391L0 63.05h44.27c8.05-.373 14.27-7.088 14.27-15.296z" fill="#285596"/></g><defs><clipPath id="clip0_1_6249"><path fill="#fff" d="M0 0h300v63.402H0z"/></clipPath></defs></svg>