<svg width="33" height="33" fill="none" xmlns="http://www.w3.org/2000/svg"><g clip-path="url(#clip0_663_25)"><mask id="mask0_663_25" style="mask-type:luminance" maskUnits="userSpaceOnUse" x="7" y="8" width="18" height="16"><path d="M7 8h18v16H7V8z" fill="#fff"/></mask><g mask="url(#mask0_663_25)"><path fill-rule="evenodd" clip-rule="evenodd" d="M25 8v15.997h-8V8h8zm-4.828 5.997l-1.586 1.585L20 16.997l4-4-4-4-1.414 1.414 1.586 1.586H17v2h3.172zM7 23.997V8h8v15.997H7zM11.828 18l1.586-1.586L12 15l-4 4 4 4 1.414-1.414L11.828 20H15v-2h-3.172z" fill="#1E649F"/></g></g><defs><clipPath id="clip0_663_25"><path fill="#fff" d="M0 0h33v33H0z"/></clipPath></defs></svg>