<svg width="500" height="106" fill="none" xmlns="http://www.w3.org/2000/svg"><g clip-path="url(#clip0_1_6578)" fill-rule="evenodd" clip-rule="evenodd"><path d="M137.832 52.835c-12.438 0-20.656 6.068-20.656 15.614 0 18.351 27.394 12.875 27.394 22.051 0 2.96-2.592 4.514-6.738 4.514-5.404 0-13.401-3.108-18.731-7.77l-5.109 10.138c6.145 5.032 15.03 8.288 23.692 8.288 11.55 0 20.73-5.476 20.73-15.836 0-18.722-27.393-13.615-27.393-22.57 0-2.515 2.295-3.773 5.701-3.773 4.22 0 11.105 2.22 16.584 5.402l4.961-10.286c-5.331-3.478-12.957-5.772-20.435-5.772zm75.592 52.391V53.427h-13.179v21.312h-21.47V53.427h-13.179v51.799h13.179V85.098h21.47v20.128h13.179zm23.544 0V53.427h-13.179v51.799h13.179zm10.365-51.799h22.582c13.253 0 20.879 6.512 20.879 18.056 0 12.135-7.626 19.165-20.879 19.165h-9.405v14.578h-13.177V53.427zm13.177 10.36v16.502h8.737c5.776 0 9.109-2.886 9.109-8.362 0-5.402-3.333-8.14-9.109-8.14h-8.737zm84.995 41.439V53.427h-12.288v31.967l-23.915-31.967h-11.624v51.799h12.363V73.333l23.84 31.893h11.624zm50.938-41.44V53.428h-40.572v51.799h41.387v-10.36h-28.209V84.432h24.729v-10.36h-24.729V63.788h27.394zm39.389 14.356l17.101-24.715h-15.474l-9.995 15.096-9.995-15.096h-15.325l17.325 25.307-18.51 26.492h15.327l11.178-16.502 11.18 16.502h15.771l-18.583-27.084zm63.892-14.133V53.353h-44.273v10.656h15.474v41.217h13.178V64.009h15.621z" fill="#fff"/><path d="M49.393 47.256l20.123-34.198L62.198 0l-28.05 47.256h15.245z" fill="#75C422"/><path d="M97.566 79.59c0-14.302-12.196-26.738-26.83-26.738H31.098L23.172 65.91h47.563c7.318 0 13.415 6.218 13.415 13.058 0 7.461-6.097 13.057-13.415 13.057H7.317L0 105.083h73.784c13.415-.621 23.782-11.814 23.782-25.493z" fill="#fff"/></g><defs><clipPath id="clip0_1_6578"><path fill="#fff" d="M0 0h500v105.67H0z"/></clipPath></defs></svg>