<svg width="65" height="27" fill="none" xmlns="http://www.w3.org/2000/svg"><path fill-rule="evenodd" clip-rule="evenodd" d="M60.538 16.502c-9.787-2.91-36.814-10.945-57.59 9.092a1.508 1.508 0 11-2.094-2.172C23.04 2.024 52.008 10.767 61.503 13.633c.947.286 1.7.513 2.234.647a1.509 1.509 0 11-.73 2.927c-.619-.155-1.45-.402-2.47-.705z" fill="#fff"/><path fill-rule="evenodd" clip-rule="evenodd" d="M59.75.603a1.508 1.508 0 011.824 1.108 1602.61 1602.61 0 012.45 10.148c.272 1.152.478 2.04.616 2.66a27.798 27.798 0 01.208.999v.005c.008.043.033.19.033.344 0 .452-.196.77-.27.881a1.905 1.905 0 01-.255.306c-.126.123-.265.23-.372.308-.223.162-.52.355-.833.554l-.294.188a58.83 58.83 0 00-2.147 1.415c-1.904 1.327-4.016 3.058-5.312 5.056a1.509 1.509 0 01-2.531-1.642c1.624-2.503 4.132-4.505 6.118-5.89.861-.6 1.657-1.106 2.26-1.49a145.238 145.238 0 00.468-.299 1604.33 1604.33 0 00-3.07-12.828A1.509 1.509 0 0159.75.604zm2.125 15.432z" fill="#fff"/></svg>