<svg width="64" height="64" fill="none" xmlns="http://www.w3.org/2000/svg"><path d="M32 8C18.746 8 8 18.745 8 32c0 1.031.072 2.044.199 3.041l1.133.384a12.99 12.99 0 012.67-1.552l.273-1.364A3.128 3.128 0 0115.334 30h3.764a3.13 3.13 0 013.06 2.509l.272 1.364c.945.408 1.837.926 2.67 1.552l1.33-.45a3.13 3.13 0 013.702 1.395l1.882 3.261a3.126 3.126 0 01-.644 3.904l-1.047.921a12.798 12.798 0 010 3.09l1.049.922a3.126 3.126 0 01.642 3.903l-1.881 3.259c-.057.099-.128.186-.194.276.679.058 1.366.094 2.061.094 13.255 0 24-10.745 24-24S45.255 8 32 8z" fill="#40C4FF"/><path d="M17.216 41c-2.632 0-4.772 2.051-4.963 4.635a24.104 24.104 0 005.078 5.354c2.703-.063 4.885-2.271 4.885-4.988a5.006 5.006 0 00-5-5.001z" fill="#40C4FF"/><path d="M17.216 41c-2.632 0-4.772 2.051-4.963 4.635a24.104 24.104 0 005.078 5.354c2.703-.063 4.885-2.271 4.885-4.988a5.006 5.006 0 00-5-5.001z" fill="#40C4FF"/><path d="M32 56.5c-.66 0-1.349-.031-2.105-.096a.5.5 0 01-.456-.541.487.487 0 01.541-.456A23.29 23.29 0 0032 55.5c12.958 0 23.5-10.542 23.5-23.5S44.958 8.5 32 8.5 8.5 19.042 8.5 32c0 .957.065 1.958.194 2.979a.5.5 0 01-.993.125A25.097 25.097 0 017.5 32C7.5 18.491 18.491 7.5 32 7.5S56.5 18.491 56.5 32 45.51 56.5 32 56.5zm-14.67-5.012a.503.503 0 01-.306-.104 24.599 24.599 0 01-5.183-5.465.498.498 0 11.822-.568 23.591 23.591 0 004.973 5.243.5.5 0 01-.306.894z" fill="#263238"/><path d="M4 32.5a.5.5 0 01-.5-.5C3.5 16.285 16.285 3.5 32 3.5a.5.5 0 010 1C16.836 4.5 4.5 16.836 4.5 32a.5.5 0 01-.5.5zm31-28h-1a.5.5 0 010-1h1a.5.5 0 010 1zm-3 56a.5.5 0 010-1c15.164 0 27.5-12.336 27.5-27.5a.5.5 0 011 0c0 15.715-12.785 28.5-28.5 28.5zm21-54h-4a.5.5 0 010-1h4a.5.5 0 010 1z" fill="#263238"/><path d="M51 8.5a.5.5 0 01-.5-.5V4a.5.5 0 011 0v4a.5.5 0 01-.5.5zm9 4.5h-4a.5.5 0 010-1h4a.5.5 0 010 1z" fill="#263238"/><path d="M58 15a.5.5 0 01-.5-.5v-4a.5.5 0 011 0v4a.5.5 0 01-.5.5zm-26 5.5c-6.869 0-13.465-1.481-18.097-4.063a.5.5 0 11.487-.873C18.878 18.064 25.297 19.5 32 19.5c6.703 0 13.122-1.435 17.609-3.937a.5.5 0 01.487.873C45.465 19.019 38.869 20.5 32 20.5z" fill="#263238"/><path d="M32 56.5a.5.5 0 01-.5-.5V8a.5.5 0 011 0v48a.5.5 0 01-.5.5zm-19.577-24H8a.5.5 0 010-1h4.422a.5.5 0 01.001 1z" fill="#263238"/><path d="M56 32.5H22.009a.5.5 0 010-1H56a.5.5 0 010 1z" fill="#263238"/><path d="M28.596 48.69l-.452-.261a11.24 11.24 0 00.272-2.43c0-.836-.098-1.646-.272-2.43l.451-.261 1.455-1.279a1.12 1.12 0 00.231-1.401l-1.882-3.259a1.12 1.12 0 00-1.329-.501l-1.835.621-.458.265a11.175 11.175 0 00-4.201-2.44V34.8l-.38-1.9a1.12 1.12 0 00-1.098-.9h-3.764a1.12 1.12 0 00-1.098.9l-.38 1.9v.514a11.181 11.181 0 00-4.201 2.44l-.459-.264-1.835-.621a1.12 1.12 0 00-1.329.501L4.15 40.63a1.12 1.12 0 00.231 1.401l1.455 1.279.451.261A11.237 11.237 0 006.016 46c0 .835.098 1.647.272 2.43l-.452.26-1.455 1.279a1.12 1.12 0 00-.231 1.401l1.882 3.26a1.12 1.12 0 001.329.501l1.835-.621.459-.265a11.176 11.176 0 004.201 2.44v.515l.38 1.899a1.12 1.12 0 001.098.901h3.764a1.12 1.12 0 001.098-.9l.38-1.899v-.515a11.173 11.173 0 004.201-2.44l.459.265 1.835.621a1.12 1.12 0 001.329-.501l1.882-3.26a1.12 1.12 0 00-.231-1.401l-1.455-1.28zM17.216 53a7 7 0 110-14 7 7 0 010 14z" fill="#75C422"/><path d="M19.098 60.5h-3.764c-.77 0-1.438-.548-1.588-1.303l-.384-2.149a11.564 11.564 0 01-3.77-2.189l-.146.084-1.925.662a1.627 1.627 0 01-1.922-.725l-1.882-3.26a1.625 1.625 0 01.333-2.026l1.675-1.411c-.14-.733-.21-1.466-.21-2.183 0-.715.07-1.446.209-2.177l-.139-.08-1.536-1.337a1.622 1.622 0 01-.333-2.026l1.882-3.26a1.62 1.62 0 011.922-.725l2.066.75a11.565 11.565 0 013.769-2.191V34.8l.39-1.998a1.624 1.624 0 011.588-1.302h3.764c.77 0 1.438.548 1.588 1.303l.384 2.149a11.6 11.6 0 013.77 2.189l.146-.084 1.925-.662a1.623 1.623 0 011.922.725l1.881 3.26a1.623 1.623 0 01-.334 2.027l-1.674 1.411c.139.731.21 1.464.21 2.183 0 .716-.07 1.447-.209 2.177l.139.08a.561.561 0 01.08.058l1.455 1.279c.578.507.719 1.359.333 2.026l-1.881 3.26a1.625 1.625 0 01-1.922.725l-2.066-.75a11.555 11.555 0 01-3.769 2.191v.154l-.39 1.997a1.622 1.622 0 01-1.587 1.302zm-9.444-6.755c.122 0 .244.045.338.131a10.6 10.6 0 004.014 2.332.5.5 0 01.35.477v.515l.37 1.801a.622.622 0 00.608.499h3.764c.294 0 .55-.209.608-.498l.38-1.899-.01-.417a.5.5 0 01.35-.477 10.609 10.609 0 004.013-2.332.503.503 0 01.588-.065l.459.265 1.745.58a.62.62 0 00.736-.277l1.881-3.26a.621.621 0 00-.127-.775l-1.418-1.247-.409-.236a.5.5 0 01-.238-.541c.172-.779.26-1.56.26-2.322s-.087-1.543-.26-2.322a.5.5 0 01.238-.541l.451-.26 1.375-1.222a.62.62 0 00.127-.775l-1.881-3.26a.624.624 0 00-.736-.277l-1.835.621-.369.224a.5.5 0 01-.588-.065 10.622 10.622 0 00-4.013-2.332.5.5 0 01-.35-.477V34.8l-.37-1.801a.622.622 0 00-.608-.499h-3.764a.622.622 0 00-.608.498l-.38 1.9.01.417a.5.5 0 01-.35.477 10.607 10.607 0 00-4.014 2.332.501.501 0 01-.588.064l-.458-.265-1.745-.581a.62.62 0 00-.736.277l-1.882 3.26a.621.621 0 00.127.775l1.456 1.279.371.203a.5.5 0 01.238.541c-.173.78-.26 1.561-.26 2.322 0 .761.087 1.542.26 2.322a.5.5 0 01-.238.541l-.452.261-1.375 1.221a.622.622 0 00-.127.776l1.882 3.259a.622.622 0 00.736.277l1.834-.621.368-.224a.521.521 0 01.252-.066zm7.562-.245c-4.136 0-7.5-3.364-7.5-7.5s3.364-7.5 7.5-7.5 7.5 3.364 7.5 7.5-3.364 7.5-7.5 7.5zm0-14a6.508 6.508 0 00-6.5 6.5c0 3.584 2.916 6.5 6.5 6.5s6.5-2.916 6.5-6.5-2.916-6.5-6.5-6.5z" fill="#263238"/><path d="M49.853 48.5a.506.506 0 01-.243-.063C45.122 45.935 38.704 44.5 32 44.5c-.256 0-.508.009-.759.019l-.426.014a.483.483 0 01-.513-.487.501.501 0 01.487-.513l.416-.014c.263-.009.527-.019.795-.019 6.869 0 13.464 1.481 18.096 4.063a.5.5 0 01-.243.937zm-35.705 0a.5.5 0 01-.244-.936c2.288-1.275 5.016-2.279 8.107-2.982a.497.497 0 01.598.376.499.499 0 01-.376.598c-2.999.683-5.637 1.652-7.841 2.88a.506.506 0 01-.244.064z" fill="#263238"/><path d="M21.375 49.268a.5.5 0 01-.428-.241c-1.37-2.265-2.438-4.886-3.177-7.792a.499.499 0 11.968-.246c.715 2.81 1.746 5.34 3.064 7.52a.5.5 0 01-.427.759zM32 56.5a.5.5 0 010-1c7.917 0 14.357-10.542 14.357-23.5S39.917 8.5 32 8.5c-7.403 0-13.686 9.455-14.302 21.525a.512.512 0 01-.525.474.5.5 0 01-.474-.525C17.354 17.162 23.932 7.5 32 7.5c8.468 0 15.357 10.991 15.357 24.5S40.468 56.5 32 56.5zm-2 4h-1a.5.5 0 010-1h1a.5.5 0 010 1z" fill="#263238"/></svg>