<svg width="64" height="64" fill="none" xmlns="http://www.w3.org/2000/svg"><g clip-path="url(#clip0_1_7637)"><path d="M21.005 42.5a.5.5 0 01-.5-.5v-1.955a1.99 1.99 0 00-1.106-1.789l-5.626-2.813a.5.5 0 01.447-.895l5.626 2.813a2.984 2.984 0 011.659 2.683V42a.5.5 0 01-.5.5zm-10-8a6.508 6.508 0 01-6.5-6.5c0-3.584 2.916-6.5 6.5-6.5s6.5 2.916 6.5 6.5-2.916 6.5-6.5 6.5zm0-12a5.506 5.506 0 00-5.5 5.5c0 3.033 2.467 5.5 5.5 5.5s5.5-2.467 5.5-5.5-2.467-5.5-5.5-5.5z" fill="#263238"/><path d="M15.165 24.531l.447-.372A6 6 0 005.005 28h.566c3.505 0 6.9-1.227 9.594-3.469z" fill="#75C422"/><path d="M5.571 28.5h-.566a.5.5 0 01-.5-.5c0-3.584 2.916-6.5 6.5-6.5 1.932 0 3.751.852 4.991 2.338a.5.5 0 01-.064.705l-.447.372A15.528 15.528 0 015.571 28.5zm-.044-1h.044c3.381 0 6.675-1.191 9.274-3.354l.045-.038a5.483 5.483 0 00-3.885-1.609A5.51 5.51 0 005.527 27.5zM11 39.996a.5.5 0 01-.416-.222L7.58 35.283a.498.498 0 01-.084-.277l-.001-1.82c0-.179.096-.345.25-.434a.503.503 0 01.501.001 5.55 5.55 0 005.499.011.502.502 0 01.75.433l.001 1.798a.496.496 0 01-.084.277l-2.996 4.5a.498.498 0 01-.416.224zm-2.504-5.143l2.503 3.742 2.497-3.75v-.844a6.542 6.542 0 01-5-.009v.861z" fill="#263238"/><path d="M1 42.5a.5.5 0 01-.5-.5v-1.954c0-1.145.636-2.173 1.659-2.684l5.613-2.804a.5.5 0 11.447.895l-5.613 2.804a1.988 1.988 0 00-1.106 1.79V42a.5.5 0 01-.5.5zm10 0a.5.5 0 01-.5-.5v-2.504a.5.5 0 011 0V42a.5.5 0 01-.5.5zm52 0a.5.5 0 01-.5-.5v-1.955c0-.762-.424-1.448-1.105-1.789l-5.627-2.813a.5.5 0 01.447-.895l5.627 2.813a2.985 2.985 0 011.658 2.683V42a.5.5 0 01-.5.5zm-10-8a6.508 6.508 0 01-6.5-6.5c0-3.584 2.916-6.5 6.5-6.5s6.5 2.916 6.5 6.5-2.916 6.5-6.5 6.5zm0-12a5.506 5.506 0 00-5.5 5.5c0 3.033 2.468 5.5 5.5 5.5s5.5-2.467 5.5-5.5-2.468-5.5-5.5-5.5z" fill="#263238"/><path d="M57.16 24.531l.447-.372A6 6 0 0047 28h.566c3.506 0 6.9-1.227 9.594-3.469z" fill="#75C422"/><path d="M47.566 28.5H47a.5.5 0 01-.5-.5c0-3.584 2.916-6.5 6.5-6.5 1.932 0 3.751.852 4.991 2.338a.5.5 0 01-.065.705l-.447.372a15.525 15.525 0 01-9.913 3.585zm-.044-1h.044c3.381 0 6.675-1.191 9.274-3.354l.045-.038A5.486 5.486 0 0053 22.5a5.508 5.508 0 00-5.478 5zm5.473 12.496a.5.5 0 01-.416-.222l-3.004-4.491a.498.498 0 01-.084-.277l-.001-1.82a.501.501 0 01.752-.433 5.548 5.548 0 005.498.011.502.502 0 01.75.433l.001 1.798a.496.496 0 01-.084.277l-2.996 4.5a.498.498 0 01-.416.224zm-2.504-5.143l2.503 3.742 2.497-3.75L55.49 34a6.538 6.538 0 01-5-.009l.001.862z" fill="#263238"/><path d="M42.995 42.5a.5.5 0 01-.5-.5v-1.954c0-1.145.636-2.173 1.659-2.684l5.613-2.804a.5.5 0 11.447.895l-5.613 2.804a1.988 1.988 0 00-1.106 1.79V42a.5.5 0 01-.5.5zm10 0a.5.5 0 01-.5-.5v-2.504a.5.5 0 011 0V42a.5.5 0 01-.5.5zM10.998 17.502a.5.5 0 01-.5-.5v-5.5c0-1.654 1.346-3 3-3h7.5a.5.5 0 010 1h-7.5c-1.103 0-2 .897-2 2v5.5a.5.5 0 01-.5.5zm41.999 0a.5.5 0 01-.5-.5v-5.5c0-1.103-.897-2-2-2h-7.5a.5.5 0 010-1h7.5c1.654 0 3 1.346 3 3v5.5a.5.5 0 01-.5.5zm-2.5 38h-7.5a.5.5 0 010-1h7.5c1.103 0 2-.897 2-2v-5.5a.5.5 0 011 0v5.5c0 1.655-1.346 3-3 3zm-29.499 0h-7.5c-1.654 0-3-1.346-3-3v-5.5a.5.5 0 011 0v5.5c0 1.103.897 2 2 2h7.5a.5.5 0 010 1zM42 21.5a.5.5 0 01-.5-.5v-1.955c0-.762-.424-1.448-1.105-1.789l-5.627-2.813a.5.5 0 01.447-.895l5.627 2.813a2.985 2.985 0 011.658 2.683V21a.5.5 0 01-.5.5zm-10-8A6.508 6.508 0 0125.5 7c0-3.584 2.916-6.5 6.5-6.5s6.5 2.916 6.5 6.5-2.916 6.5-6.5 6.5zm0-12A5.506 5.506 0 0026.5 7c0 3.033 2.467 5.5 5.5 5.5 3.032 0 5.5-2.467 5.5-5.5S35.032 1.5 32 1.5z" fill="#263238"/><path d="M36.16 3.531l.447-.372A6 6 0 0026 7h.566c3.505 0 6.9-1.227 9.594-3.469z" fill="#75C422"/><path d="M26.566 7.5H26a.5.5 0 01-.5-.5c0-3.584 2.916-6.5 6.5-6.5 1.932 0 3.751.852 4.991 2.338a.5.5 0 01-.065.705l-.447.372A15.525 15.525 0 0126.566 7.5zm-.044-1h.044c3.381 0 6.675-1.191 9.274-3.354l.045-.038A5.486 5.486 0 0032 1.5a5.509 5.509 0 00-5.478 5zm5.473 12.496a.5.5 0 01-.416-.222l-3.004-4.491a.498.498 0 01-.084-.277l-.001-1.82c0-.179.096-.345.25-.434a.503.503 0 01.501.001 5.55 5.55 0 005.499.011.502.502 0 01.75.433l.001 1.798a.496.496 0 01-.084.277l-2.996 4.5a.497.497 0 01-.416.224zm-2.504-5.143l2.503 3.742 2.497-3.75L34.49 13a6.542 6.542 0 01-5-.009l.001.862z" fill="#263238"/><path d="M21.995 21.5a.5.5 0 01-.5-.5v-1.954c0-1.145.636-2.173 1.659-2.684l5.613-2.804a.5.5 0 11.447.895l-5.613 2.804a1.988 1.988 0 00-1.106 1.79V21a.5.5 0 01-.5.5zm10 0a.5.5 0 01-.5-.5v-2.504a.5.5 0 011 0V21a.5.5 0 01-.5.5zM42 63.5a.5.5 0 01-.5-.5v-1.955c0-.762-.424-1.448-1.105-1.789l-5.627-2.813a.5.5 0 01.447-.895l5.627 2.813a2.985 2.985 0 011.658 2.683V63a.5.5 0 01-.5.5zm-10-8a6.508 6.508 0 01-6.5-6.5c0-3.584 2.916-6.5 6.5-6.5s6.5 2.916 6.5 6.5-2.916 6.5-6.5 6.5zm0-12a5.506 5.506 0 00-5.5 5.5c0 3.033 2.467 5.5 5.5 5.5 3.032 0 5.5-2.467 5.5-5.5s-2.468-5.5-5.5-5.5z" fill="#263238"/><path d="M36.16 45.531l.447-.372A6 6 0 0026 49h.566c3.505 0 6.9-1.227 9.594-3.469z" fill="#75C422"/><path d="M26.566 49.5H26a.5.5 0 01-.5-.5c0-3.584 2.916-6.5 6.5-6.5 1.932 0 3.751.852 4.991 2.338a.5.5 0 01-.065.705l-.447.372a15.525 15.525 0 01-9.913 3.585zm-.044-1h.044c3.381 0 6.675-1.191 9.274-3.354l.045-.038A5.486 5.486 0 0032 43.5a5.509 5.509 0 00-5.478 5zm5.473 12.496a.5.5 0 01-.416-.222l-3.004-4.491a.498.498 0 01-.084-.277l-.001-1.82c0-.179.096-.345.25-.434a.503.503 0 01.501.001 5.55 5.55 0 005.499.011.502.502 0 01.75.433l.001 1.798a.496.496 0 01-.084.277l-2.996 4.5a.497.497 0 01-.416.224zm-2.504-5.143l2.503 3.742 2.497-3.75L34.49 55a6.547 6.547 0 01-5-.009l.001.862z" fill="#263238"/><path d="M21.995 63.5a.5.5 0 01-.5-.5v-1.954c0-1.145.636-2.173 1.659-2.684l5.613-2.804a.5.5 0 01.447.895l-5.613 2.804a1.988 1.988 0 00-1.106 1.79V63a.5.5 0 01-.5.5zm10 0a.5.5 0 01-.5-.5v-2.504a.5.5 0 011 0V63a.5.5 0 01-.5.5zM56 3.5h-4a.5.5 0 010-1h4a.5.5 0 010 1z" fill="#263238"/><path d="M54 5.5a.5.5 0 01-.5-.5V1a.5.5 0 011 0v4a.5.5 0 01-.5.5zm9 4.5h-4a.5.5 0 010-1h4a.5.5 0 010 1z" fill="#263238"/><path d="M61 12a.5.5 0 01-.5-.5v-4a.5.5 0 011 0v4a.5.5 0 01-.5.5z" fill="#263238"/></g><defs><clipPath id="clip0_1_7637"><path fill="#fff" d="M0 0h64v64H0z"/></clipPath></defs></svg>