<svg width="64" height="64" fill="none" xmlns="http://www.w3.org/2000/svg"><path d="M57 22a.5.5 0 01-.5-.5v-1c0-6.617-5.383-12-12-12H41a.5.5 0 010-1h3.5c7.168 0 13 5.832 13 13v1a.5.5 0 01-.5.5z" fill="#263238"/><path d="M57 22a.502.502 0 01-.354-.146l-2.828-2.828a.5.5 0 01.707-.707L57 20.793l2.475-2.475a.5.5 0 01.707.707l-2.828 2.828A.5.5 0 0157 22zM20.829 56.5h-3.5c-7.168 0-13-5.832-13-13v-1a.5.5 0 011 0v1c0 6.617 5.383 12 12 12h3.5a.5.5 0 010 1z" fill="#263238"/><path d="M7.657 45.828a.502.502 0 01-.354-.146l-2.475-2.475-2.475 2.475a.5.5 0 01-.707-.707l2.829-2.828a.5.5 0 01.707 0l2.828 2.828a.5.5 0 01-.353.853zM24.829 56.5h-2a.5.5 0 010-1h2a.5.5 0 010 1zM39 8.5h-2a.5.5 0 010-1h2a.5.5 0 010 1z" fill="#263238"/><path d="M5.546 14.419A10.729 10.729 0 015.5 13.5C5.5 7.701 10.201 3 16 3c4.117 0 7.67 2.375 9.391 5.825a6.997 6.997 0 019.076 6.028A7.496 7.496 0 0138.5 21.5 7.5 7.5 0 0131 29h-8l-7 7v-7H8a7.5 7.5 0 01-7.5-7.5c0-3.282 2.111-6.064 5.046-7.081z" fill="#75C422"/><path d="M16 36.5a.5.5 0 01-.5-.5v-6.5H8c-4.411 0-8-3.589-8-8a8.002 8.002 0 015.02-7.418A8.612 8.612 0 015 13.5c0-6.065 4.935-11 11-11 4.052 0 7.711 2.186 9.646 5.732A7.51 7.51 0 0127.5 8a7.46 7.46 0 017.437 6.539A7.979 7.979 0 0139 21.5c0 4.411-3.589 8-8 8h-7.793l-6.854 6.854A.5.5 0 0116 36.5zm0-33c-5.514 0-10 4.486-10 10 0 .296.02.586.044.876a.501.501 0 01-.334.516A7 7 0 001 21.5c0 3.859 3.14 7 7 7h8a.5.5 0 01.5.5v5.793l6.146-6.146A.5.5 0 0123 28.5h8c3.859 0 7-3.141 7-7a6.983 6.983 0 00-3.764-6.203.504.504 0 01-.267-.397A6.464 6.464 0 0027.5 9c-.666 0-1.325.102-1.958.301a.5.5 0 01-.598-.253C23.237 5.626 19.81 3.5 16 3.5z" fill="#263238"/><path d="M16 24.5c-6.065 0-11-4.935-11-11a.5.5 0 011 0c0 5.514 4.486 10 10 10a.5.5 0 010 1zM27.5 23c-4.136 0-7.5-3.364-7.5-7.5a.5.5 0 011 0c0 3.584 2.916 6.5 6.5 6.5s6.5-2.916 6.5-6.5a.5.5 0 011 0c0 4.136-3.364 7.5-7.5 7.5z" fill="#263238"/><path d="M58.454 39.419c.026-.303.046-.609.046-.919C58.5 32.701 53.799 28 48 28c-4.117 0-7.67 2.375-9.391 5.825a6.997 6.997 0 00-9.076 6.028A7.496 7.496 0 0025.5 46.5 7.5 7.5 0 0033 54h8l7 7v-7h8a7.5 7.5 0 007.5-7.5c0-3.282-2.111-6.064-5.046-7.081z" fill="#40C4FF"/><path d="M48 61.5a.504.504 0 01-.354-.146L40.793 54.5H33c-4.411 0-8-3.589-8-8a7.978 7.978 0 014.064-6.961A7.457 7.457 0 0136.5 33c.628 0 1.249.078 1.854.231A10.935 10.935 0 0148 27.5c6.065 0 11 4.935 11 11 0 .196-.008.39-.02.582A8.004 8.004 0 0164 46.5c0 4.411-3.589 8-8 8h-7.5V61a.5.5 0 01-.5.5zM36.5 34a6.463 6.463 0 00-6.469 5.899.5.5 0 01-.267.397A6.983 6.983 0 0026 46.5c0 3.859 3.14 7 7 7h8c.133 0 .26.053.354.146l6.146 6.146V54a.5.5 0 01.5-.5h8c3.859 0 7-3.141 7-7a7 7 0 00-4.711-6.608.5.5 0 01-.334-.516c.025-.29.045-.58.045-.876 0-5.514-4.486-10-10-10-3.81 0-7.237 2.126-8.944 5.548a.5.5 0 01-.598.253A6.523 6.523 0 0036.5 34z" fill="#263238"/><path d="M48 49.5a.5.5 0 010-1c5.514 0 10-4.486 10-10a.5.5 0 011 0c0 6.065-4.935 11-11 11zM36.5 48c-4.136 0-7.5-3.364-7.5-7.5a.5.5 0 011 0c0 3.584 2.916 6.5 6.5 6.5s6.5-2.916 6.5-6.5a.5.5 0 011 0c0 4.136-3.364 7.5-7.5 7.5z" fill="#263238"/></svg>