<svg width="152" height="152" fill="none" xmlns="http://www.w3.org/2000/svg"><path d="M.566 142.349c1.938 12.367 18.53 9.319 27.39 9.319h68.281c3.788 0 7.838.435 11.213-1.72 3.745-2.395 5.051-6.38 5.051-10.626 0-2.591-4.05-2.612-4.05 0 0 7.338-5.182 8.296-10.8 8.296H18.29c-2.744 0-6.293.544-8.993-.305-7.403-2.33-4.833-17.244-4.833-22.992V36.685c0-8.274-.392-16.678 0-24.952.479-10.103 14.174-7.512 21.163-7.512h70.109c5.465 0 12.737-.61 12.737 7.381 0 2.591 4.05 2.613 4.05 0 0-13.912-15.916-11.43-25.191-11.43H18.05c-3.31 0-7.207-.458-10.364.675C-1.764 4.22.48 16.632.48 24.492v94.277c-.043 7.599-1.11 16.025.087 23.58z" fill="#285596"/><path d="M82.694 22.903c2.59 0 2.612-4.028 0-4.05l-19.77-.066c-2.591 0-2.613 4.029 0 4.05l19.77.066zm-24.19-.85a1.893 1.893 0 00-.065-2.678 1.893 1.893 0 00-2.678.066 1.893 1.893 0 00.065 2.678c.762.718 1.96.675 2.678-.066zm4.42 11.78l20.554.065c2.59 0 2.612-4.028 0-4.05l-20.554-.065c-2.591 0-2.591 4.05 0 4.05zm-7.098-.719c.762.719 1.96.697 2.678-.065a1.893 1.893 0 00-.065-2.678 1.893 1.893 0 00-2.678.065c-.719.762-.675 1.938.065 2.678zm7.098 11.67l20.554.066c2.59 0 2.612-4.028 0-4.05l-20.554-.065c-2.591 0-2.591 4.05 0 4.05zm-7.098-.718c.762.718 1.96.697 2.678-.066a1.893 1.893 0 00-.065-2.678 1.893 1.893 0 00-2.678.066 1.913 1.913 0 00.065 2.678zM37.384 18.09H22.448c-3.396 0-6.14 2.766-6.14 6.14v14.937c0 3.396 2.765 6.14 6.14 6.14h14.936a6.146 6.146 0 006.14-6.14V24.23c.022-3.375-2.743-6.14-6.14-6.14zm2.112 21.099a2.114 2.114 0 01-2.112 2.112H22.448a2.114 2.114 0 01-2.112-2.112V24.253c0-1.154.936-2.113 2.112-2.113h14.936c1.154 0 2.112.937 2.112 2.113v14.936zm6.619 86.308a2.043 2.043 0 001.524-.131 1.94 1.94 0 00.98-1.176c.523-1.676.784-3.396.784-5.138 0-4.529-1.764-8.796-4.986-12.019-4.507-4.507-11.082-6.118-17.179-4.202-1.067.327-1.633 1.459-1.306 2.526a1.987 1.987 0 002.525 1.306c4.66-1.459 9.69-.239 13.13 3.201a12.958 12.958 0 013.2 13.129c-.305 1.023.283 2.155 1.328 2.504zm-25.757 5.595c4.507 4.507 11.082 6.118 17.179 4.202a2.005 2.005 0 001.415-1.916c0-.196-.022-.413-.087-.609a1.958 1.958 0 00-.98-1.176c-.479-.239-1.023-.305-1.524-.131-4.66 1.459-9.689.24-13.13-3.2a12.958 12.958 0 01-3.2-13.129c.327-1.045-.261-2.199-1.306-2.526-1.067-.327-2.2.261-2.526 1.306-1.96 6.097-.348 12.672 4.159 17.179z" fill="#285596"/><path d="M42.392 119.052a9.953 9.953 0 00-2.918-7.055 9.898 9.898 0 00-7.054-2.917 9.914 9.914 0 00-7.054 2.917 9.9 9.9 0 00-2.918 7.055 9.949 9.949 0 002.918 7.054 9.899 9.899 0 007.054 2.918 9.91 9.91 0 007.054-2.918c1.873-1.894 2.918-4.398 2.918-7.054zm-5.77 4.224a5.929 5.929 0 01-4.224 1.742 6.022 6.022 0 01-4.224-1.742 5.928 5.928 0 01-1.741-4.224 6.02 6.02 0 011.741-4.224 5.929 5.929 0 014.224-1.742c1.59 0 3.092.631 4.224 1.742a5.927 5.927 0 011.742 4.224 5.93 5.93 0 01-1.742 4.224zM21.817 110.43c.544 0 1.045-.218 1.415-.61.37-.37.566-.871.566-1.393a2.06 2.06 0 00-.61-1.459 2.062 2.062 0 00-1.437-.566c-.544 0-1.045.217-1.415.609a2.045 2.045 0 00.044 2.853c.392.392.892.587 1.437.566zm21.207 21.25c.522 0 1.045-.218 1.415-.588.37-.37.588-.892.588-1.415a2.03 2.03 0 00-.588-1.415 2.031 2.031 0 00-1.415-.588c-.523 0-1.046.218-1.416.588-.74.74-.74 2.09 0 2.852.37.348.893.566 1.416.566zm43.328-46.877l-67.235-.065c-2.591 0-2.613 4.028 0 4.05l67.235.065c2.59 0 2.612-4.05 0-4.05zM18.333 73.742c-2.591 0-2.613 4.028 0 4.05l68.019.065c2.59 0 2.612-4.028 0-4.05l-68.019-.065zm0-6.923l68.019.065c2.59 0 2.612-4.028 0-4.05l-68.019-.065c-2.613.022-2.613 4.05 0 4.05z" fill="#285596"/><path d="M82.128 118.943h2.612c.697 6.989 4.986 12.454 12.738 12.759 6.052.239 12.171 0 18.224 0 6.031 0 12.105.239 18.136 0 7.795-.305 12.15-5.705 12.825-12.759h2.612c1.089 0 2.025-.936 2.025-2.025 0-9.21-5.051-16.46-14.849-16.765h-.065v-.675c0-4.834-3.549-8.862-8.165-9.624l8.862-44.373c1.611-8.056-1.046-16.22-6.924-21.25-4.028-3.44-9.167-5.356-14.457-5.356a22.11 22.11 0 00-14.458 5.356c-5.878 5.051-8.535 13.194-6.924 21.25l8.884 44.373c-4.616.762-8.165 4.79-8.165 9.624v.675h-.065c-9.798.261-14.85 7.555-14.85 16.765-.021 1.111.893 2.025 2.004 2.025zm21.729-91.664a18.14 18.14 0 0111.845-4.376 18.08 18.08 0 0111.822 4.376c4.769 4.093 6.924 10.756 5.596 17.396l-8.992 45.027h-16.853l-9.014-45.026c-1.306-6.62.828-13.282 5.596-17.397zm-4.79 72.199a5.733 5.733 0 015.726-5.726h21.817a5.733 5.733 0 015.726 5.726v.61c-5.552-.066-11.104.065-16.634.065-5.531 0-11.083-.109-16.635-.065v-.61zm-2.068 4.725h37.122c7.469 0 12.259 3.505 12.999 10.712h-21.642c-2.591 0-2.613 4.05 0 4.05h17.091c-.718 5.704-4.528 8.709-10.647 8.709H99.655c-6.162 0-10.168-2.852-10.908-8.709h18.398c2.591 0 2.613-4.05 0-4.05H84.218c.762-7.033 5.4-10.712 12.78-10.712z" fill="#285596"/><path d="M117.966 118.224a1.893 1.893 0 00-.065-2.678 1.893 1.893 0 00-2.678.066 1.892 1.892 0 00.065 2.678 1.892 1.892 0 002.678-.066z" fill="#285596"/><path d="M39.496 39.189a2.114 2.114 0 01-2.112 2.112H22.448a2.114 2.114 0 01-2.112-2.112V24.253c0-1.154.936-2.113 2.112-2.113h14.936c1.154 0 2.112.937 2.112 2.113v14.936z" fill="#75C422"/><path d="M36.622 123.276a5.929 5.929 0 01-4.224 1.742 6.022 6.022 0 01-4.224-1.742 5.928 5.928 0 01-1.741-4.224 6.02 6.02 0 011.741-4.224 5.929 5.929 0 014.224-1.742c1.59 0 3.092.631 4.224 1.742a5.927 5.927 0 011.742 4.224 5.93 5.93 0 01-1.742 4.224zm67.235-95.997a18.14 18.14 0 0111.845-4.376 18.08 18.08 0 0111.822 4.376c4.769 4.093 6.924 10.756 5.596 17.396l-8.992 45.027h-16.853l-9.014-45.026c-1.306-6.62.828-13.282 5.596-17.397z" fill="#BFDCFF"/><path d="M99.067 99.478a5.733 5.733 0 015.726-5.726h21.817a5.733 5.733 0 015.726 5.726v.61c-5.552-.066-11.104.065-16.634.065-5.531 0-11.083-.109-16.635-.065v-.61z" fill="#75C422"/></svg>