<svg width="152" height="152" fill="none" xmlns="http://www.w3.org/2000/svg"><path d="M141.375 11.845H90.149v-8.61A3.241 3.241 0 0086.914 0h-22.16a3.241 3.241 0 00-3.234 3.234v8.611H10.293C4.611 11.845 0 16.456 0 22.138v77.146c0 5.682 4.611 10.293 10.293 10.293h13.922c0 .088-.022.197-.022.284v6.251a4.36 4.36 0 004.349 4.349h33.502c-4.677 9.484-9.353 18.969-14.052 28.454-1.158 2.338 2.338 4.393 3.497 2.054 4.895-9.9 9.769-19.8 14.664-29.722a2.23 2.23 0 00.218-.786h18.904c.022.262.088.524.219.786 4.895 9.9 9.769 19.8 14.664 29.722 1.158 2.339 4.655.284 3.497-2.054-4.677-9.485-9.354-18.97-14.052-28.454h33.502a4.36 4.36 0 004.349-4.349v-6.251c0-.087-.022-.196-.022-.284h13.921c5.683 0 10.294-4.611 10.294-10.293V22.138c.022-5.682-4.59-10.293-10.272-10.293zm-75.812-7.78h20.5v7.78h-20.5v-7.78zm57.848 105.818v6.251a.29.29 0 01-.284.284H28.52a.29.29 0 01-.284-.284v-6.251a.29.29 0 01.284-.284h94.607a.29.29 0 01.284.284zm24.215-10.577a6.25 6.25 0 01-6.251 6.25H10.272a6.249 6.249 0 01-6.25-6.25V22.16a6.249 6.249 0 016.25-6.25h131.081a6.25 6.25 0 016.251 6.25v77.146h.022z" fill="#285596"/><path d="M73.977 66.787h-13.2a4.118 4.118 0 00-4.109 4.108v18.358a4.118 4.118 0 004.109 4.108h13.2a4.118 4.118 0 004.108-4.108V70.895c0-2.25-1.857-4.108-4.108-4.108zm.043 22.466a.047.047 0 01-.043.043l-13.244-.043.044-18.401 13.243.043v18.358zm63.487-40.233h-13.178a4.118 4.118 0 00-4.109 4.108V89.23a4.118 4.118 0 004.109 4.109h13.178a4.118 4.118 0 004.109-4.11v-36.1a4.104 4.104 0 00-4.109-4.109zm.066 40.21c0 .023-.022.066-.066.066l-13.244-.065.066-36.169 13.244.066V89.23zm-27.755-26.071v-.175c0-.044-.022-.087-.022-.153-.175-2.95-2.601-5.289-5.595-5.289H93.318A4.925 4.925 0 0088.4 62.46v25.985a4.925 4.925 0 004.918 4.918H104.9a4.925 4.925 0 004.918-4.918V78.347c0-2.6-4.065-2.622-4.065 0v10.097a.868.868 0 01-.853.852H93.318a.868.868 0 01-.853-.852V62.46c0-.458.394-.852.853-.852H104.2c.852 0 1.552.7 1.552 1.552v2.885c0 1.07.94 2.076 2.032 2.032 1.093-.044 2.033-.896 2.033-2.032V63.16z" fill="#285596"/><path d="M107.785 70a1.902 1.902 0 000 3.802 1.903 1.903 0 001.902-1.902 1.903 1.903 0 00-1.902-1.9zM54.46 36.824c-1.136-2.338-4.632-.284-3.496 2.055 4.458 9.222 1.77 20.565-7.255 25.919-7.802 4.633-18.161 3.3-24.368-3.41-6.01-6.534-6.971-16.5-2.142-23.995 5.857-9.092 17.615-11.19 26.772-5.988 2.273 1.289 4.327-2.208 2.054-3.497-10.687-6.054-24.236-3.825-31.557 6.338-6.557 9.091-5.639 21.876 2.01 30.005 7.65 8.13 20.456 9.704 29.853 3.716 10.6-6.775 13.462-20.106 8.13-31.143z" fill="#285596"/><path d="M49.347 35.12a1.903 1.903 0 000-3.803 1.903 1.903 0 00-1.901 1.901c0 1.05.852 1.902 1.901 1.902zm-15.691 6.207c1.53 0 2.84 1.092 2.84 2.382 0 1.092.897 1.988 1.99 1.988a1.996 1.996 0 001.988-1.989c0-2.644-1.77-5.026-4.414-5.966l-.372-.13-.022-.394a1.986 1.986 0 00-1.989-1.858 1.986 1.986 0 00-1.988 1.858l-.022.393-.372.131c-2.644.918-4.414 3.322-4.414 5.967 0 3.518 3.06 6.36 6.818 6.36 1.53 0 2.841 1.092 2.841 2.381 0 1.29-1.289 2.382-2.84 2.382-1.53 0-2.842-1.092-2.842-2.382a1.996 1.996 0 00-1.989-1.989 1.996 1.996 0 00-1.988 1.99c0 2.644 1.792 5.048 4.436 5.965l.35.132.043.371a1.998 1.998 0 001.967 1.727c.984 0 1.836-.743 1.967-1.727l.044-.371.35-.132c2.644-.917 4.436-3.321 4.436-5.966 0-3.518-3.06-6.36-6.818-6.36-1.53 0-2.841-1.092-2.841-2.382 0-1.289 1.289-2.381 2.84-2.381zm48.166-6.382l19.844.066c2.601 0 2.623-4.044 0-4.065l-19.844-.066c-2.622 0-2.622 4.043 0 4.065zm-4.458-.809a1.9 1.9 0 00-.065-2.688 1.9 1.9 0 00-2.689.066 1.9 1.9 0 00.066 2.688 1.9 1.9 0 002.688-.066zm30.159 7.868l-25.7-.066c-2.601 0-2.623 4.043 0 4.065l25.7.066c2.622-.022 2.622-4.065 0-4.065zm-30.159 3.169a1.9 1.9 0 00-.065-2.688 1.9 1.9 0 00-2.689.065 1.9 1.9 0 00.066 2.688 1.9 1.9 0 002.688-.065z" fill="#285596"/><path d="M86.062 4.065h-20.5v7.78h20.5v-7.78z" fill="#BFDCFF"/><path d="M123.411 109.883v6.251a.29.29 0 01-.284.284H28.52a.29.29 0 01-.284-.284v-6.251a.29.29 0 01.284-.284h94.607a.29.29 0 01.284.284zM74.02 89.253a.047.047 0 01-.043.043l-13.244-.043.044-18.401 13.243.043v18.358z" fill="#75C422"/><path d="M137.573 89.23c0 .023-.022.066-.066.066l-13.244-.065.066-36.169 13.244.066V89.23z" fill="#BFDCFF"/></svg>