<svg width="152" height="152" fill="none" xmlns="http://www.w3.org/2000/svg"><path d="M93.568 106.924c.546 2.36-.503 4.589-1.158 6.861l-2.491 8.849c-.503 1.77-1.027 3.409-1.202 5.222-.197 2.141.48 4.982-.961 6.795-.678.853-1.705 1.18-2.819 1.311h-2.928v.022c-.24 0-.459-.022-.677-.022-2.6 0-2.622 4.064 0 4.064.83 0 1.66.022 2.49 0h3.584c.655 0 1.224.569 1.224 1.224v5.441a1.25 1.25 0 01-1.224 1.223H64.529a1.25 1.25 0 01-1.223-1.223v-5.441c0-.066 0-.131.022-.197a1.244 1.244 0 011.223-1.048h5.31c2.6 0 2.622-4.064 0-4.064h-2.732c-1.442-.11-2.73-.547-3.517-2.164-.94-1.922-.131-4.588-.415-6.62-.197-1.53-.787-3.059-1.202-4.545-1.246-4.479-4.02-10.204-3.802-14.879 1.07-4.654 4.02-6.49 7.604-7.167 2.796 5.659 5.615 11.318 8.412 16.977.655 1.333 2.84 1.333 3.496 0 2.818-5.703 5.637-11.384 8.456-17.086 3.495.699 6.445 2.359 7.407 6.467z" fill="#BFDCFF"/><path d="M59.417 40.283c.59.743 1.682 1.66 3.102 2.556 3.147 2.163 6.752 3.496 10.488 3.977.961.153 1.945.24 2.928.262h.284c1.573 0 3.146-.219 4.654-.568a23.655 23.655 0 007.778-3.125c.022-.021.044-.043.088-.043 2.163-1.29 3.714-2.622 4.282-3.474.044-.066.088-.153.131-.219 6.796-7.254 8.129-18.113 3.65-27.378-1.137-2.338-4.633-.284-3.497 2.054 3.3 6.796 2.688 14.749-1.485 20.583-2.142-3.103-5.266-5.375-9.046-6.599a9.178 9.178 0 002.403-6.183c0-5.07-4.13-9.2-9.198-9.2-5.07 0-9.2 4.13-9.2 9.2 0 2.425.94 4.632 2.492 6.27-3.65 1.29-6.774 3.627-8.959 6.73-4.763-6.467-5.2-15.448-.764-22.308 5.855-9.09 17.61-11.187 26.766-5.987 2.272 1.289 4.326-2.207 2.053-3.496C77.683-2.717 64.137-.49 56.817 9.67c-6.555 9.09-5.638 21.872 2.01 30 .174.218.393.415.59.612zm11.405-18.157a5.143 5.143 0 015.135-5.135c2.818 0 5.134 2.316 5.134 5.135a5.143 5.143 0 01-5.134 5.134 5.143 5.143 0 01-5.135-5.134zm5.135 9.198c5.877 0 10.553 2.426 13.022 6.73a19.906 19.906 0 01-2.84 2.098c-1.42.786-3.147 1.595-5.048 2.14a19.607 19.607 0 01-7.472.525c-3.365-.502-6.49-1.9-8.565-3.124a15.398 15.398 0 01-1.923-1.464c2.578-4.348 7.276-6.905 12.826-6.905z" fill="#285596"/><path d="M91.645 10.567a1.9 1.9 0 100-3.802 1.9 1.9 0 000 3.802zM6.977 83.48c.59.742 1.683 1.66 3.125 2.556a24.15 24.15 0 0010.466 3.977c.961.152 1.944.24 2.928.262h.284c1.573 0 3.146-.219 4.654-.568 2.731-.569 5.375-1.595 7.778-3.125a.302.302 0 01.088-.066c2.163-1.289 3.714-2.6 4.282-3.452.044-.087.087-.153.131-.218 6.795-7.254 8.128-18.114 3.65-27.356-1.137-2.338-4.633-.284-3.497 2.054 3.3 6.795 2.688 14.748-1.486 20.582-2.14-3.102-5.265-5.375-9.045-6.598a9.178 9.178 0 002.403-6.184c0-5.069-4.13-9.198-9.199-9.198s-9.198 4.13-9.198 9.198a9.09 9.09 0 002.49 6.271c-3.648 1.29-6.773 3.627-8.958 6.73-4.763-6.468-5.2-15.448-.765-22.309 5.856-9.09 17.611-11.187 26.766-5.986 2.273 1.289 4.326-2.207 2.054-3.496C25.244 40.5 11.697 42.73 4.378 52.89c-6.556 9.09-5.638 21.871 2.01 30 .152.196.37.37.59.59zm11.384-18.158a5.143 5.143 0 015.135-5.134 5.143 5.143 0 015.134 5.134c0 2.819-2.316 5.135-5.134 5.135-2.819 0-5.135-2.316-5.135-5.135zm5.135 9.177c5.877 0 10.553 2.447 13.022 6.73a20.263 20.263 0 01-2.775 2.054c-1.507.852-3.387 1.704-5.44 2.25-2.338.59-4.764.743-7.145.46-3.365-.503-6.49-1.902-8.565-3.125a17.83 17.83 0 01-1.923-1.464c2.578-4.348 7.298-6.905 12.826-6.905z" fill="#285596"/><path d="M39.184 53.764a1.9 1.9 0 100-3.802 1.9 1.9 0 000 3.802zM145.723 57.5c3.299 6.795 2.687 14.749-1.464 20.583-2.141-3.103-5.266-5.375-9.046-6.599a9.177 9.177 0 002.404-6.183c0-5.07-4.13-9.2-9.199-9.2s-9.199 4.13-9.199 9.2c0 2.425.94 4.632 2.491 6.27-3.649 1.29-6.773 3.627-8.958 6.73-4.764-6.467-5.201-15.448-.765-22.308 5.856-9.09 17.611-11.188 26.766-5.987 2.272 1.289 4.326-2.207 2.054-3.496-10.663-6.053-24.232-3.824-31.551 6.336-6.555 9.09-5.638 21.872 2.01 30 .196.218.415.393.633.612.59.743 1.683 1.66 3.103 2.556a24.15 24.15 0 0010.466 3.977c.961.153 1.945.24 2.928.262h.284c1.573 0 3.146-.219 4.654-.568 2.731-.568 5.375-1.595 7.778-3.125.022-.022.044-.044.088-.065 2.163-1.29 3.714-2.6 4.282-3.453.044-.087.088-.153.131-.218 6.796-7.254 8.129-18.113 3.649-27.356-1.179-2.36-4.675-.306-3.539 2.032zm-22.44 7.822a5.143 5.143 0 015.135-5.134c2.818 0 5.134 2.316 5.134 5.134 0 2.819-2.316 5.135-5.134 5.135-2.819 0-5.135-2.316-5.135-5.135zm5.135 9.177c5.877 0 10.553 2.447 13.022 6.73-.83.743-1.77 1.42-2.753 2.032a24.92 24.92 0 01-5.484 2.272 19.966 19.966 0 01-7.101.437c-3.365-.502-6.49-1.9-8.565-3.124a17.798 17.798 0 01-1.923-1.464c2.556-4.326 7.254-6.883 12.804-6.883z" fill="#285596"/><path d="M144.106 53.742a1.902 1.902 0 000-3.802 1.902 1.902 0 00-1.901 1.901c0 1.07.852 1.901 1.901 1.901zm-66.117 11.1V51.01c0-2.6-4.064-2.622-4.064 0v13.83c0 2.6 4.064 2.6 4.064 0zm26.11 17.808l-9.767 9.766c-1.857 1.857 1.027 4.72 2.863 2.862 3.255-3.255 6.511-6.51 9.766-9.767 1.858-1.835-1.027-4.697-2.862-2.862zm-59.322 2.883l9.767 9.767c1.857 1.857 4.72-1.027 2.862-2.862L47.64 82.67c-1.836-1.857-4.72 1.005-2.863 2.862z" fill="#285596"/><path d="M54.238 106.968c-.022.109-.022.196-.022.306-.022.087-.043.153-.043.24-.437 6.249 3.474 12.87 4.697 18.966.634 3.211-.153 6.773 1.355 9.832.218.437.459.808.721 1.136-.83.787-1.442 1.835-1.617 3.015a4.86 4.86 0 00-.065.809v5.44A5.292 5.292 0 0064.55 152h22.855a5.292 5.292 0 005.288-5.288v-5.44a5.282 5.282 0 00-1.683-3.846 6.97 6.97 0 00.83-1.376c1.574-3.453.678-7.517 1.705-11.144 1.857-6.598 6.445-15.294 2.818-21.959-2.36-4.348-6.183-5.986-10.4-6.554 3.015-2.732 4.938-6.665 4.938-11.056 0-8.216-6.686-14.902-14.901-14.902-8.216 0-14.902 6.686-14.902 14.902 0 4.413 1.945 8.368 5.004 11.1-.088.065-.197.109-.284.196-5.528.852-10.139 3.277-11.58 10.335zm39.33-.044c.546 2.36-.503 4.589-1.158 6.861l-2.491 8.849c-.503 1.77-1.027 3.409-1.202 5.222-.197 2.141.48 4.982-.961 6.795-.678.852-1.705 1.18-2.819 1.311h-2.928v.022c-.24 0-.459-.022-.677-.022-2.6 0-2.622 4.064 0 4.064.83 0 1.66.022 2.49 0h3.584a1.25 1.25 0 011.224 1.224v5.441a1.25 1.25 0 01-1.224 1.223H64.529a1.25 1.25 0 01-1.223-1.223v-5.441c0-.066 0-.131.022-.197a1.244 1.244 0 011.223-1.048h5.31c2.6 0 2.622-4.065 0-4.065h-2.732c-1.442-.109-2.73-.546-3.517-2.163-.94-1.922-.131-4.588-.415-6.62-.197-1.53-.787-3.059-1.202-4.545-1.246-4.479-4.02-10.204-3.802-14.879 1.07-4.654 4.02-6.49 7.604-7.167 2.796 5.659 5.615 11.318 8.412 16.977.655 1.333 2.84 1.333 3.496 0 2.818-5.703 5.637-11.384 8.456-17.086 3.495.699 6.445 2.359 7.407 6.467zm-18.114-6.664h.678c1.747-.022 3.714-.131 5.702-.109-1.966 3.955-3.91 7.909-5.877 11.864l-5.834-11.799c1.792-.022 3.605.044 5.331.044zM65.12 85.359c0-5.987 4.873-10.86 10.86-10.86 5.986 0 10.859 4.873 10.859 10.86 0 5.812-4.588 10.553-10.335 10.815-.262 0-.502 0-.765.022-5.9-.131-10.619-4.938-10.619-10.837z" fill="#285596"/><path d="M75.65 139.917a1.9 1.9 0 100-3.802 1.9 1.9 0 000 3.802zM23.758 90.253h-.284c-7.626-.11-15.317-4.763-16.78-7.167-.678-1.114-.416-2.032-.22-2.469 3.06-6.27 9.593-10.182 17.022-10.182 7.931 0 14.399 3.824 17.305 10.226.196.437.415 1.31-.263 2.36-1.398 2.14-8.958 7.232-16.78 7.232zM10.626 81.49c1.748 1.551 7.276 4.632 12.913 4.72 5.66.087 11.275-3.278 13.088-4.83-2.447-4.37-7.166-6.86-13.11-6.86-5.593-.022-10.334 2.578-12.89 6.97z" fill="#285596"/><path d="M10.626 81.491c1.748 1.551 7.276 4.632 12.913 4.72 5.66.087 11.275-3.278 13.088-4.83-2.447-4.37-7.166-6.86-13.11-6.86-5.593-.022-10.334 2.578-12.89 6.97z" fill="#75C422"/><path d="M75.957 31.324c5.877 0 10.553 2.426 13.022 6.73a19.898 19.898 0 01-2.84 2.097c-1.42.787-3.147 1.596-5.048 2.142-2.447.655-4.981.83-7.472.524-3.365-.502-6.49-1.9-8.565-3.124a15.398 15.398 0 01-1.923-1.464c2.578-4.348 7.276-6.905 12.826-6.905z" fill="#BFDCFF"/><path d="M128.418 74.5c5.877 0 10.553 2.446 13.022 6.729-.83.743-1.77 1.42-2.753 2.032a24.92 24.92 0 01-5.484 2.272 19.963 19.963 0 01-7.101.437c-3.365-.502-6.49-1.9-8.565-3.124a17.798 17.798 0 01-1.923-1.464c2.556-4.326 7.254-6.883 12.804-6.883z" fill="#75C422"/></svg>