<svg width="153" height="152" fill="none" xmlns="http://www.w3.org/2000/svg"><path d="M115.85 110.49v-3.74c0-1.115.897-2.012 2.012-2.012h28.279c1.115 0 2.012.897 2.012 2.012v3.74a2.007 2.007 0 01-2.012 2.012h-28.279a2.007 2.007 0 01-2.012-2.012z" fill="#75C422"/><path d="M142.401 142.18v3.74a2.007 2.007 0 01-2.012 2.012h-28.301a2.021 2.021 0 01-2.012-2.012v-3.74c0-1.115.897-2.012 2.012-2.012h28.279c1.115 0 2.034.919 2.034 2.012z" fill="#BFDCFF"/><path d="M148.153 130.37v3.74a2.007 2.007 0 01-2.012 2.012h-28.279a2.007 2.007 0 01-2.012-2.012v-3.74c0-1.115.897-2.012 2.012-2.012h28.279c1.115 0 2.012.897 2.012 2.012z" fill="#75C422"/><path d="M142.401 118.56v3.74a2.007 2.007 0 01-2.012 2.012H112.11a2.007 2.007 0 01-2.012-2.012v-3.74c0-1.115.897-2.012 2.012-2.012h28.279c1.093 0 2.012.897 2.012 2.012z" fill="#BFDCFF"/><path d="M40.507 25.217c-4.025 0-7.305 3.28-7.305 7.305 0 4.024 3.28 7.304 7.305 7.304 4.024 0 7.304-3.28 7.304-7.304 0-.722-.11-1.4-.306-2.056l13.953-8.901a7.247 7.247 0 004.812 1.815c1.88 0 3.587-.722 4.899-1.903L85.8 30.51a7.666 7.666 0 00-.218 1.75c0 4.023 3.28 7.304 7.304 7.304 4.024 0 7.305-3.28 7.305-7.305a7.188 7.188 0 00-.787-3.28l12.466-11.81c1.903-1.794-.984-4.659-2.865-2.865-4.112 3.914-8.245 7.807-12.357 11.722a7.289 7.289 0 00-3.74-1.05c-1.968 0-3.74.788-5.052 2.034l-14.522-8.966c.175-.635.284-1.29.284-1.969 0-4.024-3.28-7.305-7.304-7.305-4.024 0-7.305 3.281-7.305 7.305 0 .722.11 1.4.306 2.056l-13.953 8.901c-1.334-1.115-3.018-1.815-4.855-1.815zm0 10.563a3.243 3.243 0 01-3.237-3.236 3.243 3.243 0 013.236-3.237 3.243 3.243 0 013.237 3.237 3.243 3.243 0 01-3.236 3.236zm52.357-6.758a3.244 3.244 0 013.237 3.237 3.243 3.243 0 01-3.237 3.237 3.243 3.243 0 01-3.236-3.237c-.022-1.771 1.443-3.237 3.236-3.237zM66.27 12.838a3.243 3.243 0 013.237 3.237 3.258 3.258 0 01-3.237 3.237 3.243 3.243 0 01-3.237-3.237 3.243 3.243 0 013.237-3.237zm48.312-2.012c0 1.05.853 1.903 1.903 1.903a1.904 1.904 0 000-3.805 1.89 1.89 0 00-1.903 1.902z" fill="#285596"/><path d="M126.151 15.375c.416-4.44.809-8.901 1.225-13.34.087-1.072-1.006-2.057-2.034-2.035l-13.035.394c-2.602.088-2.624 4.134 0 4.068l10.804-.328c-.35 3.74-.678 7.502-1.028 11.241-.24 2.581 3.828 2.581 4.068 0zm26.048 95.115v-3.74a6.058 6.058 0 00-6.058-6.058h-28.279a6.058 6.058 0 00-6.058 6.058v3.74c0 .7.131 1.378.35 2.012h-.044a6.058 6.058 0 00-6.058 6.058v3.74a6.058 6.058 0 006.058 6.058h.044a6.064 6.064 0 00-.35 2.012v3.74c0 .7.131 1.378.35 2.012h-.044a6.058 6.058 0 00-6.058 6.058v3.74c0 .7.131 1.378.35 2.012H4.158v-23.904c0-13.735 4.527-26.332 16.95-33.637 8.595-5.052 17.78-4.68 27.294-4.68H81.12c12.707 0 24.582-.525 35.168 8.223 1.99 1.662 4.877-1.203 2.865-2.865-8.136-6.714-16.95-8.77-26.617-9.273l8.989-21.63a8.404 8.404 0 00-.765-7.873 8.347 8.347 0 00-6.977-3.74h-54.72a8.327 8.327 0 00-7.064 3.87 8.31 8.31 0 00-.525 8.05l9.842 21.126c-5.949.087-11.832.612-17.475 2.93C9.407 90.48.331 104.586.068 120.048c-.153 9.973 0 19.946 0 29.919 0 1.094.94 2.034 2.034 2.034h138.243a6.058 6.058 0 006.058-6.058v-3.74c0-.7-.131-1.378-.35-2.012h.044a6.058 6.058 0 006.058-6.058v-3.74a6.058 6.058 0 00-6.058-6.058h-.044c.219-.634.35-1.29.35-2.012v-3.74c0-.7-.131-1.378-.35-2.012h.044c3.39-.022 6.102-2.734 6.102-6.08zM35.454 54.61c.81-1.268 2.144-1.99 3.653-1.99h54.72c1.465 0 2.777.7 3.586 1.925.81 1.225.963 2.712.394 4.068l-9.404 22.592H45.624L35.192 58.788c-.656-1.4-.547-2.909.262-4.177zm80.396 55.88v-3.74c0-1.115.897-2.012 2.012-2.012h28.279c1.115 0 2.012.897 2.012 2.012v3.74a2.007 2.007 0 01-2.012 2.012h-28.279a2.007 2.007 0 01-2.012-2.012zm26.551 31.69v3.74a2.007 2.007 0 01-2.012 2.012h-28.3a2.021 2.021 0 01-2.013-2.012v-3.74c0-1.115.897-2.012 2.013-2.012h28.278c1.115 0 2.034.919 2.034 2.012zm5.752-11.81v3.74a2.007 2.007 0 01-2.012 2.012h-28.279a2.007 2.007 0 01-2.012-2.012v-3.74c0-1.115.897-2.012 2.012-2.012h28.279c1.115 0 2.012.897 2.012 2.012zm-5.752-11.81v3.74a2.007 2.007 0 01-2.012 2.012H112.11a2.007 2.007 0 01-2.012-2.012v-3.74c0-1.115.897-2.012 2.012-2.012h28.279c1.093 0 2.012.897 2.012 2.012z" fill="#285596"/><path d="M78.605 97.17c-10.695-6.057-24.255-3.826-31.581 6.343-6.561 9.098-5.643 21.893 2.012 30.028 7.655 8.136 20.47 9.711 29.875 3.718 10.607-6.758 13.472-20.099 8.136-31.143-1.137-2.34-4.637-.285-3.5 2.056 4.462 9.229 1.772 20.58-7.26 25.938-7.808 4.637-18.175 3.302-24.386-3.412-6.014-6.539-6.977-16.512-2.143-24.014 5.861-9.098 17.627-11.197 26.791-5.992 2.296 1.268 4.33-2.23 2.056-3.521z" fill="#285596"/><path d="M81.93 104.41a1.903 1.903 0 10-.001-3.806 1.903 1.903 0 000 3.806zm-15.704 6.211c1.531 0 2.843 1.094 2.843 2.384 0 1.094.897 1.99 1.99 1.99 1.094 0 1.99-.896 1.99-1.99 0-2.646-1.77-5.03-4.417-5.971l-.372-.131-.022-.393a1.988 1.988 0 00-1.99-1.859c-1.05 0-1.925.809-1.99 1.859l-.022.393-.372.131c-2.646.941-4.418 3.325-4.418 5.971 0 3.521 3.062 6.364 6.824 6.364 1.53 0 2.843 1.094 2.843 2.384 0 1.291-1.29 2.384-2.843 2.384-1.531 0-2.843-1.093-2.843-2.384 0-1.093-.897-1.99-1.99-1.99-1.094 0-1.99.897-1.99 1.99 0 2.647 1.793 5.052 4.439 5.971l.35.131.044.372a2 2 0 001.968 1.728 2 2 0 001.968-1.728l.044-.372.35-.131c2.646-.919 4.44-3.324 4.44-5.971 0-3.521-3.062-6.364-6.824-6.364-1.53 0-2.843-1.094-2.843-2.384 0-1.29 1.312-2.384 2.843-2.384z" fill="#285596"/><path d="M40.507 35.78a3.243 3.243 0 01-3.237-3.236 3.243 3.243 0 013.236-3.237 3.243 3.243 0 013.237 3.237 3.243 3.243 0 01-3.236 3.236zm52.357-6.757a3.243 3.243 0 013.237 3.236 3.243 3.243 0 01-3.237 3.237 3.243 3.243 0 01-3.236-3.237c-.022-1.771 1.443-3.236 3.236-3.236z" fill="#75C422"/><path d="M69.404 16.885a3.237 3.237 0 10-6.3-1.488 3.237 3.237 0 006.3 1.488zM35.454 54.61c.81-1.268 2.144-1.99 3.653-1.99h54.72c1.465 0 2.777.7 3.586 1.925.81 1.225.963 2.712.394 4.068l-9.404 22.592H45.624L35.192 58.788c-.656-1.4-.547-2.909.262-4.177z" fill="#BFDCFF"/></svg>