<svg width="246" height="331" viewBox="0 0 246 331" fill="none" xmlns="http://www.w3.org/2000/svg">
<path d="M91.8727 134.475L124.117 134.917C132.95 134.622 140.754 132.782 147.526 129.397C154.446 126.011 159.967 121.153 164.09 114.824C168.36 108.347 171.01 100.692 172.04 91.8598C172.924 85.2356 172.261 79.3475 170.053 74.1954C167.992 69.0432 164.605 64.9951 159.894 62.0511C155.33 58.9598 149.661 57.3406 142.889 57.1934C136.41 57.0461 130.447 58.2238 125 60.7262C119.552 63.2287 114.915 66.7616 111.086 71.3249C107.406 75.8882 104.903 81.2611 103.578 87.4437L30.477 87.8853C31.5076 68.4544 37.6914 52.1884 49.0282 39.0873C60.5123 25.9862 74.7202 16.1972 91.6519 9.72023C108.584 3.09607 125.957 -0.142403 143.772 0.00480011C162.323 0.299207 179.549 3.75849 195.45 10.3826C211.351 16.8596 224.013 26.7958 233.436 40.1914C242.859 53.4397 246.982 70.2209 245.804 90.5349C245.068 104.225 241.313 116.222 234.54 126.526C227.768 136.83 219.007 145.368 208.26 152.14C197.659 158.911 186.101 164.063 173.586 167.596C161.219 170.982 148.925 172.674 136.705 172.674L85.689 172.454L91.8727 134.475ZM83.0388 189.897L89.0017 152.802L132.509 153.023C145.023 153.317 157.096 155.084 168.728 158.322C180.359 161.561 190.739 166.418 199.867 172.895C209.143 179.372 216.284 187.689 221.29 197.846C226.295 208.003 228.504 220.148 227.915 234.279C227.032 250.766 222.762 265.192 215.106 277.557C207.45 289.775 197.512 299.858 185.291 307.807C173.218 315.756 159.82 321.644 145.097 325.472C130.521 329.299 115.798 331.139 100.927 330.992C86.646 330.697 73.3951 328.416 61.1749 324.147C48.9546 319.731 38.2067 313.548 28.9311 305.599C19.8027 297.503 12.6619 287.714 7.50883 276.232C2.50294 264.603 0 251.428 0 236.708H72.2173C72.3645 243.627 73.8368 249.809 76.6342 255.256C79.4316 260.702 83.4069 265.045 88.56 268.283C93.7131 271.374 99.8232 272.994 106.89 273.141C114.988 273.288 122.571 271.742 129.638 268.504C136.705 265.118 142.594 260.408 147.306 254.372C152.017 248.19 154.962 240.977 156.139 232.734C157.317 224.049 156.802 216.615 154.594 210.432C152.532 204.102 148.778 199.245 143.33 195.859C137.883 192.326 130.742 190.413 121.908 190.118L83.0388 189.897Z" fill="white" fill-opacity="0.1"/>
</svg>
