<svg width="711" height="78" viewBox="0 0 711 78" fill="none" xmlns="http://www.w3.org/2000/svg">
<path d="M6.5 77.5L12.2735 67.5H0.726497L6.5 77.5ZM6.5 6V5H5.5V6H6.5ZM711 6L701 0.226497V11.7735L711 6ZM7.5 71.5417V67.5694H5.5V71.5417H7.5ZM7.5 63.5972V59.625H5.5V63.5972H7.5ZM7.5 55.6528V51.6806H5.5V55.6528H7.5ZM7.5 47.7083V43.7361H5.5V47.7083H7.5ZM7.5 39.7639V35.7917H5.5V39.7639H7.5ZM7.5 31.8195V27.8472H5.5V31.8195H7.5ZM7.5 23.875V19.9028H5.5V23.875H7.5ZM7.5 15.9306V11.9583H5.5V15.9306H7.5ZM7.5 7.98612V6H5.5V7.98612H7.5ZM6.5 7H8.50142V5H6.5V7ZM12.5043 7H16.5071V5H12.5043V7ZM20.5099 7H24.5128V5H20.5099V7ZM28.5156 7H32.5185V5H28.5156V7ZM36.5213 7H40.5242V5H36.5213V7ZM44.527 7H48.5298V5H44.527V7ZM52.5327 7H56.5355V5H52.5327V7ZM60.5384 7H64.5412V5H60.5384V7ZM68.544 7H72.5469V5H68.544V7ZM76.5497 7H80.5526V5H76.5497V7ZM84.5554 7H88.5582V5H84.5554V7ZM92.5611 7H96.5639V5H92.5611V7ZM100.567 7H104.57V5H100.567V7ZM108.572 7H112.575V5H108.572V7ZM116.578 7H120.581V5H116.578V7ZM124.584 7H128.587V5H124.584V7ZM132.589 7H136.592V5H132.589V7ZM140.595 7H144.598V5H140.595V7ZM148.601 7H152.604V5H148.601V7ZM156.606 7H160.609V5H156.606V7ZM164.612 7H168.615V5H164.612V7ZM172.618 7H176.621V5H172.618V7ZM180.624 7H184.626V5H180.624V7ZM188.629 7H192.632V5H188.629V7ZM196.635 7H200.638V5H196.635V7ZM204.641 7H208.643V5H204.641V7ZM212.646 7H216.649V5H212.646V7ZM220.652 7H224.655V5H220.652V7ZM228.658 7H232.66V5H228.658V7ZM236.663 7H240.666V5H236.663V7ZM244.669 7H248.672V5H244.669V7ZM252.675 7H256.677V5H252.675V7ZM260.68 7H264.683V5H260.68V7ZM268.686 7H272.689V5H268.686V7ZM276.692 7H280.694V5H276.692V7ZM284.697 7H288.7V5H284.697V7ZM292.703 7H296.706V5H292.703V7ZM300.709 7H304.712V5H300.709V7ZM308.714 7H312.717V5H308.714V7ZM316.72 7H320.723V5H316.72V7ZM324.726 7H328.729V5H324.726V7ZM332.731 7H336.734V5H332.731V7ZM340.737 7H344.74V5H340.737V7ZM348.743 7H352.746V5H348.743V7ZM356.748 7H360.751V5H356.748V7ZM364.754 7H368.757V5H364.754V7ZM372.76 7H376.763V5H372.76V7ZM380.765 7H384.768V5H380.765V7ZM388.771 7H392.774V5H388.771V7ZM396.777 7H400.78V5H396.777V7ZM404.782 7H408.785V5H404.782V7ZM412.788 7H416.791V5H412.788V7ZM420.794 7H424.797V5H420.794V7ZM428.799 7H432.802V5H428.799V7ZM436.805 7H440.808V5H436.805V7ZM444.811 7H448.814V5H444.811V7ZM452.817 7H456.819V5H452.817V7ZM460.822 7H464.825V5H460.822V7ZM468.828 7H472.831V5H468.828V7ZM476.834 7H480.836V5H476.834V7ZM484.839 7H488.842V5H484.839V7ZM492.845 7H496.848V5H492.845V7ZM500.851 7H504.853V5H500.851V7ZM508.856 7H512.859V5H508.856V7ZM516.862 7H520.865V5H516.862V7ZM524.868 7H528.871V5H524.868V7ZM532.873 7H536.876V5H532.873V7ZM540.879 7H544.882V5H540.879V7ZM548.885 7H552.888V5H548.885V7ZM556.891 7H560.893V5H556.891V7ZM564.896 7H568.899V5H564.896V7ZM572.902 7H576.905V5H572.902V7ZM580.908 7H584.911V5H580.908V7ZM588.914 7H592.916V5H588.914V7ZM596.919 7H600.922V5H596.919V7ZM604.925 7H608.928V5H604.925V7ZM612.931 7H616.934V5H612.931V7ZM620.937 7H624.939V5H620.937V7ZM628.942 7H632.945V5H628.942V7ZM636.948 7H640.951V5H636.948V7ZM644.954 7H648.957V5H644.954V7ZM652.959 7H656.962V5H652.959V7ZM660.965 7H664.968V5H660.965V7ZM668.971 7H672.974V5H668.971V7ZM676.977 7H680.98V5H676.977V7ZM684.982 7H688.985V5H684.982V7ZM692.988 7H696.991V5H692.988V7ZM700.994 7H704.997V5H700.994V7Z" fill="#8BC3F4"/>
</svg>
