<svg width="50" height="50" viewBox="0 0 50 50" fill="none" xmlns="http://www.w3.org/2000/svg">
<path d="M48.4375 10.9386H26.5625C25.7 10.9386 25 11.6386 25 12.5011C25 13.3636 25.7 14.0636 26.5625 14.0636H43.8844L34.2844 21.5292L27.4 17.1511L25.725 19.7886L33.5375 24.7573C33.7906 24.9198 34.0844 25.0011 34.375 25.0011C34.7125 25.0011 35.0531 24.8917 35.3344 24.6729L46.875 15.6948V35.9386H26.5625C25.7 35.9386 25 36.6386 25 37.5011C25 38.3636 25.7 39.0636 26.5625 39.0636H48.4375C49.3 39.0636 50 38.3636 50 37.5011V12.5011C50 11.6386 49.3 10.9386 48.4375 10.9386Z" fill="#1976D2"/>
<path d="M27.5594 1.92294C27.2031 1.62607 26.725 1.49794 26.275 1.59169L1.275 6.27919C0.534375 6.41669 0 7.06044 0 7.81357V42.1886C0 42.9386 0.534375 43.5854 1.275 43.7229L26.275 48.4104C26.3687 48.4292 26.4656 48.4386 26.5625 48.4386C26.925 48.4386 27.2781 48.3136 27.5594 48.0792C27.9188 47.7823 28.125 47.3386 28.125 46.8761V3.12607C28.125 2.66044 27.9188 2.21982 27.5594 1.92294Z" fill="#2196F3"/>
<path d="M14.0625 35.9386C9.75625 35.9386 6.25 31.7323 6.25 26.5636C6.25 21.3948 9.75625 17.1886 14.0625 17.1886C18.3687 17.1886 21.875 21.3948 21.875 26.5636C21.875 31.7323 18.3687 35.9386 14.0625 35.9386ZM14.0625 20.3136C11.4781 20.3136 9.375 23.1167 9.375 26.5636C9.375 30.0104 11.4781 32.8136 14.0625 32.8136C16.6469 32.8136 18.75 30.0104 18.75 26.5636C18.75 23.1167 16.6469 20.3136 14.0625 20.3136Z" fill="#FAFAFA"/>
</svg>
