<svg width="50" height="50" viewBox="0 0 50 50" fill="none" xmlns="http://www.w3.org/2000/svg">
<g clip-path="url(#clip0_1_6179)">
<path fill-rule="evenodd" clip-rule="evenodd" d="M48.5624 30.3078C48.924 28.6791 49.1122 26.9924 49.1122 25.2594C49.1122 12.2762 38.4378 1.74751 25.2646 1.74751C23.877 1.74751 22.5159 1.86631 21.1871 2.09236C19.0557 0.767954 16.5334 0 13.8317 0C6.19119 0 0 6.10326 0 13.6382C0 16.1537 0.693801 18.5069 1.89912 20.5355C1.58456 22.0599 1.41697 23.6423 1.41697 25.2594C1.41697 38.2484 12.0943 48.7741 25.2646 48.7741C26.758 48.7741 28.2161 48.6379 29.6331 48.38C31.5822 49.4117 33.8047 50 36.1712 50C43.8088 50 50 43.8938 50 36.3647C50 34.1882 49.4826 32.1335 48.5624 30.3078ZM37.4971 36.498C36.3946 38.0398 34.766 39.257 32.6493 40.1206C30.5591 40.9784 28.0545 41.416 25.1999 41.416C21.7751 41.416 18.9029 40.8219 16.6598 39.6482C15.0576 38.7962 13.7376 37.6427 12.7352 36.2111C11.7209 34.7736 11.2094 33.345 11.2094 31.9626C11.2094 31.1048 11.5446 30.357 12.2031 29.7455C12.8557 29.137 13.6936 28.8327 14.6931 28.8327C15.5104 28.8327 16.2188 29.0732 16.7921 29.5514C17.3418 30.0122 17.8122 30.6932 18.1914 31.5655C18.6148 32.5219 19.0734 33.3275 19.5584 33.9564C20.0288 34.5708 20.702 35.0838 21.5604 35.4866C22.4247 35.8865 23.5918 36.0952 25.0235 36.0952C26.9961 36.0952 28.613 35.6779 29.8271 34.8606C31.0178 34.0636 31.594 33.1015 31.594 31.9249C31.594 31.0004 31.2911 30.2701 30.6738 29.6963C30.0212 29.0993 29.1657 28.6356 28.1279 28.311C27.0431 27.9806 25.5732 27.6184 23.7535 27.2416C21.2753 26.72 19.1733 26.1027 17.5035 25.3985C15.7926 24.6827 14.4138 23.6886 13.4054 22.4454C12.3824 21.1789 11.8621 19.5937 11.8621 17.7303C11.8621 15.9567 12.4059 14.354 13.4819 12.9745C14.5461 11.6038 16.1042 10.5315 18.1121 9.80409C20.0905 9.08248 22.4424 8.71735 25.1088 8.71735C27.2372 8.71735 29.1098 8.96074 30.6738 9.44182C32.2466 9.9229 33.5695 10.5721 34.6102 11.3749C35.6597 12.1863 36.4417 13.047 36.9297 13.9454C37.4236 14.8525 37.6764 15.7538 37.6764 16.6261C37.6764 17.4665 37.3471 18.2316 36.6974 18.8953C36.0448 19.5676 35.2187 19.9067 34.2486 19.9067C33.3666 19.9067 32.6729 19.6922 32.1966 19.2749C31.7498 18.8837 31.2853 18.275 30.7708 17.4056C30.177 16.2928 29.4567 15.4147 28.6306 14.7945C27.8281 14.1917 26.4905 13.8903 24.6472 13.8903C22.9422 13.8903 21.5487 14.2265 20.5168 14.8959C19.5232 15.5364 19.0381 16.2754 19.0381 17.1506C19.0381 17.6839 19.1939 18.1331 19.5173 18.5156C19.8524 18.9272 20.3316 19.2807 20.9372 19.5821C21.5634 19.8922 22.2101 20.1414 22.8569 20.3153C23.5184 20.4979 24.6296 20.7674 26.1553 21.1152C28.0868 21.5209 29.8595 21.9817 31.4264 22.4773C33.0168 22.9757 34.3867 23.5901 35.5097 24.3117C36.6504 25.0449 37.5529 25.9839 38.1967 27.1083C38.8405 28.2415 39.1669 29.6325 39.1669 31.2525C39.1669 33.1884 38.6024 34.9533 37.4971 36.498Z" fill="#00AEF3"/>
</g>
<defs>
<clipPath id="clip0_1_6179">
<rect width="50" height="50" fill="white"/>
</clipPath>
</defs>
</svg>
