<svg width="60" height="42" viewBox="0 0 60 42" fill="none" xmlns="http://www.w3.org/2000/svg">
<path d="M22.8376 10.0469H19.0969C18.6009 10.0469 18.1252 10.244 17.7744 10.5947C17.4237 10.9455 17.2266 11.4212 17.2266 11.9173V23.1392H19.0969V18.4634H22.8376V23.1392H24.7079V11.9173C24.7079 11.4212 24.5108 10.9455 24.1601 10.5947C23.8093 10.244 23.3336 10.0469 22.8376 10.0469ZM19.0969 16.593V11.9173H22.8376V16.593H19.0969Z" fill="#75C422"/>
<path d="M35.9297 11.9173H38.7352V21.2688H35.9297V23.1392H43.411V21.2688H40.6055V11.9173H43.411V10.0469H35.9297V11.9173Z" fill="#75C422"/>
<path d="M28.4485 23.1392H26.5782V10.0469H32.1891C32.6852 10.0469 33.1609 10.244 33.5117 10.5947C33.8624 10.9455 34.0595 11.4212 34.0595 11.9173V16.593C34.0595 17.0891 33.8624 17.5648 33.5117 17.9156C33.1609 18.2663 32.6852 18.4634 32.1891 18.4634H28.4485V23.1392ZM28.4485 16.593H32.1891V11.9173H28.4485V16.593Z" fill="#75C422"/>
<path d="M7.33813 41.3439H52.6619C56.7022 41.3439 60 38.0547 60 34.0057V32.4C60 31.6058 59.3525 30.9496 58.5497 30.9496H56.3482V3.08201C56.3482 1.38129 54.9669 0 53.2662 0H6.73381C5.03309 0 3.6518 1.38129 3.6518 3.08201V30.9496H1.64893C0.733821 30.9496 0 31.6921 0 32.5986V34.0057C0 38.0547 3.28921 41.3439 7.33813 41.3439ZM5.24893 3.09065C5.24893 2.27914 5.91368 1.61438 6.72519 1.61438H53.2576C54.0691 1.61438 54.7338 2.27914 54.7338 3.09065V30.9583H40.5151H19.5453H5.24893V3.09065ZM20.0374 32.5554H39.9626V32.5813C39.9626 33.4705 39.2374 34.187 38.3568 34.187H21.6518C20.7626 34.187 20.0461 33.4619 20.0461 32.5813V32.5554H20.0374ZM1.60576 32.6072C1.60576 32.5813 1.63167 32.5554 1.65757 32.5554H3.6518H18.4317V32.5813C18.4317 34.3511 19.8734 35.7928 21.6432 35.7928H38.3482C40.118 35.7928 41.5597 34.3511 41.5597 32.5813V32.5554H56.3396H58.3856V34.0057C58.3856 37.1655 55.813 39.7381 52.6533 39.7381H7.32951C4.1698 39.7381 1.59712 37.1655 1.59712 34.0057V32.6072H1.60576Z" fill="#183558"/>
<path d="M52.0144 25.8734V6.79424C52.0144 5.28345 50.7885 4.05756 49.2777 4.05756H10.7137C9.20288 4.05756 7.97699 5.28345 7.97699 6.79424V25.8734C7.97699 27.3842 9.20288 28.6101 10.7137 28.6101H49.2863C50.7885 28.6101 52.0144 27.3842 52.0144 25.8734ZM9.58273 25.8734V6.79424C9.58273 6.17266 10.0921 5.66331 10.7137 5.66331H49.2863C49.9079 5.66331 50.4173 6.17266 50.4173 6.79424V25.8734C50.4173 26.495 49.9079 27.0043 49.2863 27.0043H10.7137C10.0835 27.0043 9.58273 26.495 9.58273 25.8734Z" fill="#183558"/>
<path d="M20.0374 32.5554H39.9626V32.5813C39.9626 33.4705 39.2374 34.1871 38.3568 34.1871H21.6518C20.7626 34.1871 20.0461 33.4619 20.0461 32.5813V32.5554H20.0374Z" fill="#75C422"/>
<path d="M1.60575 32.6072C1.60575 32.5813 1.63166 32.5554 1.65756 32.5554H3.65179H18.4316V32.5813C18.4316 34.3511 19.8734 35.7928 21.6432 35.7928H38.3482C40.118 35.7928 41.5597 34.3511 41.5597 32.5813V32.5554H56.3396H58.3856V34.0058C58.3856 37.1655 55.8129 39.7382 52.6532 39.7382H7.32949C4.16978 39.7382 1.59711 37.1655 1.59711 34.0058V32.6072H1.60575Z" fill="white"/>
</svg>
