<svg width="61" height="60" viewBox="0 0 61 60" fill="none" xmlns="http://www.w3.org/2000/svg">
<path d="M17.3039 1.59781L58.441 1.60643V4.68115L58.4324 4.6898H58.2597C58.2338 4.6898 58.1992 4.6898 58.1733 4.6898L17.3039 4.68115V1.59781Z" fill="#75C422"/>
<path d="M21.0695 39.1766C20.5772 40.9385 20.0849 42.6918 19.584 44.4537C19.2817 45.5333 18.9967 46.4315 18.9708 47.5543C18.9449 48.6253 19.109 49.9899 18.5389 50.9573C18.1675 51.5877 17.5457 51.8123 16.872 51.8814H15.136C15.1015 51.8814 15.0583 51.8814 15.0237 51.8814C13.996 51.8814 13.9873 53.4878 15.0237 53.4878C15.2742 53.4878 15.5247 53.4878 15.7751 53.4878H17.9257C18.4007 53.4878 18.8239 53.8419 18.893 54.317C18.9017 54.3688 18.9017 54.412 18.9017 54.4638V57.4435C18.9017 57.9876 18.4612 58.4281 17.9171 58.4281H5.41095C4.86683 58.4281 4.42635 57.9876 4.42635 57.4435V54.4638C4.42635 53.9197 4.86683 53.4792 5.41095 53.4792H6.94831C7.54425 53.4965 8.14882 53.4792 8.72749 53.4792C9.75527 53.4792 9.76391 51.8727 8.72749 51.8727C8.60658 51.8727 8.48566 51.8728 8.35611 51.8814V51.8727H6.34373C5.76506 51.795 5.24685 51.605 4.91865 51.1818C4.24498 50.3095 4.38317 48.8326 4.3659 47.8134C4.35726 46.6216 4.12407 45.7665 3.79587 44.6092C3.2863 42.7955 2.77672 40.9817 2.26715 39.168C1.85258 37.6825 1.33437 36.5856 1.89577 35.0655C2.68172 32.9236 4.33999 32.0858 6.24009 31.7835C7.81199 34.9705 9.39253 38.1488 10.9644 41.3358C11.2235 41.8627 12.0872 41.8627 12.3463 41.3358C13.9096 38.1661 15.4815 35.005 17.0448 31.8353C19.2471 32.1808 21.0954 33.2086 21.6827 36.0674C21.7864 37.1383 21.3545 38.1402 21.0695 39.1766Z" fill="white"/>
<path d="M58.4324 0H17.3039C16.4143 0 15.6888 0.725489 15.6888 1.61508V4.6898C15.6888 5.35483 16.0947 5.9335 16.682 6.17533C16.682 9.04275 16.682 11.9015 16.682 14.769C16.682 15.7967 18.2885 15.8054 18.2885 14.769C18.2885 11.9447 18.2885 9.12912 18.2885 6.30488H57.4564C57.4564 12.817 57.4564 19.3206 57.4564 25.8327C57.4564 27.4564 57.4564 29.0715 57.4564 30.6953C57.4564 31.8094 57.7587 33.364 56.2818 33.649C55.3318 33.8304 54.1658 33.649 53.2071 33.649C50.8406 33.649 48.4741 33.649 46.1077 33.649C39.3968 33.649 32.6947 33.649 25.9839 33.649C24.9561 33.649 24.9474 35.2555 25.9839 35.2555C29.6804 35.2555 33.377 35.2555 37.0735 35.2555C37.0735 36.5856 37.0735 37.9156 37.0735 39.2457C35.9939 39.5826 35.208 40.5931 35.208 41.785C35.208 43.2532 36.3999 44.4537 37.8768 44.4537C39.345 44.4537 40.5455 43.2618 40.5455 41.785C40.5455 40.5931 39.7596 39.5826 38.68 39.2457C38.68 37.9156 38.68 36.5856 38.68 35.2555C40.8219 35.2555 42.9639 35.2555 45.1144 35.2555C48.7851 35.2555 52.6285 35.5837 56.2905 35.2555C59.7366 34.9446 59.0629 31.1616 59.0629 28.7088C59.0629 24.2349 59.0629 19.7524 59.0629 15.2785C59.0629 12.247 59.0629 9.22412 59.0629 6.1926C59.6416 5.95077 60.0561 5.3721 60.0561 4.70707V1.61508C60.0475 0.725489 59.322 0 58.4324 0ZM37.8681 42.8386C37.2808 42.8386 36.8058 42.3636 36.8058 41.7763C36.8058 41.189 37.2808 40.714 37.8681 40.714C38.4554 40.714 38.9305 41.189 38.9305 41.7763C38.9305 42.3636 38.4554 42.8386 37.8681 42.8386ZM17.3039 1.59781L58.441 1.60644V4.68115L58.4324 4.6898H58.2597C58.2338 4.6898 58.1992 4.6898 58.1733 4.6898L17.3039 4.68115V1.59781Z" fill="#183558"/>
<path d="M26.8216 24.2954C26.053 24.2954 25.4225 24.9259 25.4225 25.6945V31.0062C25.4225 31.7749 26.053 32.4053 26.8216 32.4053H30.6391C31.4078 32.4053 32.0383 31.7749 32.0383 31.0062V25.6945C32.0383 24.9259 31.4078 24.2954 30.6391 24.2954H26.8216ZM30.4491 30.7989H27.0289V25.8932H30.4491V30.7989Z" fill="#183558"/>
<path d="M43.8103 20.5556V30.9975C43.8103 31.7749 44.4408 32.4053 45.2181 32.4053H49.0269C49.8042 32.4053 50.4347 31.7749 50.4347 30.9975V20.5556C50.4347 19.7783 49.8042 19.1478 49.0269 19.1478H45.2181C44.4408 19.1478 43.8103 19.7783 43.8103 20.5556ZM45.4167 20.7543H48.8369V30.8075H45.4167V20.7543Z" fill="#183558"/>
<path d="M41.2278 24.2867C41.2278 24.0104 41.2278 23.734 41.2278 23.449C41.2278 23.4317 41.2278 23.4144 41.2278 23.3971C41.2278 23.3367 41.2192 23.2762 41.2019 23.2244C41.0897 22.3175 40.321 21.6093 39.3882 21.6093H36.2358C35.3375 21.6093 34.6034 22.3434 34.6034 23.2417V30.7557C34.6034 31.6539 35.3375 32.3881 36.2358 32.3881H39.5869C40.4851 32.3881 41.2192 31.6539 41.2192 30.7557V27.8365C41.2192 26.8087 39.6128 26.8001 39.6128 27.8365C39.6128 28.5188 39.6128 29.2097 39.6128 29.892V30.7557C39.6128 30.773 39.5955 30.7903 39.5782 30.7903H36.2271C36.2099 30.7903 36.1926 30.773 36.1926 30.7557V23.2417C36.1926 23.2244 36.2099 23.2071 36.2271 23.2071H39.3796C39.5091 23.2071 39.6128 23.3108 39.6128 23.4403C39.6128 23.7167 39.6128 23.9931 39.6128 24.2781C39.6128 24.7013 39.9841 25.0986 40.416 25.0813C40.8651 25.0727 41.2278 24.7358 41.2278 24.2867Z" fill="#183558"/>
<path d="M39.8805 25.9882C39.8805 26.2905 40.1223 26.541 40.4333 26.541C40.7356 26.541 40.986 26.2991 40.986 25.9882C40.986 25.6859 40.7442 25.4355 40.4333 25.4355C40.131 25.4355 39.8805 25.6859 39.8805 25.9882Z" fill="#183558"/>
<path d="M28.7045 17.0405C28.7045 16.8677 28.6872 16.7036 28.6526 16.5395L32.4528 14.1212C32.8415 14.4235 33.3338 14.6049 33.8693 14.6049C34.4134 14.6049 34.9143 14.4149 35.3116 14.1039L39.3018 16.5741C39.2759 16.7036 39.2673 16.8418 39.2673 16.98C39.2673 18.2669 40.3124 19.3119 41.5992 19.3119C42.8861 19.3119 43.9312 18.2669 43.9312 16.98C43.9312 16.6604 43.8621 16.3495 43.7498 16.0731C44.9244 14.959 46.0904 13.8535 47.265 12.7393C48.0164 12.0311 46.8763 10.8997 46.1336 11.6079C44.9762 12.7048 43.8189 13.8016 42.6529 14.8985C42.3334 14.7344 41.9793 14.6394 41.5992 14.6394C41.0292 14.6394 40.511 14.8467 40.1051 15.1835L36.158 12.7393C36.1926 12.5838 36.2099 12.4284 36.2099 12.2643C36.2099 10.9774 35.1648 9.93234 33.8779 9.93234C32.591 9.93234 31.546 10.9774 31.546 12.2643C31.546 12.437 31.5632 12.6011 31.5978 12.7652L27.7976 15.1835C27.4089 14.8812 26.9166 14.6999 26.3812 14.6999C25.0943 14.6999 24.0492 15.7449 24.0492 17.0318C24.0492 18.3187 25.0943 19.3637 26.3812 19.3637C27.6594 19.3724 28.7045 18.3273 28.7045 17.0405ZM41.582 16.2286C41.9879 16.2286 42.3161 16.5568 42.3161 16.9627C42.3161 17.3686 41.9879 17.6968 41.582 17.6968C41.176 17.6968 40.8478 17.3686 40.8478 16.9627C40.8478 16.5568 41.1847 16.2286 41.582 16.2286ZM33.852 11.5302C34.2579 11.5302 34.5861 11.8584 34.5861 12.2643C34.5861 12.6702 34.2579 12.9984 33.852 12.9984C33.4461 12.9984 33.1179 12.6702 33.1179 12.2643C33.1179 11.8584 33.4547 11.5302 33.852 11.5302ZM25.6384 17.0405C25.6384 16.6345 25.9666 16.3063 26.3725 16.3063C26.7785 16.3063 27.1066 16.6345 27.1066 17.0405C27.1066 17.4464 26.7785 17.7746 26.3725 17.7746C25.9666 17.7659 25.6384 17.4377 25.6384 17.0405Z" fill="#183558"/>
<path d="M48.9924 10.7269C48.9924 10.4247 48.7419 10.1742 48.4396 10.1742C48.1373 10.1742 47.8868 10.4247 47.8868 10.7269C47.8868 11.0292 48.1373 11.2797 48.4396 11.2797C48.7505 11.2797 48.9924 11.0292 48.9924 10.7269Z" fill="#183558"/>
<path d="M51.4711 12.0484C51.592 10.7528 51.7043 9.46594 51.8252 8.17041C51.8598 7.74721 51.4279 7.35857 51.022 7.36721C49.761 7.40175 48.5001 7.44492 47.2391 7.47947C46.2113 7.51402 46.2027 9.11184 47.2391 9.08593C48.2064 9.06002 49.1737 9.02547 50.1497 8.99956C50.0547 10.0187 49.9683 11.0292 49.8733 12.0484C49.7697 13.0761 51.3761 13.0675 51.4711 12.0484Z" fill="#183558"/>
<path d="M23.2892 35.886C23.2892 35.8428 23.2892 35.7996 23.2805 35.7478C22.6155 32.2758 20.0763 30.6089 16.9929 30.1943C16.8029 30.082 16.587 30.0475 16.3884 30.0993C18.2885 28.6656 19.5322 26.3941 19.5322 23.829C19.5322 19.5019 16.0083 15.9781 11.6813 15.9781C7.35424 15.9781 3.83041 19.5019 3.83041 23.829C3.83041 26.3768 5.05684 28.6397 6.93967 30.0734C6.91376 30.0734 6.88785 30.0734 6.86194 30.0734C6.78421 30.0648 6.71511 30.0648 6.63738 30.0821C3.07901 30.2634 -0.660735 33.4331 0.0993052 37.3024C0.703883 40.3858 1.99941 43.3396 2.6558 46.4143C3.01855 48.1244 2.51761 50.0331 3.37266 51.6655C3.51949 51.9418 3.69222 52.175 3.8736 52.3737C3.24311 52.8487 2.83718 53.5915 2.83718 54.4379V57.4176C2.83718 58.8427 3.99451 60 5.41959 60H17.9343C19.3594 60 20.5168 58.8427 20.5168 57.4176V54.4379C20.5168 54.3083 20.5081 54.1788 20.4822 54.0406C20.3786 53.3583 19.9899 52.771 19.4631 52.3737C19.6963 52.1318 19.9035 51.8382 20.0676 51.4668C20.8622 49.7222 20.3181 47.7703 20.819 45.9824C21.3718 44.0219 21.9159 42.0613 22.4687 40.1094C22.8487 38.7534 23.4619 37.3715 23.3064 35.9551C23.2978 35.9378 23.2892 35.9205 23.2892 35.886ZM11.6726 39.1334C10.4376 36.6374 9.20252 34.1327 7.95881 31.6367C9.21115 31.6021 10.4894 31.6799 11.6381 31.6885C11.6467 31.6885 11.6554 31.6885 11.664 31.6885C11.6726 31.6885 11.6813 31.6885 11.6813 31.6885C11.7417 31.6885 11.8022 31.6885 11.854 31.6885C12.9768 31.6885 14.1773 31.6367 15.3433 31.6799C14.1255 34.1673 12.8991 36.6547 11.6726 39.1334ZM5.41959 23.8376C5.41959 20.3915 8.22656 17.5846 11.6726 17.5846C15.1187 17.5846 17.9257 20.3915 17.9257 23.8376C17.9257 27.0937 15.421 29.7711 12.234 30.0561C11.8108 30.0475 11.379 30.0475 10.9558 30.0389C7.84654 29.6934 5.41959 27.0419 5.41959 23.8376ZM21.0695 39.1766C20.5772 40.9385 20.0849 42.6918 19.584 44.4537C19.2817 45.5333 18.9967 46.4315 18.9708 47.5543C18.9449 48.6253 19.109 49.9899 18.5389 50.9572C18.1675 51.5877 17.5457 51.8123 16.872 51.8814H15.136C15.1015 51.8814 15.0583 51.8814 15.0237 51.8814C13.996 51.8814 13.9873 53.4878 15.0237 53.4878C15.2742 53.4878 15.5247 53.4878 15.7751 53.4878H17.9257C18.4007 53.4878 18.8239 53.8419 18.893 54.317C18.9017 54.3688 18.9017 54.412 18.9017 54.4638V57.4435C18.9017 57.9876 18.4612 58.4281 17.9171 58.4281H5.41095C4.86683 58.4281 4.42635 57.9876 4.42635 57.4435V54.4638C4.42635 53.9197 4.86683 53.4792 5.41095 53.4792H6.94831C7.54425 53.4965 8.14882 53.4792 8.72749 53.4792C9.75527 53.4792 9.76391 51.8727 8.72749 51.8727C8.60657 51.8727 8.48566 51.8727 8.35611 51.8814V51.8727H6.34373C5.76506 51.795 5.24685 51.605 4.91865 51.1818C4.24498 50.3095 4.38317 48.8326 4.36589 47.8134C4.35726 46.6215 4.12407 45.7665 3.79587 44.6092C3.28629 42.7955 2.77672 40.9817 2.26715 39.168C1.85258 37.6825 1.33437 36.5856 1.89577 35.0655C2.68172 32.9236 4.33999 32.0858 6.24009 31.7835C7.81199 34.9705 9.39253 38.1488 10.9644 41.3358C11.2235 41.8627 12.0872 41.8627 12.3463 41.3358C13.9096 38.1661 15.4815 35.005 17.0447 31.8353C19.2471 32.1808 21.0954 33.2086 21.6827 36.0674C21.7864 37.1383 21.3545 38.1402 21.0695 39.1766Z" fill="#183558"/>
<path d="M11.9636 53.5583C12.4535 53.4808 12.7879 53.0208 12.7104 52.5308C12.633 52.0408 12.1729 51.7065 11.683 51.784C11.193 51.8614 10.8586 52.3215 10.9361 52.8114C11.0136 53.3014 11.4736 53.6358 11.9636 53.5583Z" fill="#183558"/>
<path d="M30.4491 25.8932H27.0289V30.7989H30.4491V25.8932Z" fill="#75C422"/>
<path d="M48.8369 20.7543H45.4167V30.8075H48.8369V20.7543Z" fill="white"/>
<path d="M37.8681 42.8386C37.2808 42.8386 36.8058 42.3636 36.8058 41.7763C36.8058 41.189 37.2808 40.714 37.8681 40.714C38.4554 40.714 38.9305 41.189 38.9305 41.7763C38.9305 42.3636 38.4554 42.8386 37.8681 42.8386Z" fill="#75C422"/>
<path d="M41.7397 17.6679C42.1354 17.5793 42.3843 17.1868 42.2957 16.7911C42.2071 16.3955 41.8146 16.1466 41.4189 16.2352C41.0233 16.3238 40.7744 16.7163 40.863 17.112C40.9516 17.5076 41.3441 17.7565 41.7397 17.6679Z" fill="#75C422"/>
<path d="M33.852 12.9898C34.2575 12.9898 34.5861 12.6611 34.5861 12.2556C34.5861 11.8502 34.2575 11.5215 33.852 11.5215C33.4466 11.5215 33.1179 11.8502 33.1179 12.2556C33.1179 12.6611 33.4466 12.9898 33.852 12.9898Z" fill="white"/>
<path d="M26.8905 17.5543C27.1772 17.2676 27.1772 16.8028 26.8905 16.5161C26.6038 16.2294 26.139 16.2294 25.8523 16.5161C25.5656 16.8028 25.5656 17.2676 25.8523 17.5543C26.139 17.841 26.6038 17.841 26.8905 17.5543Z" fill="#75C422"/>
</svg>
