<svg width="60" height="60" viewBox="0 0 60 60" fill="none" xmlns="http://www.w3.org/2000/svg">
<path d="M4.32021 60H40.0719C42.4519 60 44.3921 58.0598 44.3921 55.6798V4.32019C44.3921 1.9402 42.4519 0 40.0719 0H4.32021C1.94021 0 0 1.9402 0 4.32019V55.6798C0 58.0598 1.94021 60 4.32021 60ZM1.60391 4.32019C1.60391 2.81976 2.81978 1.6039 4.32021 1.6039H40.0719C41.5723 1.6039 42.7882 2.81976 42.7882 4.32019V55.6798C42.7882 57.1802 41.5723 58.3961 40.0719 58.3961H4.32021C2.81978 58.3961 1.60391 57.1802 1.60391 55.6798V4.32019Z" fill="#183558"/>
<path d="M56.2058 56.0075C55.1969 56.1282 55.1883 57.7321 56.2058 57.6114C59.7068 57.1888 59.8534 54.3777 59.8534 51.6183C59.8534 47.9965 59.8534 44.3748 59.8534 40.7531C59.8534 31.9488 59.8534 23.1446 59.8534 14.3489C59.8534 11.5119 60.2932 7.76947 56.4817 7.23484C55.4728 7.09687 55.0417 8.6318 56.0592 8.7784C58.9049 9.17506 58.2581 12.4863 58.2581 14.5818C58.2581 18.0569 58.2581 21.5234 58.2581 24.9986C58.2581 33.0009 58.2581 41.0032 58.2581 48.9968C58.2581 50.9888 59.086 55.6626 56.2058 56.0075Z" fill="#183558"/>
<path d="M10.1322 8.9767C12.745 8.98532 15.3492 8.99395 17.9621 9.00257C18.9882 9.00257 18.9968 7.4073 17.9621 7.39868C15.3492 7.39005 12.745 7.38143 10.1322 7.3728C9.09745 7.3728 9.09745 8.96808 10.1322 8.9767Z" fill="#183558"/>
<path d="M8.38171 8.65766C8.66627 8.35585 8.65765 7.88157 8.35584 7.59701C8.05403 7.31244 7.57975 7.32107 7.29519 7.62288C7.01063 7.92469 7.01925 8.39897 7.32106 8.68353C7.62287 8.9681 8.09714 8.95947 8.38171 8.65766Z" fill="#183558"/>
<path d="M10.1322 13.3314C14.3145 13.34 18.4967 13.3487 22.6789 13.3573C23.7051 13.3573 23.7137 11.762 22.6789 11.7534C18.4967 11.7448 14.3145 11.7361 10.1322 11.7275C9.09745 11.7275 9.09745 13.3314 10.1322 13.3314Z" fill="#183558"/>
<path d="M8.38171 13.0124C8.66627 12.7106 8.65765 12.2363 8.35584 11.9517C8.05403 11.6671 7.57975 11.6758 7.29519 11.9776C7.01063 12.2794 7.01925 12.7537 7.32106 13.0382C7.62287 13.3228 8.09714 13.3142 8.38171 13.0124Z" fill="#183558"/>
<path d="M10.1322 17.6689C14.3145 17.6775 18.4967 17.6861 22.6789 17.6947C23.7051 17.6947 23.7137 16.0994 22.6789 16.0908C18.4967 16.0822 14.3145 16.0736 10.1322 16.065C9.09745 16.065 9.09745 17.6689 10.1322 17.6689Z" fill="#183558"/>
<path d="M8.38171 17.3498C8.66627 17.048 8.65765 16.5737 8.35584 16.2892C8.05403 16.0046 7.57975 16.0132 7.29519 16.315C7.01063 16.6169 7.01925 17.0911 7.32106 17.3757C7.62287 17.6603 8.09714 17.6516 8.38171 17.3498Z" fill="#183558"/>
<path d="M49.3331 56.0075C48.7468 56.0075 48.1604 56.0075 47.5826 56.0075C46.5565 56.0075 46.5479 57.6114 47.5826 57.6114C48.169 57.6114 48.7554 57.6114 49.3331 57.6114C49.428 57.6114 49.5229 57.6114 49.6177 57.6114C49.7729 57.6114 49.9109 57.5683 50.0144 57.5079C53.0756 56.8353 53.067 53.6965 53.067 51.0319C53.067 46.979 53.067 42.9261 53.067 38.8732C53.067 29.1894 53.067 19.5056 53.067 9.82178C53.067 6.89853 53.4723 2.94049 49.8505 2.27651C49.7557 2.23339 49.635 2.20752 49.5056 2.20752C49.4452 2.20752 49.3935 2.20752 49.3331 2.20752C48.6778 2.20752 48.0224 2.20752 47.3671 2.20752C46.3409 2.20752 46.3323 3.81144 47.3671 3.81144C48.0224 3.81144 48.6778 3.81144 49.3331 3.81144C52.1874 4.07013 51.4717 8.43345 51.4717 10.4082C51.4717 14.2368 51.4717 18.0569 51.4717 21.8856C51.4717 30.6899 51.4717 39.4941 51.4717 48.2983C51.4717 50.3162 52.3513 55.7402 49.3331 56.0075Z" fill="#183558"/>
<path d="M33.4406 49.1779C38.9767 44.1592 40.1753 36.0879 36.8382 29.4998C36.3725 28.5772 34.9928 29.3878 35.4585 30.3104C38.2179 35.7603 37.528 42.3829 33.4062 46.9618C29.8793 50.8767 24.3777 52.6358 19.2383 51.4372C18.6088 51.2906 18.0052 51.1009 17.4188 50.8767C19.3504 46.4444 21.282 42.0121 23.2222 37.5711C23.2308 37.5625 23.2308 37.5453 23.2308 37.5367C23.2912 37.4246 23.3257 37.2952 23.3257 37.1659C23.3257 32.311 23.3257 27.4648 23.3257 22.6099C25.7057 22.7479 28.0857 23.4464 30.2328 24.7226C31.121 25.2486 31.923 23.8689 31.0434 23.3429C25.3349 19.9713 18.0914 20.1696 12.7537 24.2052C8.0368 27.7752 5.60507 33.7166 6.46738 39.5631C8.32136 52.1788 24.0242 57.7235 33.4406 49.1779ZM8.0368 37.9678C12.4605 37.9678 16.8842 37.9678 21.3078 37.9678C19.5229 42.0552 17.7465 46.1426 15.9615 50.23C11.236 47.8241 8.3731 43.0037 8.0368 37.9678ZM12.1759 26.8181C14.806 24.188 18.2208 22.7824 21.7218 22.6099C21.7218 27.1975 21.7218 31.785 21.7218 36.3639C17.1515 36.3639 12.5812 36.3639 8.0023 36.3639C8.14028 32.9491 9.45962 29.5344 12.1759 26.8181Z" fill="#183558"/>
<path d="M33.7424 27.6027C35.0273 27.6027 35.0273 25.6022 33.7424 25.6022C32.449 25.6022 32.449 27.6027 33.7424 27.6027Z" fill="#183558"/>
<path d="M8.0368 37.9678C12.4605 37.9678 16.8842 37.9678 21.3079 37.9678C19.5229 42.0552 17.7465 46.1426 15.9615 50.2299C11.236 47.8241 8.37311 43.0037 8.0368 37.9678Z" fill="#75C422"/>
<path d="M12.1759 26.818C14.806 24.188 18.2207 22.7824 21.7217 22.6099C21.7217 27.1974 21.7217 31.785 21.7217 36.3639C17.1515 36.3639 12.5812 36.3639 8.00229 36.3639C8.14026 32.9491 9.45961 29.5343 12.1759 26.818Z" fill="white"/>
</svg>
