<svg width="60" height="60" viewBox="0 0 60 60" fill="none" xmlns="http://www.w3.org/2000/svg">
<path d="M47.1544 52.3122C46.6269 52.857 46.5317 53.3153 46.8863 53.6872C47.0333 53.8428 47.1976 53.9207 47.3792 53.9207H47.3879C47.656 53.9207 47.9586 53.7563 48.2872 53.4364L48.391 53.3326C49.3941 52.3468 50.3972 51.3523 51.4003 50.3579C51.9365 49.8304 51.9365 49.4672 51.409 48.9224C50.0859 47.5388 48.7542 46.1638 47.4225 44.7802C46.1599 43.4744 44.9493 43.2496 43.3581 44.0452L43.3235 44.0625L43.289 44.0279C43.0295 43.7684 42.7701 43.4917 42.5193 43.2323C41.9745 42.6529 41.4557 42.1081 40.8676 41.6325C39.5792 40.5775 38.1955 39.9289 36.6995 39.6609V38.2167C36.6995 37.9486 36.6563 37.6979 36.5698 37.4557C37.8669 37.4471 38.9306 36.3921 38.9306 35.095V33.6422C38.9306 32.345 37.8756 31.2814 36.5698 31.2814C36.6476 31.0393 36.6995 30.7885 36.6995 30.5204V29.0676C36.6995 27.7619 35.6359 26.7068 34.3387 26.7068H23.3823C22.0765 26.7068 21.0215 27.7705 21.0215 29.0676V30.5204C21.0215 31.8175 22.0765 32.8812 23.3823 32.8812C23.3045 33.1233 23.2526 33.3741 23.2526 33.6422V35.095C23.2526 35.363 23.2958 35.6138 23.3823 35.8559C22.0852 35.8559 21.0215 36.9196 21.0215 38.2167V39.6695C21.0215 39.9549 21.0734 40.2229 21.1685 40.4737C20.3557 40.638 19.7763 41.0445 19.0845 41.8746L19.0412 41.9265L18.8856 41.7795C18.8078 41.7017 18.7213 41.6325 18.6435 41.5547C18.1419 41.0618 17.6403 40.5602 17.1388 40.0673C16.1616 39.0988 15.1844 38.1302 14.1986 37.1617C13.1609 36.1413 11.907 35.8127 10.4715 36.1932C9.42517 36.4699 8.6296 37.2136 8.301 38.2513C7.9551 39.3323 8.19722 40.517 8.94091 41.4077C10.3591 43.1026 11.8119 44.8061 13.2128 46.4578C13.8095 47.1583 14.4148 47.8674 15.0115 48.5678L15.2709 48.8705C15.4871 49.1213 15.7033 49.3893 15.9281 49.6401C17.0436 50.9113 18.3927 51.5772 19.9406 51.6118C21.549 51.655 23.1834 51.6636 24.7746 51.6723C26.2101 51.6809 27.6888 51.6896 29.1502 51.7242C30.5165 51.7501 31.9088 51.828 33.2492 51.8971C33.8372 51.9317 34.4252 51.9577 35.0219 51.9836C35.0738 51.9836 35.1257 51.9922 35.1862 52.0095C35.2121 52.0182 35.2467 52.0182 35.2813 52.0268L35.3332 52.0355L35.3246 52.0874C35.3246 52.1133 35.3246 52.1393 35.3159 52.1652C35.3159 52.2171 35.3072 52.269 35.2986 52.3209C34.9873 53.5229 35.2727 54.5433 36.1547 55.434C36.9503 56.2382 37.7372 57.0511 38.5242 57.8553C39.0949 58.4433 39.6656 59.0227 40.2363 59.6107C40.7379 60.1209 41.1184 60.1296 41.6459 59.6367L41.9745 59.3254C42.3118 59.0054 42.6663 58.6768 43.0036 58.3482C43.3927 57.9677 43.436 57.4834 43.1073 57.1462C42.9517 56.9905 42.7701 56.9127 42.5712 56.9127C42.3463 56.9127 42.1129 57.0165 41.8967 57.2154C41.7064 57.3883 41.5162 57.5699 41.3173 57.7601L40.9974 58.0628L40.9541 58.0282C40.9195 57.9936 40.8763 57.9591 40.8417 57.9245C40.7638 57.8553 40.6947 57.7947 40.6255 57.7169C39.5186 56.5841 38.4204 55.4513 37.3135 54.3184C36.5785 53.5661 36.5957 52.7792 37.3481 52.0441C39.5532 49.8995 41.7497 47.7636 43.8943 45.6968C44.6466 44.9704 45.4335 44.9791 46.1599 45.7314C47.0765 46.6827 47.9932 47.6339 48.9099 48.5851L49.6103 49.3115C49.6622 49.372 49.7141 49.4326 49.7486 49.4758L49.8092 49.5536L49.0136 50.3752C48.3996 51.0237 47.777 51.6809 47.1544 52.3122ZM37.3394 33.6508V35.1036C37.3394 35.5187 37.0022 35.8646 36.5785 35.8646H34.3474H25.6133C25.1983 35.8646 24.8524 35.5273 24.8524 35.1036V33.6508C24.8524 33.2357 25.1896 32.8898 25.6133 32.8898H34.3474H36.5785C37.0022 32.8898 37.3394 33.2357 37.3394 33.6508ZM22.6299 30.5291V29.0763C22.6299 28.6612 22.9672 28.3153 23.391 28.3153H34.3474C34.7624 28.3153 35.1084 28.6525 35.1084 29.0763V30.5291C35.1084 30.9441 34.7711 31.29 34.3474 31.29H25.6133H23.3823C22.9672 31.29 22.6299 30.9441 22.6299 30.5291ZM22.6299 38.2254C22.6299 37.8103 22.9672 37.4644 23.391 37.4644H25.622H34.356C34.7711 37.4644 35.117 37.8016 35.117 38.2254V39.5312C34.2436 39.5312 33.327 39.6522 32.3757 39.8857C31.2862 40.1538 30.0582 40.3181 28.6314 40.3613C27.1526 40.4132 25.6566 40.4046 24.2038 40.3959C23.8406 40.3959 23.4774 40.3959 23.1229 40.3873V40.3786C22.8375 40.2662 22.6386 39.9808 22.6386 39.6695V38.2254H22.6299ZM41.9572 45.2558C41.9486 45.2645 41.9399 45.2818 41.9313 45.2991C41.9053 45.3336 41.8794 45.3682 41.8535 45.4028L41.0838 46.1465C39.6483 47.5301 38.1609 48.9656 36.6909 50.3665C36.5784 50.4789 36.3709 50.5222 36.198 50.5222C36.172 50.5222 36.1461 50.5222 36.1288 50.5222C35.7483 50.4876 35.3591 50.4357 34.9787 50.3925C34.3647 50.3146 33.7247 50.2368 33.0935 50.2195C31.4937 50.1676 29.8679 50.159 28.2941 50.1503C27.8444 50.1503 27.3948 50.1417 26.9364 50.1417C25.8555 50.133 24.7659 50.133 23.685 50.1244C22.6732 50.1244 21.6614 50.1157 20.6497 50.1071C19.0585 50.0984 17.7873 49.4672 16.7583 48.1787C15.7552 46.9334 14.7002 45.7055 13.6797 44.5121C13.2387 43.9933 12.7891 43.4744 12.348 42.9556C12.1405 42.7048 11.9243 42.454 11.7081 42.2119C11.1979 41.6152 10.6704 41.0012 10.1602 40.3873C9.6846 39.8165 9.60677 39.1766 9.93537 38.5367C10.238 37.9573 10.7396 37.6719 11.466 37.6719C11.4746 37.6719 11.4833 37.6719 11.4919 37.6719C12.1491 37.6806 12.6939 37.9054 13.1609 38.3724C13.844 39.0555 14.5359 39.73 15.219 40.4132C16.1962 41.3817 17.2166 42.3848 18.2024 43.3879C18.3927 43.5782 18.5397 43.8809 18.5829 44.1576C18.7991 45.6104 19.8195 46.7259 21.1945 47.0026C21.6615 47.0977 22.1543 47.0977 22.6299 47.0977C22.7251 47.0977 22.8202 47.0977 22.9067 47.0977C24.5065 47.1064 26.1668 47.1064 27.8271 47.0977C28.3027 47.0977 28.614 46.8037 28.64 46.3541C28.6573 45.8871 28.3633 45.5671 27.8617 45.5239C27.7579 45.5152 27.6542 45.5152 27.5504 45.5152H27.4553C26.9019 45.5152 26.3397 45.5152 25.7863 45.5152C24.567 45.5152 23.3131 45.5152 22.0765 45.5152C21.1599 45.5066 20.5113 45.0829 20.2519 44.3132C20.0703 43.7684 20.1481 43.2063 20.4594 42.7653C20.8053 42.2811 21.3761 42.0043 22.0333 42.0043H22.2149C24.1433 41.9957 26.1409 41.9784 28.0952 42.0043C29.8247 42.0216 31.4764 41.8228 33.1713 41.3904C37.1924 40.344 40.3488 42.6789 41.9659 45.2126L41.9918 45.2472L41.9572 45.2558Z" fill="#183558"/>
<path d="M44.9666 54.673C44.759 54.673 44.5515 54.7595 44.3958 54.9238C44.2402 55.0794 44.1623 55.287 44.1623 55.4859C44.171 55.9182 44.5515 56.2728 45.0012 56.2728C45.2173 56.2728 45.4076 56.1863 45.5632 56.0393C45.7102 55.8836 45.7967 55.6848 45.7881 55.4599C45.7794 55.0189 45.4162 54.673 44.9666 54.673Z" fill="#183558"/>
<path d="M22.3879 3.82546C19.7936 7.42284 20.1568 12.4817 23.1834 15.6985C26.2101 18.9154 31.2775 19.538 34.996 17.1686C39.19 14.4965 40.3229 9.22153 38.2129 4.85452C37.7632 3.92924 36.3796 4.74211 36.8292 5.66739C38.5933 9.31666 37.5297 13.8047 33.9582 15.9234C30.8711 17.7567 26.7721 17.2292 24.3162 14.5744C21.9382 11.9887 21.5577 8.04546 23.4688 5.07936C25.7863 1.48198 30.4387 0.651825 34.062 2.70994C34.9614 3.22014 35.7742 1.83654 34.8749 1.32633C30.6549 -1.07768 25.2848 -0.195642 22.3879 3.82546Z" fill="#183558"/>
<path d="M36.933 3.42769C36.933 3.0126 36.5957 2.67535 36.1807 2.67535C35.7656 2.67535 35.4283 3.0126 35.4283 3.42769C35.4283 3.84277 35.7656 4.18003 36.1807 4.18003C36.6044 4.18003 36.933 3.84277 36.933 3.42769Z" fill="#183558"/>
<path d="M29.9804 6.63592C30.5857 6.63592 31.1045 7.0683 31.1045 7.5785C31.1045 8.01088 31.4591 8.36543 31.8915 8.36543C32.3239 8.36543 32.6784 8.01088 32.6784 7.5785C32.6784 6.53215 31.9779 5.58957 30.9316 5.21773L30.7846 5.16584L30.7759 5.01019C30.75 4.59511 30.4041 4.27515 29.989 4.27515C29.5739 4.27515 29.228 4.59511 29.2021 5.01019L29.1935 5.16584L29.0464 5.21773C28.0001 5.58093 27.2996 6.53215 27.2996 7.5785C27.2996 8.97076 28.5103 10.0949 29.9977 10.0949C30.603 10.0949 31.1219 10.5273 31.1219 11.0375C31.1219 11.5477 30.6116 11.9801 29.9977 11.9801C29.3923 11.9801 28.8735 11.5477 28.8735 11.0375C28.8735 10.6051 28.5189 10.2506 28.0866 10.2506C27.6542 10.2506 27.2996 10.6051 27.2996 11.0375C27.2996 12.0839 28.0087 13.0351 29.0551 13.3983L29.1935 13.4502L29.2107 13.5972C29.2626 13.9863 29.5999 14.2803 29.989 14.2803C30.3782 14.2803 30.7154 13.9863 30.7673 13.5972L30.7846 13.4502L30.923 13.3983C31.9693 13.0351 32.6784 12.0839 32.6784 11.0375C32.6784 9.64526 31.4677 8.52109 29.9804 8.52109C29.375 8.52109 28.8562 8.08871 28.8562 7.5785C28.8562 7.0683 29.3664 6.63592 29.9804 6.63592Z" fill="white"/>
<path d="M2.52444 30.114C5.55108 33.3309 10.6185 33.9535 14.337 31.5841C18.531 28.912 19.6639 23.637 17.5539 19.27C17.1042 18.3447 15.7206 19.1575 16.1703 20.0828C17.9344 23.7321 16.8707 28.2202 13.2993 30.3388C10.2121 32.1721 6.11316 31.6446 3.65725 28.9898C1.27918 26.4042 0.898707 22.4609 2.80981 19.4948C5.12735 15.8974 9.77973 15.0673 13.403 17.1254C14.3024 17.6356 15.1153 16.252 14.2159 15.7418C9.98726 13.3464 4.6258 14.2284 1.72887 18.2496C-0.856744 21.8296 -0.502199 26.8971 2.52444 30.114Z" fill="#183558"/>
<path d="M15.5304 18.5955C15.9459 18.5955 16.2827 18.2586 16.2827 17.8431C16.2827 17.4276 15.9459 17.0908 15.5304 17.0908C15.1149 17.0908 14.778 17.4276 14.778 17.8431C14.778 18.2586 15.1149 18.5955 15.5304 18.5955Z" fill="#183558"/>
<path d="M9.32139 21.0514C9.92672 21.0514 10.4456 21.4837 10.4456 21.9939C10.4456 22.4263 10.8001 22.7809 11.2325 22.7809C11.6649 22.7809 12.0194 22.4263 12.0194 21.9939C12.0194 20.9476 11.319 20.005 10.2726 19.6332L10.1256 19.5813L10.117 19.4256C10.091 19.0105 9.74513 18.6906 9.33005 18.6906C8.91497 18.6906 8.56906 19.0105 8.54311 19.4256L8.53448 19.5813L8.38748 19.6332C7.34112 19.9964 6.64066 20.9476 6.64066 21.9939C6.64066 23.3862 7.85133 24.5104 9.3387 24.5104C9.94403 24.5104 10.4629 24.9428 10.4629 25.453C10.4629 25.9632 9.95268 26.3955 9.3387 26.3955C8.73338 26.3955 8.21452 25.9632 8.21452 25.453C8.21452 25.0206 7.85997 24.666 7.42759 24.666C6.99521 24.666 6.64066 25.0206 6.64066 25.453C6.64066 26.4993 7.34976 27.4505 8.39611 27.8137L8.53448 27.8656L8.55177 28.0126C8.60366 28.4018 8.94091 28.6958 9.33005 28.6958C9.71919 28.6958 10.0564 28.4018 10.1083 28.0126L10.1256 27.8656L10.264 27.8137C11.3103 27.4505 12.0194 26.4993 12.0194 25.453C12.0194 24.0607 10.8088 22.9365 9.32139 22.9365C8.71606 22.9365 8.19721 22.5042 8.19721 21.9939C8.19721 21.4837 8.70742 21.0514 9.32139 21.0514Z" fill="white"/>
<path d="M58.8805 19.2613C58.4308 18.336 57.0472 19.1489 57.4969 20.0742C59.261 23.7235 58.1973 28.2115 54.6259 30.3302C51.5387 32.1634 47.4398 31.636 44.9839 28.9812C42.6058 26.3955 42.2253 22.4523 44.1364 19.4862C46.454 15.8888 51.1063 15.0586 54.7297 17.1167C55.629 17.6269 56.4419 16.2433 55.5425 15.7331C51.3225 13.3378 45.9524 14.2198 43.0555 18.2409C40.4612 21.8383 40.8244 26.8971 43.8511 30.114C46.8777 33.3309 51.9451 33.9535 55.6636 31.5841C59.8576 28.9033 60.9991 23.6283 58.8805 19.2613Z" fill="#183558"/>
<path d="M56.8569 18.5955C57.2724 18.5955 57.6092 18.2586 57.6092 17.8431C57.6092 17.4276 57.2724 17.0908 56.8569 17.0908C56.4414 17.0908 56.1046 17.4276 56.1046 17.8431C56.1046 18.2586 56.4414 18.5955 56.8569 18.5955Z" fill="#183558"/>
<path d="M50.648 21.0514C51.2533 21.0514 51.7722 21.4837 51.7722 21.9939C51.7722 22.4263 52.1267 22.7809 52.5591 22.7809C52.9915 22.7809 53.346 22.4263 53.346 21.9939C53.346 20.9476 52.6456 20.005 51.5992 19.6332L51.4522 19.5813L51.4436 19.4256C51.4176 19.0105 51.0717 18.6906 50.6566 18.6906C50.2416 18.6906 49.8957 19.0105 49.8697 19.4256L49.8611 19.5813L49.7141 19.6332C48.6677 19.9964 47.9673 20.9476 47.9673 21.9939C47.9673 23.3862 49.1779 24.5104 50.6653 24.5104C51.2706 24.5104 51.7895 24.9428 51.7895 25.453C51.7895 25.9632 51.2793 26.3955 50.6653 26.3955C50.06 26.3955 49.5411 25.9632 49.5411 25.453C49.5411 25.0206 49.1866 24.666 48.7542 24.666C48.3218 24.666 47.9673 25.0206 47.9673 25.453C47.9673 26.4993 48.6764 27.4505 49.7227 27.8137L49.8611 27.8656L49.8784 28.0126C49.9303 28.4018 50.2675 28.6958 50.6566 28.6958C51.0458 28.6958 51.383 28.4018 51.4349 28.0126L51.4522 27.8656L51.5906 27.8137C52.637 27.4505 53.346 26.4993 53.346 25.453C53.346 24.0607 52.1354 22.9365 50.648 22.9365C50.0427 22.9365 49.5238 22.5042 49.5238 21.9939C49.5238 21.4837 50.0427 21.0514 50.648 21.0514Z" fill="white"/>
<path d="M37.3394 33.6508V35.1036C37.3394 35.5187 37.0022 35.8646 36.5785 35.8646H34.3474H25.6134C25.1983 35.8646 24.8524 35.5273 24.8524 35.1036V33.6508C24.8524 33.2358 25.1896 32.8898 25.6134 32.8898H34.3474H36.5785C37.0022 32.8898 37.3394 33.2358 37.3394 33.6508Z" fill="white"/>
<path d="M22.6299 30.5291V29.0763C22.6299 28.6612 22.9672 28.3153 23.391 28.3153H34.3474C34.7624 28.3153 35.1084 28.6525 35.1084 29.0763V30.5291C35.1084 30.9441 34.7711 31.29 34.3474 31.29H25.6133H23.3823C22.9672 31.29 22.6299 30.9441 22.6299 30.5291Z" fill="#75C422"/>
<path d="M22.6299 38.2254C22.6299 37.8103 22.9672 37.4644 23.391 37.4644H25.622H34.356C34.7711 37.4644 35.117 37.8016 35.117 38.2254V39.5312C34.2436 39.5312 33.327 39.6522 32.3757 39.8857C31.2861 40.1538 30.0582 40.3181 28.6314 40.3613C27.1526 40.4132 25.6566 40.4046 24.2038 40.3959C23.8406 40.3959 23.4774 40.3959 23.1229 40.3873V40.3786C22.8375 40.2662 22.6386 39.9808 22.6386 39.6695V38.2254H22.6299Z" fill="#75C422"/>
</svg>
