<svg width="39" height="23" viewBox="0 0 39 23" fill="none" xmlns="http://www.w3.org/2000/svg">
<path d="M1.97241 10.4253C1.14399 10.4253 0.472412 11.0969 0.472412 11.9253C0.472412 12.7537 1.14399 13.4253 1.97241 13.4253V10.4253ZM38.5129 12.986C39.0987 12.4002 39.0987 11.4504 38.5129 10.8646L28.9669 1.31869C28.3812 0.732905 27.4314 0.732905 26.8456 1.31869C26.2598 1.90448 26.2598 2.85423 26.8456 3.44001L35.3309 11.9253L26.8456 20.4106C26.2598 20.9964 26.2598 21.9461 26.8456 22.5319C27.4314 23.1177 28.3812 23.1177 28.9669 22.5319L38.5129 12.986ZM1.97241 13.4253H37.4522V10.4253H1.97241V13.4253Z" fill="#285596"/>
</svg>
