<svg width="1834" height="1101" viewBox="0 0 1834 1101" fill="none" xmlns="http://www.w3.org/2000/svg">
<path d="M1649.79 42.7427L1833 -62.9993L1833 148.532L1649.79 254.274L1649.79 42.7427Z" stroke="white" stroke-linejoin="round"/>
<path d="M1466.6 -63L1649.8 42.7654L1649.8 254.296L1466.6 148.531L1466.6 -63Z" stroke="white" stroke-linejoin="round"/>
<path d="M1649.8 465.825L1833 360.059L1833 571.59L1649.8 677.355L1649.8 465.825Z" stroke="white" stroke-linejoin="round"/>
<path d="M1466.6 360.059L1649.8 254.294L1833 360.059L1649.8 465.825L1466.6 360.059Z" stroke="white" stroke-linejoin="round"/>
<path d="M1466.6 360.058L1649.8 465.824L1649.8 677.355L1466.6 571.589L1466.6 360.058Z" stroke="white" stroke-linejoin="round"/>
<path d="M1649.8 888.888L1833 783.123L1833 994.654L1649.8 1100.42L1649.8 888.888Z" stroke="white" stroke-linejoin="round"/>
<path d="M1466.6 783.124L1649.8 677.358L1833 783.124L1649.8 888.889L1466.6 783.124Z" stroke="white" stroke-linejoin="round"/>
<path d="M1466.6 783.126L1649.8 888.891L1649.8 1100.42L1466.6 994.657L1466.6 783.126Z" stroke="white" stroke-linejoin="round"/>
<path d="M1283.4 42.7662L1466.6 -62.9993L1466.6 148.532L1283.4 254.297L1283.4 42.7662Z" stroke="white" stroke-linejoin="round"/>
<path d="M1100.2 -63L1283.4 42.7654L1283.4 254.296L1100.2 148.531L1100.2 -63Z" stroke="white" stroke-linejoin="round"/>
<path d="M1283.4 465.825L1466.6 360.059L1466.6 571.59L1283.4 677.355L1283.4 465.825Z" stroke="white" stroke-linejoin="round"/>
<path d="M1100.2 360.059L1283.4 254.294L1466.6 360.059L1283.4 465.825L1100.2 360.059Z" stroke="white" stroke-linejoin="round"/>
<path d="M1100.2 360.058L1283.4 465.824L1283.4 677.355L1100.2 571.589L1100.2 360.058Z" stroke="white" stroke-linejoin="round"/>
<path d="M1283.4 888.888L1466.6 783.123L1466.6 994.654L1283.4 1100.42L1283.4 888.888Z" stroke="white" stroke-linejoin="round"/>
<path d="M1100.2 783.124L1283.4 677.358L1466.6 783.124L1283.4 888.889L1100.2 783.124Z" stroke="white" stroke-linejoin="round"/>
<path d="M1100.2 783.126L1283.4 888.891L1283.4 1100.42L1100.2 994.657L1100.2 783.126Z" stroke="white" stroke-linejoin="round"/>
<path d="M916.996 42.7662L1100.2 -62.9993L1100.2 148.532L916.996 254.297L916.996 42.7662Z" stroke="white" stroke-linejoin="round"/>
<path d="M733.798 -63L916.998 42.7654L916.998 254.296L733.798 148.531L733.798 -63Z" stroke="white" stroke-linejoin="round"/>
<path d="M916.996 465.825L1100.2 360.059L1100.2 571.59L916.996 677.355L916.996 465.825Z" stroke="white" stroke-linejoin="round"/>
<path d="M733.798 360.059L916.998 254.294L1100.2 360.059L916.998 465.825L733.798 360.059Z" stroke="white" stroke-linejoin="round"/>
<path d="M733.798 360.058L916.998 465.824L916.998 677.355L733.798 571.589L733.798 360.058Z" stroke="white" stroke-linejoin="round"/>
<path d="M916.996 888.888L1100.2 783.123L1100.2 994.654L916.996 1100.42L916.996 888.888Z" stroke="white" stroke-linejoin="round"/>
<path d="M733.798 783.124L916.998 677.358L1100.2 783.124L916.998 888.889L733.798 783.124Z" stroke="white" stroke-linejoin="round"/>
<path d="M733.798 783.126L916.998 888.891L916.998 1100.42L733.798 994.657L733.798 783.126Z" stroke="white" stroke-linejoin="round"/>
<path d="M550.593 42.7662L733.793 -62.9993L733.793 148.532L550.593 254.297L550.593 42.7662Z" stroke="white" stroke-linejoin="round"/>
<path d="M367.395 -63L550.595 42.7654L550.595 254.296L367.395 148.531L367.395 -63Z" stroke="white" stroke-linejoin="round"/>
<path d="M550.593 465.825L733.793 360.059L733.793 571.59L550.593 677.355L550.593 465.825Z" stroke="white" stroke-linejoin="round"/>
<path d="M367.395 360.059L550.595 254.294L733.795 360.059L550.595 465.825L367.395 360.059Z" stroke="white" stroke-linejoin="round"/>
<path d="M367.395 360.058L550.595 465.824L550.595 677.355L367.395 571.589L367.395 360.058Z" stroke="white" stroke-linejoin="round"/>
<path d="M550.593 888.888L733.793 783.123L733.793 994.654L550.593 1100.42L550.593 888.888Z" stroke="white" stroke-linejoin="round"/>
<path d="M367.395 783.124L550.595 677.358L733.795 783.124L550.595 888.889L367.395 783.124Z" stroke="white" stroke-linejoin="round"/>
<path d="M367.395 783.126L550.595 888.891L550.595 1100.42L367.395 994.657L367.395 783.126Z" stroke="white" stroke-linejoin="round"/>
<path d="M184.199 42.7662L367.399 -62.9993L367.399 148.532L184.199 254.297L184.199 42.7662Z" stroke="white" stroke-linejoin="round"/>
<path d="M184.199 888.888L367.399 783.123L367.399 994.654L184.199 1100.42L184.199 888.888Z" stroke="white" stroke-linejoin="round"/>
<path d="M1.0001 783.124L184.2 677.358L367.4 783.124L184.2 888.889L1.0001 783.124Z" stroke="white" stroke-linejoin="round"/>
<path d="M184.199 465.825L367.399 360.059L367.399 571.59L184.199 677.355L184.199 465.825Z" stroke="white" stroke-linejoin="round"/>
<path d="M1.0001 360.059L184.2 254.294L367.4 360.059L184.2 465.825L1.0001 360.059Z" stroke="white" stroke-linejoin="round"/>
</svg>
