<svg width="1210" height="720" viewBox="0 0 1210 720" fill="none" xmlns="http://www.w3.org/2000/svg">
<mask id="mask0_19_7844" style="mask-type:alpha" maskUnits="userSpaceOnUse" x="0" y="0" width="1210" height="720">
<rect width="1210" height="720" fill="#0F4777"/>
</mask>
<g mask="url(#mask0_19_7844)">
<path d="M1026.79 -149.258L1210 -255L1210 -43.4687L1026.79 62.2733L1026.79 -149.258Z" stroke="#1E649F" stroke-linejoin="round"/>
<path d="M843.6 -255L1026.8 -149.234L1026.8 62.2965L843.6 -43.4689L843.6 -255Z" stroke="#1E649F" stroke-linejoin="round"/>
<path d="M1026.8 273.825L1210 168.059L1210 379.59L1026.8 485.355L1026.8 273.825Z" stroke="#1E649F" stroke-linejoin="round"/>
<path d="M843.6 168.059L1026.8 62.2939L1210 168.059L1026.8 273.825L843.6 168.059Z" stroke="#1E649F" stroke-linejoin="round"/>
<path d="M843.6 168.058L1026.8 273.824L1026.8 485.355L843.6 379.589L843.6 168.058Z" stroke="#1E649F" stroke-linejoin="round"/>
<path d="M1026.8 696.888L1210 591.123L1210 802.654L1026.8 908.419L1026.8 696.888Z" stroke="#1E649F" stroke-linejoin="round"/>
<path d="M843.6 591.124L1026.8 485.358L1210 591.124L1026.8 696.889L843.6 591.124Z" stroke="#1E649F" stroke-linejoin="round"/>
<path d="M843.6 591.126L1026.8 696.891L1026.8 908.422L843.6 802.657L843.6 591.126Z" stroke="#1E649F" stroke-linejoin="round"/>
<path d="M660.396 -149.234L843.596 -255L843.596 -43.4687L660.396 62.2968L660.396 -149.234Z" stroke="#1E649F" stroke-linejoin="round"/>
<path d="M477.197 -255L660.397 -149.234L660.397 62.2965L477.197 -43.4689L477.197 -255Z" stroke="#1E649F" stroke-linejoin="round"/>
<path d="M660.396 273.825L843.596 168.059L843.596 379.59L660.396 485.355L660.396 273.825Z" stroke="#1E649F" stroke-linejoin="round"/>
<path d="M477.197 168.059L660.397 62.2939L843.597 168.059L660.397 273.825L477.197 168.059Z" stroke="#1E649F" stroke-linejoin="round"/>
<path d="M477.197 168.058L660.397 273.824L660.397 485.355L477.197 379.589L477.197 168.058Z" stroke="#1E649F" stroke-linejoin="round"/>
<path d="M660.396 696.888L843.596 591.123L843.596 802.654L660.396 908.419L660.396 696.888Z" stroke="#1E649F" stroke-linejoin="round"/>
<path d="M477.197 591.124L660.397 485.358L843.597 591.124L660.397 696.889L477.197 591.124Z" stroke="#1E649F" stroke-linejoin="round"/>
<path d="M477.197 591.126L660.397 696.891L660.397 908.422L477.197 802.657L477.197 591.126Z" stroke="#1E649F" stroke-linejoin="round"/>
<path d="M293.996 -149.234L477.196 -255L477.196 -43.4687L293.996 62.2968L293.996 -149.234Z" stroke="#1E649F" stroke-linejoin="round"/>
<path d="M110.798 -255L293.998 -149.234L293.998 62.2965L110.798 -43.4689L110.798 -255Z" stroke="#1E649F" stroke-linejoin="round"/>
<path d="M293.996 273.825L477.196 168.059L477.196 379.59L293.996 485.355L293.996 273.825Z" stroke="#1E649F" stroke-linejoin="round"/>
<path d="M110.798 168.059L293.998 62.2939L477.198 168.059L293.998 273.825L110.798 168.059Z" stroke="#1E649F" stroke-linejoin="round"/>
<path d="M110.798 168.058L293.998 273.824L293.998 485.355L110.798 379.589L110.798 168.058Z" stroke="#1E649F" stroke-linejoin="round"/>
<path d="M293.996 696.888L477.196 591.123L477.196 802.654L293.996 908.419L293.996 696.888Z" stroke="#1E649F" stroke-linejoin="round"/>
<path d="M110.798 591.124L293.998 485.358L477.198 591.124L293.998 696.889L110.798 591.124Z" stroke="#1E649F" stroke-linejoin="round"/>
<path d="M110.798 591.126L293.998 696.891L293.998 908.422L110.798 802.657L110.798 591.126Z" stroke="#1E649F" stroke-linejoin="round"/>
<path d="M-72.4066 -149.234L110.793 -255L110.793 -43.4687L-72.4066 62.2968L-72.4066 -149.234Z" stroke="#1E649F" stroke-linejoin="round"/>
<path d="M-72.4066 273.825L110.793 168.059L110.793 379.59L-72.4066 485.355L-72.4066 273.825Z" stroke="#1E649F" stroke-linejoin="round"/>
<path d="M-255.605 168.059L-72.4053 62.2939L110.795 168.059L-72.4053 273.825L-255.605 168.059Z" stroke="#1E649F" stroke-linejoin="round"/>
<path d="M-72.4066 696.888L110.793 591.123L110.793 802.654L-72.4066 908.419L-72.4066 696.888Z" stroke="#1E649F" stroke-linejoin="round"/>
<path d="M-255.605 591.124L-72.4053 485.358L110.795 591.124L-72.4053 696.889L-255.605 591.124Z" stroke="#1E649F" stroke-linejoin="round"/>
</g>
</svg>
