<svg width="400" height="841" viewBox="0 0 400 841" fill="none" xmlns="http://www.w3.org/2000/svg">
<path fill-rule="evenodd" clip-rule="evenodd" d="M399 790.525C399 817.568 376.984 839.485 349.825 839.485H50.1748C23.0157 839.485 1 817.568 1 790.525V49.9605C1 22.9177 23.0157 1 50.1748 1H349.825C376.984 1 399 22.9177 399 49.9605V790.525Z" fill="#FDFDFD" stroke="#7E89A3" stroke-width="2"/>
<path d="M371.232 110.968H28.5511V720.476H371.232V110.968Z" fill="white" stroke="#7E89A3"/>
<path fill-rule="evenodd" clip-rule="evenodd" d="M236.737 79.575C236.737 81.5191 235.393 83.0866 233.737 83.0866H172.193C170.534 83.0866 169.193 81.516 169.193 79.575V71.6762C169.193 69.7321 170.537 68.1646 172.193 68.1646H233.737C235.393 68.1646 236.737 69.7351 236.737 71.6762V79.575Z" stroke="#7E89A3"/>
<path d="M203.06 46.6755C208.133 46.6755 212.245 42.5633 212.245 37.4908C212.245 32.4182 208.133 28.3061 203.06 28.3061C197.988 28.3061 193.875 32.4182 193.875 37.4908C193.875 42.5633 197.988 46.6755 203.06 46.6755Z" stroke="#7E89A3"/>
<path d="M200.121 809.011C217.097 809.011 230.859 795.302 230.859 778.392C230.859 761.482 217.097 747.773 200.121 747.773C183.145 747.773 169.383 761.482 169.383 778.392C169.383 795.302 183.145 809.011 200.121 809.011Z" stroke="#7E89A3"/>
</svg>
