<svg width="883" height="489" viewBox="0 0 883 489" fill="none" xmlns="http://www.w3.org/2000/svg">
<path fill-rule="evenodd" clip-rule="evenodd" d="M757.121 1H125.747C108.568 1 93.924 15.0962 93.924 32.5561V447.835H788.945V32.5561C788.945 15.0949 774.354 1 757.121 1Z" fill="#FEFEFE" stroke="#8492A5" stroke-width="2"/>
<path d="M442.707 30.2774C445.52 30.2774 447.799 27.9978 447.799 25.1857C447.799 22.3736 445.52 20.094 442.707 20.094C439.895 20.094 437.616 22.3736 437.616 25.1857C437.616 27.9978 439.895 30.2774 442.707 30.2774Z" stroke="#8492A5" stroke-width="2"/>
<path fill-rule="evenodd" clip-rule="evenodd" d="M816.71 487.273H66.2861C27.2746 487.273 1 473.887 1 468.194V450.89C1 449.179 2.69936 447.799 4.81243 447.799H878.182C880.298 447.799 882 449.179 882 450.89V468.875C881.991 473.375 861.644 487.273 816.71 487.273Z" fill="#FDFDFD" stroke="#8492A5" stroke-width="2"/>
<path d="M1.63647 466.257H879.632" stroke="#8492A5" stroke-linecap="square"/>
<path d="M759.761 50.6443H121.928V422.352H759.761V50.6443Z" fill="white" stroke="#8492A5"/>
<path fill-rule="evenodd" clip-rule="evenodd" d="M536.904 449.072V453.002C536.904 455.803 531.388 456.649 527.213 456.649H355.913C351.52 456.649 345.965 455.805 345.965 453.002V449.072" fill="white"/>
<path d="M536.904 449.072V453.002C536.904 455.803 531.388 456.649 527.213 456.649H355.913C351.52 456.649 345.965 455.805 345.965 453.002V449.072" stroke="#8492A5"/>
</svg>
