<svg width="152" height="152" viewBox="0 0 152 152" fill="none" xmlns="http://www.w3.org/2000/svg">
<path d="M10.9445 152H101.515C107.545 152 112.46 147.085 112.46 141.055V10.9445C112.46 4.91517 107.545 0 101.515 0H10.9445C4.91517 0 0 4.91517 0 10.9445V141.055C0 147.085 4.89333 152 10.9445 152ZM4.04139 10.9445C4.04139 7.1434 7.12159 4.0632 10.9227 4.0632H101.493C105.295 4.0632 108.375 7.1434 108.375 10.9445V141.055C108.375 144.857 105.295 147.937 101.493 147.937H10.9227C7.12159 147.937 4.04139 144.857 4.04139 141.055V10.9445Z" fill="#285596"/>
<path d="M143.087 18.3065C140.531 17.957 139.439 21.8454 142.017 22.2168C149.226 23.2217 147.587 31.6103 147.587 36.9187C147.587 45.7224 147.587 54.5043 147.587 63.3079C147.587 83.5804 147.587 103.853 147.587 124.104C147.587 129.172 149.706 141.012 142.388 141.886C139.832 142.192 139.788 146.255 142.388 145.949C151.257 144.878 151.629 137.757 151.629 130.766C151.629 121.591 151.629 112.416 151.629 103.241C151.629 80.9371 151.629 58.633 151.629 36.3507C151.629 29.1418 152.743 19.6609 143.087 18.3065Z" fill="#285596"/>
<path d="M25.6683 22.7409C32.2874 22.7628 38.8847 22.7846 45.5039 22.8065C48.1035 22.8065 48.1253 18.7651 45.5039 18.7433C38.8847 18.7214 32.2874 18.6996 25.6683 18.6777C23.0468 18.6777 23.0468 22.7191 25.6683 22.7409Z" fill="white"/>
<path d="M21.2118 21.9327C21.9327 21.1681 21.9109 19.9666 21.1463 19.2457C20.3817 18.5248 19.1802 18.5467 18.4593 19.3113C17.7384 20.0758 17.7603 21.2774 18.5249 21.9982C19.2895 22.7191 20.4909 22.6973 21.2118 21.9327Z" fill="white"/>
<path d="M25.6683 33.7729C36.2633 33.7948 46.8582 33.8166 57.4532 33.8385C60.0528 33.8385 60.0747 29.7971 57.4532 29.7753C46.8582 29.7534 36.2633 29.7316 25.6683 29.7097C23.0468 29.7097 23.0468 33.7729 25.6683 33.7729Z" fill="white"/>
<path d="M21.2118 32.9647C21.9327 32.2001 21.9109 30.9986 21.1463 30.2777C20.3817 29.5568 19.1802 29.5787 18.4593 30.3432C17.7384 31.1078 17.7603 32.3093 18.5249 33.0302C19.2895 33.7511 20.4909 33.7293 21.2118 32.9647Z" fill="white"/>
<path d="M25.6683 44.7611C36.2633 44.7829 46.8582 44.8048 57.4532 44.8266C60.0528 44.8266 60.0747 40.7852 57.4532 40.7634C46.8582 40.7415 36.2633 40.7197 25.6683 40.6979C23.0468 40.6979 23.0468 44.7611 25.6683 44.7611Z" fill="white"/>
<path d="M21.2118 43.9528C21.9327 43.1883 21.9109 41.9868 21.1463 41.2659C20.3817 40.545 19.1802 40.5668 18.4593 41.3314C17.7384 42.096 17.7603 43.2975 18.5249 44.0184C19.2895 44.7393 20.4909 44.7174 21.2118 43.9528Z" fill="white"/>
<path d="M48.3 69.6648V129.696C48.3 132.776 50.8123 135.31 53.9143 135.31H64.0943C67.1745 135.31 69.7085 132.798 69.7085 129.696V113.224C69.7085 110.865 69.7085 108.484 69.7085 106.125C69.7085 103.525 65.6452 103.503 65.6452 106.125V129.696C65.6452 130.548 64.9463 131.247 64.0943 131.247H53.9143C53.0624 131.247 52.3633 130.548 52.3633 129.696V69.6648C52.3633 68.8128 53.0624 68.1138 53.9143 68.1138H64.0943C64.9463 68.1138 65.6452 68.8128 65.6452 69.6648V93.8258C65.6452 96.4254 69.7085 96.4472 69.7085 93.8258C69.7085 91.4665 69.7085 89.0853 69.7085 86.726V69.6648C69.7085 66.5846 67.1963 64.0505 64.0943 64.0505H53.9143C50.8123 64.0505 48.3 66.5627 48.3 69.6648Z" fill="#285596"/>
<path d="M67.677 97.7798C66.6284 97.7798 65.7764 98.6318 65.7764 99.6804C65.7764 100.729 66.6284 101.581 67.677 101.581C68.7255 101.581 69.5774 100.729 69.5774 99.6804C69.5556 98.6318 68.7255 97.7798 67.677 97.7798Z" fill="#285596"/>
<path d="M21.1463 135.288H32.1126C34.9962 135.288 37.3337 132.951 37.3337 130.067V83.0779C37.3337 80.1943 34.9962 77.8568 32.1126 77.8568H21.1463C18.2627 77.8568 15.9252 80.1943 15.9252 83.0779V130.067C15.9252 132.951 18.2627 135.288 21.1463 135.288ZM19.9885 83.0779C19.9885 82.4444 20.5128 81.9201 21.1463 81.9201H32.1126C32.7461 81.9201 33.2705 82.4444 33.2705 83.0779V130.067C33.2705 130.701 32.7461 131.225 32.1126 131.225H21.1463C20.5128 131.225 19.9885 130.701 19.9885 130.067V83.0779Z" fill="#285596"/>
<path d="M85.3279 135.288H96.2287C99.1123 135.288 101.472 132.929 101.472 130.045V40.9163C101.472 38.0328 99.1123 35.6735 96.2287 35.6735H85.3279C82.4443 35.6735 80.085 38.0328 80.085 40.9163V130.045C80.085 132.951 82.4443 135.288 85.3279 135.288ZM84.1483 40.9382C84.1483 40.2828 84.6944 39.7367 85.3498 39.7367H96.2506C96.9059 39.7367 97.4521 40.2828 97.4521 40.9382V130.067C97.4521 130.723 96.9059 131.269 96.2506 131.269H85.3498C84.6944 131.269 84.1483 130.723 84.1483 130.067V40.9382Z" fill="#285596"/>
<path d="M124.977 141.886C123.492 141.886 122.006 141.886 120.543 141.886C117.943 141.886 117.921 145.949 120.543 145.949C122.028 145.949 123.514 145.949 124.977 145.949C125.218 145.949 125.458 145.949 125.698 145.949C126.091 145.949 126.441 145.84 126.703 145.687C134.458 143.983 134.436 136.031 134.436 129.281C134.436 119.014 134.436 108.746 134.436 98.4789C134.436 73.9466 134.436 49.4142 134.436 24.8819C134.436 17.4763 135.463 7.44927 126.288 5.76718C126.048 5.65795 125.742 5.59241 125.414 5.59241C125.261 5.59241 125.13 5.59241 124.977 5.59241C123.317 5.59241 121.657 5.59241 119.997 5.59241C117.397 5.59241 117.375 9.65566 119.997 9.65566C121.657 9.65566 123.317 9.65566 124.977 9.65566C132.208 10.311 130.395 21.3648 130.395 26.3674C130.395 36.0667 130.395 45.7442 130.395 55.4436C130.395 77.7477 130.395 100.052 130.395 122.356C130.395 127.468 132.623 141.208 124.977 141.886Z" fill="#285596"/>
<path d="M84.1483 40.9382C84.1483 40.2828 84.6944 39.7367 85.3498 39.7367H96.2506C96.906 39.7367 97.4521 40.2828 97.4521 40.9382V130.067C97.4521 130.723 96.906 131.269 96.2506 131.269H85.3498C84.6944 131.269 84.1483 130.723 84.1483 130.067V40.9382Z" fill="#75C422"/>
<path d="M19.9885 83.078C19.9885 82.4445 20.5128 81.9202 21.1463 81.9202H32.1126C32.7462 81.9202 33.2705 82.4445 33.2705 83.078V130.067C33.2705 130.701 32.7462 131.225 32.1126 131.225H21.1463C20.5128 131.225 19.9885 130.701 19.9885 130.067V83.078Z" fill="white"/>
</svg>
