<svg width="153" height="152" viewBox="0 0 153 152" fill="none" xmlns="http://www.w3.org/2000/svg">
<path d="M126.34 77.0682C128.955 62.5194 119.281 48.6054 104.732 45.9904C90.1831 43.3754 76.2692 53.0497 73.6542 67.5985C71.0392 82.1473 80.7134 96.0613 95.2622 98.6763C109.811 101.291 123.725 91.617 126.34 77.0682Z" fill="#75C422"/>
<path d="M117.252 73.9551C117.23 74.1293 117.208 74.3036 117.187 74.4778C117.187 74.4778 117.187 74.4778 117.187 74.4996C117.143 74.8698 117.1 75.2183 117.012 75.5885C116.969 75.7845 116.925 75.9805 116.882 76.1765C116.816 76.5032 116.729 76.8299 116.642 77.1566C116.577 77.3526 116.533 77.5486 116.468 77.7446C116.359 78.0712 116.25 78.3762 116.119 78.6811C116.054 78.8553 115.989 79.0295 115.902 79.2038C115.749 79.5522 115.575 79.9006 115.401 80.2491C115.401 80.2491 115.401 80.2491 115.401 80.2709C115.335 80.3798 115.292 80.5105 115.227 80.6194C114.987 81.0767 114.704 81.5123 114.421 81.9261C114.334 82.0568 114.247 82.1656 114.159 82.2963C113.985 82.5359 113.811 82.7972 113.637 83.015C112.787 84.0822 111.829 85.0622 110.762 85.9115C110.762 85.9115 110.762 85.9115 110.762 85.9333C110.609 86.0422 110.457 86.1511 110.305 86.26C110.217 86.3253 110.13 86.3907 110.043 86.4342C109.825 86.5867 109.608 86.7391 109.39 86.8916C109.368 86.9133 109.325 86.9351 109.303 86.9569C108.889 87.2182 108.453 87.4796 107.996 87.6974C107.822 87.7845 107.648 87.8716 107.452 87.9587C107.277 88.0458 107.103 88.1329 106.907 88.1983C106.58 88.3507 106.232 88.4814 105.884 88.6121C105.753 88.6556 105.622 88.6992 105.492 88.7427C105.208 88.8298 104.925 88.917 104.642 89.0041C104.512 89.0477 104.359 89.0912 104.228 89.113C103.836 89.2219 103.423 89.309 103.009 89.3743C102.943 89.3961 102.878 89.3961 102.813 89.3961C102.443 89.4614 102.072 89.505 101.68 89.5486C101.571 89.5704 101.441 89.5703 101.332 89.5703C100.896 89.6139 100.439 89.6357 100.003 89.6357C99.546 89.6357 99.1104 89.6139 98.6749 89.5703C98.566 89.5703 98.4353 89.5486 98.3264 89.5486C97.9344 89.505 97.5641 89.4614 97.1721 89.3961C97.1068 89.3961 97.0632 89.3743 96.9979 89.3743C96.5841 89.309 96.1703 89.2001 95.7783 89.113C95.6476 89.0695 95.517 89.0477 95.3863 89.0041C95.0814 88.917 94.7983 88.8299 94.4934 88.721C94.3845 88.6774 94.2538 88.6339 94.1449 88.6121C93.7965 88.4814 93.448 88.3507 93.0995 88.1983C92.9253 88.1329 92.7729 88.0458 92.5986 87.9587C92.4026 87.8716 92.2066 87.7627 92.0106 87.6756C91.7928 87.5667 91.5968 87.4578 91.4008 87.3489C91.1395 87.1965 90.8999 87.044 90.6386 86.8916C90.4208 86.7609 90.2248 86.6084 90.0288 86.456C89.9199 86.3906 89.811 86.3035 89.7239 86.2382C89.5714 86.1293 89.4408 86.0422 89.2883 85.9333C89.2883 85.9333 89.2883 85.9333 89.2883 85.9115C88.2212 85.0622 87.2411 84.1039 86.4135 83.015C84.0832 80.0749 82.6894 76.3507 82.6894 72.2999C82.6894 68.5758 83.8872 65.1348 85.8909 62.3036C86.0651 62.064 86.2175 61.8245 86.4135 61.5849C86.5878 61.3453 86.7838 61.1276 86.9798 60.9098C87.0669 60.8227 87.1322 60.7355 87.2193 60.6484C87.546 60.2999 87.8727 59.9733 88.1994 59.6466C88.3083 59.5377 88.4389 59.4288 88.5696 59.3199C88.8527 59.0586 89.1576 58.819 89.4625 58.5794C89.6368 58.4488 89.8328 58.2963 90.007 58.1657C90.203 58.035 90.399 57.9043 90.595 57.7736C90.8999 57.5776 91.2266 57.3816 91.5533 57.1856C91.7275 57.0985 91.9017 57.0114 92.0542 56.9025C92.3808 56.7283 92.7293 56.554 93.0778 56.4016C93.2302 56.3362 93.3609 56.271 93.5133 56.2274C93.8836 56.0749 94.2538 55.9442 94.624 55.8136C94.7329 55.77 94.8418 55.7265 94.9507 55.7047C95.4081 55.574 95.8654 55.4434 96.3228 55.3563C96.4317 55.3345 96.5406 55.3127 96.6495 55.2909C97.1286 55.2038 97.6295 55.1167 98.1086 55.0731C98.1957 55.0731 98.2828 55.0513 98.3699 55.0513C98.8926 55.0078 99.4371 54.9642 99.9816 54.9642C100.526 54.9642 101.049 54.986 101.593 55.0513C101.68 55.0513 101.767 55.0731 101.855 55.0731C102.355 55.1167 102.835 55.2038 103.314 55.2909C103.423 55.3127 103.531 55.3345 103.64 55.3563C104.098 55.4652 104.577 55.574 105.012 55.7047C105.121 55.7482 105.23 55.77 105.339 55.8136C105.731 55.9442 106.101 56.0749 106.472 56.2274C106.602 56.2927 106.755 56.3362 106.885 56.4016C107.234 56.554 107.582 56.7283 107.931 56.9025C108.105 56.9896 108.257 57.0767 108.432 57.1638C108.758 57.3598 109.085 57.5559 109.412 57.7519C109.608 57.8826 109.782 58.0132 109.978 58.1439C110.174 58.2745 110.37 58.427 110.544 58.5794C110.849 58.819 111.132 59.0586 111.415 59.2981C111.546 59.407 111.677 59.5377 111.807 59.6466C112.134 59.9515 112.461 60.2782 112.766 60.6049C112.853 60.7137 112.94 60.8009 113.049 60.9098C113.245 61.1276 113.419 61.3453 113.615 61.5849C113.789 61.8027 113.942 62.0423 114.116 62.26C114.116 62.26 114.116 62.26 114.116 62.2818C114.203 62.4125 114.312 62.5431 114.399 62.6738C114.682 63.0876 114.943 63.5232 115.183 63.9805C115.248 64.1112 115.314 64.2419 115.379 64.3726V64.3944C115.553 64.721 115.706 65.0477 115.858 65.3961C115.945 65.5704 116.011 65.7664 116.076 65.9406C116.207 66.2455 116.315 66.5504 116.424 66.8553C116.49 67.0513 116.555 67.2473 116.599 67.4651C116.686 67.77 116.773 68.0967 116.838 68.4234C116.882 68.6194 116.925 68.8154 116.969 69.0331C117.034 69.3816 117.078 69.7301 117.121 70.1003C117.121 70.1003 117.121 70.1003 117.121 70.1221C117.143 70.2963 117.165 70.4706 117.187 70.6448C117.23 71.1675 117.274 71.7119 117.274 72.2346C117.274 72.2564 117.274 72.2564 117.274 72.2782C117.274 72.3 117.274 72.2999 117.274 72.3217C117.339 72.888 117.317 73.4324 117.252 73.9551Z" fill="white"/>
<path d="M8.11965 151.378C11.5607 152.401 15.8293 151.835 19.3574 151.835C27.067 151.835 34.7984 151.835 42.508 151.835C59.3646 151.835 76.1994 151.835 93.056 151.835C96.6712 151.835 101.07 152.423 104.599 151.378C113.55 148.721 112.417 139.204 112.417 131.908C112.417 124.329 112.417 116.772 112.417 109.193C112.417 106.601 108.366 106.579 108.366 109.193C108.366 119.625 109.063 130.318 108.366 140.728C107.887 147.806 102.072 147.784 96.889 147.784C82.5369 147.784 68.2067 147.784 53.8546 147.784C40.4172 147.784 27.0017 147.784 13.5643 147.784C8.77301 147.784 4.63507 145.933 4.35195 140.336C4.17773 137.091 4.35195 133.781 4.35195 130.536C4.35195 99.6974 4.35195 68.8589 4.35195 38.0423C4.35195 29.2438 3.76393 20.2057 4.35195 11.4071C4.78752 5.04778 9.79658 4.32909 14.7185 4.32909C20.4681 4.32909 26.2394 4.32909 31.9889 4.32909C48.3664 4.32909 64.7656 4.32909 81.1431 4.32909C86.8273 4.32909 92.5115 4.32909 98.1957 4.32909C99.2411 4.32909 100.308 4.26376 101.354 4.32909C106.602 4.69933 108.345 8.75015 108.345 13.3236C108.345 19.9225 108.345 26.5432 108.345 33.1421C108.345 35.7338 112.395 35.7555 112.395 33.1421C112.395 26.2819 112.482 19.4216 112.395 12.5831C112.352 8.72834 111.437 5.30914 108.323 2.76105C104.62 -0.28795 99.8073 0.30006 95.3427 0.30006C79.0306 0.30006 62.6967 0.30006 46.3846 0.30006C34.733 0.30006 22.8419 -0.375075 11.2122 0.30006C-1.87671 1.06231 0.301149 15.1748 0.301149 24.3C0.301149 57.9261 0.301149 91.5304 0.301149 125.156C0.322927 133.476 -2.39939 148.264 8.11965 151.378Z" fill="#285596"/>
<path d="M82.6241 23.0368C85.2157 23.0368 85.2375 19.0078 82.6241 18.986C76.0252 18.9642 69.448 18.9424 62.8491 18.9207C60.2575 18.9207 60.2357 22.9497 62.8491 22.9714C69.4262 22.9932 76.0252 23.015 82.6241 23.0368Z" fill="#285596"/>
<path d="M58.341 19.5088C57.5787 18.7901 56.3809 18.8119 55.6622 19.5741C54.9435 20.3364 54.9653 21.5342 55.7275 22.2529C56.4898 22.9716 57.6876 22.9498 58.4063 22.1875C59.125 21.4253 59.1032 20.2274 58.341 19.5088Z" fill="#285596"/>
<path d="M94.5152 30.0059C83.9526 29.9841 73.39 29.9623 62.8274 29.9406C60.2357 29.9406 60.2139 33.9696 62.8274 33.9914C73.39 34.0132 83.9526 34.035 94.5152 34.0567C97.1286 34.035 97.1286 30.0059 94.5152 30.0059Z" fill="#285596"/>
<path d="M58.341 30.5069C57.5787 29.7882 56.3809 29.81 55.6622 30.5723C54.9435 31.3345 54.9653 32.5324 55.7275 33.251C56.4898 33.9697 57.6876 33.9479 58.4063 33.1857C59.125 32.4234 59.1032 31.2256 58.341 30.5069Z" fill="#285596"/>
<path d="M22.3628 45.4687H37.3029C40.7004 45.4687 43.4444 42.7028 43.4444 39.3271V24.387C43.4444 20.9896 40.6786 18.2455 37.3029 18.2455H22.3628C18.9653 18.2455 16.2213 21.0113 16.2213 24.387V39.3271C16.1995 42.7028 18.9653 45.4687 22.3628 45.4687ZM20.2503 24.3653C20.2503 23.211 21.1868 22.2528 22.3628 22.2528H37.3029C38.4572 22.2528 39.4154 23.1892 39.4154 24.3653V39.3053C39.4154 40.4596 38.4789 41.4179 37.3029 41.4179H22.3628C21.2085 41.4179 20.2503 40.4814 20.2503 39.3053V24.3653Z" fill="#285596"/>
<path d="M82.6241 107.45C76.0252 107.429 69.448 107.407 62.8491 107.385C60.2575 107.385 60.2357 111.414 62.8491 111.436C69.448 111.458 76.0252 111.479 82.6241 111.501C85.2157 111.501 85.2157 107.45 82.6241 107.45Z" fill="#285596"/>
<path d="M58.341 107.951C57.5787 107.233 56.3809 107.254 55.6622 108.017C54.9435 108.779 54.9653 109.977 55.7275 110.695C56.4898 111.414 57.6876 111.392 58.4063 110.63C59.125 109.868 59.1032 108.67 58.341 107.951Z" fill="#285596"/>
<path d="M94.5152 118.449C83.9526 118.427 73.39 118.405 62.8274 118.383C60.2357 118.383 60.2139 122.412 62.8274 122.434C73.39 122.456 83.9526 122.478 94.5152 122.499C97.1286 122.499 97.1286 118.449 94.5152 118.449Z" fill="#285596"/>
<path d="M58.341 118.95C57.5787 118.231 56.3809 118.253 55.6622 119.015C54.9435 119.777 54.9653 120.975 55.7275 121.694C56.4898 122.412 57.6876 122.391 58.4063 121.628C59.125 120.866 59.1032 119.668 58.341 118.95Z" fill="#285596"/>
<path d="M62.8491 129.338C60.2575 129.338 60.2357 133.367 62.8491 133.389C73.4117 133.41 83.9743 133.432 94.5369 133.454C97.1286 133.454 97.1503 129.425 94.5369 129.403C83.9525 129.381 73.3899 129.36 62.8491 129.338Z" fill="#285596"/>
<path d="M55.684 129.969C54.9653 130.732 54.9871 131.93 55.7493 132.648C56.5116 133.367 57.7094 133.345 58.4281 132.583C59.1468 131.821 59.125 130.623 58.3627 129.904C57.6005 129.185 56.4027 129.207 55.684 129.969Z" fill="#285596"/>
<path d="M22.3628 106.667C18.9654 106.667 16.2213 109.432 16.2213 112.808V127.748C16.2213 131.146 18.9871 133.89 22.3628 133.89H37.3029C40.7004 133.89 43.4445 131.124 43.4445 127.748V112.808C43.4445 109.411 40.6786 106.667 37.3029 106.667H22.3628ZM39.4154 112.83V127.77C39.4154 128.924 38.479 129.882 37.3029 129.882H22.3628C21.2085 129.882 20.2503 128.946 20.2503 127.77V112.83C20.2503 111.676 21.1868 110.717 22.3628 110.717H37.3029C38.4572 110.717 39.4154 111.654 39.4154 112.83Z" fill="#285596"/>
<path d="M50.9145 84.9533C43.9889 84.9315 37.0634 84.9097 30.116 84.8879C27.5244 84.8879 27.5026 88.917 30.116 88.9388C37.0416 88.9605 43.9672 88.9823 50.9145 89.0041C53.5062 89.0041 53.5279 84.9533 50.9145 84.9533Z" fill="#285596"/>
<path d="M55.4009 88.416C56.1631 89.1347 57.3609 89.113 58.0796 88.3507C58.7983 87.5885 58.7765 86.3907 58.0143 85.672C57.252 84.9533 56.0542 84.9751 55.3355 85.7373C54.6168 86.4996 54.6604 87.6973 55.4009 88.416Z" fill="#285596"/>
<path d="M50.9145 73.9551C40.0252 73.9333 29.1142 73.9115 18.2249 73.8898C15.6332 73.8898 15.6115 77.9188 18.2249 77.9406C29.1142 77.9624 40.0252 77.9842 50.9145 78.0059C53.5062 78.0059 53.5279 73.9551 50.9145 73.9551Z" fill="#285596"/>
<path d="M55.4009 77.4179C56.1631 78.1366 57.3609 78.1148 58.0796 77.3526C58.7983 76.5903 58.7765 75.3925 58.0143 74.6738C57.252 73.9551 56.0542 73.9769 55.3355 74.7391C54.6168 75.5014 54.6604 76.6992 55.4009 77.4179Z" fill="#285596"/>
<path d="M50.9145 63.0004C40.0252 62.9786 29.1142 62.9568 18.2249 62.9351C15.6332 62.9351 15.6115 66.9641 18.2249 66.9859C29.1142 67.0077 40.0252 67.0295 50.9145 67.0512C53.5062 67.0295 53.5279 63.0004 50.9145 63.0004Z" fill="#285596"/>
<path d="M58.0796 66.398C58.7983 65.6357 58.7765 64.4379 58.0143 63.7192C57.252 63.0005 56.0542 63.0223 55.3355 63.7846C54.6168 64.5468 54.6386 65.7446 55.4009 66.4633C56.1631 67.182 57.3609 67.1602 58.0796 66.398Z" fill="#285596"/>
<path d="M100.003 51.0222C88.2647 51.0222 78.7039 60.583 78.7039 72.3216C78.7039 78.4196 81.2738 83.9296 85.3899 87.8062C85.4553 87.8716 85.5424 87.9587 85.6077 88.024C89.3972 91.5086 94.4498 93.6211 99.9815 93.6211C105.513 93.6211 110.566 91.4868 114.355 88.024C114.443 87.9587 114.508 87.8933 114.573 87.8062C118.689 83.9296 121.259 78.4196 121.259 72.3216C121.303 60.5612 111.742 51.0222 100.003 51.0222ZM117.252 73.955C117.23 74.1293 117.208 74.3035 117.187 74.4777C117.187 74.4777 117.187 74.4777 117.187 74.4995C117.143 74.8697 117.1 75.2182 117.012 75.5884C116.969 75.7844 116.925 75.9804 116.882 76.1764C116.816 76.5031 116.729 76.8298 116.642 77.1565C116.577 77.3525 116.533 77.5485 116.468 77.7445C116.359 78.0712 116.25 78.3761 116.119 78.681C116.054 78.8552 115.989 79.0295 115.902 79.2037C115.749 79.5521 115.575 79.9006 115.401 80.249C115.401 80.249 115.401 80.249 115.401 80.2708C115.335 80.3797 115.292 80.5104 115.227 80.6193C114.987 81.0766 114.704 81.5122 114.421 81.926C114.334 82.0567 114.246 82.1656 114.159 82.2962C113.985 82.5358 113.811 82.7971 113.637 83.0149C112.787 84.0821 111.829 85.0621 110.762 85.9114C110.762 85.9114 110.762 85.9115 110.762 85.9332C110.609 86.0421 110.457 86.151 110.305 86.2599C110.217 86.3253 110.13 86.3906 110.043 86.4342C109.825 86.5866 109.608 86.739 109.39 86.8915C109.368 86.9133 109.325 86.935 109.303 86.9568C108.889 87.2182 108.453 87.4795 107.996 87.6973C107.822 87.7844 107.648 87.8715 107.452 87.9587C107.277 88.0458 107.103 88.1329 106.907 88.1982C106.58 88.3506 106.232 88.4813 105.884 88.612C105.753 88.6556 105.622 88.6991 105.492 88.7426C105.208 88.8298 104.925 88.9169 104.642 89.004C104.511 89.0476 104.359 89.0911 104.228 89.1129C103.836 89.2218 103.423 89.3089 103.009 89.3743C102.943 89.396 102.878 89.396 102.813 89.396C102.443 89.4613 102.072 89.5049 101.68 89.5485C101.571 89.5703 101.441 89.5702 101.332 89.5702C100.896 89.6138 100.439 89.6356 100.003 89.6356C99.546 89.6356 99.1104 89.6138 98.6748 89.5702C98.5659 89.5702 98.4353 89.5485 98.3264 89.5485C97.9344 89.5049 97.5641 89.4613 97.1721 89.396C97.1068 89.396 97.0632 89.3743 96.9979 89.3743C96.5841 89.3089 96.1703 89.2 95.7783 89.1129C95.6476 89.0694 95.517 89.0476 95.3863 89.004C95.0814 88.9169 94.7983 88.8298 94.4934 88.7209C94.3845 88.6773 94.2538 88.6338 94.1449 88.612C93.7965 88.4813 93.448 88.3506 93.0995 88.1982C92.9253 88.1329 92.7728 88.0458 92.5986 87.9587C92.4026 87.8715 92.2066 87.7626 92.0106 87.6755C91.7928 87.5666 91.5968 87.4577 91.4008 87.3488C91.1395 87.1964 90.8999 87.0439 90.6385 86.8915C90.4208 86.7608 90.2248 86.6084 90.0288 86.4559C89.9199 86.3906 89.811 86.3035 89.7239 86.2381C89.5714 86.1292 89.4407 86.0421 89.2883 85.9332C89.2883 85.9332 89.2883 85.9332 89.2883 85.9114C88.2211 85.0621 87.2411 84.1039 86.4135 83.0149C84.0832 80.0748 82.6894 76.3507 82.6894 72.2998C82.6894 68.5757 83.8872 65.1347 85.8908 62.3035C86.0651 62.064 86.2175 61.8244 86.4135 61.5848C86.5878 61.3452 86.7838 61.1275 86.9798 60.9097C87.0669 60.8226 87.1322 60.7354 87.2193 60.6483C87.546 60.2999 87.8727 59.9732 88.1994 59.6465C88.3083 59.5377 88.4389 59.4288 88.5696 59.3199C88.8527 59.0585 89.1576 58.8189 89.4625 58.5794C89.6368 58.4487 89.8328 58.2963 90.007 58.1656C90.203 58.0349 90.399 57.9042 90.595 57.7736C90.8999 57.5776 91.2266 57.3816 91.5533 57.1856C91.7275 57.0984 91.9017 57.0113 92.0542 56.9024C92.3808 56.7282 92.7293 56.554 93.0778 56.4015C93.2302 56.3362 93.3609 56.2709 93.5133 56.2273C93.8836 56.0749 94.2538 55.9442 94.624 55.8135C94.7329 55.7699 94.8418 55.7264 94.9507 55.7046C95.4081 55.5739 95.8654 55.4433 96.3228 55.3562C96.4317 55.3344 96.5406 55.3126 96.6494 55.2908C97.1286 55.2037 97.6295 55.1166 98.1086 55.073C98.1957 55.073 98.2828 55.0512 98.3699 55.0512C98.8926 55.0077 99.4371 54.9642 99.9815 54.9642C100.526 54.9642 101.049 54.9859 101.593 55.0512C101.68 55.0512 101.767 55.073 101.854 55.073C102.355 55.1166 102.835 55.2037 103.314 55.2908C103.423 55.3126 103.531 55.3344 103.64 55.3562C104.098 55.4651 104.577 55.5739 105.012 55.7046C105.121 55.7482 105.23 55.7699 105.339 55.8135C105.731 55.9442 106.101 56.0749 106.472 56.2273C106.602 56.2927 106.755 56.3362 106.885 56.4015C107.234 56.554 107.582 56.7282 107.931 56.9024C108.105 56.9895 108.257 57.0766 108.432 57.1638C108.758 57.3598 109.085 57.5558 109.412 57.7518C109.608 57.8825 109.782 58.0131 109.978 58.1438C110.174 58.2745 110.37 58.4269 110.544 58.5794C110.849 58.8189 111.132 59.0585 111.415 59.2981C111.546 59.407 111.677 59.5377 111.807 59.6465C112.134 59.9514 112.461 60.2781 112.766 60.6048C112.853 60.7137 112.94 60.8008 113.049 60.9097C113.245 61.1275 113.419 61.3452 113.615 61.5848C113.789 61.8026 113.942 62.0422 114.116 62.26C114.116 62.26 114.116 62.2599 114.116 62.2817C114.203 62.4124 114.312 62.5431 114.399 62.6737C114.682 63.0875 114.943 63.5231 115.183 63.9805C115.248 64.1111 115.314 64.2418 115.379 64.3725V64.3943C115.553 64.721 115.706 65.0476 115.858 65.3961C115.945 65.5703 116.011 65.7663 116.076 65.9405C116.207 66.2454 116.315 66.5503 116.424 66.8552C116.49 67.0512 116.555 67.2472 116.599 67.465C116.686 67.7699 116.773 68.0966 116.838 68.4233C116.882 68.6193 116.925 68.8153 116.969 69.0331C117.034 69.3815 117.078 69.73 117.121 70.1002C117.121 70.1002 117.121 70.1002 117.121 70.122C117.143 70.2962 117.165 70.4705 117.187 70.6447C117.23 71.1674 117.274 71.7119 117.274 72.2346C117.274 72.2563 117.274 72.2563 117.274 72.2781C117.274 72.2999 117.274 72.2999 117.274 72.3216C117.339 72.8879 117.317 73.4324 117.252 73.955Z" fill="#285596"/>
<path d="M149.854 111.371L138.138 99.6538C137.375 98.8915 136.112 98.8915 135.35 99.6538C134.588 100.416 134.588 101.679 135.35 102.441L147.067 114.158C147.764 114.855 148.134 115.77 148.134 116.772C148.134 117.752 147.742 118.688 147.067 119.385C145.629 120.823 143.299 120.823 141.862 119.385L118.972 96.4959C126.138 90.877 130.733 82.1221 130.733 72.3435C130.733 55.3998 116.947 41.6357 100.025 41.6357C83.0814 41.6357 69.3174 55.4216 69.3174 72.3435C69.3174 89.2872 83.1032 103.051 100.025 103.051C105.731 103.051 111.089 101.483 115.662 98.7608L139.074 122.173C140.555 123.654 142.515 124.394 144.475 124.394C146.435 124.394 148.373 123.654 149.876 122.173C151.314 120.735 152.119 118.819 152.119 116.772C152.076 114.725 151.292 112.808 149.854 111.371ZM100.003 99.0875C85.2375 99.0875 73.2375 87.0876 73.2375 72.3217C73.2375 57.5558 85.2375 45.5559 100.003 45.5559C114.769 45.5559 126.769 57.5558 126.769 72.3217C126.769 87.0658 114.769 99.0875 100.003 99.0875Z" fill="#285596"/>
<path d="M129.143 93.4469C128.773 93.8171 128.555 94.318 128.555 94.8407C128.555 95.3634 128.773 95.8643 129.143 96.2346C129.513 96.6048 130.014 96.8226 130.537 96.8226C131.06 96.8226 131.56 96.6048 131.931 96.2346C132.301 95.8643 132.519 95.3634 132.519 94.8407C132.519 94.318 132.301 93.8171 131.931 93.4469C131.56 93.0767 131.06 92.8589 130.537 92.8589C130.014 92.8807 129.513 93.0767 129.143 93.4469Z" fill="#285596"/>
<path d="M20.2503 24.3653C20.2503 23.2111 21.1868 22.2528 22.3628 22.2528H37.3029C38.4572 22.2528 39.4154 23.1893 39.4154 24.3653V39.3054C39.4154 40.4596 38.479 41.4179 37.3029 41.4179H22.3628C21.2086 41.4179 20.2503 40.4814 20.2503 39.3054V24.3653Z" fill="white"/>
<path d="M39.4154 112.83V127.77C39.4154 128.924 38.479 129.882 37.3029 129.882H22.3628C21.2086 129.882 20.2503 128.946 20.2503 127.77V112.83C20.2503 111.676 21.1868 110.717 22.3628 110.717H37.3029C38.4572 110.717 39.4154 111.654 39.4154 112.83Z" fill="#75C422"/>
<path d="M99.938 65.1566C101.571 65.1566 102.965 66.3326 102.965 67.7047C102.965 68.8807 103.923 69.839 105.1 69.839C106.276 69.839 107.234 68.8807 107.234 67.7047C107.234 64.8952 105.339 62.3254 102.508 61.3235L102.094 61.1711L102.072 60.7355C102.007 59.6248 101.07 58.7537 99.9598 58.7537C98.8491 58.7537 97.9126 59.6248 97.8473 60.7355L97.8255 61.1711L97.4117 61.3235C94.5805 62.3254 92.6857 64.8735 92.6857 67.7047C92.6857 71.4506 95.9525 74.5214 99.9598 74.5214C101.593 74.5214 102.987 75.6974 102.987 77.0694C102.987 78.4633 101.593 79.6175 99.9598 79.6175C98.3264 79.6175 96.9326 78.4415 96.9326 77.0694C96.9326 75.8934 95.9743 74.9351 94.7983 74.9351C93.6222 74.9351 92.664 75.8934 92.664 77.0694C92.664 79.9007 94.5805 82.4488 97.4117 83.4506L97.7819 83.5812L97.8255 83.9732C97.9561 85.0186 98.8709 85.8244 99.938 85.8244C101.005 85.8244 101.898 85.0404 102.051 83.9732L102.094 83.5812L102.464 83.4506C105.296 82.4705 107.212 79.9007 107.212 77.0694C107.212 73.3235 103.945 70.2527 99.938 70.2527C98.3046 70.2527 96.9108 69.0767 96.9108 67.7047C96.9108 66.3326 98.3046 65.1566 99.938 65.1566Z" fill="#285596"/>
</svg>
