<svg width="153" height="152" viewBox="0 0 153 152" fill="none" xmlns="http://www.w3.org/2000/svg">
<path d="M59.1912 113.037V95.7547C59.1912 91.27 62.8446 87.6384 67.3075 87.6384H104.826C109.311 87.6384 112.942 91.2919 112.942 95.7547V124.238C112.942 128.723 109.289 132.355 104.826 132.355H67.3075C62.8227 132.355 59.1912 128.701 59.1912 124.238V122.204L47.6183 122.182L59.1912 113.037Z" fill="white"/>
<path d="M39.0645 25.377C39.0645 20.8923 42.718 17.2607 47.1808 17.2607H84.6995C89.1843 17.2607 92.8158 20.9142 92.8158 25.377V42.6597L104.389 51.8042L92.8158 51.8261V53.8606C92.8158 58.3454 89.1624 61.9769 84.6995 61.9769H47.1808C42.6961 61.9769 39.0645 58.3235 39.0645 53.8606V25.377Z" fill="#75C422"/>
<path d="M112.549 37.3655C113.621 32.7058 116.574 30.8681 120.162 30.19C122.962 35.856 125.784 41.5221 128.584 47.1882C129.241 48.5227 131.428 48.5227 132.085 47.1882C134.907 41.4784 137.729 35.7904 140.551 30.0806C144.051 30.715 147.005 32.3995 147.945 36.5123C148.492 38.875 147.442 41.1065 146.786 43.3817C145.955 46.335 145.123 49.2884 144.292 52.2418C143.789 54.0138 143.264 55.6545 143.089 57.4703C142.892 59.6142 143.57 62.4582 142.126 64.274C141.448 65.1272 140.42 65.4553 139.282 65.5866H136.351V65.6085C136.11 65.6085 135.891 65.5866 135.672 65.5866C133.069 65.5866 133.047 69.6557 135.672 69.6557C136.482 69.6557 137.313 69.6776 138.145 69.6557H141.732C142.389 69.6557 142.957 70.2245 142.957 70.8808V76.35C142.957 77.0063 142.389 77.5751 141.732 77.5751H118.849C118.193 77.5751 117.624 77.0063 117.624 76.35V70.9027C117.624 70.837 117.624 70.7714 117.646 70.7058C117.734 70.1151 118.259 69.6557 118.849 69.6557H123.421C123.575 69.6557 123.728 69.6557 123.881 69.6557H123.968C124.034 69.6557 124.1 69.6557 124.165 69.6557C126.769 69.6557 126.79 65.5866 124.165 65.5866C124.1 65.5866 124.034 65.5866 123.968 65.5866H121.431C119.987 65.4772 118.696 65.0397 117.908 63.4208C116.968 61.4956 117.777 58.8267 117.493 56.7921C117.296 55.2608 116.705 53.7294 116.29 52.2418C115.086 47.7789 112.33 42.0472 112.549 37.3655Z" fill="white"/>
<path d="M4.0835 106.89C5.06795 102.755 8.0213 101.115 11.4997 100.48C14.3218 106.168 17.144 111.878 19.9661 117.566C20.6224 118.9 22.8101 118.9 23.4664 117.566C26.2666 111.9 29.0887 106.212 31.8889 100.546C35.4767 101.246 38.43 103.083 39.502 107.743C39.7208 112.425 36.9643 118.157 35.6955 122.641C35.2798 124.129 34.6891 125.66 34.4922 127.192C34.2297 129.248 34.9517 131.851 34.0766 133.82C33.3547 135.439 32.0421 135.877 30.5763 135.986H28.0386C27.973 135.986 27.9074 135.986 27.8417 135.986C25.2384 135.986 25.2165 140.055 27.8417 140.055C28.1042 140.055 28.3668 140.055 28.6512 140.055H33.1577C33.7484 140.055 34.2735 140.493 34.361 141.105C34.361 141.171 34.3829 141.237 34.3829 141.302V146.75C34.3829 147.406 33.814 147.975 33.1577 147.975H10.2746C9.61834 147.975 9.04952 147.406 9.04952 146.75V141.302C9.04952 140.646 9.61834 140.077 10.2746 140.077H14.2125C14.9125 140.077 15.6344 140.077 16.3345 140.077C18.9378 140.077 18.9597 136.008 16.3345 136.008C16.1376 136.008 15.8969 136.008 15.6563 136.03V136.008H11.806C11.2591 135.921 10.7559 135.789 10.4278 135.549C8.50261 134.214 9.0058 130.539 8.91829 128.57C8.83078 126.579 8.37134 125.004 7.8463 123.079C6.97122 119.994 6.11805 116.888 5.24298 113.803C4.60855 111.484 3.53658 109.253 4.0835 106.89Z" fill="#75C422"/>
<path d="M114.561 65.9367C114.78 66.3742 115.021 66.7461 115.283 67.0743C114.452 67.8618 113.839 68.9119 113.664 70.0933C113.621 70.3558 113.599 70.6183 113.599 70.9027V76.35C113.599 79.2596 115.961 81.6442 118.893 81.6442H141.776C144.686 81.6442 147.07 79.2815 147.07 76.35V70.9027C147.07 69.3932 146.414 68.015 145.386 67.0524C145.692 66.6586 145.976 66.1992 146.217 65.6742C147.792 62.2176 146.895 58.1485 147.923 54.517C149.783 47.9102 154.377 39.2032 150.746 32.5308C148.383 28.1773 144.554 26.5366 140.332 25.9678C143.351 23.2332 145.276 19.2953 145.276 14.92C145.276 6.6943 138.582 0 130.356 0C122.131 0 115.436 6.6943 115.436 14.92C115.436 19.3391 117.383 23.2988 120.446 26.0334C120.359 26.099 120.249 26.1428 120.162 26.2303C114.671 27.0616 110.055 29.5118 108.611 36.5561C108.589 36.6655 108.589 36.753 108.589 36.8624C108.567 36.9499 108.545 37.0155 108.545 37.1031C108.108 43.3598 112.024 49.9885 113.249 56.0921C113.839 59.2861 113.052 62.8739 114.561 65.9367ZM130.335 41.6097C128.388 37.6719 126.44 33.734 124.493 29.7962C126.287 29.7743 128.103 29.84 129.831 29.84C129.963 29.84 130.094 29.84 130.247 29.84C130.291 29.84 130.313 29.84 130.356 29.84C130.422 29.84 130.466 29.84 130.531 29.84C132.282 29.8181 134.25 29.7087 136.241 29.7306C134.25 33.6903 132.282 37.65 130.335 41.6097ZM119.462 14.92C119.462 8.92573 124.34 4.04721 130.335 4.04721C136.329 4.04721 141.207 8.92573 141.207 14.92C141.207 20.7392 136.613 25.4865 130.86 25.749C130.619 25.749 130.356 25.749 130.116 25.7709C124.209 25.6396 119.462 20.8267 119.462 14.92ZM112.549 37.3656C113.621 32.7058 116.574 30.8682 120.162 30.19C122.962 35.8561 125.784 41.5222 128.584 47.1883C129.241 48.5227 131.428 48.5227 132.085 47.1883C134.907 41.4784 137.729 35.7904 140.551 30.0806C144.051 30.715 147.005 32.3995 147.945 36.5124C148.492 38.8751 147.442 41.1065 146.786 43.3817C145.955 46.3351 145.123 49.2884 144.292 52.2418C143.789 54.0138 143.264 55.6546 143.089 57.4704C142.892 59.6143 143.57 62.4583 142.126 64.274C141.448 65.1272 140.42 65.4554 139.282 65.5866H136.351V65.6085C136.11 65.6085 135.891 65.5866 135.672 65.5866C133.069 65.5866 133.047 69.6557 135.672 69.6557C136.482 69.6557 137.313 69.6776 138.144 69.6557H141.732C142.389 69.6557 142.957 70.2245 142.957 70.8808V76.35C142.957 77.0063 142.389 77.5751 141.732 77.5751H118.849C118.193 77.5751 117.624 77.0063 117.624 76.35V70.9027C117.624 70.8371 117.624 70.7715 117.646 70.7058C117.734 70.1152 118.259 69.6557 118.849 69.6557H123.421C123.575 69.6557 123.728 69.6557 123.881 69.6557H123.968C124.034 69.6557 124.1 69.6557 124.165 69.6557C126.769 69.6557 126.79 65.5866 124.165 65.5866C124.1 65.5866 124.034 65.5866 123.968 65.5866H121.431C119.987 65.4773 118.696 65.0397 117.908 63.4208C116.968 61.4957 117.777 58.8267 117.493 56.7922C117.296 55.2608 116.705 53.7294 116.29 52.2418C115.086 47.7789 112.33 42.0472 112.549 37.3656Z" fill="#285596"/>
<path d="M130.028 69.5463C131.078 69.5463 131.932 68.6931 131.932 67.643C131.932 66.5929 131.078 65.7397 130.028 65.7397C128.978 65.7397 128.125 66.5929 128.125 67.643C128.125 68.6931 128.978 69.5463 130.028 69.5463Z" fill="#285596"/>
<path d="M47.2027 66.0461H84.7214C90.7594 66.0461 95.7692 61.6489 96.7317 55.8953L105.198 55.8734C106.839 55.8734 108.239 54.8671 108.786 53.3138C109.311 51.7605 108.83 50.0979 107.561 49.0916L96.9286 40.7128V25.399C96.9286 18.6828 91.4595 13.2136 84.7433 13.2136H47.2246C40.5084 13.2136 35.0392 18.6828 35.0392 25.399V53.8826C35.0173 60.5769 40.4865 66.0461 47.2027 66.0461ZM39.0645 25.3771C39.0645 20.8924 42.7179 17.2608 47.1808 17.2608H84.6995C89.1842 17.2608 92.8158 20.9143 92.8158 25.3771V42.6598L104.389 51.8043L92.8158 51.8262V53.8607C92.8158 58.3455 89.1624 61.977 84.6995 61.977H47.1808C42.696 61.977 39.0645 58.3236 39.0645 53.8607V25.3771Z" fill="#285596"/>
<path d="M5.74618 135.811C6.0087 136.446 6.31493 136.971 6.68684 137.408C5.65863 138.371 5.00234 139.749 5.00234 141.259V146.706C5.00234 149.615 7.36502 152 10.2965 152H33.1797C36.0893 152 38.4739 149.637 38.4739 146.706V141.259C38.4739 140.974 38.452 140.712 38.4082 140.449C38.2332 139.268 37.6207 138.218 36.7893 137.43C37.0519 137.102 37.2925 136.708 37.5112 136.293C39.0426 133.23 38.2332 129.664 38.8676 126.448C40.0927 120.344 44.0306 113.716 43.5711 107.459C43.5711 107.371 43.5492 107.306 43.5273 107.218C43.5273 107.109 43.5274 107.021 43.4837 106.912C42.0179 99.8676 37.4237 97.4393 31.9326 96.5861C31.8451 96.5205 31.7358 96.4548 31.6483 96.3892C34.711 93.6546 36.6581 89.6949 36.6581 85.2758C36.6581 77.0501 29.9638 70.3558 21.7381 70.3558C13.5124 70.3558 6.81812 77.0501 6.81812 85.2758C6.81812 89.673 8.7433 93.6109 11.7623 96.3455C7.54008 96.9143 3.71161 98.5332 1.34892 102.909C-2.26075 109.581 2.31148 118.266 4.17101 124.895C5.15546 128.461 4.30231 132.377 5.74618 135.811ZM21.7162 111.987C19.7692 108.028 17.8003 104.09 15.8532 100.13C17.9097 100.108 19.9442 100.218 21.7162 100.218C23.5976 100.218 25.6103 100.13 27.5792 100.152C25.6103 104.112 23.6633 108.05 21.7162 111.987ZM10.8434 85.2977C10.8434 79.3034 15.722 74.4249 21.7162 74.4249C27.7105 74.4249 32.5889 79.3034 32.5889 85.2977C32.5889 91.2044 27.8417 96.0173 21.9569 96.1486C21.7162 96.1486 21.4537 96.1486 21.2131 96.1267C15.4595 95.8642 10.8434 91.1169 10.8434 85.2977ZM4.08352 106.89C5.06798 102.755 8.02132 101.115 11.4997 100.48C14.3218 106.168 17.144 111.878 19.9661 117.566C20.6224 118.9 22.8101 118.9 23.4664 117.566C26.2666 111.9 29.0887 106.212 31.889 100.546C35.4767 101.246 38.4301 103.084 39.502 107.743C39.7208 112.425 36.9644 118.157 35.6955 122.641C35.2798 124.129 34.6892 125.66 34.4923 127.192C34.2298 129.248 34.9517 131.852 34.0766 133.82C33.3547 135.439 32.0421 135.877 30.5763 135.986H28.0386C27.973 135.986 27.9074 135.986 27.8417 135.986C25.2384 135.986 25.2165 140.055 27.8417 140.055C28.1043 140.055 28.3668 140.055 28.6512 140.055H33.1578C33.7484 140.055 34.2735 140.493 34.361 141.105C34.361 141.171 34.3829 141.237 34.3829 141.302V146.75C34.3829 147.406 33.8141 147.975 33.1578 147.975H10.2747C9.61836 147.975 9.04954 147.406 9.04954 146.75V141.302C9.04954 140.646 9.61836 140.077 10.2747 140.077H14.2125C14.9125 140.077 15.6345 140.077 16.3345 140.077C18.9379 140.077 18.9597 136.008 16.3345 136.008C16.1376 136.008 15.897 136.008 15.6563 136.03V136.008H11.806C11.2591 135.921 10.7559 135.789 10.4278 135.549C8.50263 134.214 9.00582 130.539 8.91831 128.57C8.83081 126.579 8.37136 125.004 7.84632 123.079C6.97125 119.994 6.11807 116.888 5.243 113.803C4.60857 111.484 3.5366 109.253 4.08352 106.89Z" fill="#285596"/>
<path d="M22.0225 139.902C23.0726 139.902 23.9258 139.049 23.9258 137.999C23.9258 136.949 23.0726 136.096 22.0225 136.096C20.9724 136.096 20.1192 136.949 20.1192 137.999C20.1192 139.071 20.9724 139.902 22.0225 139.902Z" fill="#285596"/>
<path d="M46.8527 126.229L55.3191 126.251C56.2817 132.005 61.3133 136.402 67.3294 136.402H104.848C111.564 136.402 117.033 130.933 117.033 124.216V95.7547C117.033 89.0385 111.564 83.5693 104.848 83.5693H67.3294C60.6132 83.5693 55.144 89.0385 55.144 95.7547V111.068L44.5119 119.447C43.2211 120.454 42.7399 122.116 43.2649 123.67C43.8119 125.223 45.212 126.229 46.8527 126.229ZM59.1912 113.037V95.7547C59.1912 91.27 62.8447 87.6384 67.3075 87.6384H104.826C109.311 87.6384 112.943 91.2918 112.943 95.7547V124.238C112.943 128.723 109.289 132.355 104.826 132.355H67.3075C62.8228 132.355 59.1912 128.701 59.1912 124.238V122.204L47.6184 122.182L59.1912 113.037Z" fill="#285596"/>
<path d="M94.3001 102.608L84.0182 112.89L79.5721 108.444C78.7616 107.633 77.4184 107.633 76.6079 108.444C75.7974 109.254 75.7974 110.597 76.6079 111.408L82.5362 117.336C82.9299 117.73 83.4625 117.938 84.0182 117.938C84.574 117.938 85.1066 117.73 85.5003 117.336L97.2643 105.572C98.0748 104.762 98.0748 103.418 97.2643 102.608C96.4538 101.797 95.1337 101.797 94.3001 102.608Z" fill="#285596"/>
<path d="M59.0163 35.6504C60.151 35.6504 61.0773 34.7241 61.0773 33.5894C61.0773 32.6168 61.471 31.6905 62.1889 31.0421C62.9068 30.3706 63.833 30.0464 64.8288 30.1158C66.5656 30.2316 67.9551 31.6211 68.0708 33.3579C68.1866 35.0947 67.0519 36.6462 65.3614 37.0167C63.6941 37.3872 62.5363 38.823 62.5363 40.5366V44.6586C62.5363 45.7934 63.4625 46.7197 64.5972 46.7197C65.7319 46.7197 66.6582 45.7934 66.6582 44.6586V40.9303C70.1318 39.9577 72.4475 36.7157 72.1928 33.08C71.9381 29.3285 68.9045 26.2949 65.1298 26.017C62.9993 25.878 60.9616 26.5959 59.41 28.0317C57.8816 29.4674 57.0017 31.4821 57.0017 33.5894C56.9553 34.7241 57.8816 35.6504 59.0163 35.6504Z" fill="#285596"/>
<path d="M64.5741 49.3827C64.0415 49.3827 63.5089 49.5911 63.1152 49.9848C62.7215 50.3785 62.5131 50.8879 62.5131 51.4437C62.5131 51.9763 62.7215 52.5089 63.1152 52.9026C63.5089 53.2963 64.0183 53.5047 64.5741 53.5047C65.1067 53.5047 65.6394 53.2963 66.0331 52.9026C66.4267 52.5089 66.6351 51.9995 66.6351 51.4437C66.6351 50.9111 66.4267 50.3785 66.0331 49.9848C65.6394 49.5911 65.1067 49.3827 64.5741 49.3827Z" fill="#285596"/>
</svg>
