<svg width="153" height="152" viewBox="0 0 153 152" fill="none" xmlns="http://www.w3.org/2000/svg">
<path d="M10.9445 152H101.515C107.545 152 112.46 147.085 112.46 141.056V10.9445C112.46 4.9152 107.545 0 101.515 0H10.9445C4.9152 0 0 4.9152 0 10.9445V141.056C0 147.107 4.9152 152 10.9445 152ZM4.04139 10.9445C4.04139 7.14343 7.12159 4.06323 10.9227 4.06323H101.494C105.295 4.06323 108.375 7.14343 108.375 10.9445V141.056C108.375 144.857 105.295 147.937 101.494 147.937H10.9227C7.12159 147.937 4.04139 144.857 4.04139 141.056V10.9445Z" fill="#285596"/>
<path d="M62.718 22.741C69.3372 22.7628 75.9345 22.7847 82.5536 22.8065C85.1532 22.8065 85.1751 18.7651 82.5536 18.7433C75.9345 18.7214 69.3372 18.6996 62.718 18.6777C60.0966 18.6777 60.0966 22.741 62.718 22.741Z" fill="#285596"/>
<path d="M58.2615 21.9545C58.9824 21.19 58.9606 19.9885 58.196 19.2676C57.4314 18.5467 56.2299 18.5685 55.509 19.3331C54.7881 20.0977 54.81 21.2992 55.5746 22.0201C56.3392 22.741 57.5406 22.6973 58.2615 21.9545Z" fill="#285596"/>
<path d="M62.718 33.7729C73.313 33.7947 83.908 33.8166 94.503 33.8384C97.1026 33.8384 97.1245 29.797 94.503 29.7752C83.908 29.7534 73.313 29.7315 62.718 29.7097C60.0966 29.7097 60.0966 33.7729 62.718 33.7729Z" fill="#285596"/>
<path d="M58.2615 32.9865C58.9824 32.2219 58.9606 31.0204 58.196 30.2995C57.4314 29.5786 56.2299 29.6004 55.509 30.365C54.7881 31.1296 54.81 32.3311 55.5746 33.052C56.3392 33.7729 57.5406 33.7292 58.2615 32.9865Z" fill="#285596"/>
<path d="M62.718 44.7611C73.313 44.783 83.908 44.8048 94.503 44.8267C97.1026 44.8267 97.1245 40.7852 94.503 40.7634C83.908 40.7416 73.313 40.7197 62.718 40.6979C60.0966 40.7197 60.0966 44.7611 62.718 44.7611Z" fill="#285596"/>
<path d="M58.2615 43.9747C58.9824 43.2101 58.9606 42.0086 58.196 41.2877C57.4314 40.5668 56.2299 40.5887 55.509 41.3533C54.7881 42.1178 54.81 43.3193 55.5746 44.0402C56.3392 44.7611 57.5406 44.7174 58.2615 43.9747Z" fill="#285596"/>
<path d="M22.1075 45.3072H37.0935C40.5013 45.3072 43.2539 42.5329 43.2539 39.1469V24.1609C43.2539 20.7531 40.4795 18.0005 37.0935 18.0005H22.1075C18.6997 18.0005 15.9471 20.7749 15.9471 24.1609V39.1469C15.9253 42.5547 18.6997 45.3072 22.1075 45.3072ZM19.9885 24.1609C19.9885 23.0031 20.9279 22.0419 22.1075 22.0419H37.0935C38.2513 22.0419 39.2125 22.9813 39.2125 24.1609V39.1469C39.2125 40.3047 38.2731 41.2659 37.0935 41.2659H22.1075C20.9497 41.2659 19.9885 40.3265 19.9885 39.1469V24.1609Z" fill="#285596"/>
<path d="M62.718 111.455C69.3372 111.477 75.9345 111.499 82.5536 111.521C85.1532 111.521 85.1751 107.479 82.5536 107.457C75.9345 107.435 69.3372 107.414 62.718 107.392C60.0966 107.392 60.0966 111.455 62.718 111.455Z" fill="#285596"/>
<path d="M55.5309 108.047C54.81 108.812 54.8319 110.013 55.5965 110.734C56.3611 111.455 57.5626 111.433 58.2835 110.669C59.0044 109.904 58.9825 108.703 58.2179 107.982C57.4533 107.261 56.2518 107.283 55.5309 108.047Z" fill="#285596"/>
<path d="M62.718 122.487C73.313 122.509 83.908 122.531 94.503 122.552C97.1026 122.552 97.1245 118.511 94.503 118.489C83.908 118.467 73.313 118.445 62.718 118.424C60.0966 118.445 60.0966 122.487 62.718 122.487Z" fill="#285596"/>
<path d="M55.5309 119.079C54.81 119.844 54.8319 121.045 55.5965 121.766C56.3611 122.487 57.5626 122.465 58.2835 121.7C59.0044 120.936 58.9825 119.734 58.2179 119.013C57.4533 118.293 56.2518 118.314 55.5309 119.079Z" fill="#285596"/>
<path d="M62.718 133.497C73.313 133.519 83.908 133.541 94.503 133.563C97.1026 133.563 97.1245 129.521 94.503 129.499C83.908 129.477 73.313 129.456 62.718 129.434C60.0966 129.434 60.0966 133.475 62.718 133.497Z" fill="#285596"/>
<path d="M55.5309 130.067C54.81 130.832 54.8319 132.033 55.5965 132.754C56.3611 133.475 57.5626 133.453 58.2835 132.689C59.0044 131.924 58.9825 130.723 58.2179 130.002C57.4533 129.281 56.2518 129.325 55.5309 130.067Z" fill="#285596"/>
<path d="M22.1075 134.043H37.0935C40.5013 134.043 43.2539 131.269 43.2539 127.883V112.897C43.2539 109.489 40.4795 106.736 37.0935 106.736H22.1075C18.6997 106.736 15.9471 109.511 15.9471 112.897V127.883C15.9253 131.269 18.6997 134.043 22.1075 134.043ZM19.9885 112.875C19.9885 111.717 20.9279 110.756 22.1075 110.756H37.0935C38.2513 110.756 39.2125 111.695 39.2125 112.875V127.861C39.2125 129.019 38.2731 129.98 37.0935 129.98H22.1075C20.9497 129.98 19.9885 129.04 19.9885 127.861V112.875Z" fill="#285596"/>
<path d="M50.7467 84.9129C43.7999 84.8911 36.8531 84.8692 29.8844 84.8474C27.2848 84.8474 27.263 88.8888 29.8844 88.9106C36.8312 88.9325 43.7781 88.9543 50.7467 88.9761C53.3463 88.9761 53.3682 84.9129 50.7467 84.9129Z" fill="#285596"/>
<path d="M57.9339 88.3207C58.6548 87.5561 58.633 86.3547 57.8684 85.6338C57.1038 84.9129 55.9023 84.9347 55.1814 85.6993C54.4605 86.4639 54.4823 87.6654 55.2469 88.3863C56.0115 89.1072 57.213 89.0853 57.9339 88.3207Z" fill="#285596"/>
<path d="M50.7468 73.881C39.8241 73.8591 28.8795 73.8373 17.9569 73.8154C15.3573 73.8154 15.3354 77.8568 17.9569 77.8787C28.8795 77.9005 39.8241 77.9223 50.7468 77.9442C53.3464 77.9442 53.3682 73.881 50.7468 73.881Z" fill="#285596"/>
<path d="M57.9339 77.2888C58.6548 76.5242 58.633 75.3228 57.8684 74.6019C57.1038 73.881 55.9023 73.9028 55.1814 74.6674C54.4605 75.432 54.4823 76.6335 55.2469 77.3544C56.0115 78.0753 57.213 78.0534 57.9339 77.2888Z" fill="#285596"/>
<path d="M17.9569 66.8686C28.8795 66.8904 39.8241 66.9123 50.7468 66.9341C53.3464 66.9341 53.3682 62.8928 50.7468 62.8709C39.8241 62.8491 28.8795 62.8272 17.9569 62.8054C15.3573 62.8054 15.3354 66.8686 17.9569 66.8686Z" fill="#285596"/>
<path d="M57.9339 66.3007C58.6548 65.5361 58.633 64.3346 57.8684 63.6137C57.1038 62.8928 55.9023 62.9146 55.1814 63.6792C54.4605 64.4438 54.4823 65.6453 55.2469 66.3662C56.0115 67.0871 57.213 67.0653 57.9339 66.3007Z" fill="#285596"/>
<path d="M90.3524 62.3466H75.3665C71.9586 62.3466 69.2061 65.121 69.2061 68.507V83.4929C69.2061 86.9008 71.9805 89.6533 75.3665 89.6533H90.3524C93.7603 89.6533 96.5128 86.879 96.5128 83.4929V68.507C96.5128 65.121 93.7384 62.3466 90.3524 62.3466ZM92.4496 83.5148C92.4496 84.6726 91.5102 85.6338 90.3306 85.6338H75.3447C74.1869 85.6338 73.2256 84.6944 73.2256 83.5148V68.5289C73.2256 67.3711 74.165 66.4099 75.3447 66.4099H90.3306C91.4884 66.4099 92.4496 67.3492 92.4496 68.5289V83.5148Z" fill="#285596"/>
<path d="M152.109 122.378L152.306 122.072V12.5829C152.306 5.65789 146.67 0.0217896 139.745 0.0217896H138.609C131.684 0.0217896 126.048 5.65789 126.048 12.5829V122.116L126.222 122.378H126.026L135.266 148.723L135.31 148.832C135.944 150.34 137.451 151.301 139.155 151.301C140.859 151.301 142.366 150.318 143 148.832L152.284 122.378H152.109ZM130.111 120.87V12.5829C130.111 8.38856 133.147 4.91517 137.145 4.21611C137.145 19.3549 137.145 34.4719 137.145 49.6108C137.145 52.2104 141.208 52.2322 141.208 49.6108C141.208 34.4719 141.208 19.3549 141.208 4.21611C145.206 4.91517 148.243 8.38856 148.243 12.5829V120.892L147.303 122.356H141.187C141.187 102.717 141.187 83.0779 141.187 63.4389C141.187 60.8393 137.123 60.8174 137.123 63.4389C137.123 83.0779 137.123 102.717 137.123 122.356H131.094L130.111 120.87ZM139.286 147.238C139.22 147.26 139.133 147.26 139.068 147.238L131.815 126.55H146.561L139.286 147.238Z" fill="#285596"/>
<path d="M139.177 58.4145C140.226 58.4145 141.077 57.5636 141.077 56.514C141.077 55.4643 140.226 54.6134 139.177 54.6134C138.127 54.6134 137.276 55.4643 137.276 56.514C137.276 57.5636 138.127 58.4145 139.177 58.4145Z" fill="#285596"/>
<path d="M139.286 147.238C139.22 147.26 139.133 147.26 139.068 147.238L131.815 126.55H146.56L139.286 147.238Z" fill="#75C422"/>
<path d="M19.9885 24.1609C19.9885 23.0031 20.9279 22.0419 22.1075 22.0419H37.0935C38.2513 22.0419 39.2124 22.9813 39.2124 24.1609V39.1469C39.2124 40.3047 38.2731 41.2658 37.0935 41.2658H22.1075C20.9497 41.2658 19.9885 40.3265 19.9885 39.1469V24.1609Z" fill="white"/>
<path d="M92.4496 83.5148C92.4496 84.6726 91.5102 85.6338 90.3306 85.6338H75.3447C74.1869 85.6338 73.2256 84.6944 73.2256 83.5148V68.5289C73.2256 67.3711 74.165 66.4099 75.3447 66.4099H90.3306C91.4884 66.4099 92.4496 67.3493 92.4496 68.5289V83.5148Z" fill="#75C422"/>
<path d="M19.9885 112.875C19.9885 111.717 20.9279 110.756 22.1075 110.756H37.0935C38.2513 110.756 39.2124 111.695 39.2124 112.875V127.861C39.2124 129.019 38.2731 129.98 37.0935 129.98H22.1075C20.9497 129.98 19.9885 129.041 19.9885 127.861V112.875Z" fill="white"/>
</svg>
