<svg width="152" height="152" viewBox="0 0 152 152" fill="none" xmlns="http://www.w3.org/2000/svg">
<path d="M68.7891 71.4523C82.8183 58.7342 85.8558 38.2804 77.3989 21.5853C76.2189 19.2471 72.7225 21.3012 73.9026 23.6394C80.8953 37.45 79.147 54.2326 68.7016 65.8362C59.764 75.7572 45.8223 80.2151 32.7983 77.1776C31.2031 76.8061 29.6734 76.3254 28.1874 75.7572C33.0823 64.5251 37.9773 53.293 42.8941 42.039C42.916 42.0172 42.9159 41.9735 42.9159 41.9516C43.0688 41.6675 43.1563 41.3398 43.1563 41.012C43.1563 28.7091 43.1563 16.4281 43.1563 4.12523C49.1875 4.47487 55.2188 6.24491 60.66 9.47905C62.9108 10.812 64.9431 7.31567 62.7141 5.98268C48.2479 -2.56158 29.8919 -2.05898 16.3653 8.16791C4.41211 17.2148 -1.75028 32.271 0.434949 47.0869C5.1332 79.0569 44.9264 93.1079 68.7891 71.4523ZM4.39024 43.0442C15.6005 43.0442 26.8107 43.0442 38.021 43.0442C33.4975 53.4022 28.996 63.7603 24.4725 74.1183C12.4974 67.9996 5.26434 55.806 4.39024 43.0442ZM14.9012 14.7892C21.5662 8.12421 30.2197 4.56228 39.0917 4.12523C39.0917 15.7507 39.0917 27.3761 39.0917 38.9797C27.51 38.9797 15.9283 38.9797 4.32468 38.9797C4.67431 30.3043 8.01775 21.6727 14.9012 14.7892Z" fill="#285596"/>
<path d="M69.5321 16.7559C72.7881 16.7559 72.7881 11.6862 69.5321 11.6862C66.2761 11.6862 66.2761 16.7559 69.5321 16.7559Z" fill="#285596"/>
<path d="M31.5745 107.225C34.1749 107.225 34.1968 103.182 31.5745 103.16C24.2758 103.138 16.999 103.116 9.70036 103.094C7.09993 103.094 7.07808 107.137 9.70036 107.159C16.999 107.181 24.2977 107.203 31.5745 107.225Z" fill="#285596"/>
<path d="M5.26437 106.372C5.9855 105.607 5.96364 104.406 5.1988 103.684C4.43397 102.963 3.23208 102.985 2.51096 103.75C1.78983 104.515 1.81169 105.717 2.57652 106.438C3.34136 107.159 4.54325 107.115 5.26437 106.372Z" fill="#285596"/>
<path d="M9.70038 118.194C20.9762 118.216 32.252 118.238 43.5059 118.26C46.1064 118.26 46.1282 114.217 43.5059 114.195C32.2301 114.174 20.9543 114.152 9.70038 114.13C7.09995 114.13 7.09995 118.194 9.70038 118.194Z" fill="#285596"/>
<path d="M2.5984 117.473C3.36324 118.194 4.56513 118.173 5.28625 117.408C6.00738 116.643 5.98552 115.441 5.22069 114.72C4.45585 113.999 3.25396 114.021 2.53284 114.785C1.81171 115.55 1.83357 116.73 2.5984 117.473Z" fill="#285596"/>
<path d="M9.70038 129.186C20.9762 129.208 32.252 129.23 43.5059 129.252C46.1064 129.252 46.1282 125.209 43.5059 125.187C32.2301 125.165 20.9543 125.143 9.70038 125.122C7.09995 125.143 7.09995 129.186 9.70038 129.186Z" fill="#285596"/>
<path d="M2.5984 128.465C3.36324 129.186 4.56513 129.164 5.28625 128.399C6.00738 127.635 5.98552 126.433 5.22069 125.712C4.45585 124.991 3.25396 125.012 2.53284 125.777C1.81171 126.542 1.83357 127.744 2.5984 128.465Z" fill="#285596"/>
<path d="M79.8682 151.978C82.119 151.978 83.9547 150.143 83.9547 147.87V129.514C83.9547 127.263 82.119 125.406 79.8682 125.406H66.6694C64.4186 125.406 62.5612 127.241 62.5612 129.514V147.87C62.5612 150.121 64.3968 151.978 66.6694 151.978H79.8682ZM66.6476 129.492L79.8901 129.536V147.892C79.8901 147.914 79.8682 147.935 79.8463 147.935L66.6039 147.892L66.6476 129.492Z" fill="#285596"/>
<path d="M126.108 111.77V147.87C126.108 150.143 127.965 151.978 130.216 151.978H143.393C145.666 151.978 147.501 150.143 147.501 147.87V111.77C147.501 109.497 145.644 107.662 143.393 107.662H130.216C127.943 107.64 126.108 109.497 126.108 111.77ZM143.437 111.77V147.87C143.437 147.892 143.415 147.935 143.371 147.935L130.129 147.87L130.194 111.704L143.437 111.77Z" fill="#285596"/>
<path d="M115.706 121.625C115.706 121.582 115.684 121.516 115.684 121.472C115.509 118.544 113.084 116.184 110.09 116.184H99.2075C96.4979 116.184 94.2908 118.391 94.2908 121.101V147.083C94.2908 149.793 96.4979 152 99.2075 152H110.789C113.499 152 115.706 149.793 115.706 147.083V144.089C115.706 141.729 115.706 139.347 115.706 136.987C115.706 134.387 111.642 134.365 111.642 136.987V147.083C111.642 147.542 111.248 147.935 110.789 147.935H99.2075C98.7486 147.935 98.3553 147.542 98.3553 147.083V121.101C98.3553 120.642 98.7486 120.249 99.2075 120.249H110.09C110.942 120.249 111.642 120.948 111.642 121.8C111.642 122.762 111.642 123.723 111.642 124.685C111.642 125.755 112.581 126.761 113.674 126.717C114.766 126.673 115.706 125.821 115.706 124.685C115.706 123.657 115.706 122.63 115.706 121.625Z" fill="#285596"/>
<path d="M113.674 128.64C112.625 128.64 111.773 129.492 111.773 130.541C111.773 131.59 112.625 132.442 113.674 132.442C114.723 132.442 115.575 131.59 115.575 130.541C115.575 129.492 114.723 128.64 113.674 128.64Z" fill="#285596"/>
<path d="M133.472 80.8707C129.364 84.7822 125.234 88.672 121.125 92.5835C120.033 91.928 118.744 91.5346 117.389 91.5346C115.422 91.5346 113.652 92.3213 112.341 93.5669L97.8309 84.6074C98.0057 83.9737 98.1149 83.3182 98.1149 82.6407C98.1149 78.6199 94.8371 75.342 90.8163 75.342C86.7954 75.342 83.5176 78.6199 83.5176 82.6407C83.5176 83.3619 83.6268 84.0393 83.8235 84.6948L69.8818 93.5887C68.5925 92.4524 66.9098 91.775 65.0742 91.775C61.0534 91.775 57.7755 95.0528 57.7755 99.0737C57.7755 103.095 61.0534 106.372 65.0742 106.372C69.0951 106.372 72.3729 103.095 72.3729 99.0737C72.3729 98.3525 72.2637 97.6751 72.067 97.0196L86.0087 88.1257C87.298 89.262 88.9807 89.9394 90.8163 89.9394C92.6956 89.9394 94.4 89.2183 95.7112 88.0382L110.33 97.0633C110.199 97.6314 110.112 98.1996 110.112 98.8115C110.112 102.832 113.39 106.11 117.411 106.11C121.431 106.11 124.709 102.832 124.709 98.8115C124.709 97.6314 124.425 96.517 123.923 95.5336C128.074 91.6002 132.226 87.6668 136.378 83.7333C138.236 81.9415 135.351 79.0788 133.472 80.8707ZM65.0524 102.33C63.2605 102.33 61.8182 100.866 61.8182 99.0955C61.8182 97.3036 63.2823 95.8614 65.0524 95.8614C66.8443 95.8614 68.2865 97.3255 68.2865 99.0955C68.2865 100.866 66.8443 102.33 65.0524 102.33ZM90.7944 85.8967C89.0025 85.8967 87.5603 84.4326 87.5603 82.6626C87.5603 80.8707 89.0243 79.4284 90.7944 79.4284C92.5863 79.4284 94.0286 80.8925 94.0286 82.6626C94.0286 84.4326 92.5863 85.8967 90.7944 85.8967ZM117.367 102.067C115.575 102.067 114.133 100.603 114.133 98.8333C114.133 97.0414 115.597 95.5991 117.367 95.5991C119.159 95.5991 120.601 97.0633 120.601 98.8333C120.601 100.603 119.159 102.067 117.367 102.067Z" fill="#285596"/>
<path d="M142.847 77.3743C142.847 76.3254 141.994 75.4731 140.946 75.4731C139.897 75.4731 139.044 76.3254 139.044 77.3743C139.044 78.4232 139.897 79.2755 140.946 79.2755C141.994 79.2755 142.847 78.4232 142.847 77.3743Z" fill="#285596"/>
<path d="M149.818 66.5792C145.469 66.7103 141.142 66.8414 136.794 66.9725C134.193 67.0599 134.171 71.1026 136.794 71.0371C140.399 70.9278 143.983 70.8185 147.589 70.7093C147.239 74.446 146.911 78.2046 146.562 81.9414C146.321 84.5418 150.386 84.52 150.626 81.9414C151.041 77.5053 151.435 73.0475 151.85 68.6114C151.937 67.5407 150.823 66.5355 149.818 66.5792Z" fill="#285596"/>
<path d="M103.119 20.2523C110.418 20.2741 117.695 20.296 124.993 20.3178C127.594 20.3178 127.616 16.2752 124.993 16.2533C117.695 16.2314 110.418 16.2096 103.119 16.1877C100.497 16.1877 100.497 20.2523 103.119 20.2523Z" fill="#285596"/>
<path d="M98.5958 16.7777C97.8309 16.0566 96.629 16.0785 95.9079 16.8433C95.1867 17.6081 95.2087 18.81 95.9735 19.5311C96.7383 20.2523 97.9402 20.2304 98.6613 19.4656C99.3824 18.7008 99.3606 17.4989 98.5958 16.7777Z" fill="#285596"/>
<path d="M136.925 27.3105C125.649 27.2887 114.373 27.2668 103.119 27.245C100.519 27.245 100.497 31.2877 103.119 31.3095C114.395 31.3314 125.671 31.3532 136.925 31.3751C139.525 31.3751 139.547 27.3105 136.925 27.3105Z" fill="#285596"/>
<path d="M98.5958 27.8132C97.8309 27.092 96.629 27.1139 95.9079 27.8787C95.1867 28.6435 95.2087 29.8454 95.9735 30.5665C96.7383 31.2877 97.9402 31.2658 98.6613 30.501C99.3824 29.7361 99.3606 28.5343 98.5958 27.8132Z" fill="#285596"/>
<path d="M136.925 38.3023C125.649 38.2805 114.373 38.2586 103.119 38.2368C100.519 38.2368 100.497 42.2794 103.119 42.3013C114.395 42.3231 125.671 42.345 136.925 42.3669C139.525 42.3669 139.547 38.3023 136.925 38.3023Z" fill="#285596"/>
<path d="M95.9297 38.8704C95.2086 39.6353 95.2305 40.8372 95.9954 41.5583C96.7602 42.2794 97.962 42.2575 98.6832 41.4927C99.4043 40.7279 99.3825 39.526 98.6176 38.8049C97.8528 38.0837 96.6509 38.1275 95.9297 38.8704Z" fill="#285596"/>
<path d="M4.39026 43.0443C15.6005 43.0443 26.8107 43.0443 38.021 43.0443C33.4976 53.4023 28.996 63.7603 24.4725 74.1183C12.4975 67.9996 5.26435 55.806 4.39026 43.0443Z" fill="#75C422"/>
<path d="M14.9013 14.7892C21.5662 8.12422 30.2197 4.56229 39.0917 4.12524C39.0917 15.7507 39.0917 27.3761 39.0917 38.9797C27.51 38.9797 15.9283 38.9797 4.32469 38.9797C4.67433 30.3043 8.01777 21.6727 14.9013 14.7892Z" fill="white"/>
<path d="M66.6476 129.492L79.8901 129.536V147.892C79.8901 147.914 79.8682 147.935 79.8463 147.935L66.6039 147.892L66.6476 129.492Z" fill="white"/>
<path d="M143.437 111.77V147.87C143.437 147.892 143.415 147.935 143.371 147.935L130.129 147.87L130.194 111.704L143.437 111.77Z" fill="#75C422"/>
<path d="M65.0524 102.33C63.2605 102.33 61.8182 100.865 61.8182 99.0955C61.8182 97.3036 63.2823 95.8613 65.0524 95.8613C66.8443 95.8613 68.2865 97.3254 68.2865 99.0955C68.2865 100.865 66.8443 102.33 65.0524 102.33Z" fill="#75C422"/>
<path d="M90.7944 85.8967C89.0025 85.8967 87.5603 84.4326 87.5603 82.6626C87.5603 80.8707 89.0244 79.4284 90.7944 79.4284C92.5863 79.4284 94.0286 80.8925 94.0286 82.6626C94.0286 84.4326 92.5863 85.8967 90.7944 85.8967Z" fill="white"/>
<path d="M117.367 102.067C115.575 102.067 114.133 100.603 114.133 98.8333C114.133 97.0414 115.597 95.5991 117.367 95.5991C119.159 95.5991 120.601 97.0632 120.601 98.8333C120.601 100.603 119.159 102.067 117.367 102.067Z" fill="#75C422"/>
</svg>
