<svg width="152" height="152" viewBox="0 0 152 152" fill="none" xmlns="http://www.w3.org/2000/svg">
<path d="M140.926 16.9059C145.6 16.9059 149.379 13.1053 149.379 8.45294C149.379 3.77871 145.578 0 140.926 0C136.274 0 132.451 3.80055 132.451 8.45294C132.473 13.1272 136.274 16.9059 140.926 16.9059ZM140.926 4.04081C143.35 4.04081 145.338 6.02845 145.338 8.45294C145.338 10.8774 143.35 12.8651 140.926 12.8651C138.502 12.8651 136.514 10.8774 136.514 8.45294C136.536 6.02845 138.502 4.04081 140.926 4.04081Z" fill="#285596"/>
<path d="M126.27 19.5488C121.421 24.1357 116.572 28.7444 111.723 33.3313C110.412 32.4794 108.84 31.9771 107.158 31.9771C104.864 31.9771 102.768 32.8944 101.239 34.4015L82.7383 22.9781C83.0004 22.1699 83.1533 21.2962 83.1533 20.3788C83.1533 15.7046 79.3528 11.9259 74.7004 11.9259C70.0262 11.9259 66.2256 15.7265 66.2256 20.3788C66.2256 21.3181 66.3785 22.2354 66.6843 23.0873L49.0795 34.336C47.5505 32.8944 45.5192 31.9989 43.2476 31.9989C38.5734 31.9989 34.7728 35.7995 34.7728 40.4518C34.7728 42.0026 35.2097 43.4661 35.9523 44.7329L16.9714 63.2333C15.6827 62.4251 14.1538 61.9446 12.5156 61.9446C7.84136 61.9446 4.06265 65.7451 4.06265 70.3975C4.06265 75.0499 7.8632 78.8504 12.5156 78.8504C17.1898 78.8504 20.9685 75.0499 20.9685 70.3975C20.9685 68.8467 20.5317 67.3833 19.7891 66.1165L38.7699 47.6161C40.0586 48.4242 41.5876 48.9048 43.2257 48.9048C47.9 48.9048 51.6787 45.1042 51.6787 40.4518C51.6787 39.5126 51.5258 38.5953 51.22 37.7434L68.8248 26.4947C70.3538 27.9363 72.3851 28.8318 74.6567 28.8318C76.9501 28.8318 79.047 27.9144 80.5759 26.4073L99.0763 37.8308C98.8142 38.6389 98.6613 39.5126 98.6613 40.43C98.6613 45.1042 102.462 48.8829 107.114 48.8829C111.788 48.8829 115.567 45.0824 115.567 40.43C115.567 38.901 115.152 37.4813 114.453 36.2581C119.324 31.6494 124.195 27.0189 129.066 22.4102C131.031 20.6191 128.17 17.7578 126.27 19.5488ZM12.5374 74.8096C10.113 74.8096 8.12531 72.822 8.12531 70.3975C8.12531 67.973 10.113 65.9854 12.5374 65.9854C14.9619 65.9854 16.9496 67.973 16.9496 70.3975C16.9496 72.822 14.9619 74.8096 12.5374 74.8096ZM43.2476 44.864C40.8231 44.864 38.8355 42.8763 38.8355 40.4518C38.8355 38.0274 40.8231 36.0397 43.2476 36.0397C45.6721 36.0397 47.6597 38.0274 47.6597 40.4518C47.6597 42.8763 45.6939 44.864 43.2476 44.864ZM74.7004 24.791C72.2759 24.791 70.2883 22.8033 70.2883 20.3788C70.2883 17.9544 72.2759 15.9667 74.7004 15.9667C77.1249 15.9667 79.1125 17.9544 79.1125 20.3788C79.1125 22.8033 77.1249 24.791 74.7004 24.791ZM107.158 44.864C104.733 44.864 102.746 42.8763 102.746 40.4518C102.746 38.0274 104.733 36.0397 107.158 36.0397C109.582 36.0397 111.57 38.0274 111.57 40.4518C111.57 42.8763 109.604 44.864 107.158 44.864Z" fill="#285596"/>
<path d="M131.971 18.9372C133.02 18.9372 133.871 18.0864 133.871 17.0369C133.871 15.9874 133.02 15.1367 131.971 15.1367C130.921 15.1367 130.07 15.9874 130.07 17.0369C130.07 18.0864 130.921 18.9372 131.971 18.9372Z" fill="#285596"/>
<path d="M53.7756 146.387V129.918C53.7756 127.559 53.7756 125.178 53.7756 122.819C53.7756 120.22 49.7129 120.198 49.7129 122.819V146.387C49.7129 147.238 49.0139 147.937 48.1621 147.937H37.9836C37.1318 147.937 36.4328 147.238 36.4328 146.387V86.3641C36.4328 85.5123 37.1318 84.8133 37.9836 84.8133H48.1621C49.0139 84.8133 49.7129 85.5123 49.7129 86.3641V110.5C49.7129 113.099 53.7756 113.121 53.7756 110.5C53.7756 108.141 53.7756 105.76 53.7756 103.401V86.3423C53.7756 83.2625 51.2637 80.7288 48.1621 80.7288H37.9836C34.9039 80.7288 32.3702 83.2407 32.3702 86.3423V146.365C32.3702 149.444 34.882 151.978 37.9836 151.978H48.1621C51.2637 151.978 53.7756 149.466 53.7756 146.387Z" fill="#285596"/>
<path d="M51.7442 114.475C50.6958 114.475 49.8439 115.327 49.8439 116.375C49.8439 117.424 50.6958 118.276 51.7442 118.276C52.7926 118.276 53.6445 117.424 53.6445 116.375C53.6445 115.327 52.7926 114.475 51.7442 114.475Z" fill="#285596"/>
<path d="M117.62 110.5V86.3423C117.62 83.2625 115.108 80.7288 112.007 80.7288H101.85C98.7487 80.7288 96.2368 83.2407 96.2368 86.3423V146.365C96.2368 149.444 98.7487 151.978 101.85 151.978H112.029C115.108 151.978 117.642 149.466 117.642 146.365V122.797C117.642 120.198 113.58 120.176 113.58 122.797C113.58 125.156 113.58 127.537 113.58 129.896V146.365C113.58 147.217 112.881 147.916 112.029 147.916H101.85C100.998 147.916 100.299 147.217 100.299 146.365V86.3423C100.299 85.4904 100.998 84.7915 101.85 84.7915H112.029C112.881 84.7915 113.58 85.4904 113.58 86.3423V103.401C113.58 105.76 113.58 108.141 113.58 110.5C113.58 113.121 117.62 113.121 117.62 110.5Z" fill="#285596"/>
<path d="M115.611 118.276C116.66 118.276 117.511 117.425 117.511 116.375C117.511 115.326 116.66 114.475 115.611 114.475C114.561 114.475 113.711 115.326 113.711 116.375C113.711 117.425 114.561 118.276 115.611 118.276Z" fill="#285596"/>
<path d="M16.1851 94.5768H5.22029C2.33712 94.5768 0 96.9139 0 99.7971V146.78C0 149.663 2.33712 152 5.22029 152H16.1851C19.0683 152 21.4054 149.663 21.4054 146.78V99.7971C21.4054 96.9139 19.0683 94.5768 16.1851 94.5768ZM17.3646 146.78C17.3646 147.413 16.8403 147.937 16.2069 147.937H5.24213C4.60871 147.937 4.08449 147.413 4.08449 146.78V99.7971C4.08449 99.1637 4.60871 98.6394 5.24213 98.6394H16.2069C16.8403 98.6394 17.3646 99.1637 17.3646 99.7971V146.78Z" fill="#285596"/>
<path d="M80.3138 151.978C83.197 151.978 85.556 149.619 85.556 146.736V57.6198C85.556 54.7366 83.197 52.3776 80.3138 52.3776H69.4146C66.5314 52.3776 64.1724 54.7366 64.1724 57.6198V146.736C64.1724 149.619 66.5314 151.978 69.4146 151.978H80.3138ZM68.2132 146.736V57.6198C68.2132 56.9645 68.7593 56.4184 69.4146 56.4184H80.3138C80.9691 56.4184 81.5152 56.9645 81.5152 57.6198V146.736C81.5152 147.391 80.9691 147.937 80.3138 147.937H69.4146C68.7593 147.937 68.2132 147.391 68.2132 146.736Z" fill="#285596"/>
<path d="M146.452 45.8687H135.771C132.823 45.8687 130.42 48.2713 130.42 51.22V146.627C130.42 149.576 132.823 151.978 135.771 151.978H146.452C149.401 151.978 151.803 149.576 151.803 146.627V51.22C151.803 48.2713 149.401 45.8687 146.452 45.8687ZM147.741 146.627C147.741 147.326 147.151 147.916 146.43 147.916H135.749C135.05 147.916 134.439 147.326 134.439 146.627V51.22C134.439 50.521 135.029 49.9313 135.749 49.9313H146.43C147.129 49.9313 147.741 50.521 147.741 51.22V146.627Z" fill="#285596"/>
<path d="M17.3646 146.78C17.3646 147.413 16.8404 147.937 16.2069 147.937H5.24214C4.60872 147.937 4.0845 147.413 4.0845 146.78V99.7971C4.0845 99.1637 4.60872 98.6395 5.24214 98.6395H16.2069C16.8404 98.6395 17.3646 99.1637 17.3646 99.7971V146.78Z" fill="#75C422"/>
<path d="M68.2133 146.736V57.6198C68.2133 56.9645 68.7593 56.4185 69.4146 56.4185H80.3139C80.9691 56.4185 81.5152 56.9645 81.5152 57.6198V146.736C81.5152 147.391 80.9691 147.937 80.3139 147.937H69.4146C68.7593 147.937 68.2133 147.391 68.2133 146.736Z" fill="white"/>
<path d="M147.741 146.627C147.741 147.326 147.151 147.915 146.43 147.915H135.749C135.05 147.915 134.439 147.326 134.439 146.627V51.22C134.439 50.521 135.029 49.9313 135.749 49.9313H146.43C147.129 49.9313 147.741 50.521 147.741 51.22V146.627Z" fill="#75C422"/>
<path d="M16.9514 70.4526C16.9901 68.0161 15.0464 66.0095 12.6099 65.9707C10.1734 65.9319 8.16676 67.8757 8.12798 70.3122C8.0892 72.7487 10.033 74.7553 12.4695 74.7941C14.906 74.8329 16.9126 72.8891 16.9514 70.4526Z" fill="white"/>
<path d="M43.2476 44.8639C40.8231 44.8639 38.8354 42.8763 38.8354 40.4518C38.8354 38.0273 40.8231 36.0397 43.2476 36.0397C45.6721 36.0397 47.6597 38.0273 47.6597 40.4518C47.6597 42.8763 45.6939 44.8639 43.2476 44.8639Z" fill="#75C422"/>
<path d="M74.7004 24.7909C72.2759 24.7909 70.2883 22.8033 70.2883 20.3788C70.2883 17.9543 72.2759 15.9667 74.7004 15.9667C77.1249 15.9667 79.1125 17.9543 79.1125 20.3788C79.1125 22.8033 77.1249 24.7909 74.7004 24.7909Z" fill="white"/>
<path d="M107.158 44.8639C104.733 44.8639 102.746 42.8763 102.746 40.4518C102.746 38.0273 104.733 36.0397 107.158 36.0397C109.582 36.0397 111.57 38.0273 111.57 40.4518C111.57 42.8763 109.604 44.8639 107.158 44.8639Z" fill="#75C422"/>
<path d="M140.926 4.04083C143.35 4.04083 145.338 6.02848 145.338 8.45296C145.338 10.8774 143.35 12.8651 140.926 12.8651C138.501 12.8651 136.514 10.8774 136.514 8.45296C136.536 6.02848 138.501 4.04083 140.926 4.04083Z" fill="white"/>
</svg>
