<svg width="64" height="64" viewBox="0 0 64 64" fill="none" xmlns="http://www.w3.org/2000/svg">
<path d="M26 25H10C9.448 25 9 24.552 9 24V15C9 14.448 9.448 14 10 14H26C26.552 14 27 14.448 27 15V24C27 24.552 26.552 25 26 25Z" fill="#40C4FF"/>
<path d="M26 25.5H10C9.173 25.5 8.5 24.827 8.5 24V15C8.5 14.173 9.173 13.5 10 13.5H26C26.827 13.5 27.5 14.173 27.5 15V24C27.5 24.827 26.827 25.5 26 25.5ZM10 14.5C9.724 14.5 9.5 14.724 9.5 15V24C9.5 24.276 9.724 24.5 10 24.5H26C26.276 24.5 26.5 24.276 26.5 24V15C26.5 14.724 26.276 14.5 26 14.5H10Z" fill="#263238"/>
<path d="M9.5 38.5L14.5 34L19.5 35L24.5 30L29.5 31.5L34.5 25.5L39.5 39L44.5 33.5L49.5 35.5L54.5 20.5V50.5H9.5V38.5Z" fill="#75C422"/>
<path d="M57.5 55H6.5C4.846 55 3.5 53.602 3.5 51.884V12.116C3.5 10.398 4.846 9 6.5 9H57.5C59.154 9 60.5 10.398 60.5 12.116V51.884C60.5 53.602 59.154 55 57.5 55ZM6.5 10C5.397 10 4.5 10.949 4.5 12.116V51.884C4.5 53.051 5.397 54 6.5 54H57.5C58.603 54 59.5 53.051 59.5 51.884V12.116C59.5 10.949 58.603 10 57.5 10H6.5Z" fill="#263238"/>
<path d="M21 17.5H11C10.724 17.5 10.5 17.276 10.5 17C10.5 16.724 10.724 16.5 11 16.5H21C21.276 16.5 21.5 16.724 21.5 17C21.5 17.276 21.276 17.5 21 17.5Z" fill="#263238"/>
<path d="M21 20H11C10.724 20 10.5 19.776 10.5 19.5C10.5 19.224 10.724 19 11 19H21C21.276 19 21.5 19.224 21.5 19.5C21.5 19.776 21.276 20 21 20Z" fill="#263238"/>
<path d="M16 22.5H11C10.724 22.5 10.5 22.276 10.5 22C10.5 21.724 10.724 21.5 11 21.5H16C16.276 21.5 16.5 21.724 16.5 22C16.5 22.276 16.276 22.5 16 22.5Z" fill="#263238"/>
<path d="M39.5 39.5C39.468 39.5 39.437 39.497 39.405 39.491C39.234 39.458 39.092 39.338 39.031 39.174L34.331 26.484L29.884 31.82C29.756 31.974 29.548 32.037 29.356 31.979L24.642 30.565L19.853 35.354C19.735 35.472 19.565 35.521 19.401 35.491L14.647 34.54L9.83396 38.872C9.62696 39.056 9.31296 39.04 9.12796 38.835C8.94296 38.63 8.95996 38.314 9.16496 38.129L14.165 33.629C14.283 33.524 14.443 33.481 14.598 33.51L19.335 34.457L24.146 29.646C24.277 29.516 24.468 29.468 24.643 29.521L29.327 30.926L34.116 25.179C34.23 25.042 34.405 24.976 34.585 25.007C34.761 25.037 34.907 25.159 34.969 25.326L39.683 38.055L44.13 33.163C44.27 33.008 44.493 32.958 44.686 33.035L49.194 34.838L54.027 20.341C54.114 20.08 54.395 19.936 54.659 20.025C54.921 20.112 55.062 20.395 54.975 20.657L49.975 35.657C49.932 35.787 49.836 35.894 49.711 35.952C49.586 36.01 49.443 36.014 49.315 35.963L44.637 34.092L39.87 39.335C39.774 39.441 39.64 39.5 39.5 39.5Z" fill="#263238"/>
<path d="M14.5 51C14.224 51 14 50.776 14 50.5V34C14 33.724 14.224 33.5 14.5 33.5C14.776 33.5 15 33.724 15 34V50.5C15 50.776 14.776 51 14.5 51Z" fill="#263238"/>
<path d="M19.5 51C19.224 51 19 50.776 19 50.5V35C19 34.724 19.224 34.5 19.5 34.5C19.776 34.5 20 34.724 20 35V50.5C20 50.776 19.776 51 19.5 51Z" fill="#263238"/>
<path d="M24.5 51C24.224 51 24 50.776 24 50.5V30C24 29.724 24.224 29.5 24.5 29.5C24.776 29.5 25 29.724 25 30V50.5C25 50.776 24.776 51 24.5 51Z" fill="#263238"/>
<path d="M29.5 51C29.224 51 29 50.776 29 50.5V31.5C29 31.224 29.224 31 29.5 31C29.776 31 30 31.224 30 31.5V50.5C30 50.776 29.776 51 29.5 51Z" fill="#263238"/>
<path d="M34.5 51C34.224 51 34 50.776 34 50.5V25.5C34 25.224 34.224 25 34.5 25C34.776 25 35 25.224 35 25.5V50.5C35 50.776 34.776 51 34.5 51Z" fill="#263238"/>
<path d="M39.5 51C39.224 51 39 50.776 39 50.5V39C39 38.724 39.224 38.5 39.5 38.5C39.776 38.5 40 38.724 40 39V50.5C40 50.776 39.776 51 39.5 51Z" fill="#263238"/>
<path d="M44.5 51C44.224 51 44 50.776 44 50.5V33.5C44 33.224 44.224 33 44.5 33C44.776 33 45 33.224 45 33.5V50.5C45 50.776 44.776 51 44.5 51Z" fill="#263238"/>
<path d="M49.5 51C49.224 51 49 50.776 49 50.5V35.5C49 35.224 49.224 35 49.5 35C49.776 35 50 35.224 50 35.5V50.5C50 50.776 49.776 51 49.5 51Z" fill="#263238"/>
<path d="M39 59H37C36.724 59 36.5 58.776 36.5 58.5C36.5 58.224 36.724 58 37 58H39C39.276 58 39.5 58.224 39.5 58.5C39.5 58.776 39.276 59 39 59Z" fill="#263238"/>
<path d="M35 59H15C14.724 59 14.5 58.776 14.5 58.5C14.5 58.224 14.724 58 15 58H35C35.276 58 35.5 58.224 35.5 58.5C35.5 58.776 35.276 59 35 59Z" fill="#263238"/>
<path d="M32 6H30C29.724 6 29.5 5.776 29.5 5.5C29.5 5.224 29.724 5 30 5H32C32.276 5 32.5 5.224 32.5 5.5C32.5 5.776 32.276 6 32 6Z" fill="#263238"/>
<path d="M54 6H34C33.724 6 33.5 5.776 33.5 5.5C33.5 5.224 33.724 5 34 5H54C54.276 5 54.5 5.224 54.5 5.5C54.5 5.776 54.276 6 54 6Z" fill="#263238"/>
</svg>
