<svg width="64" height="64" viewBox="0 0 64 64" fill="none" xmlns="http://www.w3.org/2000/svg">
<path d="M62.406 30.493L58.517 34.382C58.126 34.773 57.493 34.773 57.103 34.382L42.96 20.24C42.569 19.849 42.569 19.216 42.96 18.826L46.849 14.937C47.24 14.546 47.873 14.546 48.263 14.937L62.405 29.079C62.796 29.469 62.796 30.102 62.406 30.493Z" fill="#40C4FF"/>
<path d="M57.81 35.174C57.426 35.174 57.041 35.028 56.749 34.736L42.606 20.593C42.021 20.008 42.021 19.057 42.606 18.472L46.496 14.583C47.08 13.998 48.033 13.998 48.617 14.583L62.759 28.725C63.042 29.008 63.198 29.385 63.198 29.786C63.198 30.187 63.042 30.563 62.759 30.847L58.87 34.736C58.578 35.028 58.193 35.174 57.81 35.174ZM47.557 15.144C47.429 15.144 47.301 15.192 47.203 15.29L43.313 19.179C43.118 19.374 43.118 19.691 43.313 19.886L57.456 34.028C57.651 34.223 57.968 34.223 58.163 34.028L62.052 30.139C62.147 30.045 62.198 29.92 62.198 29.786C62.198 29.653 62.146 29.527 62.052 29.432L47.91 15.29C47.812 15.193 47.685 15.144 47.557 15.144Z" fill="#263238"/>
<path d="M1.59401 31.2L6.54401 36.15C6.93501 36.541 7.56801 36.541 7.95801 36.15L22.1 22.008C22.491 21.617 22.491 20.984 22.1 20.594L17.15 15.644C16.759 15.253 16.126 15.253 15.736 15.644L1.59401 29.786C1.20401 30.176 1.20401 30.809 1.59401 31.2Z" fill="#40C4FF"/>
<path d="M7.251 36.9409C6.867 36.9409 6.483 36.7949 6.19 36.5029L1.241 31.5519C0.958002 31.2689 0.802002 30.8919 0.802002 30.4909C0.802002 30.0909 0.958002 29.7139 1.241 29.4299L15.383 15.2899C15.967 14.7049 16.92 14.7049 17.504 15.2899L22.454 20.2399C22.737 20.5229 22.893 20.8999 22.893 21.3009C22.893 21.7019 22.737 22.0789 22.454 22.3619L8.312 36.5029C8.02 36.7949 7.635 36.9409 7.251 36.9409ZM16.443 15.8509C16.315 15.8509 16.187 15.8989 16.089 15.9969L1.948 30.1389C1.853 30.2339 1.802 30.3589 1.802 30.4929C1.802 30.6269 1.854 30.7519 1.948 30.8459L6.897 35.7959C7.092 35.9899 7.409 35.9909 7.604 35.7959L21.747 21.6539C21.842 21.5589 21.893 21.4339 21.893 21.2999C21.893 21.1669 21.841 21.0409 21.747 20.9459L16.797 15.9959C16.699 15.8999 16.571 15.8509 16.443 15.8509Z" fill="#263238"/>
<path d="M42.96 50.4379C42.832 50.4379 42.704 50.3889 42.606 50.2919L32.707 40.3919C32.512 40.1969 32.512 39.8799 32.707 39.6849C32.902 39.4899 33.219 39.4899 33.414 39.6849L43.313 49.5849C43.508 49.7799 43.508 50.0969 43.313 50.2919C43.216 50.3899 43.088 50.4379 42.96 50.4379Z" fill="#263238"/>
<path d="M38.718 53.2671C38.59 53.2671 38.462 53.2181 38.364 53.1211L29.172 43.9291C28.977 43.7341 28.977 43.4171 29.172 43.2221C29.367 43.0271 29.684 43.0271 29.879 43.2221L39.071 52.4141C39.266 52.6091 39.266 52.9261 39.071 53.1211C38.974 53.2181 38.846 53.2671 38.718 53.2671Z" fill="#263238"/>
<path d="M19.6249 50.1079C18.8569 50.1079 18.0889 49.8159 17.5039 49.2309C16.3349 48.0619 16.3349 46.1579 17.5039 44.9879L20.1559 42.3369C21.2889 41.2039 23.2649 41.2029 24.3979 42.3369C24.9639 42.9029 25.2769 43.6569 25.2769 44.4579C25.2769 45.2589 24.9649 46.0129 24.3979 46.5799L21.7469 49.2309C21.1619 49.8159 20.3939 50.1079 19.6249 50.1079ZM18.2109 48.5239C18.9899 49.3049 20.2609 49.3029 21.0399 48.5239L23.6909 45.8729C24.0689 45.4949 24.2769 44.9929 24.2769 44.4579C24.2769 43.9229 24.0689 43.4219 23.6909 43.0439C22.9349 42.2879 21.6189 42.2879 20.8629 43.0439L18.2109 45.6949C17.4319 46.4749 17.4319 47.7439 18.2109 48.5239Z" fill="#263238"/>
<path d="M22.454 54.351C21.685 54.351 20.918 54.059 20.333 53.474C19.767 52.908 19.454 52.154 19.454 51.353C19.454 50.552 19.766 49.798 20.333 49.231L23.691 45.873C24.86 44.704 26.763 44.703 27.934 45.873C29.103 47.042 29.103 48.946 27.934 50.116L24.575 53.474C23.99 54.059 23.223 54.351 22.454 54.351ZM25.813 45.995C25.3 45.995 24.788 46.19 24.398 46.58L21.04 49.938C20.662 50.316 20.454 50.818 20.454 51.353C20.454 51.888 20.662 52.389 21.04 52.767C21.819 53.546 23.089 53.546 23.868 52.767L27.227 49.409C28.006 48.629 28.006 47.36 27.227 46.58C26.838 46.189 26.325 45.995 25.813 45.995Z" fill="#263238"/>
<path d="M26.696 57.179C25.928 57.179 25.16 56.887 24.575 56.302C23.405 55.132 23.405 53.229 24.575 52.059L27.226 49.407C28.396 48.239 30.299 48.236 31.469 49.407C32.035 49.974 32.348 50.727 32.348 51.529C32.348 52.331 32.036 53.084 31.469 53.65L28.818 56.302C28.233 56.887 27.465 57.179 26.696 57.179ZM25.282 55.595C26.061 56.375 27.332 56.373 28.111 55.595L30.762 52.943C31.14 52.565 31.348 52.063 31.348 51.529C31.348 50.995 31.14 50.492 30.762 50.114C29.982 49.334 28.711 49.336 27.933 50.114L25.282 52.766C24.502 53.546 24.502 54.815 25.282 55.595Z" fill="#263238"/>
<path d="M30.93 59.999C30.162 59.999 29.394 59.707 28.809 59.122C27.64 57.952 27.64 56.049 28.809 54.879L30.754 52.934C31.886 51.802 33.862 51.8 34.996 52.934C35.562 53.501 35.875 54.254 35.875 55.056C35.875 55.858 35.563 56.611 34.996 57.177L33.052 59.122C32.467 59.706 31.698 59.999 30.93 59.999ZM29.516 58.415C30.296 59.195 31.567 59.194 32.345 58.415L34.289 56.47C34.667 56.092 34.875 55.59 34.875 55.056C34.875 54.522 34.667 54.019 34.289 53.641C33.533 52.886 32.217 52.886 31.461 53.641L29.516 55.586C28.736 56.366 28.736 57.634 29.516 58.415Z" fill="#263238"/>
<path d="M16.126 44.817C15.998 44.817 15.87 44.768 15.772 44.671L9.02003 37.917C8.82503 37.722 8.82503 37.405 9.02003 37.21C9.21503 37.015 9.53203 37.015 9.72703 37.21L16.48 43.963C16.675 44.158 16.675 44.475 16.48 44.67C16.382 44.769 16.254 44.817 16.126 44.817Z" fill="#263238"/>
<path d="M35.914 24.957C35.786 24.957 35.657 24.908 35.56 24.81L35.404 24.653C34.94 24.188 34.296 23.922 33.637 23.922H23.515C23.239 23.922 23.015 23.698 23.015 23.422C23.015 23.146 23.239 22.922 23.515 22.922H33.637C34.558 22.922 35.46 23.296 36.112 23.947L36.269 24.104C36.463 24.3 36.463 24.616 36.267 24.811C36.17 24.908 36.042 24.957 35.914 24.957Z" fill="#263238"/>
<path d="M37.018 57.498C36.978 57.498 36.938 57.497 36.897 57.496C36.622 57.486 36.406 57.254 36.416 56.978C36.427 56.703 36.624 56.47 36.935 56.497C37.271 56.511 37.772 56.448 38.211 56.089C38.658 55.724 38.92 55.208 38.948 54.636C38.976 54.072 38.763 53.519 38.365 53.12C38.17 52.925 38.17 52.608 38.365 52.413C38.56 52.218 38.877 52.218 39.072 52.413L39.076 52.417L39.679 53.02C40.454 53.795 41.672 53.9 42.453 53.261C42.9 52.895 43.162 52.378 43.191 51.807C43.218 51.244 43.006 50.691 42.607 50.293C42.412 50.098 42.412 49.781 42.607 49.586C42.802 49.391 43.119 49.391 43.314 49.586C43.316 49.588 43.318 49.589 43.32 49.591L44.021 50.293C44.42 50.692 44.972 50.912 45.537 50.876C46.108 50.847 46.624 50.585 46.99 50.138C47.629 49.356 47.523 48.138 46.749 47.363L32.707 33.321C32.512 33.126 32.512 32.809 32.707 32.614C32.902 32.419 33.219 32.419 33.414 32.614L47.455 46.655C48.589 47.788 48.724 49.596 47.763 50.77C47.225 51.429 46.431 51.832 45.587 51.874C45.096 51.9 44.624 51.804 44.191 51.607C44.194 51.69 44.194 51.773 44.189 51.856C44.147 52.701 43.745 53.495 43.085 54.034C42.21 54.75 40.985 54.858 39.946 54.397C39.951 54.493 39.951 54.589 39.946 54.686C39.904 55.531 39.502 56.324 38.842 56.863C38.334 57.279 37.705 57.498 37.018 57.498Z" fill="#263238"/>
<path d="M25.99 36.5701C25.157 36.5701 24.325 36.2531 23.691 35.6191C23.077 35.0051 22.739 34.1891 22.739 33.3211C22.739 32.4531 23.077 31.6371 23.691 31.0231L26.171 28.5431C26.832 27.8821 27.711 27.5181 28.646 27.5181H34.974L41.192 21.3001C41.387 21.1051 41.704 21.1051 41.899 21.3001C42.094 21.4951 42.094 21.8121 41.899 22.0071L35.535 28.3711C35.441 28.4651 35.314 28.5171 35.181 28.5171H28.646C27.978 28.5171 27.35 28.7771 26.878 29.2491L24.398 31.7291C23.973 32.1541 23.739 32.7191 23.739 33.3201C23.739 33.9211 23.973 34.4861 24.398 34.9111C25.276 35.7891 26.705 35.7871 27.581 34.9111L31.293 31.1991C31.488 31.0041 31.805 31.0041 32 31.1991C32.195 31.3941 32.195 31.7111 32 31.9061L28.288 35.6181C27.654 36.2531 26.822 36.5701 25.99 36.5701Z" fill="#263238"/>
<path d="M47.193 44.772C47.065 44.772 46.937 44.723 46.839 44.626C46.644 44.431 46.644 44.114 46.839 43.919L55.324 35.434C55.519 35.239 55.836 35.239 56.031 35.434C56.226 35.629 56.226 35.946 56.031 36.141L47.546 44.626C47.449 44.724 47.321 44.772 47.193 44.772Z" fill="#263238"/>
<path d="M30.5 14H26.5C26.224 14 26 13.776 26 13.5C26 13.224 26.224 13 26.5 13H30.5C30.776 13 31 13.224 31 13.5C31 13.776 30.776 14 30.5 14Z" fill="#263238"/>
<path d="M28.5 16C28.224 16 28 15.776 28 15.5V11.5C28 11.224 28.224 11 28.5 11C28.776 11 29 11.224 29 11.5V15.5C29 15.776 28.776 16 28.5 16Z" fill="#263238"/>
<path d="M37.5 7H33.5C33.224 7 33 6.776 33 6.5C33 6.224 33.224 6 33.5 6H37.5C37.776 6 38 6.224 38 6.5C38 6.776 37.776 7 37.5 7Z" fill="#263238"/>
<path d="M35.5 9C35.224 9 35 8.776 35 8.5V4.5C35 4.224 35.224 4 35.5 4C35.776 4 36 4.224 36 4.5V8.5C36 8.776 35.776 9 35.5 9Z" fill="#263238"/>
<path d="M1.5 58.5H0.5C0.224 58.5 0 58.276 0 58C0 57.724 0.224 57.5 0.5 57.5H1.5C1.776 57.5 2 57.724 2 58C2 58.276 1.776 58.5 1.5 58.5Z" fill="#263238"/>
<path d="M14.5 58.5H3.5C3.224 58.5 3 58.276 3 58C3 57.724 3.224 57.5 3.5 57.5H14.5C14.776 57.5 15 57.724 15 58C15 58.276 14.776 58.5 14.5 58.5Z" fill="#263238"/>
<path d="M63.5 58.5H62.5C62.224 58.5 62 58.276 62 58C62 57.724 62.224 57.5 62.5 57.5H63.5C63.776 57.5 64 57.724 64 58C64 58.276 63.776 58.5 63.5 58.5Z" fill="#263238"/>
<path d="M60.5 58.5H49.5C49.224 58.5 49 58.276 49 58C49 57.724 49.224 57.5 49.5 57.5H60.5C60.776 57.5 61 57.724 61 58C61 58.276 60.776 58.5 60.5 58.5Z" fill="#263238"/>
</svg>
