<svg width="500" height="106" viewBox="0 0 500 106" fill="none" xmlns="http://www.w3.org/2000/svg">
<g clip-path="url(#clip0_1_6578)">
<path fill-rule="evenodd" clip-rule="evenodd" d="M137.832 52.835C125.394 52.835 117.176 58.9027 117.176 68.4486C117.176 86.8004 144.57 81.3244 144.57 90.5002C144.57 93.4602 141.978 95.0141 137.832 95.0141C132.428 95.0141 124.431 91.9064 119.101 87.2442L113.992 97.3821C120.137 102.414 129.022 105.67 137.684 105.67C149.234 105.67 158.414 100.194 158.414 89.8342C158.414 71.1125 131.021 76.2185 131.021 67.2646C131.021 64.7486 133.316 63.4909 136.722 63.4909C140.942 63.4909 147.827 65.7107 153.306 68.8927L158.267 58.6069C152.936 55.129 145.31 52.835 137.832 52.835ZM213.424 105.226V53.427H200.245V74.7386H178.775V53.427H165.596V105.226H178.775V85.0984H200.245V105.226H213.424ZM236.968 105.226V53.427H223.789V105.226H236.968ZM247.333 53.427H269.915C283.168 53.427 290.794 59.9388 290.794 71.4826C290.794 83.6185 283.168 90.6484 269.915 90.6484H260.51V105.226H247.333V53.427ZM260.51 63.7868V80.2886H269.247C275.023 80.2886 278.356 77.4025 278.356 71.9267C278.356 66.5247 275.023 63.7868 269.247 63.7868H260.51ZM345.505 105.226V53.427H333.217V85.3945L309.302 53.427H297.678V105.226H310.041V73.3326L333.881 105.226H345.505ZM396.443 63.7868V53.427H355.871V105.226H397.258V94.8661H369.049V84.4324H393.778V74.0726H369.049V63.7868H396.443ZM435.832 78.1424L452.933 53.427H437.459L427.464 68.5226L417.469 53.427H402.144L419.469 78.7344L400.959 105.226H416.286L427.464 88.7244L438.644 105.226H454.415L435.832 78.1424ZM499.724 64.0087V53.353H455.451V64.0087H470.925V105.226H484.103V64.0087H499.724Z" fill="white"/>
<path fill-rule="evenodd" clip-rule="evenodd" d="M49.3928 47.2562L69.516 13.0577L62.1984 0L34.1482 47.2562H49.3928Z" fill="#75C422"/>
<path fill-rule="evenodd" clip-rule="evenodd" d="M97.566 79.5897C97.566 65.2884 85.3701 52.8525 70.7353 52.8525H31.0992L23.1719 65.9103H70.7353C78.0528 65.9103 84.1505 72.1283 84.1505 78.968C84.1505 86.4293 78.0528 92.0255 70.7353 92.0255H7.31745L0 105.083H73.7843C87.1995 104.462 97.566 93.2693 97.566 79.5897Z" fill="white"/>
</g>
<defs>
<clipPath id="clip0_1_6578">
<rect width="500" height="105.67" fill="white"/>
</clipPath>
</defs>
</svg>
