<svg width="1165" height="247" viewBox="0 0 1165 247" fill="none" xmlns="http://www.w3.org/2000/svg">
<path d="M466.829 175.432H467.329V174.932V125.818H497.052V245.406H467.329V199.049V198.549H466.829H416.775H416.275V199.049V245.406H386.552V125.818H416.275V174.932V175.432H416.775H466.829ZM606.824 211.97V245.406H577.104V125.818H629.249C644.621 125.818 656.659 129.59 664.846 136.636C673.022 143.673 677.423 154.031 677.423 167.352C677.423 181.37 673.016 192.378 664.834 199.887C656.646 207.401 644.612 211.47 629.249 211.47H607.324H606.824V211.97ZM607.324 148.936H606.824V149.436V187.852V188.352H607.324H627.693C634.502 188.352 639.947 186.653 643.694 183.27C647.449 179.88 649.427 174.863 649.427 168.386C649.427 161.991 647.447 157.101 643.688 153.818C639.94 150.545 634.496 148.936 627.693 148.936H607.324ZM722.295 171.659V245.406H694.472V125.818H720.82L776.423 200.038L777.323 201.24V199.739V125.818H804.971V245.406H778.623L723.195 171.359L722.295 170.156V171.659ZM859.859 221.789V222.289H860.359H925.621V245.406H830.137V125.818H923.723V148.936H860.359H859.859V149.436V173.381V173.881H860.359H917.51V196.999H860.359H859.859V197.499V221.789ZM1015.64 182.571L1015.44 182.855L1015.64 183.139L1058.42 245.406H1022.87L996.954 207.21L996.54 206.6L996.127 207.21L970.217 245.406H935.71L978.312 184.521L978.51 184.237L978.315 183.951L938.462 125.818H972.971L996.124 160.737L996.54 161.366L996.957 160.737L1020.11 125.818H1054.96L1015.64 182.571ZM1098.36 149.952V149.452H1097.86H1062.29V125.646H1164.5V149.452H1128.58H1128.08V149.952V245.406H1098.36V149.952ZM273.67 160.289C273.67 149.338 278.383 140.398 286.674 134.181C294.979 127.954 306.903 124.44 321.326 124.44C338.497 124.44 355.999 129.651 368.322 137.557L357.184 160.621C344.445 153.332 328.575 148.247 318.737 148.247C314.718 148.247 311.289 148.986 308.849 150.52C306.382 152.07 304.947 154.422 304.947 157.532C304.947 163.078 309.224 166.361 315.233 168.868C318.255 170.129 321.771 171.217 325.514 172.305C326.531 172.601 327.565 172.896 328.611 173.195C331.423 173.999 334.323 174.828 337.227 175.752C345.196 178.289 353.093 181.515 358.998 186.782C364.879 192.028 368.809 199.321 368.809 210.074C368.809 221.963 363.544 231.031 354.953 237.144C346.344 243.269 334.373 246.44 320.981 246.44C301.046 246.44 280.6 239.008 266.376 227.512L277.816 204.842C283.994 210.124 291.61 214.521 299.239 217.622C307.066 220.803 314.942 222.633 321.326 222.633C326.21 222.633 330.246 221.721 333.077 219.882C335.934 218.026 337.533 215.243 337.533 211.625C337.533 205.954 333.263 202.626 327.246 200.137C324.222 198.887 320.705 197.825 316.961 196.778C315.782 196.448 314.58 196.119 313.363 195.786C310.708 195.06 307.979 194.314 305.246 193.489C297.275 191.08 289.378 188.025 283.475 182.95C277.597 177.898 273.67 170.822 273.67 160.289ZM551.94 125.818V245.406H522.217V125.818H551.94ZM80.4881 110.452L144.99 1.93943L161.485 31.3321L114.863 110.452H80.4881ZM164.904 124.481C198.745 124.481 226.954 153.206 226.954 186.225C226.954 217.811 202.992 243.633 172.001 245.074H0.853949L17.3518 215.675H164.904C182.217 215.675 196.679 202.445 196.679 184.778C196.679 168.572 182.233 153.879 164.904 153.879H54.9095L72.7824 124.481H164.904Z" fill="white" stroke="#DFDFDF"/>
</svg>
