<svg width="33" height="33" viewBox="0 0 33 33" fill="none" xmlns="http://www.w3.org/2000/svg">
<g clip-path="url(#clip0_663_25)">
<mask id="mask0_663_25" style="mask-type:luminance" maskUnits="userSpaceOnUse" x="7" y="8" width="18" height="16">
<path d="M7 8H25V24H7V8Z" fill="white"/>
</mask>
<g mask="url(#mask0_663_25)">
<path fill-rule="evenodd" clip-rule="evenodd" d="M25 8V23.997H17V8H25ZM20.172 13.997L18.586 15.582L20 16.997L24 12.997L20 8.997L18.586 10.411L20.172 11.997H17V13.997H20.172ZM7 23.997V8H15V23.997H7ZM11.828 18L13.414 16.414L12 15L8 19L12 23L13.414 21.586L11.828 20H15V18H11.828Z" fill="#1E649F"/>
</g>
</g>
<defs>
<clipPath id="clip0_663_25">
<rect width="33" height="33" fill="white"/>
</clipPath>
</defs>
</svg>
