<svg width="65" height="27" viewBox="0 0 65 27" fill="none" xmlns="http://www.w3.org/2000/svg">
<path fill-rule="evenodd" clip-rule="evenodd" d="M60.5376 16.5021C50.7511 13.5923 23.7243 5.55661 2.94789 25.5936C2.34821 26.172 1.39324 26.1547 0.814898 25.555C0.236559 24.9553 0.253858 24.0004 0.853537 23.422C23.0409 2.02417 52.0082 10.7672 61.5029 13.633C62.4502 13.9189 63.2037 14.1463 63.7373 14.2795C64.5456 14.4812 65.0374 15.3 64.8357 16.1083C64.634 16.9166 63.8152 17.4084 63.0068 17.2067C62.3882 17.0523 61.5563 16.805 60.5376 16.5021Z" fill="white"/>
<path fill-rule="evenodd" clip-rule="evenodd" d="M59.7504 0.603414C60.5598 0.405902 61.376 0.901911 61.5735 1.71128C62.6618 6.17063 63.4788 9.55388 64.024 11.8589C64.2965 13.0106 64.5023 13.8982 64.6404 14.5181C64.7093 14.827 64.7631 15.0772 64.8003 15.2636C64.8187 15.3559 64.8351 15.4425 64.8476 15.5175C64.8478 15.5192 64.8482 15.5212 64.8486 15.5235C64.8557 15.5658 64.8806 15.7139 64.8806 15.8673C64.8806 16.3192 64.6853 16.6362 64.6108 16.7485C64.5172 16.8895 64.4176 16.9934 64.356 17.0538C64.2301 17.1771 64.0908 17.2837 63.9842 17.3615C63.7615 17.524 63.4635 17.7169 63.1511 17.9164C63.057 17.9765 62.9588 18.039 62.8568 18.1039C62.2527 18.4882 61.5152 18.9574 60.7102 19.5187C58.8061 20.8464 56.6945 22.5765 55.398 24.5747C54.9445 25.2736 54.0103 25.4725 53.3114 25.019C52.6125 24.5656 52.4136 23.6314 52.867 22.9325C54.491 20.4297 56.9992 18.4283 58.9847 17.0439C59.8463 16.443 60.6415 15.9373 61.2446 15.5537C61.3442 15.4904 61.4385 15.4304 61.5271 15.3738C61.5936 15.3313 61.6556 15.2915 61.7134 15.2543C61.7077 15.2283 61.7018 15.2017 61.6957 15.1744C61.5618 14.5739 61.3596 13.7015 61.0881 12.5534C60.5453 10.259 59.7303 6.88411 58.6425 2.42653C58.445 1.61716 58.941 0.800926 59.7504 0.603414ZM61.8748 16.0354C61.8746 16.0351 61.8736 16.0288 61.8723 16.0179C61.8743 16.0303 61.875 16.0358 61.8748 16.0354Z" fill="white"/>
</svg>
