<svg width="64" height="64" viewBox="0 0 64 64" fill="none" xmlns="http://www.w3.org/2000/svg">
<path d="M32 8C18.746 8 8 18.745 8 32C8 33.031 8.072 34.044 8.199 35.041L9.332 35.425C10.165 34.799 11.057 34.28 12.002 33.873L12.275 32.509C12.565 31.055 13.852 30 15.334 30H19.098C20.58 30 21.867 31.055 22.158 32.509L22.43 33.873C23.375 34.281 24.267 34.799 25.1 35.425L26.43 34.975C27.838 34.501 29.391 35.088 30.132 36.37L32.014 39.631C32.756 40.915 32.485 42.557 31.37 43.535L30.323 44.456C30.385 44.974 30.417 45.49 30.417 46.001C30.417 46.512 30.386 47.028 30.323 47.546L31.372 48.468C32.485 49.444 32.756 51.087 32.014 52.371L30.133 55.63C30.076 55.729 30.005 55.816 29.939 55.906C30.618 55.964 31.305 56 32 56C45.255 56 56 45.255 56 32C56 18.745 45.255 8 32 8Z" fill="#40C4FF"/>
<path d="M17.216 41C14.584 41 12.444 43.051 12.253 45.635C13.661 47.671 15.376 49.477 17.331 50.989C20.034 50.926 22.216 48.718 22.216 46.001C22.216 43.243 19.973 41 17.216 41Z" fill="#40C4FF"/>
<path d="M17.216 41C14.584 41 12.444 43.051 12.253 45.635C13.661 47.671 15.376 49.477 17.331 50.989C20.034 50.926 22.216 48.718 22.216 46.001C22.216 43.243 19.973 41 17.216 41Z" fill="#40C4FF"/>
<path d="M32 56.5C31.34 56.5 30.651 56.469 29.895 56.404C29.62 56.381 29.416 56.138 29.439 55.863C29.462 55.588 29.695 55.372 29.98 55.407C30.708 55.47 31.369 55.5 32 55.5C44.958 55.5 55.5 44.958 55.5 32C55.5 19.042 44.958 8.5 32 8.5C19.042 8.5 8.5 19.042 8.5 32C8.5 32.957 8.565 33.958 8.694 34.979C8.729 35.253 8.534 35.503 8.26 35.538C7.992 35.573 7.737 35.379 7.701 35.104C7.568 34.042 7.5 32.998 7.5 32C7.5 18.491 18.491 7.5 32 7.5C45.509 7.5 56.5 18.491 56.5 32C56.5 45.509 45.51 56.5 32 56.5Z" fill="#263238"/>
<path d="M17.33 51.488C17.223 51.488 17.116 51.454 17.024 51.384C15.022 49.835 13.278 47.996 11.841 45.919C11.684 45.692 11.74 45.38 11.968 45.224C12.193 45.067 12.506 45.122 12.663 45.351C14.041 47.343 15.714 49.107 17.636 50.594C17.854 50.763 17.894 51.077 17.725 51.296C17.627 51.421 17.479 51.488 17.33 51.488Z" fill="#263238"/>
<path d="M4 32.5C3.724 32.5 3.5 32.276 3.5 32C3.5 16.285 16.285 3.5 32 3.5C32.276 3.5 32.5 3.724 32.5 4C32.5 4.276 32.276 4.5 32 4.5C16.836 4.5 4.5 16.836 4.5 32C4.5 32.276 4.276 32.5 4 32.5Z" fill="#263238"/>
<path d="M35 4.5H34C33.724 4.5 33.5 4.276 33.5 4C33.5 3.724 33.724 3.5 34 3.5H35C35.276 3.5 35.5 3.724 35.5 4C35.5 4.276 35.276 4.5 35 4.5Z" fill="#263238"/>
<path d="M32 60.5C31.724 60.5 31.5 60.276 31.5 60C31.5 59.724 31.724 59.5 32 59.5C47.164 59.5 59.5 47.164 59.5 32C59.5 31.724 59.724 31.5 60 31.5C60.276 31.5 60.5 31.724 60.5 32C60.5 47.715 47.715 60.5 32 60.5Z" fill="#263238"/>
<path d="M53 6.5H49C48.724 6.5 48.5 6.276 48.5 6C48.5 5.724 48.724 5.5 49 5.5H53C53.276 5.5 53.5 5.724 53.5 6C53.5 6.276 53.276 6.5 53 6.5Z" fill="#263238"/>
<path d="M51 8.5C50.724 8.5 50.5 8.276 50.5 8V4C50.5 3.724 50.724 3.5 51 3.5C51.276 3.5 51.5 3.724 51.5 4V8C51.5 8.276 51.276 8.5 51 8.5Z" fill="#263238"/>
<path d="M60 13H56C55.724 13 55.5 12.776 55.5 12.5C55.5 12.224 55.724 12 56 12H60C60.276 12 60.5 12.224 60.5 12.5C60.5 12.776 60.276 13 60 13Z" fill="#263238"/>
<path d="M58 15C57.724 15 57.5 14.776 57.5 14.5V10.5C57.5 10.224 57.724 10 58 10C58.276 10 58.5 10.224 58.5 10.5V14.5C58.5 14.776 58.276 15 58 15Z" fill="#263238"/>
<path d="M32 20.4999C25.131 20.4999 18.535 19.0189 13.903 16.4369C13.662 16.3029 13.575 15.9979 13.71 15.7569C13.844 15.5159 14.148 15.4299 14.39 15.5639C18.878 18.0649 25.297 19.4999 32 19.4999C38.703 19.4999 45.122 18.0649 49.609 15.5629C49.851 15.4289 50.154 15.5149 50.289 15.7559C50.424 15.9969 50.337 16.3019 50.096 16.4359C45.465 19.0189 38.869 20.4999 32 20.4999Z" fill="#263238"/>
<path d="M32 56.5C31.724 56.5 31.5 56.276 31.5 56V8C31.5 7.724 31.724 7.5 32 7.5C32.276 7.5 32.5 7.724 32.5 8V56C32.5 56.276 32.277 56.5 32 56.5Z" fill="#263238"/>
<path d="M12.423 32.5H8C7.724 32.5 7.5 32.276 7.5 32C7.5 31.724 7.724 31.5 8 31.5H12.422C12.698 31.5 12.922 31.724 12.922 32C12.922 32.276 12.699 32.5 12.423 32.5Z" fill="#263238"/>
<path d="M56 32.5H22.009C21.733 32.5 21.509 32.276 21.509 32C21.509 31.724 21.733 31.5 22.009 31.5H56C56.276 31.5 56.5 31.724 56.5 32C56.5 32.276 56.277 32.5 56 32.5Z" fill="#263238"/>
<path d="M28.596 48.69L28.144 48.429C28.317 47.646 28.416 46.835 28.416 45.999C28.416 45.163 28.318 44.353 28.144 43.569L28.595 43.308L30.05 42.029C30.451 41.677 30.548 41.09 30.281 40.628L28.399 37.369C28.132 36.907 27.576 36.697 27.07 36.868L25.235 37.489L24.777 37.754C23.583 36.659 22.159 35.811 20.576 35.314V34.8L20.196 32.9C20.091 32.376 19.632 32 19.098 32H15.334C14.8 32 14.34 32.377 14.236 32.9L13.856 34.8V35.314C12.272 35.812 10.849 36.659 9.65499 37.754L9.19599 37.49L7.36099 36.869C6.85499 36.698 6.29899 36.908 6.03199 37.37L4.14999 40.63C3.88299 41.092 3.97999 41.679 4.38099 42.031L5.83599 43.31L6.28699 43.571C6.11399 44.354 6.01599 45.165 6.01599 46C6.01599 46.835 6.11399 47.647 6.28799 48.43L5.83599 48.69L4.38099 49.969C3.97999 50.321 3.88399 50.908 4.14999 51.37L6.03199 54.63C6.29899 55.092 6.85499 55.302 7.36099 55.131L9.19599 54.51L9.65499 54.245C10.849 55.34 12.273 56.188 13.856 56.685V57.2L14.236 59.099C14.34 59.623 14.8 60 15.334 60H19.098C19.632 60 20.092 59.623 20.196 59.1L20.576 57.201V56.686C22.16 56.188 23.584 55.341 24.777 54.246L25.236 54.511L27.071 55.132C27.577 55.303 28.133 55.093 28.4 54.631L30.282 51.371C30.549 50.909 30.452 50.322 30.051 49.97L28.596 48.69ZM17.216 53C13.35 53 10.216 49.866 10.216 46C10.216 42.134 13.35 39 17.216 39C21.082 39 24.216 42.134 24.216 46C24.216 49.866 21.082 53 17.216 53Z" fill="#75C422"/>
<path d="M19.098 60.5H15.334C14.564 60.5 13.896 59.952 13.746 59.197L13.362 57.048C11.985 56.568 10.719 55.833 9.592 54.859L9.446 54.943L7.521 55.605C6.792 55.85 5.983 55.546 5.599 54.88L3.717 51.62C3.333 50.953 3.473 50.101 4.05 49.594L5.725 48.183C5.585 47.45 5.515 46.717 5.515 46C5.515 45.285 5.585 44.554 5.724 43.823L5.585 43.743L4.049 42.406C3.471 41.899 3.331 41.047 3.716 40.38L5.598 37.12C5.983 36.453 6.789 36.146 7.52 36.395L9.586 37.145C10.713 36.17 11.978 35.435 13.355 34.954V34.8L13.745 32.802C13.895 32.048 14.564 31.5 15.333 31.5H19.097C19.867 31.5 20.535 32.048 20.685 32.803L21.069 34.952C22.446 35.433 23.712 36.168 24.839 37.141L24.985 37.057L26.91 36.395C27.637 36.147 28.448 36.453 28.832 37.12L30.713 40.38C31.098 41.047 30.958 41.899 30.379 42.407L28.705 43.818C28.844 44.549 28.915 45.282 28.915 46.001C28.915 46.717 28.845 47.448 28.706 48.178L28.845 48.258C28.873 48.275 28.9 48.294 28.925 48.316L30.38 49.595C30.958 50.102 31.099 50.954 30.713 51.621L28.832 54.881C28.447 55.547 27.639 55.853 26.91 55.606L24.844 54.856C23.718 55.831 22.452 56.566 21.075 57.047V57.201L20.685 59.198C20.536 59.952 19.867 60.5 19.098 60.5ZM9.654 53.745C9.776 53.745 9.898 53.79 9.992 53.876C11.17 54.957 12.521 55.742 14.006 56.208C14.214 56.273 14.356 56.467 14.356 56.685V57.2L14.726 59.001C14.784 59.29 15.039 59.5 15.334 59.5H19.098C19.392 59.5 19.648 59.291 19.706 59.002L20.086 57.103L20.076 56.686C20.076 56.468 20.218 56.274 20.426 56.209C21.911 55.742 23.261 54.958 24.439 53.877C24.6 53.73 24.839 53.704 25.027 53.812L25.486 54.077L27.231 54.657C27.512 54.753 27.82 54.635 27.967 54.38L29.848 51.12C29.995 50.865 29.942 50.539 29.721 50.345L28.303 49.098L27.894 48.862C27.705 48.753 27.609 48.534 27.656 48.321C27.828 47.542 27.916 46.761 27.916 45.999C27.916 45.237 27.829 44.456 27.656 43.677C27.609 43.464 27.705 43.245 27.894 43.136L28.345 42.876L29.72 41.654C29.941 41.46 29.995 41.134 29.847 40.879L27.966 37.619C27.819 37.365 27.509 37.248 27.23 37.342L25.395 37.963L25.026 38.187C24.837 38.296 24.599 38.27 24.438 38.122C23.26 37.042 21.91 36.257 20.425 35.79C20.217 35.725 20.075 35.531 20.075 35.313V34.8L19.705 32.999C19.647 32.71 19.392 32.5 19.097 32.5H15.333C15.039 32.5 14.783 32.709 14.725 32.998L14.345 34.898L14.355 35.315C14.355 35.533 14.213 35.727 14.005 35.792C12.52 36.258 11.17 37.043 9.991 38.124C9.83 38.271 9.592 38.297 9.403 38.188L8.945 37.923L7.2 37.342C6.918 37.247 6.611 37.364 6.464 37.619L4.582 40.879C4.435 41.134 4.488 41.46 4.709 41.654L6.165 42.933L6.536 43.136C6.725 43.245 6.821 43.464 6.774 43.677C6.601 44.457 6.514 45.238 6.514 45.999C6.514 46.76 6.601 47.541 6.774 48.321C6.821 48.534 6.725 48.753 6.536 48.862L6.084 49.123L4.709 50.344C4.488 50.538 4.435 50.865 4.582 51.12L6.464 54.379C6.611 54.634 6.922 54.751 7.2 54.656L9.034 54.035L9.402 53.811C9.482 53.767 9.568 53.745 9.654 53.745ZM17.216 53.5C13.08 53.5 9.716 50.136 9.716 46C9.716 41.864 13.08 38.5 17.216 38.5C21.352 38.5 24.716 41.864 24.716 46C24.716 50.136 21.352 53.5 17.216 53.5ZM17.216 39.5C13.632 39.5 10.716 42.416 10.716 46C10.716 49.584 13.632 52.5 17.216 52.5C20.8 52.5 23.716 49.584 23.716 46C23.716 42.416 20.8 39.5 17.216 39.5Z" fill="#263238"/>
<path d="M49.853 48.5C49.77 48.5 49.687 48.479 49.61 48.437C45.122 45.935 38.704 44.5 32 44.5C31.744 44.5 31.492 44.509 31.241 44.519L30.815 44.533C30.512 44.543 30.31 44.322 30.302 44.046C30.295 43.77 30.513 43.541 30.789 43.533L31.205 43.519C31.468 43.51 31.732 43.5 32 43.5C38.869 43.5 45.464 44.981 50.096 47.563C50.337 47.697 50.424 48.002 50.289 48.243C50.198 48.408 50.028 48.5 49.853 48.5Z" fill="#263238"/>
<path d="M14.148 48.5001C13.973 48.5001 13.802 48.4081 13.711 48.2441C13.576 48.0031 13.663 47.6981 13.904 47.5641C16.192 46.2891 18.92 45.2851 22.011 44.5821C22.278 44.5171 22.548 44.6891 22.609 44.9581C22.671 45.2271 22.502 45.4951 22.233 45.5561C19.234 46.2391 16.596 47.2081 14.392 48.4361C14.314 48.4791 14.23 48.5001 14.148 48.5001Z" fill="#263238"/>
<path d="M21.375 49.2679C21.206 49.2679 21.041 49.1819 20.947 49.0269C19.577 46.7619 18.509 44.1409 17.77 41.2349C17.702 40.9669 17.864 40.6949 18.131 40.6279C18.396 40.5569 18.671 40.7209 18.738 40.9889C19.453 43.7989 20.484 46.3289 21.802 48.5089C21.945 48.7449 21.869 49.0529 21.633 49.1959C21.553 49.2439 21.463 49.2679 21.375 49.2679Z" fill="#263238"/>
<path d="M32 56.5C31.724 56.5 31.5 56.276 31.5 56C31.5 55.724 31.724 55.5 32 55.5C39.917 55.5 46.357 44.958 46.357 32C46.357 19.042 39.917 8.5 32 8.5C24.597 8.5 18.314 17.955 17.698 30.025C17.684 30.301 17.441 30.503 17.173 30.499C16.897 30.485 16.685 30.25 16.699 29.974C17.354 17.162 23.932 7.5 32 7.5C40.468 7.5 47.357 18.491 47.357 32C47.357 45.509 40.468 56.5 32 56.5Z" fill="#263238"/>
<path d="M30 60.5H29C28.724 60.5 28.5 60.276 28.5 60C28.5 59.724 28.724 59.5 29 59.5H30C30.276 59.5 30.5 59.724 30.5 60C30.5 60.276 30.276 60.5 30 60.5Z" fill="#263238"/>
</svg>
