<svg width="64" height="64" viewBox="0 0 64 64" fill="none" xmlns="http://www.w3.org/2000/svg">
<g clip-path="url(#clip0_1_7637)">
<path d="M21.005 42.5C20.729 42.5 20.505 42.276 20.505 42V40.045C20.505 39.283 20.081 38.597 19.399 38.256L13.773 35.443C13.526 35.319 13.426 35.019 13.549 34.772C13.673 34.525 13.972 34.426 14.22 34.548L19.846 37.361C20.869 37.872 21.505 38.901 21.505 40.044V42C21.505 42.276 21.281 42.5 21.005 42.5Z" fill="#263238"/>
<path d="M11.005 34.5C7.421 34.5 4.505 31.584 4.505 28C4.505 24.416 7.421 21.5 11.005 21.5C14.589 21.5 17.505 24.416 17.505 28C17.505 31.584 14.589 34.5 11.005 34.5ZM11.005 22.5C7.972 22.5 5.505 24.967 5.505 28C5.505 31.033 7.972 33.5 11.005 33.5C14.038 33.5 16.505 31.033 16.505 28C16.505 24.967 14.038 22.5 11.005 22.5Z" fill="#263238"/>
<path d="M15.165 24.531L15.612 24.159C14.512 22.84 12.857 22 11.005 22C7.691 22 5.005 24.686 5.005 28H5.571C9.076 28 12.471 26.773 15.165 24.531Z" fill="#75C422"/>
<path d="M5.571 28.5H5.005C4.729 28.5 4.505 28.276 4.505 28C4.505 24.416 7.421 21.5 11.005 21.5C12.937 21.5 14.756 22.352 15.996 23.838C16.081 23.94 16.122 24.071 16.11 24.204C16.098 24.336 16.034 24.458 15.932 24.543L15.485 24.915C12.707 27.227 9.186 28.5 5.571 28.5ZM5.527 27.5H5.571C8.952 27.5 12.246 26.309 14.845 24.146L14.89 24.108C13.862 23.08 12.472 22.499 11.005 22.499C8.141 22.5 5.781 24.701 5.527 27.5Z" fill="#263238"/>
<path d="M11 39.996C10.833 39.996 10.677 39.913 10.584 39.774L7.58 35.283C7.525 35.201 7.496 35.104 7.496 35.006L7.495 33.186C7.495 33.007 7.591 32.841 7.745 32.752C7.902 32.663 8.092 32.664 8.246 32.753C9.92 33.729 12.07 33.732 13.745 32.764C13.9 32.675 14.09 32.675 14.245 32.764C14.4 32.853 14.495 33.018 14.495 33.197L14.496 34.995C14.496 35.094 14.467 35.19 14.412 35.272L11.416 39.772C11.324 39.912 11.167 39.996 11 39.996ZM8.496 34.853L10.999 38.595L13.496 34.845V34.001C11.913 34.66 10.076 34.657 8.496 33.992V34.853Z" fill="#263238"/>
<path d="M1 42.5001C0.724 42.5001 0.5 42.2761 0.5 42.0001V40.0461C0.5 38.9011 1.136 37.8731 2.159 37.3621L7.772 34.5581C8.02 34.4341 8.319 34.5341 8.443 34.7821C8.567 35.0291 8.466 35.3291 8.219 35.4531L2.606 38.2571C1.924 38.5971 1.5 39.2831 1.5 40.0461V42.0001C1.5 42.2761 1.276 42.5001 1 42.5001Z" fill="#263238"/>
<path d="M11 42.5001C10.724 42.5001 10.5 42.2761 10.5 42.0001V39.4961C10.5 39.2201 10.724 38.9961 11 38.9961C11.276 38.9961 11.5 39.2201 11.5 39.4961V42.0001C11.5 42.2761 11.276 42.5001 11 42.5001Z" fill="#263238"/>
<path d="M63 42.5001C62.724 42.5001 62.5 42.2761 62.5 42.0001V40.0451C62.5 39.2831 62.076 38.5971 61.395 38.2561L55.768 35.4431C55.521 35.3191 55.421 35.0191 55.544 34.7721C55.669 34.5251 55.968 34.4271 56.215 34.5481L61.842 37.3611C62.864 37.8721 63.5 38.9011 63.5 40.0441V42.0001C63.5 42.2761 63.276 42.5001 63 42.5001Z" fill="#263238"/>
<path d="M53 34.5C49.416 34.5 46.5 31.584 46.5 28C46.5 24.416 49.416 21.5 53 21.5C56.584 21.5 59.5 24.416 59.5 28C59.5 31.584 56.584 34.5 53 34.5ZM53 22.5C49.968 22.5 47.5 24.967 47.5 28C47.5 31.033 49.968 33.5 53 33.5C56.032 33.5 58.5 31.033 58.5 28C58.5 24.967 56.032 22.5 53 22.5Z" fill="#263238"/>
<path d="M57.16 24.531L57.607 24.159C56.507 22.84 54.852 22 53 22C49.686 22 47 24.686 47 28H47.566C51.072 28 54.466 26.773 57.16 24.531Z" fill="#75C422"/>
<path d="M47.566 28.5H47C46.724 28.5 46.5 28.276 46.5 28C46.5 24.416 49.416 21.5 53 21.5C54.932 21.5 56.751 22.352 57.991 23.838C58.076 23.94 58.117 24.071 58.105 24.204C58.093 24.337 58.029 24.458 57.926 24.543L57.479 24.915C54.701 27.227 51.181 28.5 47.566 28.5ZM47.522 27.5H47.566C50.947 27.5 54.241 26.309 56.84 24.146L56.885 24.108C55.857 23.081 54.467 22.5 53 22.5C50.136 22.5 47.775 24.701 47.522 27.5Z" fill="#263238"/>
<path d="M52.995 39.996C52.828 39.996 52.672 39.913 52.579 39.774L49.575 35.283C49.52 35.201 49.491 35.104 49.491 35.006L49.49 33.186C49.49 33.007 49.586 32.841 49.741 32.752C49.896 32.663 50.088 32.664 50.242 32.753C51.917 33.729 54.064 33.732 55.74 32.764C55.894 32.675 56.086 32.675 56.24 32.764C56.394 32.853 56.49 33.018 56.49 33.197L56.491 34.995C56.491 35.094 56.462 35.19 56.407 35.272L53.411 39.772C53.318 39.912 53.163 39.996 52.995 39.996ZM50.491 34.853L52.994 38.595L55.491 34.845L55.49 34C53.907 34.659 52.071 34.657 50.49 33.991L50.491 34.853Z" fill="#263238"/>
<path d="M42.995 42.4999C42.719 42.4999 42.495 42.2759 42.495 41.9999V40.0459C42.495 38.9009 43.131 37.8729 44.154 37.3619L49.767 34.5579C50.015 34.4349 50.314 34.5339 50.438 34.7819C50.561 35.0289 50.461 35.3289 50.214 35.4529L44.601 38.2569C43.918 38.5979 43.495 39.2829 43.495 40.0469V41.9999C43.495 42.2759 43.271 42.4999 42.995 42.4999Z" fill="#263238"/>
<path d="M52.995 42.5001C52.719 42.5001 52.495 42.2761 52.495 42.0001V39.4961C52.495 39.2201 52.719 38.9961 52.995 38.9961C53.271 38.9961 53.495 39.2201 53.495 39.4961V42.0001C53.495 42.2761 53.271 42.5001 52.995 42.5001Z" fill="#263238"/>
<path d="M10.998 17.502C10.722 17.502 10.498 17.278 10.498 17.002V11.502C10.498 9.84795 11.844 8.50195 13.498 8.50195H20.998C21.274 8.50195 21.498 8.72595 21.498 9.00195C21.498 9.27795 21.274 9.50195 20.998 9.50195H13.498C12.395 9.50195 11.498 10.399 11.498 11.502V17.002C11.498 17.279 11.274 17.502 10.998 17.502Z" fill="#263238"/>
<path d="M52.997 17.502C52.721 17.502 52.497 17.278 52.497 17.002V11.502C52.497 10.399 51.6 9.50195 50.497 9.50195H42.997C42.721 9.50195 42.497 9.27795 42.497 9.00195C42.497 8.72595 42.721 8.50195 42.997 8.50195H50.497C52.151 8.50195 53.497 9.84795 53.497 11.502V17.002C53.497 17.279 53.273 17.502 52.997 17.502Z" fill="#263238"/>
<path d="M50.497 55.502H42.997C42.721 55.502 42.497 55.278 42.497 55.002C42.497 54.726 42.721 54.502 42.997 54.502H50.497C51.6 54.502 52.497 53.605 52.497 52.502V47.002C52.497 46.726 52.721 46.502 52.997 46.502C53.273 46.502 53.497 46.726 53.497 47.002V52.502C53.497 54.157 52.151 55.502 50.497 55.502Z" fill="#263238"/>
<path d="M20.998 55.502H13.498C11.844 55.502 10.498 54.156 10.498 52.502V47.002C10.498 46.726 10.722 46.502 10.998 46.502C11.274 46.502 11.498 46.726 11.498 47.002V52.502C11.498 53.605 12.395 54.502 13.498 54.502H20.998C21.274 54.502 21.498 54.726 21.498 55.002C21.498 55.278 21.274 55.502 20.998 55.502Z" fill="#263238"/>
<path d="M42 21.5001C41.724 21.5001 41.5 21.2761 41.5 21.0001V19.0451C41.5 18.2831 41.076 17.5971 40.395 17.2561L34.768 14.4431C34.521 14.3191 34.421 14.0191 34.544 13.7721C34.669 13.5251 34.968 13.4271 35.215 13.5481L40.842 16.3611C41.864 16.8721 42.5 17.9011 42.5 19.0441V21.0001C42.5 21.2761 42.276 21.5001 42 21.5001Z" fill="#263238"/>
<path d="M32 13.5C28.416 13.5 25.5 10.584 25.5 7C25.5 3.416 28.416 0.5 32 0.5C35.584 0.5 38.5 3.416 38.5 7C38.5 10.584 35.584 13.5 32 13.5ZM32 1.5C28.967 1.5 26.5 3.967 26.5 7C26.5 10.033 28.967 12.5 32 12.5C35.032 12.5 37.5 10.033 37.5 7C37.5 3.967 35.032 1.5 32 1.5Z" fill="#263238"/>
<path d="M36.16 3.531L36.607 3.159C35.507 1.84 33.852 1 32 1C28.686 1 26 3.686 26 7H26.566C30.071 7 33.466 5.773 36.16 3.531Z" fill="#75C422"/>
<path d="M26.566 7.5H26C25.724 7.5 25.5 7.276 25.5 7C25.5 3.416 28.416 0.5 32 0.5C33.932 0.5 35.751 1.352 36.991 2.838C37.076 2.94 37.117 3.071 37.105 3.204C37.093 3.337 37.029 3.458 36.926 3.543L36.479 3.915C33.701 6.227 30.181 7.5 26.566 7.5ZM26.522 6.5H26.566C29.947 6.5 33.241 5.309 35.84 3.146L35.885 3.108C34.857 2.081 33.467 1.5 32 1.5C29.136 1.5 26.776 3.701 26.522 6.5Z" fill="#263238"/>
<path d="M31.995 18.996C31.828 18.996 31.672 18.913 31.579 18.774L28.575 14.283C28.52 14.201 28.491 14.104 28.491 14.006L28.49 12.186C28.49 12.007 28.586 11.841 28.74 11.752C28.897 11.663 29.087 11.664 29.241 11.753C30.915 12.729 33.065 12.732 34.74 11.764C34.894 11.675 35.086 11.675 35.24 11.764C35.394 11.853 35.49 12.018 35.49 12.197L35.491 13.995C35.491 14.094 35.462 14.19 35.407 14.272L32.411 18.772C32.319 18.912 32.163 18.996 31.995 18.996ZM29.491 13.853L31.994 17.595L34.491 13.845L34.49 13C32.907 13.659 31.07 13.656 29.49 12.991L29.491 13.853Z" fill="#263238"/>
<path d="M21.995 21.5C21.719 21.5 21.495 21.276 21.495 21V19.046C21.495 17.901 22.131 16.873 23.154 16.362L28.767 13.558C29.014 13.436 29.315 13.535 29.438 13.782C29.562 14.029 29.461 14.329 29.214 14.453L23.601 17.257C22.918 17.598 22.495 18.283 22.495 19.047V21C22.495 21.276 22.271 21.5 21.995 21.5Z" fill="#263238"/>
<path d="M31.995 21.5001C31.719 21.5001 31.495 21.2761 31.495 21.0001V18.4961C31.495 18.2201 31.719 17.9961 31.995 17.9961C32.271 17.9961 32.495 18.2201 32.495 18.4961V21.0001C32.495 21.2761 32.271 21.5001 31.995 21.5001Z" fill="#263238"/>
<path d="M42 63.5001C41.724 63.5001 41.5 63.2761 41.5 63.0001V61.0451C41.5 60.2831 41.076 59.5971 40.395 59.2561L34.768 56.4431C34.521 56.3191 34.421 56.0191 34.544 55.7721C34.669 55.5251 34.968 55.4271 35.215 55.5481L40.842 58.3611C41.864 58.8721 42.5 59.9011 42.5 61.0441V63.0001C42.5 63.2761 42.276 63.5001 42 63.5001Z" fill="#263238"/>
<path d="M32 55.5C28.416 55.5 25.5 52.584 25.5 49C25.5 45.416 28.416 42.5 32 42.5C35.584 42.5 38.5 45.416 38.5 49C38.5 52.584 35.584 55.5 32 55.5ZM32 43.5C28.967 43.5 26.5 45.967 26.5 49C26.5 52.033 28.967 54.5 32 54.5C35.032 54.5 37.5 52.033 37.5 49C37.5 45.967 35.032 43.5 32 43.5Z" fill="#263238"/>
<path d="M36.16 45.531L36.607 45.159C35.507 43.84 33.852 43 32 43C28.686 43 26 45.686 26 49H26.566C30.071 49 33.466 47.773 36.16 45.531Z" fill="#75C422"/>
<path d="M26.566 49.5H26C25.724 49.5 25.5 49.276 25.5 49C25.5 45.416 28.416 42.5 32 42.5C33.932 42.5 35.751 43.352 36.991 44.838C37.076 44.94 37.117 45.071 37.105 45.204C37.093 45.337 37.029 45.458 36.926 45.543L36.479 45.915C33.701 48.227 30.181 49.5 26.566 49.5ZM26.522 48.5H26.566C29.947 48.5 33.241 47.309 35.84 45.146L35.885 45.108C34.857 44.081 33.467 43.5 32 43.5C29.136 43.5 26.776 45.701 26.522 48.5Z" fill="#263238"/>
<path d="M31.995 60.996C31.828 60.996 31.672 60.913 31.579 60.774L28.575 56.283C28.52 56.201 28.491 56.104 28.491 56.006L28.49 54.186C28.49 54.007 28.586 53.841 28.74 53.752C28.897 53.663 29.087 53.664 29.241 53.753C30.915 54.729 33.065 54.732 34.74 53.764C34.894 53.675 35.086 53.675 35.24 53.764C35.394 53.853 35.49 54.018 35.49 54.197L35.491 55.995C35.491 56.094 35.462 56.19 35.407 56.272L32.411 60.772C32.319 60.912 32.163 60.996 31.995 60.996ZM29.491 55.853L31.994 59.595L34.491 55.845L34.49 55C32.907 55.658 31.07 55.656 29.49 54.991L29.491 55.853Z" fill="#263238"/>
<path d="M21.995 63.5C21.719 63.5 21.495 63.276 21.495 63V61.046C21.495 59.901 22.131 58.873 23.154 58.362L28.767 55.558C29.014 55.435 29.315 55.535 29.438 55.782C29.562 56.029 29.461 56.329 29.214 56.453L23.601 59.257C22.918 59.598 22.495 60.283 22.495 61.047V63C22.495 63.276 22.271 63.5 21.995 63.5Z" fill="#263238"/>
<path d="M31.995 63.5001C31.719 63.5001 31.495 63.2761 31.495 63.0001V60.4961C31.495 60.2201 31.719 59.9961 31.995 59.9961C32.271 59.9961 32.495 60.2201 32.495 60.4961V63.0001C32.495 63.2761 32.271 63.5001 31.995 63.5001Z" fill="#263238"/>
<path d="M56 3.5H52C51.724 3.5 51.5 3.276 51.5 3C51.5 2.724 51.724 2.5 52 2.5H56C56.276 2.5 56.5 2.724 56.5 3C56.5 3.276 56.276 3.5 56 3.5Z" fill="#263238"/>
<path d="M54 5.5C53.724 5.5 53.5 5.276 53.5 5V1C53.5 0.724 53.724 0.5 54 0.5C54.276 0.5 54.5 0.724 54.5 1V5C54.5 5.276 54.276 5.5 54 5.5Z" fill="#263238"/>
<path d="M63 10H59C58.724 10 58.5 9.776 58.5 9.5C58.5 9.224 58.724 9 59 9H63C63.276 9 63.5 9.224 63.5 9.5C63.5 9.776 63.276 10 63 10Z" fill="#263238"/>
<path d="M61 12C60.724 12 60.5 11.776 60.5 11.5V7.5C60.5 7.224 60.724 7 61 7C61.276 7 61.5 7.224 61.5 7.5V11.5C61.5 11.776 61.276 12 61 12Z" fill="#263238"/>
</g>
<defs>
<clipPath id="clip0_1_7637">
<rect width="64" height="64" fill="white"/>
</clipPath>
</defs>
</svg>
