<svg width="64" height="64" viewBox="0 0 64 64" fill="none" xmlns="http://www.w3.org/2000/svg">
<path d="M57 22C56.724 22 56.5 21.776 56.5 21.5V20.5C56.5 13.883 51.117 8.5 44.5 8.5H41C40.724 8.5 40.5 8.276 40.5 8C40.5 7.724 40.724 7.5 41 7.5H44.5C51.668 7.5 57.5 13.332 57.5 20.5V21.5C57.5 21.776 57.276 22 57 22Z" fill="#263238"/>
<path d="M57 21.9999C56.872 21.9999 56.744 21.9509 56.646 21.8539L53.818 19.0259C53.623 18.8309 53.623 18.5139 53.818 18.3189C54.013 18.1239 54.33 18.1239 54.525 18.3189L57 20.7929L59.475 18.3179C59.67 18.1229 59.987 18.1229 60.182 18.3179C60.377 18.5129 60.377 18.8299 60.182 19.0249L57.354 21.8529C57.256 21.9509 57.128 21.9999 57 21.9999Z" fill="#263238"/>
<path d="M20.829 56.5H17.329C10.161 56.5 4.32898 50.668 4.32898 43.5V42.5C4.32898 42.224 4.55298 42 4.82898 42C5.10498 42 5.32898 42.224 5.32898 42.5V43.5C5.32898 50.117 10.712 55.5 17.329 55.5H20.829C21.105 55.5 21.329 55.724 21.329 56C21.329 56.276 21.105 56.5 20.829 56.5Z" fill="#263238"/>
<path d="M7.65701 45.828C7.52901 45.828 7.40101 45.779 7.30301 45.682L4.82801 43.207L2.35301 45.682C2.15801 45.877 1.84101 45.877 1.64601 45.682C1.45101 45.487 1.45101 45.17 1.64601 44.975L4.47501 42.147C4.67001 41.952 4.98701 41.952 5.18201 42.147L8.01001 44.975C8.20501 45.17 8.20501 45.487 8.01001 45.682C7.91301 45.779 7.78501 45.828 7.65701 45.828Z" fill="#263238"/>
<path d="M24.829 56.5H22.829C22.553 56.5 22.329 56.276 22.329 56C22.329 55.724 22.553 55.5 22.829 55.5H24.829C25.105 55.5 25.329 55.724 25.329 56C25.329 56.276 25.105 56.5 24.829 56.5Z" fill="#263238"/>
<path d="M39 8.5H37C36.724 8.5 36.5 8.276 36.5 8C36.5 7.724 36.724 7.5 37 7.5H39C39.276 7.5 39.5 7.724 39.5 8C39.5 8.276 39.276 8.5 39 8.5Z" fill="#263238"/>
<path d="M5.546 14.419C5.52 14.116 5.5 13.81 5.5 13.5C5.5 7.701 10.201 3 16 3C20.117 3 23.67 5.375 25.391 8.825C26.057 8.615 26.765 8.5 27.5 8.5C31.148 8.5 34.141 11.291 34.467 14.853C36.863 16.106 38.5 18.61 38.5 21.5C38.5 25.642 35.142 29 31 29H23L16 36V29H8C3.858 29 0.5 25.642 0.5 21.5C0.5 18.218 2.611 15.436 5.546 14.419Z" fill="#75C422"/>
<path d="M16 36.5C15.936 36.5 15.871 36.487 15.809 36.462C15.622 36.385 15.5 36.202 15.5 36V29.5H8C3.589 29.5 0 25.911 0 21.5C0 18.228 2.001 15.294 5.02 14.082C5.007 13.89 5 13.696 5 13.5C5 7.435 9.935 2.5 16 2.5C20.052 2.5 23.711 4.686 25.646 8.232C26.251 8.078 26.873 8 27.5 8C31.309 8 34.46 10.793 34.937 14.539C37.45 15.961 39 18.604 39 21.5C39 25.911 35.411 29.5 31 29.5H23.207L16.353 36.354C16.258 36.449 16.13 36.5 16 36.5ZM16 3.5C10.486 3.5 6 7.986 6 13.5C6 13.796 6.02 14.086 6.044 14.376C6.064 14.604 5.926 14.816 5.71 14.892C2.893 15.868 1 18.523 1 21.5C1 25.359 4.14 28.5 8 28.5H16C16.276 28.5 16.5 28.724 16.5 29V34.793L22.646 28.647C22.74 28.553 22.867 28.5 23 28.5H31C34.859 28.5 38 25.359 38 21.5C38 18.888 36.558 16.511 34.236 15.297C34.086 15.218 33.985 15.068 33.969 14.9C33.661 11.536 30.879 9 27.5 9C26.834 9 26.175 9.102 25.542 9.301C25.306 9.374 25.054 9.268 24.944 9.048C23.237 5.626 19.81 3.5 16 3.5Z" fill="#263238"/>
<path d="M16 24.5C9.935 24.5 5 19.565 5 13.5C5 13.224 5.224 13 5.5 13C5.776 13 6 13.224 6 13.5C6 19.014 10.486 23.5 16 23.5C16.276 23.5 16.5 23.724 16.5 24C16.5 24.276 16.276 24.5 16 24.5Z" fill="#263238"/>
<path d="M27.5 23C23.364 23 20 19.636 20 15.5C20 15.224 20.224 15 20.5 15C20.776 15 21 15.224 21 15.5C21 19.084 23.916 22 27.5 22C31.084 22 34 19.084 34 15.5C34 15.224 34.224 15 34.5 15C34.776 15 35 15.224 35 15.5C35 19.636 31.636 23 27.5 23Z" fill="#263238"/>
<path d="M58.454 39.419C58.48 39.116 58.5 38.81 58.5 38.5C58.5 32.701 53.799 28 48 28C43.883 28 40.33 30.375 38.609 33.825C37.943 33.615 37.235 33.5 36.5 33.5C32.852 33.5 29.859 36.291 29.533 39.853C27.137 41.106 25.5 43.61 25.5 46.5C25.5 50.642 28.858 54 33 54H41L48 61V54H56C60.142 54 63.5 50.642 63.5 46.5C63.5 43.218 61.389 40.436 58.454 39.419Z" fill="#40C4FF"/>
<path d="M48 61.5C47.87 61.5 47.742 61.449 47.646 61.354L40.793 54.5H33C28.589 54.5 25 50.911 25 46.5C25 43.604 26.55 40.961 29.064 39.539C29.54 35.792 32.69 33 36.5 33C37.128 33 37.749 33.078 38.354 33.231C40.288 29.686 43.947 27.5 48 27.5C54.065 27.5 59 32.435 59 38.5C59 38.696 58.992 38.89 58.98 39.082C61.998 40.294 64 43.228 64 46.5C64 50.911 60.411 54.5 56 54.5H48.5V61C48.5 61.202 48.378 61.385 48.191 61.462C48.13 61.487 48.064 61.5 48 61.5ZM36.5 34C33.12 34 30.339 36.536 30.031 39.899C30.015 40.068 29.915 40.217 29.764 40.296C27.442 41.51 26 43.887 26 46.5C26 50.359 29.14 53.5 33 53.5H41C41.133 53.5 41.26 53.553 41.354 53.646L47.5 59.792V54C47.5 53.724 47.724 53.5 48 53.5H56C59.859 53.5 63 50.359 63 46.5C63 43.523 61.107 40.868 58.289 39.892C58.073 39.817 57.935 39.604 57.955 39.376C57.98 39.086 58 38.796 58 38.5C58 32.986 53.514 28.5 48 28.5C44.19 28.5 40.763 30.626 39.056 34.048C38.947 34.268 38.693 34.375 38.458 34.301C37.825 34.102 37.166 34 36.5 34Z" fill="#263238"/>
<path d="M48 49.5C47.724 49.5 47.5 49.276 47.5 49C47.5 48.724 47.724 48.5 48 48.5C53.514 48.5 58 44.014 58 38.5C58 38.224 58.224 38 58.5 38C58.776 38 59 38.224 59 38.5C59 44.565 54.065 49.5 48 49.5Z" fill="#263238"/>
<path d="M36.5 48C32.364 48 29 44.636 29 40.5C29 40.224 29.224 40 29.5 40C29.776 40 30 40.224 30 40.5C30 44.084 32.916 47 36.5 47C40.084 47 43 44.084 43 40.5C43 40.224 43.224 40 43.5 40C43.776 40 44 40.224 44 40.5C44 44.636 40.636 48 36.5 48Z" fill="#263238"/>
</svg>
