<svg width="152" height="152" viewBox="0 0 152 152" fill="none" xmlns="http://www.w3.org/2000/svg">
<path d="M0.566352 142.349C2.50414 154.716 19.0951 151.668 27.9567 151.668C44.3953 151.668 60.8556 151.668 77.2941 151.668C83.6083 151.668 89.9224 151.668 96.2366 151.668C100.025 151.668 104.075 152.103 107.45 149.948C111.195 147.553 112.501 143.568 112.501 139.322C112.501 136.731 108.451 136.71 108.451 139.322C108.451 146.66 103.269 147.618 97.6518 147.618C92.3174 147.618 86.9831 147.618 81.6705 147.618C66.6254 147.618 51.5803 147.618 36.5352 147.618C30.4606 147.618 24.3859 147.618 18.2895 147.618C15.5461 147.618 11.9971 148.162 9.29726 147.313C1.89447 144.983 4.46368 130.069 4.46368 124.321C4.46368 95.1016 4.46368 65.8824 4.46368 36.6849C4.46368 28.4112 4.07177 20.0068 4.46368 11.7331C4.94269 1.63043 18.6378 4.22141 25.627 4.22141C42.2397 4.22141 58.8742 4.22141 75.487 4.22141C82.2366 4.22141 88.9862 4.22141 95.7358 4.22141C101.201 4.22141 108.473 3.61178 108.473 11.6024C108.473 14.1934 112.523 14.2152 112.523 11.6024C112.523 -2.31046 96.6067 0.171654 87.3315 0.171654C71.0235 0.171654 54.7156 0.171654 38.4077 0.171654C31.6146 0.171654 24.8432 0.171654 18.05 0.171654C14.7405 0.171654 10.8432 -0.285583 7.68609 0.846609C-1.76336 4.22141 0.479228 16.632 0.479228 24.492C0.479228 55.9104 0.479228 87.3287 0.479228 118.769C0.435682 126.368 -0.631159 134.794 0.566352 142.349Z" fill="#285596"/>
<path d="M82.6938 22.9026C85.2847 22.9026 85.3065 18.8746 82.6938 18.8528C76.0966 18.8311 69.5211 18.8093 62.9239 18.7875C60.333 18.7875 60.3112 22.8155 62.9239 22.8373C69.5211 22.859 76.1183 22.8808 82.6938 22.9026Z" fill="#285596"/>
<path d="M58.5041 22.0534C59.2226 21.2914 59.2008 20.0939 58.4388 19.3754C57.6767 18.6569 56.4792 18.6786 55.7607 19.4407C55.0422 20.2027 55.064 21.4003 55.826 22.1188C56.5881 22.8373 57.7855 22.7937 58.5041 22.0534Z" fill="#285596"/>
<path d="M62.9239 33.8326C69.7824 33.8544 76.6409 33.8762 83.4776 33.8979C86.0686 33.8979 86.0904 29.8699 83.4776 29.8482C76.6192 29.8264 69.7606 29.8046 62.9239 29.7828C60.333 29.7828 60.333 33.8326 62.9239 33.8326Z" fill="#285596"/>
<path d="M55.826 33.1141C56.5881 33.8326 57.7855 33.8108 58.504 33.0487C59.2225 32.2867 59.2008 31.0892 58.4388 30.3707C57.6767 29.6522 56.4792 29.6739 55.7607 30.436C55.0422 31.198 55.0857 32.3738 55.826 33.1141Z" fill="#285596"/>
<path d="M62.9239 44.7844C69.7824 44.8062 76.6409 44.8279 83.4776 44.8497C86.0686 44.8497 86.0904 40.8217 83.4776 40.7999C76.6192 40.7781 69.7606 40.7564 62.9239 40.7346C60.333 40.7346 60.333 44.7844 62.9239 44.7844Z" fill="#285596"/>
<path d="M55.826 44.0658C56.5881 44.7844 57.7855 44.7626 58.504 44.0005C59.2225 43.2385 59.2008 42.041 58.4388 41.3225C57.6767 40.604 56.4792 40.6257 55.7607 41.3878C55.0422 42.1498 55.0857 43.3473 55.826 44.0658Z" fill="#285596"/>
<path d="M37.3843 18.0908H22.4481C19.0515 18.0908 16.3082 20.8559 16.3082 24.2307V39.1669C16.3082 42.5635 19.0733 45.3069 22.4481 45.3069H37.3843C40.7809 45.3069 43.5243 42.5417 43.5243 39.1669V24.2307C43.5461 20.8559 40.7809 18.0908 37.3843 18.0908ZM39.4963 39.1887C39.4963 40.3427 38.5601 41.3007 37.3843 41.3007H22.4481C21.2942 41.3007 20.3362 40.3645 20.3362 39.1887V24.2525C20.3362 23.0985 21.2724 22.1405 22.4481 22.1405H37.3843C38.5383 22.1405 39.4963 23.0767 39.4963 24.2525V39.1887Z" fill="#285596"/>
<path d="M46.1153 125.497C46.6378 125.649 47.1821 125.606 47.6394 125.366C48.1184 125.127 48.4667 124.691 48.6191 124.19C49.1417 122.514 49.403 120.794 49.403 119.052C49.403 114.523 47.6394 110.256 44.417 107.033C39.91 102.526 33.3346 100.915 27.2381 102.831C26.1713 103.158 25.6052 104.29 25.9318 105.357C26.2584 106.424 27.3905 107.011 28.4574 106.663C33.1168 105.204 38.1464 106.424 41.5865 109.864C45.0266 113.304 46.2677 118.333 44.7871 122.993C44.4823 124.016 45.0702 125.148 46.1153 125.497Z" fill="#285596"/>
<path d="M20.3579 131.092C24.8649 135.599 31.4403 137.21 37.5368 135.294C38.3859 135.033 38.952 134.249 38.952 133.378C38.952 133.182 38.9302 132.965 38.8649 132.769C38.7125 132.246 38.3423 131.833 37.8851 131.593C37.4061 131.354 36.8618 131.288 36.361 131.462C31.7016 132.921 26.672 131.702 23.2319 128.262C19.7918 124.822 18.5507 119.792 20.0313 115.133C20.3579 114.088 19.77 112.934 18.7249 112.607C17.658 112.28 16.5259 112.868 16.1993 113.913C14.2397 120.01 15.8509 126.585 20.3579 131.092Z" fill="#285596"/>
<path d="M42.3921 119.052C42.3921 116.396 41.347 113.87 39.4745 111.997C37.5803 110.103 35.0764 109.08 32.4201 109.08C29.7421 109.08 27.2381 110.125 25.3657 111.997C23.4714 113.892 22.4481 116.396 22.4481 119.052C22.4481 121.708 23.4932 124.234 25.3657 126.106C27.2599 128 29.7638 129.024 32.4201 129.024C35.0982 129.024 37.6021 127.979 39.4745 126.106C41.347 124.212 42.3921 121.708 42.3921 119.052ZM36.6223 123.276C35.4901 124.408 33.9878 125.018 32.3983 125.018C30.8089 125.018 29.3066 124.386 28.1744 123.276C27.0422 122.144 26.4326 120.641 26.4326 119.052C26.4326 117.462 27.064 115.96 28.1744 114.828C29.3066 113.696 30.8089 113.086 32.3983 113.086C33.9878 113.086 35.4901 113.717 36.6223 114.828C37.7545 115.96 38.3641 117.462 38.3641 119.052C38.3641 120.641 37.7545 122.144 36.6223 123.276Z" fill="#285596"/>
<path d="M21.8167 110.43C22.361 110.43 22.8618 110.212 23.2319 109.82C23.602 109.45 23.798 108.949 23.798 108.427C23.798 107.882 23.5803 107.36 23.1884 106.968C22.7965 106.598 22.2957 106.402 21.7514 106.402C21.2071 106.402 20.7063 106.619 20.3361 107.011C19.5741 107.817 19.5959 109.08 20.3797 109.864C20.7716 110.256 21.2723 110.451 21.8167 110.43Z" fill="#285596"/>
<path d="M43.0236 131.68C43.5461 131.68 44.0687 131.462 44.4388 131.092C44.8089 130.722 45.0266 130.2 45.0266 129.677C45.0266 129.154 44.8089 128.632 44.4388 128.262C44.0687 127.892 43.5461 127.674 43.0236 127.674C42.501 127.674 41.9785 127.892 41.6083 128.262C40.868 129.002 40.868 130.352 41.6083 131.114C41.9785 131.462 42.501 131.68 43.0236 131.68Z" fill="#285596"/>
<path d="M86.3516 84.803C63.9473 84.7812 41.5212 84.7594 19.1168 84.7377C16.5258 84.7377 16.5041 88.7657 19.1168 88.7875C41.5212 88.8092 63.9473 88.831 86.3516 88.8527C88.9426 88.8527 88.9644 84.803 86.3516 84.803Z" fill="#285596"/>
<path d="M18.333 73.7424C15.742 73.7424 15.7202 77.7704 18.333 77.7922C40.9986 77.8139 63.686 77.8357 86.3517 77.8574C88.9426 77.8574 88.9644 73.8295 86.3517 73.8077C63.686 73.7859 40.9986 73.7641 18.333 73.7424Z" fill="#285596"/>
<path d="M18.333 66.8186C40.9986 66.8403 63.686 66.8621 86.3516 66.8839C88.9426 66.8839 88.9644 62.8559 86.3516 62.8341C63.686 62.8124 40.9986 62.7906 18.333 62.7688C15.7202 62.7906 15.7202 66.8186 18.333 66.8186Z" fill="#285596"/>
<path d="M82.1277 118.943C82.9986 118.943 83.8695 118.943 84.7404 118.943C85.4372 125.932 89.7264 131.397 97.4776 131.702C103.53 131.941 109.649 131.702 115.702 131.702C121.733 131.702 127.807 131.941 133.838 131.702C141.633 131.397 145.988 125.997 146.663 118.943C147.534 118.943 148.405 118.943 149.275 118.943C150.364 118.943 151.3 118.007 151.3 116.918C151.3 107.708 146.249 100.458 136.451 100.153C136.429 100.153 136.408 100.153 136.386 100.153V99.478C136.386 94.6444 132.837 90.6164 128.221 89.8543L137.083 45.4811C138.694 37.4251 136.037 29.2603 130.159 24.2307C126.131 20.7906 120.992 18.8746 115.702 18.8746C110.389 18.8746 105.251 20.7688 101.244 24.2307C95.3656 29.2821 92.7093 37.4251 94.3205 45.4811L103.204 89.8543C98.588 90.6164 95.039 94.6444 95.039 99.478V100.153C95.0173 100.153 94.9955 100.153 94.9737 100.153C85.1759 100.414 80.1246 107.708 80.1246 116.918C80.1028 118.029 81.0173 118.943 82.1277 118.943ZM103.857 27.2789C107.145 24.4485 111.347 22.9026 115.702 22.9026C120.056 22.9026 124.237 24.4485 127.524 27.2789C132.293 31.3723 134.448 38.0348 133.12 44.6755L124.128 89.7019H107.275L98.2614 44.6755C96.9551 38.0566 99.0888 31.394 103.857 27.2789ZM99.067 99.478C99.067 96.3209 101.636 93.7517 104.793 93.7517H126.61C129.767 93.7517 132.336 96.3209 132.336 99.478V100.088C126.784 100.022 121.232 100.153 115.702 100.153C110.171 100.153 104.619 100.044 99.067 100.088V99.478ZM96.9986 104.203H134.121C141.59 104.203 146.38 107.708 147.12 114.915C146.314 114.915 145.53 114.915 144.725 114.915C138.803 114.915 132.859 114.915 126.936 114.915C126.457 114.915 125.978 114.915 125.478 114.915C122.887 114.915 122.865 118.965 125.478 118.965C125.957 118.965 126.436 118.965 126.936 118.965C132.14 118.965 137.366 118.965 142.569 118.965C141.851 124.669 138.041 127.674 131.922 127.674C126.501 127.674 121.079 127.674 115.658 127.674C110.324 127.674 104.989 127.674 99.6549 127.674C93.4932 127.674 89.487 124.822 88.7467 118.965C94.5165 118.965 100.286 118.965 106.056 118.965C106.426 118.965 106.775 118.965 107.145 118.965C109.736 118.965 109.758 114.915 107.145 114.915C106.775 114.915 106.426 114.915 106.056 114.915C99.5678 114.915 93.0795 114.915 86.6129 114.915C85.8073 114.915 85.0235 114.915 84.2179 114.915C84.98 107.882 89.6176 104.203 96.9986 104.203Z" fill="#285596"/>
<path d="M117.966 118.224C118.684 117.462 118.663 116.265 117.901 115.546C117.139 114.828 115.941 114.85 115.223 115.612C114.504 116.374 114.526 117.571 115.288 118.29C116.05 119.008 117.247 118.987 117.966 118.224Z" fill="#285596"/>
<path d="M39.4964 39.1887C39.4964 40.3427 38.5601 41.3007 37.3843 41.3007H22.4481C21.2942 41.3007 20.3362 40.3645 20.3362 39.1887V24.2525C20.3362 23.0985 21.2724 22.1405 22.4481 22.1405H37.3843C38.5383 22.1405 39.4964 23.0767 39.4964 24.2525V39.1887Z" fill="#75C422"/>
<path d="M36.6222 123.276C35.4901 124.408 33.9877 125.018 32.3983 125.018C30.8089 125.018 29.3066 124.386 28.1744 123.276C27.0422 122.144 26.4326 120.641 26.4326 119.052C26.4326 117.462 27.064 115.96 28.1744 114.828C29.3066 113.696 30.8089 113.086 32.3983 113.086C33.9877 113.086 35.4901 113.717 36.6222 114.828C37.7544 115.96 38.3641 117.462 38.3641 119.052C38.3641 120.641 37.7544 122.144 36.6222 123.276Z" fill="#BFDCFF"/>
<path d="M103.857 27.2789C107.145 24.4485 111.347 22.9026 115.702 22.9026C120.056 22.9026 124.237 24.4485 127.524 27.2789C132.293 31.3723 134.448 38.0348 133.12 44.6755L124.128 89.7019H107.275L98.2614 44.6755C96.9551 38.0565 99.0888 31.394 103.857 27.2789Z" fill="#BFDCFF"/>
<path d="M99.067 99.4779C99.067 96.3209 101.636 93.7516 104.793 93.7516H126.61C129.767 93.7516 132.336 96.3209 132.336 99.4779V100.088C126.784 100.022 121.232 100.153 115.702 100.153C110.171 100.153 104.619 100.044 99.067 100.088V99.4779Z" fill="#75C422"/>
</svg>
