<svg width="152" height="152" viewBox="0 0 152 152" fill="none" xmlns="http://www.w3.org/2000/svg">
<path d="M141.375 11.8451H90.1488V3.23444C90.1488 1.46425 88.7065 0 86.9144 0H64.7542C62.984 0 61.5197 1.44239 61.5197 3.23444V11.8451H10.2934C4.61127 11.8451 0 16.4563 0 22.1384V99.2839C0 104.966 4.61127 109.577 10.2934 109.577H24.2145C24.2145 109.665 24.1927 109.774 24.1927 109.861V116.112C24.1927 118.494 26.1377 120.461 28.5417 120.461H62.0442C57.3674 129.945 52.6906 139.43 47.992 148.915C46.8337 151.253 50.3304 153.308 51.4887 150.969C56.384 141.069 61.2575 131.169 66.1529 121.247C66.284 120.985 66.3496 120.701 66.3714 120.461H85.2754C85.2972 120.723 85.3628 120.985 85.4939 121.247C90.3893 131.147 95.2628 141.047 100.158 150.969C101.316 153.308 104.813 151.253 103.655 148.915C98.978 139.43 94.3011 129.945 89.6025 120.461H123.105C125.487 120.461 127.454 118.516 127.454 116.112V109.861C127.454 109.774 127.432 109.665 127.432 109.577H141.353C147.036 109.577 151.647 104.966 151.647 99.2839V22.1384C151.669 16.4563 147.057 11.8451 141.375 11.8451ZM65.5628 4.06491H86.0621V11.8451H65.5628V4.06491ZM123.411 109.883V116.134C123.411 116.287 123.28 116.418 123.127 116.418H28.5198C28.3668 116.418 28.2357 116.287 28.2357 116.134V109.883C28.2357 109.73 28.3668 109.599 28.5198 109.599H123.127C123.28 109.599 123.411 109.73 123.411 109.883ZM147.626 99.3058C147.626 102.759 144.828 105.556 141.375 105.556H123.127H28.5198H10.2715C6.81853 105.556 4.02122 102.759 4.02122 99.3058V22.1603C4.02122 18.7073 6.81853 15.9099 10.2715 15.9099H64.7324H86.8926H141.353C144.806 15.9099 147.604 18.7073 147.604 22.1603V99.3058H147.626Z" fill="#285596"/>
<path d="M73.9767 66.7866H60.7767C58.5257 66.7866 56.6682 68.6224 56.6682 70.8952V89.2528C56.6682 91.5038 58.5039 93.3614 60.7767 93.3614H73.9767C76.2276 93.3614 78.0853 91.5257 78.0853 89.2528V70.8952C78.0853 68.6442 76.2276 66.7866 73.9767 66.7866ZM74.0204 89.2528C74.0204 89.2747 73.9985 89.2965 73.9767 89.2965L60.733 89.2528L60.7767 70.8515L74.0204 70.8952V89.2528Z" fill="#285596"/>
<path d="M137.507 49.0191H124.329C122.056 49.0191 120.22 50.8767 120.22 53.1277V89.2309C120.22 91.5038 122.078 93.3396 124.329 93.3396H137.507C139.78 93.3396 141.616 91.4819 141.616 89.2309V53.1277C141.616 50.8549 139.78 49.0191 137.507 49.0191ZM137.573 89.2309C137.573 89.2528 137.551 89.2965 137.507 89.2965L124.263 89.2309L124.329 53.0621L137.573 53.1277V89.2309Z" fill="#285596"/>
<path d="M109.818 63.1588C109.818 63.0933 109.818 63.0496 109.818 62.984C109.818 62.9403 109.796 62.8966 109.796 62.831C109.621 59.8807 107.195 57.5423 104.201 57.5423H93.3177C90.6078 57.5423 88.4005 59.7496 88.4005 62.4595V88.4443C88.4005 91.1542 90.6078 93.3615 93.3177 93.3615H104.9C107.61 93.3615 109.818 91.1542 109.818 88.4443V78.3475C109.818 75.7469 105.753 75.725 105.753 78.3475C105.753 80.7078 105.753 83.0899 105.753 85.4502V88.4443C105.753 88.9032 105.359 89.2965 104.9 89.2965H93.3177C92.8588 89.2965 92.4654 88.9032 92.4654 88.4443V62.4595C92.4654 62.0006 92.8588 61.6072 93.3177 61.6072H104.201C105.053 61.6072 105.753 62.3065 105.753 63.1588C105.753 64.1204 105.753 65.082 105.753 66.0436C105.753 67.1145 106.693 68.1197 107.785 68.076C108.878 68.0323 109.818 67.1801 109.818 66.0436C109.818 65.082 109.818 64.1204 109.818 63.1588Z" fill="#285596"/>
<path d="M107.785 69.9992C106.736 69.9992 105.884 70.8515 105.884 71.9005C105.884 72.9495 106.736 73.8019 107.785 73.8019C108.834 73.8019 109.687 72.9495 109.687 71.9005C109.687 70.8515 108.834 69.9992 107.785 69.9992Z" fill="#285596"/>
<path d="M54.4609 36.8244C53.3244 34.486 49.8278 36.5403 50.9642 38.8787C55.4224 48.1012 52.7343 59.4436 43.7085 64.7979C35.9066 69.431 25.5476 68.0979 19.341 61.3886C13.3311 54.8542 12.3696 44.8886 17.1993 37.3926C23.0563 28.3013 34.8139 26.2033 43.9708 31.4046C46.2437 32.694 48.2979 29.1973 46.0251 27.9079C35.3384 21.8543 21.7887 24.0834 14.4676 34.2456C7.91129 43.337 8.82916 56.1217 16.4781 64.2515C24.1271 72.3813 36.9337 73.9548 46.331 67.9667C56.9303 61.1919 59.7933 47.8608 54.4609 36.8244Z" fill="#285596"/>
<path d="M49.347 35.1198C50.396 35.1198 51.2482 34.2675 51.2482 33.2184C51.2482 32.1694 50.396 31.3171 49.347 31.3171C48.298 31.3171 47.4456 32.1694 47.4456 33.2184C47.4456 34.2675 48.298 35.1198 49.347 35.1198Z" fill="#285596"/>
<path d="M33.6556 41.3265C35.1854 41.3265 36.4966 42.4191 36.4966 43.7085C36.4966 44.8013 37.3927 45.6973 38.4854 45.6973C39.5781 45.6973 40.4741 44.8013 40.4741 43.7085C40.4741 41.0642 38.7039 38.6821 36.0595 37.7424L35.6881 37.6112L35.6662 37.2178C35.6006 36.1688 34.7264 35.3602 33.6774 35.3602C32.6284 35.3602 31.7542 36.1688 31.6887 37.2178L31.6668 37.6112L31.2953 37.7424C28.651 38.6603 26.8807 41.0642 26.8807 43.7085C26.8807 47.2271 29.9404 50.0682 33.6993 50.0682C35.2291 50.0682 36.5404 51.1608 36.5404 52.4503C36.5404 53.7397 35.251 54.8324 33.6993 54.8324C32.1695 54.8324 30.8583 53.7397 30.8583 52.4503C30.8583 51.3575 29.9622 50.4615 28.8695 50.4615C27.7768 50.4615 26.8807 51.3575 26.8807 52.4503C26.8807 55.0946 28.6728 57.4986 31.3172 58.4165L31.6668 58.5476L31.7105 58.9191C31.8417 59.9026 32.694 60.6456 33.6774 60.6456C34.6609 60.6456 35.5132 59.9026 35.6443 58.9191L35.6881 58.5476L36.0377 58.4165C38.682 57.4986 40.4741 55.0946 40.4741 52.4503C40.4741 48.9317 37.4145 46.0907 33.6556 46.0907C32.1258 46.0907 30.8145 44.9979 30.8145 43.7085C30.8145 42.4191 32.1039 41.3265 33.6556 41.3265Z" fill="#285596"/>
<path d="M81.8223 34.945C88.4442 34.9668 95.0442 34.9887 101.666 35.0106C104.267 35.0106 104.289 30.9675 101.666 30.9456C95.0442 30.9238 88.4442 30.9019 81.8223 30.8801C79.1998 30.8801 79.1998 34.9231 81.8223 34.945Z" fill="#285596"/>
<path d="M77.3641 34.1364C78.0853 33.3715 78.0635 32.1695 77.2986 31.4483C76.5337 30.7271 75.3317 30.749 74.6105 31.5139C73.8893 32.2788 73.9112 33.4807 74.6761 34.2019C75.441 34.9231 76.6429 34.9013 77.3641 34.1364Z" fill="#285596"/>
<path d="M107.523 42.0039C98.9561 41.9821 90.3892 41.9602 81.8223 41.9384C79.2217 41.9384 79.1998 45.9814 81.8223 46.0032C90.3892 46.0251 98.9561 46.0469 107.523 46.0688C110.145 46.0469 110.145 42.0039 107.523 42.0039Z" fill="#285596"/>
<path d="M77.3641 45.1728C78.0853 44.4079 78.0635 43.2059 77.2986 42.4848C76.5337 41.7636 75.3317 41.7854 74.6105 42.5503C73.8893 43.3152 73.9112 44.5172 74.6761 45.2384C75.441 45.9596 76.6429 45.9377 77.3641 45.1728Z" fill="#285596"/>
<path d="M86.0621 4.06491H65.5628V11.845H86.0621V4.06491Z" fill="#BFDCFF"/>
<path d="M123.411 109.883V116.134C123.411 116.287 123.28 116.418 123.127 116.418H28.5198C28.3668 116.418 28.2357 116.287 28.2357 116.134V109.883C28.2357 109.73 28.3668 109.599 28.5198 109.599H123.127C123.28 109.599 123.411 109.73 123.411 109.883Z" fill="#75C422"/>
<path d="M74.0204 89.2528C74.0204 89.2747 73.9985 89.2965 73.9767 89.2965L60.733 89.2528L60.7767 70.8516L74.0204 70.8953V89.2528Z" fill="#75C422"/>
<path d="M137.573 89.2309C137.573 89.2528 137.551 89.2965 137.507 89.2965L124.263 89.2309L124.329 53.0621L137.573 53.1277V89.2309Z" fill="#BFDCFF"/>
</svg>
