<svg width="152" height="152" viewBox="0 0 152 152" fill="none" xmlns="http://www.w3.org/2000/svg">
<path d="M93.5676 106.924C94.1138 109.284 93.0651 111.513 92.4096 113.785C91.5793 116.735 90.749 119.684 89.9187 122.634C89.4162 124.404 88.8918 126.043 88.717 127.856C88.5203 129.997 89.1977 132.838 87.7556 134.651C87.0782 135.504 86.0513 135.831 84.937 135.962H82.0091V135.984C81.7688 135.984 81.5503 135.962 81.3318 135.962C78.7317 135.962 78.7098 140.026 81.3318 140.026C82.1621 140.026 82.9924 140.048 83.8226 140.026H87.406C88.0615 140.026 88.6296 140.595 88.6296 141.25V146.691C88.6296 147.346 88.0615 147.914 87.406 147.914H64.5294C63.8739 147.914 63.3058 147.346 63.3058 146.691V141.25C63.3058 141.184 63.3058 141.119 63.3276 141.053C63.415 140.463 63.9394 140.005 64.5512 140.005H69.0523C69.3145 140.005 69.5985 140.005 69.8607 140.005C72.4608 140.005 72.4827 135.941 69.8607 135.941C69.7952 135.941 69.7296 135.941 69.6641 135.941H67.1295C65.6874 135.831 64.3983 135.394 63.6117 133.777C62.6722 131.855 63.4806 129.189 63.1966 127.157C62.9999 125.627 62.41 124.098 61.9948 122.612C60.7494 118.133 57.9745 112.408 58.193 107.733C59.2636 103.079 62.2133 101.243 65.7967 100.566C68.5934 106.225 71.412 111.884 74.2088 117.543C74.8643 118.876 77.0492 118.876 77.7047 117.543C80.5233 111.84 83.3419 106.159 86.1605 100.457C89.6565 101.156 92.6062 102.816 93.5676 106.924Z" fill="#BFDCFF"/>
<path d="M59.4166 40.2827C60.0065 41.0256 61.099 41.9432 62.5192 42.8391C65.6656 45.0022 69.2708 46.335 73.0071 46.8157C73.9684 46.9687 74.9517 47.0561 75.9349 47.0779C76.0223 47.0779 76.1316 47.0779 76.219 47.0779C77.7921 47.0779 79.3653 46.8594 80.8729 46.5098C83.5823 45.9417 86.2261 44.9148 88.6514 43.3853C88.6733 43.3635 88.6951 43.3416 88.7388 43.3416C90.9019 42.0525 92.4533 40.7197 93.0214 39.8675C93.0651 39.802 93.1087 39.7146 93.1524 39.649C99.9477 32.3949 101.281 21.5357 96.8013 12.2714C95.6652 9.93348 92.1692 11.9873 93.3054 14.3253C96.6047 21.1205 95.9929 29.0738 91.8196 34.9076C89.6784 31.805 86.5538 29.5326 82.7739 28.309C84.2596 26.6703 85.1773 24.5072 85.1773 22.1256C85.1773 17.0565 81.0477 12.9269 75.9786 12.9269C70.9095 12.9269 66.7799 17.0565 66.7799 22.1256C66.7799 24.5509 67.7194 26.7577 69.2708 28.3964C65.6219 29.6856 62.4974 32.0235 60.3124 35.1261C55.5492 28.6586 55.1122 19.6784 59.5477 12.8176C65.4034 3.72817 77.1585 1.63061 86.3135 6.83083C88.5859 8.11996 90.6397 4.62401 88.3674 3.33488C77.6829 -2.71748 64.1361 -0.488812 56.8165 9.67128C50.2616 18.7607 51.1792 31.5428 58.8266 39.6709C59.0014 39.8894 59.2199 40.086 59.4166 40.2827ZM70.8221 22.1256C70.8221 19.2851 73.1382 16.9909 75.9568 16.9909C78.7754 16.9909 81.0914 19.307 81.0914 22.1256C81.0914 24.966 78.7754 27.2603 75.9568 27.2603C73.1382 27.2603 70.8221 24.966 70.8221 22.1256ZM75.9568 31.3243C81.8343 31.3243 86.5102 33.7496 88.9792 38.054C88.127 38.8187 87.1656 39.5179 86.1387 40.1516C84.7185 40.9382 82.9924 41.7466 81.0914 42.2928C78.6443 42.9483 76.1097 43.1231 73.6189 42.8172C70.254 42.3147 67.1295 40.9163 65.0538 39.6927C64.3764 39.2557 63.7428 38.775 63.131 38.2288C65.7093 33.8807 70.407 31.3243 75.9568 31.3243Z" fill="#285596"/>
<path d="M91.6448 10.5671C92.6947 10.5671 93.5457 9.71606 93.5457 8.66621C93.5457 7.61636 92.6947 6.76529 91.6448 6.76529C90.595 6.76529 89.7439 7.61636 89.7439 8.66621C89.7439 9.71606 90.595 10.5671 91.6448 10.5671Z" fill="#285596"/>
<path d="M6.97737 83.4794C7.56731 84.2223 8.65979 85.14 10.1019 86.0359C13.2482 88.1771 16.8534 89.5318 20.5679 90.0125C21.5292 90.1654 22.5125 90.2528 23.4957 90.2747C23.5831 90.2747 23.6924 90.2747 23.7798 90.2747C25.3529 90.2747 26.9261 90.0562 28.4337 89.7066C31.165 89.1385 33.8088 88.1116 36.2122 86.5821C36.2341 86.5602 36.2559 86.5384 36.2996 86.5165C38.4627 85.2274 40.0141 83.9164 40.5822 83.0643C40.6259 82.9769 40.6695 82.9113 40.7132 82.8458C47.5085 75.5917 48.8413 64.7324 44.3621 55.49C43.226 53.1521 39.73 55.206 40.8662 57.5439C44.1655 64.3391 43.5537 72.2924 39.3804 78.1263C37.2392 75.0236 34.1146 72.7513 30.3347 71.5277C31.8204 69.889 32.7381 67.7258 32.7381 65.3442C32.7381 60.2751 28.6085 56.1455 23.5394 56.1455C18.4703 56.1455 14.3407 60.2751 14.3407 65.3442C14.3407 67.7695 15.2802 69.9763 16.8316 71.6151C13.1827 72.9042 10.0582 75.2421 7.8732 78.3448C3.10998 71.8773 2.67298 62.8971 7.10846 56.0363C12.9642 46.9468 24.7193 44.8492 33.8743 50.0495C36.1467 51.3386 38.2005 47.8426 35.9282 46.5535C25.2437 40.5011 11.6969 42.7298 4.37726 52.8899C-2.17764 61.9794 -1.25996 74.7614 6.38743 82.8895C6.54038 83.0861 6.75887 83.2609 6.97737 83.4794ZM18.361 65.3224C18.361 62.4819 20.6771 60.1877 23.4957 60.1877C26.3362 60.1877 28.6304 62.5038 28.6304 65.3224C28.6304 68.141 26.3143 70.457 23.4957 70.457C20.6771 70.457 18.361 68.141 18.361 65.3224ZM23.4957 74.4992C29.3733 74.4992 34.0491 76.9464 36.5181 81.2289C35.666 81.9718 34.7483 82.671 33.7432 83.2828C32.2356 84.1349 30.3565 84.9871 28.3026 85.5333C25.9647 86.1233 23.5394 86.2762 21.1578 85.9921C17.793 85.4896 14.6684 84.0912 12.5927 82.8676C11.9154 82.4307 11.2818 81.9281 10.67 81.4037C13.2482 77.0556 17.9677 74.4992 23.4957 74.4992Z" fill="#285596"/>
<path d="M39.1838 53.7639C40.2336 53.7639 41.0847 52.9128 41.0847 51.863C41.0847 50.8131 40.2336 49.962 39.1838 49.962C38.1339 49.962 37.2829 50.8131 37.2829 51.863C37.2829 52.9128 38.1339 53.7639 39.1838 53.7639Z" fill="#285596"/>
<path d="M145.723 57.5002C149.022 64.2954 148.41 72.2487 144.259 78.0826C142.118 74.9799 138.993 72.7076 135.213 71.484C136.699 69.8452 137.617 67.6821 137.617 65.3005C137.617 60.2314 133.487 56.1018 128.418 56.1018C123.349 56.1018 119.219 60.2314 119.219 65.3005C119.219 67.7258 120.159 69.9326 121.71 71.5714C118.061 72.8605 114.937 75.1984 112.752 78.3011C107.988 71.8336 107.551 62.8534 111.987 55.9926C117.843 46.9031 129.598 44.8055 138.753 50.0058C141.025 51.2949 143.079 47.7989 140.807 46.5098C130.144 40.4574 116.575 42.6861 109.256 52.8462C102.701 61.9357 103.618 74.7177 111.266 82.8458C111.462 83.0643 111.681 83.2391 111.899 83.4576C112.489 84.2005 113.582 85.1182 115.002 86.014C118.148 88.1553 121.754 89.5099 125.468 89.9906C126.429 90.1436 127.413 90.231 128.396 90.2528C128.483 90.2528 128.593 90.2528 128.68 90.2528C130.253 90.2528 131.826 90.0343 133.334 89.6847C136.065 89.1167 138.709 88.0897 141.112 86.5602C141.134 86.5384 141.156 86.5165 141.2 86.4947C143.363 85.2056 144.914 83.8946 145.482 83.0424C145.526 82.955 145.57 82.8895 145.613 82.8239C152.409 75.5699 153.742 64.7106 149.262 55.4682C148.083 53.1084 144.587 55.1623 145.723 57.5002ZM123.283 65.3224C123.283 62.4819 125.599 60.1877 128.418 60.1877C131.236 60.1877 133.552 62.5038 133.552 65.3224C133.552 68.141 131.236 70.457 128.418 70.457C125.599 70.457 123.283 68.141 123.283 65.3224ZM128.418 74.4992C134.295 74.4992 138.971 76.9464 141.44 81.2289C140.61 81.9718 139.67 82.6491 138.687 83.2609C137.18 84.1131 135.257 84.9652 133.203 85.5333C130.865 86.1014 128.462 86.2543 126.102 85.9703C122.737 85.4678 119.612 84.0694 117.537 82.8458C116.859 82.4088 116.226 81.9063 115.614 81.3819C118.17 77.0556 122.868 74.4992 128.418 74.4992Z" fill="#285596"/>
<path d="M144.106 53.7421C145.155 53.7421 146.007 52.89 146.007 51.8412C146.007 50.7924 145.155 49.9402 144.106 49.9402C143.057 49.9402 142.205 50.7924 142.205 51.8412C142.205 52.9118 143.057 53.7421 144.106 53.7421Z" fill="#285596"/>
<path d="M77.9888 64.8417C77.9888 60.2314 77.9888 55.6211 77.9888 51.0108C77.9888 48.4107 73.9247 48.3889 73.9247 51.0108C73.9247 55.6211 73.9247 60.2314 73.9247 64.8417C73.9247 67.4418 77.9888 67.4418 77.9888 64.8417Z" fill="#285596"/>
<path d="M104.099 82.6492C100.844 85.9048 97.5879 89.1604 94.3323 92.416C92.4751 94.2732 95.3593 97.1355 97.1946 95.2783C100.45 92.0227 103.706 88.7671 106.961 85.5115C108.819 83.6761 105.934 80.8138 104.099 82.6492Z" fill="#285596"/>
<path d="M44.7773 85.5333C48.0329 88.7889 51.2885 92.0445 54.5441 95.3001C56.4013 97.1573 59.2636 94.2732 57.4064 92.4378C54.1508 89.1822 50.8952 85.9266 47.6396 82.671C45.8042 80.8138 42.9201 83.6761 44.7773 85.5333Z" fill="#285596"/>
<path d="M54.2382 106.968C54.2164 107.077 54.2164 107.164 54.2164 107.274C54.1945 107.361 54.1727 107.427 54.1727 107.514C53.7357 113.763 57.6468 120.384 58.8703 126.48C59.504 129.691 58.7174 133.253 60.225 136.312C60.4435 136.749 60.6839 137.12 60.9461 137.448C60.1158 138.235 59.504 139.283 59.3292 140.463C59.2855 140.726 59.2636 140.988 59.2636 141.272V146.712C59.2636 149.618 61.6234 152 64.5512 152H87.406C90.312 152 92.6936 149.64 92.6936 146.712V141.272C92.6936 139.764 92.0381 138.388 91.0112 137.426C91.3171 137.033 91.6011 136.574 91.8415 136.05C93.4146 132.597 92.5188 128.533 93.5458 124.906C95.403 118.308 99.9914 109.612 96.3644 102.947C94.0046 98.5994 90.1809 96.9607 85.9639 96.3926C88.9792 93.6614 90.9019 89.7284 90.9019 85.3366C90.9019 77.1212 84.2159 70.4352 76.0005 70.4352C67.785 70.4352 61.099 77.1212 61.099 85.3366C61.099 89.7503 63.0436 93.7051 66.1026 96.4363C66.0152 96.5018 65.9059 96.5455 65.8185 96.6329C60.2906 97.4851 55.6803 99.9104 54.2382 106.968ZM93.5676 106.924C94.1138 109.284 93.0651 111.513 92.4096 113.785C91.5793 116.735 90.749 119.684 89.9187 122.634C89.4162 124.404 88.8918 126.043 88.717 127.856C88.5203 129.997 89.1977 132.838 87.7556 134.651C87.0783 135.503 86.0513 135.831 84.937 135.962H82.0091V135.984C81.7688 135.984 81.5503 135.962 81.3318 135.962C78.7317 135.962 78.7098 140.026 81.3318 140.026C82.1621 140.026 82.9924 140.048 83.8227 140.026H87.406C88.0615 140.026 88.6296 140.594 88.6296 141.25V146.691C88.6296 147.346 88.0615 147.914 87.406 147.914H64.5294C63.8739 147.914 63.3058 147.346 63.3058 146.691V141.25C63.3058 141.184 63.3058 141.119 63.3277 141.053C63.4151 140.463 63.9395 140.005 64.5512 140.005H69.0523C69.3145 140.005 69.5985 140.005 69.8607 140.005C72.4608 140.005 72.4827 135.94 69.8607 135.94C69.7952 135.94 69.7296 135.94 69.6641 135.94H67.1295C65.6874 135.831 64.3983 135.394 63.6117 133.777C62.6722 131.855 63.4806 129.189 63.1966 127.157C62.9999 125.627 62.41 124.098 61.9948 122.612C60.7494 118.133 57.9745 112.408 58.193 107.733C59.2636 103.079 62.2133 101.243 65.7967 100.566C68.5934 106.225 71.412 111.884 74.2088 117.543C74.8643 118.876 77.0493 118.876 77.7047 117.543C80.5234 111.84 83.3419 106.159 86.1606 100.457C89.6565 101.156 92.6062 102.816 93.5676 106.924ZM75.4542 100.26C75.5853 100.26 75.7164 100.26 75.8475 100.26C75.8912 100.26 75.9131 100.26 75.9568 100.26C76.0223 100.26 76.066 100.26 76.1316 100.26C77.8795 100.238 79.846 100.129 81.8343 100.151C79.8679 104.106 77.9232 108.06 75.9568 112.015C74.0122 108.082 72.0675 104.149 70.1229 100.216C71.9146 100.194 73.7281 100.26 75.4542 100.26ZM65.1193 85.3585C65.1193 79.3717 69.9918 74.4992 75.9786 74.4992C81.9654 74.4992 86.8379 79.3717 86.8379 85.3585C86.8379 91.1705 82.2495 95.9119 76.503 96.1741C76.2408 96.1741 76.0005 96.1741 75.7383 96.1959C69.8389 96.0648 65.1193 91.2579 65.1193 85.3585Z" fill="#285596"/>
<path d="M75.6509 139.917C76.7007 139.917 77.5518 139.066 77.5518 138.016C77.5518 136.966 76.7007 136.115 75.6509 136.115C74.601 136.115 73.7499 136.966 73.7499 138.016C73.7499 139.066 74.601 139.917 75.6509 139.917Z" fill="#285596"/>
<path d="M23.7579 90.2528C23.6705 90.2528 23.5613 90.2528 23.4739 90.2528C15.8483 90.1436 8.15725 85.4896 6.69332 83.0861C6.01598 81.9718 6.27818 81.0541 6.47483 80.6171C9.53378 74.3463 16.0668 70.4352 23.4957 70.4352C31.4271 70.4352 37.8946 74.2589 40.8007 80.6608C40.9973 81.0978 41.2158 81.9718 40.5385 83.0206C39.1401 85.1619 31.5801 90.2528 23.7579 90.2528ZM10.6263 81.4911C12.3742 83.0424 17.9022 86.1232 23.5394 86.2106C29.1985 86.298 34.8139 82.9332 36.6274 81.3819C34.1802 77.0119 29.4607 74.5211 23.5176 74.5211C17.9241 74.4992 13.1827 77.0993 10.6263 81.4911Z" fill="#285596"/>
<path d="M10.6263 81.4911C12.3742 83.0424 17.9022 86.1232 23.5394 86.2106C29.1985 86.298 34.8138 82.9332 36.6274 81.3819C34.1802 77.0119 29.4607 74.5211 23.5176 74.5211C17.924 74.4992 13.1827 77.0993 10.6263 81.4911Z" fill="#75C422"/>
<path d="M75.9568 31.3243C81.8343 31.3243 86.5102 33.7496 88.9792 38.054C88.127 38.8187 87.1656 39.5179 86.1387 40.1515C84.7185 40.9381 82.9924 41.7466 81.0914 42.2928C78.6443 42.9483 76.1097 43.1231 73.6189 42.8172C70.254 42.3147 67.1295 40.9163 65.0538 39.6927C64.3764 39.2557 63.7428 38.775 63.131 38.2288C65.7093 33.8807 70.407 31.3243 75.9568 31.3243Z" fill="#BFDCFF"/>
<path d="M128.418 74.4993C134.295 74.4993 138.971 76.9464 141.44 81.229C140.61 81.9719 139.67 82.6492 138.687 83.261C137.18 84.1131 135.257 84.9653 133.203 85.5333C130.865 86.1014 128.462 86.2544 126.102 85.9703C122.737 85.4678 119.612 84.0694 117.537 82.8458C116.859 82.4088 116.226 81.9063 115.614 81.3819C118.17 77.0557 122.868 74.4993 128.418 74.4993Z" fill="#75C422"/>
</svg>
