<svg width="153" height="152" viewBox="0 0 153 152" fill="none" xmlns="http://www.w3.org/2000/svg">
<path d="M115.85 110.49V106.75C115.85 105.635 116.747 104.738 117.862 104.738H146.141C147.256 104.738 148.153 105.635 148.153 106.75V110.49C148.153 111.605 147.256 112.502 146.141 112.502H140.389H117.862C116.747 112.502 115.85 111.605 115.85 110.49Z" fill="#75C422"/>
<path d="M142.401 142.18V145.92C142.401 147.035 141.504 147.932 140.389 147.932H130.328C124.248 147.932 118.168 147.932 112.088 147.932C110.995 147.932 110.076 147.035 110.076 145.92V142.18C110.076 141.065 110.973 140.168 112.088 140.168H117.84H140.367C141.482 140.168 142.401 141.087 142.401 142.18Z" fill="#BFDCFF"/>
<path d="M148.153 130.37V134.11C148.153 135.225 147.256 136.122 146.141 136.122H140.389H117.862C116.747 136.122 115.85 135.225 115.85 134.11V130.37C115.85 129.255 116.747 128.358 117.862 128.358H140.389H146.141C147.256 128.358 148.153 129.255 148.153 130.37Z" fill="#75C422"/>
<path d="M142.401 118.56V122.3C142.401 123.415 141.504 124.312 140.389 124.312H117.862H112.11C110.995 124.312 110.098 123.415 110.098 122.3V118.56C110.098 117.445 110.995 116.548 112.11 116.548H117.862H140.389C141.482 116.548 142.401 117.445 142.401 118.56Z" fill="#BFDCFF"/>
<path d="M40.5065 25.217C36.4823 25.217 33.2018 28.4976 33.2018 32.5217C33.2018 36.5459 36.4823 39.8264 40.5065 39.8264C44.5307 39.8264 47.8112 36.5459 47.8112 32.5217C47.8112 31.8 47.7019 31.122 47.505 30.4659L61.4584 21.5646C62.7488 22.7019 64.4328 23.3799 66.2699 23.3799C68.1508 23.3799 69.8567 22.6581 71.1689 21.4771L85.8002 30.5097C85.669 31.0783 85.5815 31.6469 85.5815 32.2593C85.5815 36.2835 88.8621 39.564 92.8862 39.564C96.9104 39.564 100.191 36.2835 100.191 32.2593C100.191 31.0783 99.9067 29.9629 99.4036 28.9787C103.559 25.042 107.714 21.1054 111.87 17.1687C113.773 15.3753 110.886 12.5102 109.005 14.3036C104.893 18.2184 100.76 22.1114 96.648 26.0262C95.5545 25.3701 94.2641 24.9764 92.9081 24.9764C90.9398 24.9764 89.1683 25.7638 87.856 27.0104L73.3341 18.0435C73.509 17.4092 73.6184 16.7531 73.6184 16.0752C73.6184 12.051 70.3378 8.77039 66.3136 8.77039C62.2895 8.77039 59.0089 12.051 59.0089 16.0752C59.0089 16.7969 59.1183 17.4748 59.3151 18.131L45.3618 27.0322C44.0277 25.9168 42.3436 25.217 40.5065 25.217ZM40.5065 35.7804C38.7131 35.7804 37.2697 34.3151 37.2697 32.5436C37.2697 30.7502 38.735 29.3068 40.5065 29.3068C42.2999 29.3068 43.7433 30.7721 43.7433 32.5436C43.7433 34.3151 42.2999 35.7804 40.5065 35.7804ZM92.8644 29.0224C94.6578 29.0224 96.1012 30.4878 96.1012 32.2593C96.1012 34.0527 94.6359 35.4961 92.8644 35.4961C91.071 35.4961 89.6276 34.0308 89.6276 32.2593C89.6057 30.4878 91.071 29.0224 92.8644 29.0224ZM66.2699 12.8383C68.0633 12.8383 69.5067 14.3036 69.5067 16.0752C69.5067 17.8467 68.0414 19.312 66.2699 19.312C64.4765 19.312 63.0331 17.8467 63.0331 16.0752C63.0331 14.3036 64.4765 12.8383 66.2699 12.8383Z" fill="#285596"/>
<path d="M114.582 10.8262C114.582 11.876 115.435 12.729 116.485 12.729C117.534 12.729 118.387 11.876 118.387 10.8262C118.387 9.77646 117.534 8.92352 116.485 8.92352C115.413 8.92352 114.582 9.77646 114.582 10.8262Z" fill="#285596"/>
<path d="M126.151 15.3753C126.567 10.9356 126.96 6.47402 127.376 2.03432C127.463 0.962669 126.37 -0.0215127 125.342 0.000357768C120.99 0.131581 116.659 0.262814 112.307 0.394037C109.705 0.481519 109.683 4.52752 112.307 4.46191C115.916 4.35256 119.503 4.24321 123.111 4.13385C122.761 7.8737 122.433 11.6355 122.083 15.3753C121.843 17.956 125.911 17.956 126.151 15.3753Z" fill="#285596"/>
<path d="M152.199 110.49V106.75C152.199 103.404 149.487 100.692 146.141 100.692H117.862C114.516 100.692 111.804 103.404 111.804 106.75V110.49C111.804 111.19 111.935 111.868 112.154 112.502H112.11C108.764 112.502 106.052 115.214 106.052 118.56V122.3C106.052 125.646 108.764 128.358 112.11 128.358H112.154C111.935 128.992 111.804 129.648 111.804 130.37V134.11C111.804 134.81 111.935 135.488 112.154 136.122H112.11C108.764 136.122 106.052 138.834 106.052 142.18V145.92C106.052 146.62 106.183 147.298 106.402 147.932C76.9864 147.932 47.5707 147.932 18.1549 147.932C13.4965 147.932 8.81621 147.932 4.15781 147.932C4.15781 139.971 4.15781 131.989 4.15781 124.028C4.15781 110.293 8.68499 97.6957 21.1074 90.391C29.7025 85.3389 38.8881 85.7107 48.4018 85.7107C59.3151 85.7107 70.2285 85.7107 81.1199 85.7107C93.8267 85.7107 105.702 85.1858 116.288 93.934C118.278 95.5961 121.165 92.7311 119.153 91.0689C111.017 84.3547 102.203 82.2989 92.5363 81.7959L101.525 60.166C102.597 57.5634 102.312 54.6328 100.76 52.2926C99.2068 49.9525 96.6042 48.5528 93.7829 48.5528H39.063C36.1762 48.5528 33.5517 49.9962 31.9989 52.4239C30.4461 54.8515 30.2493 57.8477 31.474 60.4722L41.3157 81.599C35.367 81.6865 29.4838 82.2114 23.8412 84.5297C9.40672 90.4785 0.330487 104.585 0.0680414 120.047C-0.0850518 130.02 0.0680414 139.993 0.0680414 149.966C0.0680414 151.06 1.00846 152 2.10198 152C38.7569 152 75.4118 152 112.067 152H140.345C143.691 152 146.403 149.288 146.403 145.942V142.202C146.403 141.502 146.272 140.824 146.053 140.19H146.097C149.443 140.19 152.155 137.478 152.155 134.132V130.392C152.155 127.046 149.443 124.334 146.097 124.334H146.053C146.272 123.7 146.403 123.044 146.403 122.322V118.582C146.403 117.882 146.272 117.204 146.053 116.57H146.097C149.487 116.548 152.199 113.836 152.199 110.49ZM35.4544 54.6109C36.2636 53.3424 37.5977 52.6207 39.1068 52.6207H93.8267C95.292 52.6207 96.6042 53.3205 97.4134 54.5453C98.2226 55.77 98.3757 57.2572 97.8071 58.6132L88.4028 81.2054H45.6242L35.192 58.7882C34.5359 57.3885 34.6452 55.8794 35.4544 54.6109ZM115.85 110.49V106.75C115.85 105.635 116.747 104.738 117.862 104.738H146.141C147.256 104.738 148.153 105.635 148.153 106.75V110.49C148.153 111.605 147.256 112.502 146.141 112.502H140.389H117.862C116.747 112.502 115.85 111.605 115.85 110.49ZM142.401 142.18V145.92C142.401 147.035 141.504 147.932 140.389 147.932H130.328C124.248 147.932 118.168 147.932 112.089 147.932C110.995 147.932 110.076 147.035 110.076 145.92V142.18C110.076 141.065 110.973 140.168 112.089 140.168H117.84H140.367C141.482 140.168 142.401 141.087 142.401 142.18ZM148.153 130.37V134.11C148.153 135.225 147.256 136.122 146.141 136.122H140.389H117.862C116.747 136.122 115.85 135.225 115.85 134.11V130.37C115.85 129.255 116.747 128.358 117.862 128.358H140.389H146.141C147.256 128.358 148.153 129.255 148.153 130.37ZM142.401 118.56V122.3C142.401 123.415 141.504 124.312 140.389 124.312H117.862H112.11C110.995 124.312 110.098 123.415 110.098 122.3V118.56C110.098 117.445 110.995 116.548 112.11 116.548H117.862H140.389C141.482 116.548 142.401 117.445 142.401 118.56Z" fill="#285596"/>
<path d="M78.6049 97.1708C67.9102 91.1127 54.3505 93.3435 47.0239 103.513C40.4628 112.611 41.3813 125.406 49.036 133.541C56.6906 141.677 69.5068 143.252 78.911 137.259C89.5182 130.501 92.3832 117.16 87.0468 106.116C85.9096 103.776 82.4103 105.831 83.5476 108.172C88.0091 117.401 85.3191 128.752 76.2866 134.11C68.4788 138.747 58.1122 137.412 51.901 130.698C45.8867 124.159 44.9243 114.186 49.7577 106.684C55.619 97.5864 67.3853 95.4868 76.549 100.692C78.8454 101.96 80.8794 98.4612 78.6049 97.1708Z" fill="#285596"/>
<path d="M81.9291 104.41C82.98 104.41 83.8319 103.558 83.8319 102.507C83.8319 101.456 82.98 100.604 81.9291 100.604C80.8783 100.604 80.0264 101.456 80.0264 102.507C80.0264 103.558 80.8783 104.41 81.9291 104.41Z" fill="#285596"/>
<path d="M66.2262 110.621C67.7571 110.621 69.0694 111.715 69.0694 113.005C69.0694 114.099 69.966 114.995 71.0596 114.995C72.1531 114.995 73.0498 114.099 73.0498 113.005C73.0498 110.359 71.2783 107.975 68.6319 107.034L68.2601 106.903L68.2383 106.51C68.1727 105.46 67.2978 104.651 66.2481 104.651C65.1983 104.651 64.3235 105.46 64.2579 106.51L64.236 106.903L63.8642 107.034C61.2178 107.975 59.4464 110.359 59.4464 113.005C59.4464 116.526 62.5082 119.369 66.2699 119.369C67.8009 119.369 69.1131 120.463 69.1131 121.753C69.1131 123.044 67.8227 124.137 66.2699 124.137C64.739 124.137 63.4268 123.044 63.4268 121.753C63.4268 120.66 62.5301 119.763 61.4366 119.763C60.343 119.763 59.4464 120.66 59.4464 121.753C59.4464 124.4 61.2397 126.805 63.886 127.724L64.236 127.855L64.2797 128.227C64.4109 129.211 65.2639 129.955 66.2481 129.955C67.2322 129.955 68.0852 129.211 68.2164 128.227L68.2601 127.855L68.6101 127.724C71.2564 126.805 73.0498 124.4 73.0498 121.753C73.0498 118.232 69.9879 115.389 66.2262 115.389C64.6953 115.389 63.383 114.295 63.383 113.005C63.383 111.715 64.6953 110.621 66.2262 110.621Z" fill="#285596"/>
<path d="M40.5065 35.7804C38.7131 35.7804 37.2697 34.3151 37.2697 32.5436C37.2697 30.7502 38.735 29.3068 40.5065 29.3068C42.2999 29.3068 43.7433 30.7721 43.7433 32.5436C43.7433 34.3151 42.2999 35.7804 40.5065 35.7804Z" fill="#75C422"/>
<path d="M92.8644 29.0225C94.6578 29.0225 96.1012 30.4878 96.1012 32.2593C96.1012 34.0527 94.6359 35.4961 92.8644 35.4961C91.071 35.4961 89.6276 34.0308 89.6276 32.2593C89.6057 30.4878 91.071 29.0225 92.8644 29.0225Z" fill="#75C422"/>
<path d="M69.4038 16.8849C69.8146 15.1451 68.7373 13.4018 66.9976 12.991C65.2578 12.5802 63.5145 13.6575 63.1037 15.3972C62.6929 17.137 63.7702 18.8803 65.5099 19.2911C67.2496 19.7019 68.993 18.6246 69.4038 16.8849Z" fill="#BFDCFF"/>
<path d="M35.4544 54.6109C36.2636 53.3424 37.5978 52.6207 39.1068 52.6207H93.8267C95.292 52.6207 96.6042 53.3205 97.4134 54.5453C98.2227 55.77 98.3757 57.2572 97.8071 58.6132L88.4028 81.2054H45.6242L35.192 58.7882C34.5359 57.3885 34.6452 55.8794 35.4544 54.6109Z" fill="#BFDCFF"/>
</svg>
